<svg width="44" height="49" viewBox="0 0 44 49" fill="none" xmlns="http://www.w3.org/2000/svg">
    <defs>
        <linearGradient id="paint0_linear_3_1915" x1="21.7273" y1="4.6987" x2="21.7273" y2="45" gradientUnits="userSpaceOnUse">
            <stop stop-color="#FFC722"/>
            <stop offset="0.421875" stop-color="#EBC75C"/>
            <stop offset="1" stop-color="#FACB41"/>
        </linearGradient>
        <linearGradient id="paint1_linear_3_1915" x1="21.7273" y1="4.6987" x2="21.7273" y2="45" gradientUnits="userSpaceOnUse">
            <stop stop-color="#FFFE74"/>
            <stop offset="0.21875" stop-color="#FED65C"/>
            <stop offset="1" stop-color="#C19100"/>
        </linearGradient>
    </defs>

    <mask id="path-1-outside-1_3_1915" maskUnits="userSpaceOnUse" x="0" y="0.6987" width="44" height="49" fill="black">
<rect fill="white" y="0.6987" width="44" height="49"/>
<path d="M1 24.8494C1 13.7205 10.0218 4.6987 21.1507 4.6987H22.3039C33.4328 4.6987 42.4545 13.7205 42.4545 24.8494C42.4545 35.9783 33.4328 45 22.3039 45H21.1506C10.0217 45 1 35.9783 1 24.8494Z"/>
</mask>
<path d="M1 24.8494C1 13.7205 10.0218 4.6987 21.1507 4.6987H22.3039C33.4328 4.6987 42.4545 13.7205 42.4545 24.8494C42.4545 35.9783 33.4328 45 22.3039 45H21.1506C10.0217 45 1 35.9783 1 24.8494Z" fill="url(#paint0_linear_3_1915)"/>
<path d="M12.7275 24.8494H30.7275M16.7275 28.8494L12.7275 24.8494L16.7275 28.8494ZM12.7275 24.8494L16.7275 20.8494L12.7275 24.8494Z" stroke="white" stroke-width="3" stroke-linecap="round" stroke-linejoin="round"/>
<path d="M0 21.8494C0 10.1682 9.46947 0.6987 21.1507 0.6987H22.3039C33.9851 0.6987 43.4545 10.1682 43.4545 21.8494L41.4545 24.8494C41.4545 15.9296 32.8805 8.6987 22.3039 8.6987H21.1507C10.574 8.6987 2 15.9296 2 24.8494L0 21.8494ZM43.4545 27.8494C43.4545 39.5305 33.9851 49 22.3039 49H21.1507C9.46947 49 0 39.5305 0 27.8494L2 24.8494C2 33.7691 10.574 41 21.1507 41H22.3039C32.8805 41 41.4545 33.7691 41.4545 24.8494L43.4545 27.8494ZM21.1507 49C9.46947 49 0 39.5305 0 27.8494V21.8494C0 10.1682 9.46947 0.6987 21.1507 0.6987V8.6987C10.574 8.6987 2 15.9296 2 24.8494C2 33.7691 10.574 41 21.1507 41V49ZM22.3039 0.6987C33.9851 0.6987 43.4545 10.1682 43.4545 21.8494V27.8494C43.4545 39.5305 33.9851 49 22.3039 49V41C32.8805 41 41.4545 33.7691 41.4545 24.8494C41.4545 15.9296 32.8805 8.6987 22.3039 8.6987V0.6987Z" fill="url(#paint1_linear_3_1915)" mask="url(#path-1-outside-1_3_1915)"/>
<ellipse rx="3.1474" ry="1.55862" transform="matrix(0.937682 -0.347496 0.365044 0.93099 11.0315 5.54477)" fill="white" fill-opacity="0.5"/>
</svg>
