<svg width="291" height="412" viewBox="0 0 291 412" fill="none" xmlns="http://www.w3.org/2000/svg">
<path d="M25.3065 36.6759C25.2053 37.7018 25.0536 38.6811 25.1042 39.707C25.1548 41.106 25.5087 42.3651 25.2053 43.8107C24.6491 46.2356 23.9413 48.0543 25.0031 50.4325C24.902 49.6398 24.8008 48.847 24.6997 48.0076C24.1941 50.2926 24.902 52.7642 25.1548 55.0492C25.4076 57.7072 25.1042 60.3653 24.6491 62.9767C23.6379 68.6659 24.093 74.5882 24.093 80.3241C24.093 86.4796 24.1941 92.6351 24.4469 98.7906C24.548 101.495 24.6997 104.247 24.8514 106.951C24.9525 109.936 25.7615 112.78 26.0143 115.718C26.2166 118.47 26.1155 121.221 26.1155 123.972C26.1155 126.397 26.4188 128.729 26.4188 131.107C26.4188 132.18 26.9245 133.159 27.0762 134.231C27.2278 135.63 27.0256 137.123 26.9245 138.522C26.7222 141.599 26.7222 144.631 26.6717 147.708C26.5705 153.817 26.3683 159.973 26.2166 166.082C26.1155 169.019 26.2166 171.911 26.5705 174.848C26.8739 177.367 26.6211 179.885 26.7222 182.403C26.8233 185.761 27.2278 189.071 27.2278 192.476C27.2278 195.693 27.329 198.864 27.7335 202.082C28.138 205.16 28.2391 208.331 28.7447 211.409C29.2504 214.58 30.7167 217.751 31.7279 220.828C32.2841 222.554 34.4583 221.761 34.5594 220.222C34.7617 217.098 33.6999 214.3 33.5988 211.222C33.4471 208.004 33.6999 204.833 33.2954 201.616C32.5369 195.507 32.7897 189.305 32.3852 183.149C32.2336 180.491 32.4864 177.88 32.2336 175.222C31.8796 171.817 31.7279 168.506 31.6774 165.102C31.5762 158.527 31.374 151.952 31.2729 145.377C31.2223 142.159 31.1717 138.941 30.9189 135.724C30.7167 133.159 29.6549 130.967 29.1998 128.496C28.6436 125.465 28.7953 122.293 28.8459 119.216C28.8964 116.278 28.6436 113.293 28.8459 110.402C29.756 97.345 29.8065 84.2878 29.756 71.1841C29.756 64.5156 31.5257 58.2202 29.9582 51.5517C29.7054 50.3859 29.402 49.1734 29.0987 48.0076C28.7447 46.7019 27.8346 46.1423 27.7335 45.6294C27.5312 44.5102 27.6323 43.3444 27.4301 42.2252C27.1267 40.4531 26.7222 38.7744 26.6211 36.9557C26.4694 36.1163 25.4076 35.6966 25.3065 36.6759Z" fill="#C7C7C7" fill-opacity="0.1"/>
<path d="M10.1378 12.7535C7.40741 13.5929 7.76135 19.2354 7.66023 20.9608C7.5591 22.6862 7.45798 24.5515 7.66023 26.2303C7.81192 27.3961 8.3681 28.4687 8.46923 29.5879C8.62092 31.0335 8.46923 32.619 8.46923 34.0646C8.46923 36.8159 8.46923 39.6139 8.46923 42.3652C8.46923 43.6709 8.3681 44.9767 8.31754 46.2824C8.26697 47.5881 8.06472 49.7798 8.97485 50.8524C9.02542 50.9456 9.02542 51.0389 9.07598 51.1322C9.22767 49.5467 9.12654 49.4068 8.82316 50.7591C8.67148 51.4586 8.62092 52.1581 8.62092 52.9042C8.67148 54.0234 8.97486 55.0959 9.12654 56.1685C9.58161 59.0597 9.48048 61.9509 9.98611 64.8422C10.4917 67.7334 10.6434 70.5314 10.7446 73.4692C10.7951 76.2205 11.6041 78.9252 11.5536 81.6299C11.503 84.2414 11.6547 86.9461 11.4019 89.5575C11.3007 90.8632 10.7951 92.0757 10.5423 93.3347C10.1884 94.8736 10.3906 96.2726 10.4917 97.8581C10.8457 103.687 10.8457 109.47 11.4524 115.252C12.0592 121.035 11.9075 126.91 12.0086 132.693C12.0592 135.351 12.7671 137.356 13.9806 139.688C15.2446 142.159 14.6379 145.097 14.2334 147.755C13.2727 153.864 13.5255 159.693 13.4749 165.849C13.4244 172.097 13.6266 178.253 14.739 184.408C15.8008 190.284 16.5593 196.206 18.0256 201.989C21.0088 213.74 18.1773 226.098 19.7953 238.036C20.1998 240.88 20.7054 243.725 20.9077 246.57C21.1605 249.787 20.9077 253.005 21.0088 256.176C21.1099 258.694 21.6661 261.166 21.7167 263.684C21.8178 266.762 21.3627 269.793 20.9077 272.824C19.947 279.679 18.9357 286.581 18.8852 293.529C18.8852 296.607 19.7953 299.218 20.6549 302.156C21.6156 305.467 20.6043 308.265 19.8964 311.529C18.4807 317.964 18.7335 324.586 17.3177 331.021C15.9525 337.27 14.7896 343.939 14.8907 350.374C14.8907 351.353 15.4975 352.985 16.8121 352.939C18.2278 352.892 18.5312 351.26 18.6323 350.281C18.9863 344.685 20.0481 338.856 21.3627 333.4C22.6774 327.804 23.0819 322.255 24.0931 316.612C25.1044 310.876 27.4303 305.84 25.9134 299.964C25.2561 297.353 24.3965 295.254 24.4471 292.596C24.5482 289.705 24.6999 286.814 25.0538 283.922C25.7111 278 26.9752 272.078 27.228 266.109C27.3292 263.451 27.0258 260.839 26.6718 258.181C26.2673 255.15 26.6718 252.119 26.5707 249.088C26.419 243.259 24.9527 237.523 24.5988 231.694C24.2448 225.772 24.801 219.756 24.7504 213.834C24.6999 201.942 20.8571 190.471 19.3402 178.673C18.5818 172.89 19.0874 167.108 18.9357 161.325C18.8852 158.667 18.6323 155.962 18.9863 153.304C19.4414 150.18 20.0481 147.102 20.1492 143.931C20.2504 141.226 19.8964 138.475 18.7335 136.004C18.329 135.211 17.6211 134.325 17.4188 133.485C17.0649 132.086 17.4694 130.221 17.4694 128.776C17.52 126.071 17.2672 123.413 17.0143 120.708C16.8121 117.91 16.8121 115.159 16.3065 112.407C15.3458 106.812 15.7503 101.029 14.2334 95.5265C13.5255 92.9617 13.93 90.257 13.93 87.5989C13.93 84.9875 14.2334 82.3294 14.0311 79.7646C13.8289 76.8268 13.5255 74.0288 13.5761 71.0443C13.6772 67.7334 12.9693 64.5157 12.8682 61.2048C12.7671 58.3602 13.1716 55.6555 13.9806 52.9508C14.4356 51.5052 14.4862 50.0596 14.1323 48.614C13.7278 47.0751 13.7783 46.2824 13.8289 44.6502C13.93 41.7124 13.8289 38.7279 13.8289 35.79C13.8289 32.8055 14.1828 29.6345 13.3233 26.6967C12.7671 24.7381 12.7165 22.9194 12.4637 20.9142C12.3626 20.1214 12.2109 19.3287 12.1603 18.5359C12.1603 18.2561 12.1603 17.8831 12.1097 17.6033C11.9075 16.3442 12.9188 17.2768 11.1491 18.2095C13.4244 17.0437 13.0704 11.8208 10.1378 12.7535Z" fill="#B0ECFF" fill-opacity="0.07"/>
<path d="M34.2561 233.977C34.2561 233.884 34.2561 233.79 34.3067 233.697C34.4584 232.485 33.0426 231.598 32.7392 233.137C32.4864 234.257 31.8797 235.143 31.7786 236.355C31.6269 237.567 31.6269 238.78 31.5257 239.946C31.3235 242.371 32.0819 244.609 32.0819 246.987C32.0819 249.459 32.4359 251.93 32.3347 254.402C32.1831 257.246 32.4359 259.905 32.9415 262.702C33.346 265.174 33.2954 267.646 33.2954 270.117C33.2954 272.542 33.7505 275.293 33.0426 277.625C31.5257 282.988 30.7673 288.024 31.4246 293.573C31.728 296.231 32.2336 298.75 32.2842 301.408C32.2842 304.159 32.4359 306.957 32.3347 309.708C32.2842 312.413 31.8291 315.071 31.7786 317.776C31.728 320.574 31.9808 323.372 31.6774 326.17C31.4246 328.781 30.919 331.392 30.3122 333.957C29.6549 336.848 29.6044 339.74 29.301 342.678C28.7954 347.854 28.9976 353.403 29.6044 358.579C29.9583 361.47 30.5145 364.268 30.565 367.206C30.6156 370.191 30.6662 373.222 30.6662 376.206C30.6662 379.611 30.5651 382.968 30.3628 386.372C30.2111 388.191 31.1718 391.362 30.0089 392.901C29.6044 393.46 30.2111 395.233 30.919 394.44C31.9302 393.321 32.0819 392.062 32.0819 390.663C32.0314 388.238 32.0819 385.859 32.2336 383.434C32.6381 378.025 32.3348 372.569 32.537 367.113C32.6887 361.704 32.5876 356.341 32.8404 350.978C33.0932 345.149 34.4078 339.74 35.9247 334.097C37.4416 328.408 37.1382 322.952 37.391 317.169C37.6438 311.527 37.9978 306.024 37.8967 300.335C37.7955 294.786 36.0764 289.563 37.2393 284.014C37.7955 281.495 38.8068 279.21 38.9079 276.599C39.0596 273.801 38.8573 271.003 38.8573 268.252C38.8573 264.987 38.4023 261.91 37.8967 258.692C37.4416 255.801 37.9472 252.91 37.4922 250.018C37.0877 247.36 36.0258 244.702 35.0651 242.137C34.0033 239.34 34.2561 236.169 34.4078 233.277C33.8516 233.277 33.346 233.324 32.7898 233.324C32.7898 233.417 32.7898 233.51 32.7898 233.65C32.7393 234.77 34.1044 235.282 34.2561 233.977Z" fill="#C7C7C7" fill-opacity="0.1"/>
<path d="M6.8512 194.013C6.90176 193.92 6.95232 193.827 7.00289 193.733C6.54782 193.733 6.09276 193.733 5.63769 193.78C5.99163 194.246 5.23319 195.925 5.0815 196.485C4.87925 197.371 4.67699 198.257 4.5253 199.143C3.96911 202.267 3.51405 205.392 3.00842 208.469C2.50279 211.407 2.9073 214.532 2.9073 217.516C2.9073 220.967 3.51405 224.418 3.46349 227.869C3.46349 230.853 3.41293 233.838 3.36237 236.775C3.3118 240.319 2.60392 243.724 3.00842 247.268C3.36236 250.299 4.37362 253.237 4.77812 256.221C5.18262 259.532 4.92981 262.936 4.47475 266.201C4.01968 269.138 4.07024 272.17 3.56461 275.107C3.3118 276.646 2.65448 278.092 2.40167 279.631C2.09829 281.31 1.84548 282.988 1.59267 284.667C1.1376 287.652 0.935347 290.683 0.98591 293.714C0.98591 296.932 0.834224 300.289 1.79492 303.46C3.76687 309.989 3.36237 317.357 3.21068 324.118C3.10955 327.383 2.19942 330.554 2.19942 333.818C2.19942 335.124 2.5028 336.383 2.55336 337.688C2.70505 339.694 2.14886 341.699 2.0983 343.704C2.04773 347.481 2.45223 351.212 1.89604 354.943C1.39041 358.58 0.98591 362.124 0.98591 365.808C0.98591 369.445 1.18816 373.129 1.49154 376.767C1.74435 380.311 2.30055 383.808 1.94661 387.352C1.89604 388.098 2.9073 389.311 3.26124 388.098C3.56461 387.166 3.96911 386.373 4.01968 385.394C4.1208 383.808 3.76686 382.129 3.66574 380.591C3.41292 376.813 3.10955 373.036 3.00842 369.305C2.80617 362.357 4.22193 355.549 4.12081 348.601C4.07025 345.429 4.22193 342.445 4.47475 339.321C4.57587 337.735 4.12081 336.243 4.07024 334.657C3.96912 332.512 4.42418 330.367 4.72756 328.269C5.18263 325.191 5.0815 322.113 5.13206 319.035C5.18263 315.212 5.38488 311.341 5.486 307.517C5.53656 305.932 5.33431 304.486 5.18262 302.947C4.98037 301.222 5.18262 299.59 5.28375 297.911C5.43543 294.6 5.23319 291.289 5.73882 287.978C6.24444 284.76 7.15458 281.729 8.16583 278.605C9.12652 275.574 9.27821 272.216 9.78384 269.092C10.2895 265.688 10.6434 262.237 10.5423 258.786C10.4412 255.289 9.63215 252.024 8.92427 248.62C8.21639 245.216 8.72202 241.998 8.92427 238.594C9.12652 235.33 9.02539 231.972 9.07596 228.708C9.12652 224.651 8.4692 220.687 8.4692 216.63C8.4692 214.765 8.31751 212.853 8.31751 210.987C8.36808 209.542 8.77258 208.096 8.82314 206.651C8.97483 203.48 8.82314 200.355 8.57033 197.231C8.41864 195.552 8.21639 192.987 6.75007 191.821C6.04219 191.262 5.486 192.148 5.33431 192.661C5.28375 192.754 5.28375 192.894 5.23319 192.987C5.0815 193.547 6.19388 195.226 6.8512 194.013Z" fill="#C7C7C7" fill-opacity="0.1"/>
<path d="M43.4081 91.9792C42.953 95.3834 42.1946 98.6477 41.4867 102.005C40.7283 105.503 40.9305 109.233 40.9305 112.777C40.88 116.368 40.8294 119.912 40.8294 123.503C40.8294 126.814 40.3238 129.985 40.071 133.249C39.5653 140.197 38.908 147.099 38.7058 154.047C38.5035 160.856 39.3125 167.477 39.6159 174.239C39.9193 181.374 39.5148 188.649 40.526 195.737C40.7788 197.369 41.1328 198.861 41.1328 200.493C41.1328 202.032 41.0822 203.525 41.1833 205.063C41.335 208.514 41.9418 211.918 41.9418 215.416C41.9418 218.26 42.5991 220.965 43.0036 223.716C43.5598 227.307 43.9643 230.945 44.2677 234.582C44.7733 241.297 45.38 247.919 45.38 254.681C45.38 262.748 45.7846 270.676 46.543 278.696C47.2509 286.018 45.9362 293.665 47.5543 300.847C48.0093 302.852 49.9307 301.593 49.6273 299.961C48.4644 293.246 49.6273 286.298 48.97 279.489C48.3127 272.494 47.7565 265.593 47.7565 258.598C47.7565 255.194 47.8071 251.836 47.7565 248.432C47.7059 244.934 47.0486 241.484 46.7452 237.986C46.2396 231.504 45.2789 225.069 44.7733 218.634C44.5205 215.602 45.2789 212.618 45.0767 209.587C44.8744 206.229 45.1272 202.965 45.1272 199.607C45.1272 196.576 44.7733 193.638 44.9755 190.654C45.1778 186.69 45.3295 182.726 45.2789 178.716C45.1778 171.861 44.0149 165.053 44.116 158.244C44.1665 155.027 44.116 151.762 44.3688 148.545C44.6722 144.954 45.2284 141.41 45.3295 137.819C45.4306 133.995 46.1891 130.171 46.2902 126.347C46.3913 122.663 46.2902 119.026 46.2902 115.342C46.2902 111.472 45.8857 107.508 46.0374 103.591C46.1385 101.539 46.5936 99.5337 46.543 97.5285C46.4924 95.6165 46.0374 93.7512 45.734 91.8859C45.5317 90.3471 43.6104 90.4403 43.4081 91.9792Z" fill="#C7C7C7" fill-opacity="0.1"/>
<path d="M45.4811 310.594C43.3575 317.776 43.3575 325.33 43.3575 332.745C43.3575 336.522 43.3069 340.299 43.3575 344.077C43.408 347.574 42.9024 350.978 42.8518 354.476C42.8013 358.253 42.7507 362.077 42.9024 365.807C43.1046 369.445 43.6608 372.989 43.408 376.626C42.8518 384.181 44.4193 391.782 45.2788 399.243C45.38 400.315 46.7452 400.968 46.9474 399.523C47.807 392.201 45.7845 384.833 47.1497 377.512C48.5654 370.144 48.4137 362.73 48.4137 355.268C48.4137 351.864 49.0205 348.553 48.9194 345.149C48.8182 341.418 48.8688 337.688 48.8688 334.004C48.8688 326.263 48.9699 318.335 46.7957 310.827C46.644 310.175 45.7339 309.708 45.4811 310.594Z" fill="#C7C7C7" fill-opacity="0.1"/>
<path d="M40.8798 78.4092C40.7787 78.4558 40.7282 78.5025 40.627 78.5491C37.9978 79.9947 40.9304 84.2383 42.1945 82.0932C43.6608 79.575 43.863 76.5905 44.4698 73.8392C45.0766 70.9946 44.9249 68.1966 44.8743 65.352C44.7732 61.9479 43.863 58.6369 43.7114 55.2794C43.6102 52.0617 44.0653 49.0772 43.4585 45.8129C42.8518 42.5953 42.3462 39.5642 42.2956 36.2999C42.245 33.1289 41.8405 30.1444 41.2844 27.02C41.0315 25.5277 41.1832 24.0355 40.9304 22.5899C40.6776 21.051 40.2225 19.5588 40.0203 17.9733C39.6158 14.5224 39.5652 11.0716 39.1607 7.6208C39.0596 6.78141 37.9978 6.26845 37.8461 7.38764C37.1382 13.5898 37.1382 19.7919 36.7337 25.9474C36.5314 29.1185 36.9359 32.3361 36.7843 35.5071C36.6326 38.958 36.8854 42.2222 37.5933 45.5798C37.8966 46.9788 38.2506 48.3777 38.3517 49.8234C38.4528 51.4089 38.1495 53.041 38.0989 54.6265C38.0483 57.8908 39.1607 61.0618 39.3124 64.3261C39.4135 67.1707 39.6663 70.0153 39.4135 72.8599C39.2618 74.3988 39.5652 75.891 39.5147 77.4765C39.4641 79.062 39.2618 80.1812 39.818 81.7667C40.4753 80.7874 41.1327 79.8082 41.79 78.8289C41.6383 78.7356 41.5372 78.689 41.3855 78.5957C41.2338 78.4092 41.0315 78.3159 40.8798 78.4092Z" fill="#C7C7C7" fill-opacity="0.1"/>
<path d="M48.7677 22.4497C48.7172 24.1751 49.1217 25.8539 49.4756 27.5793C49.8801 29.5379 49.9812 31.4965 50.2341 33.5017C50.7902 37.7452 51.4476 41.8023 51.2959 46.1391C51.1947 50.2428 51.397 54.1599 51.5993 58.2636C51.7004 60.0357 51.2453 61.8077 51.2959 63.6264C51.2959 65.4917 51.9532 67.2637 51.9532 69.129C52.0038 72.9995 52.8633 77.0099 53.4701 80.8338C53.7734 82.6991 53.7735 84.5644 54.1274 86.4297C54.5319 88.4816 55.3915 90.4402 55.5431 92.492C56.3016 101.259 56.4027 110.119 55.4926 118.839C55.0375 123.176 55.1386 127.466 54.7341 131.803C54.3802 136 54.8858 140.197 54.4308 144.394C53.9251 148.684 53.1161 152.975 52.9139 157.311C52.7116 161.602 53.015 165.938 53.7229 170.182C54.4308 174.705 54.6836 178.996 54.7847 183.566C54.8858 188.089 55.5431 192.612 55.8971 197.136C56.251 201.659 56.9083 206.136 57.2623 210.613C57.6162 214.763 57.6668 218.96 58.1218 223.11C58.6275 228.146 59.2848 233.183 59.7904 238.219C60.2961 242.929 61.0545 247.686 61.3579 252.442C61.7118 257.245 62.7231 262.002 63.1781 266.805C63.6838 271.655 63.3298 276.178 65.858 280.655C67.2737 283.173 69.2457 280.701 68.8917 278.789C68.0322 274.453 68.285 270.256 67.8805 265.872C67.476 261.629 66.6164 257.478 66.2625 253.281C65.9085 249.131 65.2006 245.027 64.7961 240.877C64.3411 236.447 63.7849 231.97 63.2793 227.54C62.268 219.1 61.459 210.706 60.0938 202.265C59.3859 197.789 58.8803 193.312 58.2735 188.835C57.6162 184.358 57.9196 179.882 57.4645 175.405C57.06 171.115 55.9477 166.964 55.6948 162.628C55.3915 157.964 55.5937 153.441 56.0993 148.778C56.5544 144.674 56.7567 140.57 56.7061 136.42C56.6555 132.363 57.1612 128.306 57.414 124.249C57.7173 119.632 58.9309 115.155 59.2848 110.539C59.5882 106.342 59.6387 102.098 59.7904 97.9014C59.9421 93.8443 59.9927 90.0671 59.3859 86.0101C58.7792 82.0463 58.7286 78.0359 58.1724 74.0721C57.869 71.927 57.5657 70.015 57.414 67.8699C57.3128 66.0046 56.605 64.2792 56.6555 62.3673C56.8072 57.8905 56.1499 53.5537 56.0993 49.0303C56.0993 44.4137 55.8971 39.7504 54.8858 35.1804C54.4308 33.1286 54.0263 31.0768 53.6218 29.0249C53.1667 26.7866 51.7509 24.6415 51.4981 22.4031C51.2959 20.0715 48.8689 20.0715 48.7677 22.4497Z" fill="#C7C7C7" fill-opacity="0.1"/>
<path d="M66.0097 297.91C65.2513 301.315 65.5041 304.672 66.0097 308.076C66.3131 310.222 66.3636 312.32 66.2119 314.465C66.0603 316.61 65.3524 318.709 65.2007 320.9C64.8973 325.47 65.3524 330.04 64.9479 334.61C64.5434 339.274 64.4928 343.89 64.5434 348.554C64.5939 352.89 64.1389 357.274 64.5939 361.611C65.049 366.274 65.4029 370.984 65.4535 375.647C65.5546 380.357 66.1614 384.88 67.83 389.357C68.7401 391.735 70.1558 396.399 73.0885 397.285C74.4031 397.658 74.9088 395.839 74.6559 394.953C73.493 391.362 72.684 387.585 71.8244 383.901C70.8132 379.611 71.1671 375.321 70.712 370.984C70.5098 368.932 70.712 366.88 70.5604 364.828C70.4087 362.59 69.9536 360.445 69.9536 358.16C69.9536 353.87 70.0547 349.533 70.0547 345.243C70.0547 340.813 70.5098 336.429 70.5604 331.999C70.6109 327.802 70.1053 323.465 70.9143 319.362C71.7233 315.258 71.7233 311.108 70.4087 307.097C69.3974 303.879 67.4255 301.082 66.6165 297.864C66.5659 297.444 66.1108 297.444 66.0097 297.91Z" fill="#C7C7C7" fill-opacity="0.1"/>
<path d="M82.7459 387.958C82.6953 388.051 82.6447 388.144 82.5942 388.237C83.3526 388.097 84.1616 387.911 84.9201 387.771C84.9706 387.864 85.274 386.046 85.3246 385.626C85.4257 384.507 85.4762 383.434 85.4257 382.315C85.2234 379.704 85.274 377.139 85.3751 374.481C85.5774 369.584 86.083 364.734 86.2347 359.838C86.3864 355.082 87.2459 350.651 87.9538 345.942C88.2572 343.796 89.1673 341.978 89.8246 339.926C90.5325 337.688 90.7853 335.496 90.9876 333.164C91.4932 328.314 91.8472 323.558 91.8472 318.708C91.8472 313.812 92.2517 308.775 91.746 303.926C90.6336 293.993 87.9538 284.293 86.5886 274.407C86.2853 272.122 85.7796 269.884 85.6785 267.599C85.5774 265.314 85.4763 263.122 84.8189 260.884C83.5549 256.593 82.3414 252.303 81.0267 248.013C80.3188 245.681 79.5604 243.303 79.1559 240.878C78.802 238.453 78.6503 236.028 78.1446 233.603C77.639 231.272 77.0323 228.987 76.5772 226.655C76.0716 223.997 76.0716 221.432 75.9704 218.774C75.8693 213.645 75.4648 208.468 75.5154 203.339C75.5659 198.442 75.8187 193.546 75.2626 188.65C74.7064 183.8 74.403 179.136 74.4536 174.24C74.5041 169.297 74.4536 164.354 74.2513 159.364C73.8468 148.172 74.3524 136.934 75.3131 125.789C75.7682 120.706 76.6783 115.903 75.7176 110.82C75.2626 108.488 74.0996 106.436 73.594 104.198C73.2401 102.612 73.3917 100.98 72.2794 99.6744C71.5715 98.835 71.1164 100.327 71.4703 100.887C72.2288 102.146 71.7232 104.011 71.976 105.41C72.4816 107.975 73.4423 110.307 73.6446 112.918C74.0491 117.721 72.6333 122.524 71.8243 127.234C71.0153 131.991 70.9142 136.794 70.4591 141.597C69.9535 146.54 69.5995 151.343 69.549 156.333C69.3973 166.173 68.3355 176.292 69.6501 186.085C70.3074 190.981 70.358 195.784 70.3074 200.727C70.2568 205.857 70.4591 210.987 70.6614 216.116C70.8636 221.153 70.9142 225.909 72.0265 230.852C72.5322 233.137 73.1389 235.375 73.4929 237.707C73.8468 240.132 73.9479 242.604 74.5041 245.028C75.6165 249.692 77.4368 254.168 78.7008 258.785C79.2065 260.697 79.8638 262.749 80.1672 264.707C80.5717 267.132 80.42 269.65 80.7739 272.122C81.4818 277.112 81.9874 282.101 83.1504 287.044C84.2122 291.754 85.1223 296.464 85.7796 301.221C86.4369 306.024 86.2853 310.781 86.2853 315.63C86.2853 320.433 86.2347 325.143 85.6785 329.9C85.4257 332.325 85.3751 334.75 84.5156 337.081C83.6054 339.553 82.847 341.745 82.4425 344.356C82.038 347.014 81.3807 349.672 81.0773 352.33C80.7739 355.128 80.8245 357.926 80.7233 360.771C80.6222 366.227 80.1672 371.683 80.6222 377.185C80.8245 379.843 81.4312 382.408 81.684 385.02C81.8863 386.932 81.4312 389.17 82.7964 390.756C83.5549 391.642 84.7684 391.408 85.1223 390.289C85.1729 390.196 85.1729 390.056 85.2234 389.963C85.9313 388.237 83.9594 385.439 82.7459 387.958Z" fill="#C7C7C7" fill-opacity="0.1"/>
<path d="M72.3301 89.8354C72.1278 89.9286 71.9256 90.0219 71.6728 90.1152C71.8245 91.1877 71.9256 92.2603 72.0773 93.3328C74.2009 91.4675 73.2908 86.9441 73.3919 84.426C73.493 81.0218 73.6447 77.571 73.6447 74.1668C73.6447 70.5761 73.2908 67.1253 73.038 63.5812C72.8863 61.7159 72.5829 59.8039 72.684 57.9386C72.7851 56.3531 73.1391 54.7676 73.1897 53.1821C73.3413 49.9178 73.1896 46.5602 73.1391 43.296C73.0885 39.4254 72.0773 35.6482 71.2683 31.871C70.5098 28.3735 69.8525 24.8294 68.8918 21.332C67.83 17.3216 68.1839 13.3111 68.5379 9.20747C68.639 8.08829 67.3749 7.20227 67.021 8.64788C65.2513 15.8759 65.7064 22.7776 66.3131 30.1455C66.6165 33.9694 67.5266 37.7933 67.5266 41.6638C67.5772 45.1613 67.5772 48.6587 67.5266 52.1095C67.5266 53.8349 67.0715 55.5137 67.021 57.2391C66.9199 58.9645 67.0715 60.6899 67.2232 62.4154C67.476 65.9594 68.0322 69.4103 68.0322 72.9543C68.0828 76.5451 68.0322 80.1358 68.2851 83.7265C68.3862 85.3586 68.6896 86.9908 69.0435 88.5763C69.3469 90.0219 69.3469 91.9338 70.4087 93.053C71.9256 94.6852 72.7346 91.9805 72.3301 90.8613C72.3806 90.6281 72.4312 90.3483 72.4818 90.1152C72.6334 89.9753 72.5323 89.6488 72.3301 89.8354Z" fill="#C7C7C7" fill-opacity="0.1"/>
<path d="M83.8582 20.3066C83.3526 27.6279 84.4144 34.8094 84.6167 42.1307C84.7178 45.8613 85.274 49.6385 85.274 53.3692C85.274 57.0531 84.6167 60.7371 85.0718 64.4211C85.9819 71.6025 84.7178 78.8306 85.5268 86.012C85.9313 89.5095 86.083 93.0069 86.437 96.5044C86.5886 98.1832 87.0943 99.8153 87.3471 101.494C87.5999 103.359 87.4988 105.318 87.4482 107.183C87.3471 114.365 86.7403 121.546 85.6785 128.681C85.1223 132.505 84.4145 136.329 84.3133 140.153C84.2122 143.837 84.4144 147.567 84.4144 151.251C84.4144 154.935 84.3133 158.666 84.1111 162.35C83.9088 166.08 84.6167 169.718 85.0212 173.402C85.4763 177.272 85.8808 181.283 86.0325 185.153C86.1841 188.697 86.9932 192.101 87.5493 195.599C88.2572 199.796 87.8022 203.993 87.5999 208.236C87.3977 212.48 87.5999 216.77 87.9538 221.014C88.3078 225.117 88.7629 229.174 89.3696 233.231C89.6224 235.097 89.7235 236.869 89.7235 238.781C89.7235 240.04 89.9764 241.159 90.6337 242.278C91.1899 243.211 91.9989 241.718 91.6955 241.066C90.8865 239.573 91.3921 237.988 91.3921 236.402C91.3921 234.957 91.1899 233.511 91.0382 232.112C90.5831 228.102 90.128 224.091 89.8752 220.034C89.673 216.397 89.5213 212.713 89.7741 209.076C90.0269 205.298 90.5325 201.475 90.3303 197.651C90.128 194.153 89.2179 190.749 89.1168 187.252C88.9651 183.661 88.9651 180.07 89.0157 176.479C89.0662 172.889 89.0662 169.345 89.0662 165.754C89.1168 161.883 89.8247 158.059 89.9258 154.189C90.0269 150.645 89.9763 147.054 89.9258 143.51C89.8752 139.686 90.2292 136.096 90.8359 132.318C91.8977 125.463 92.8584 118.422 92.9596 111.52C93.0101 107.976 93.2629 104.339 92.8584 100.795C92.4539 97.1572 91.6955 93.5665 91.3921 89.9292C90.7854 83.1208 90.9371 76.4523 90.8865 69.644C90.8359 65.5869 90.128 61.6698 90.0775 57.6127C90.0269 53.5091 89.4707 49.6385 88.8134 45.5815C88.1561 41.5245 87.7516 37.3741 87.0943 33.3171C86.437 29.0735 85.7291 24.7833 85.3246 20.4931C85.2235 19.6071 83.9088 19.0941 83.8582 20.3066Z" fill="#B0ECFF" fill-opacity="0.07"/>
<path d="M101.606 384.6C102.617 381.709 102.061 378.818 102.061 375.787C102.061 371.73 101.505 367.719 101.656 363.616C101.707 361.564 101.808 359.465 101.808 357.413C101.808 355.595 102.314 353.823 102.415 352.004C102.516 350.045 102.415 348.04 102.465 346.082C102.516 344.17 103.072 342.304 103.325 340.392C103.78 336.382 103.527 332.278 103.527 328.221C103.527 324.351 103.982 320.527 104.033 316.703C104.083 312.413 104.083 308.169 103.982 303.879C103.932 302.107 104.387 300.475 104.488 298.703C104.589 296.698 104.741 294.692 104.892 292.687C105.499 284.34 104.033 276.273 103.628 267.972C103.224 259.578 103.78 251.231 103.477 242.837C103.325 238.64 102.87 234.303 103.477 230.106C104.033 226.329 104.437 222.458 104.437 218.635C104.437 214.578 103.173 210.707 103.224 206.65C103.224 202.546 102.921 198.536 102.516 194.432C102.01 189.349 102.263 184.36 102.617 179.277C102.769 177.132 102.668 174.986 103.022 172.841C103.376 170.743 103.376 168.644 103.274 166.499C103.072 161.883 101.909 157.359 101.656 152.789C101.404 148.219 101.656 143.603 101.505 139.033C101.454 137.774 100.089 137.82 100.038 139.079C99.9373 143.09 99.7856 147.1 99.7351 151.111C99.6845 155.261 100.746 159.364 101.151 163.515C101.353 165.38 101.454 167.245 101.404 169.157C101.353 171.256 100.847 173.308 100.797 175.406C100.696 179.65 100.342 183.847 100.342 188.09C100.291 192.474 101.1 196.857 101.303 201.241C101.505 205.065 101.1 208.795 101.758 212.619C103.173 220.873 100.342 228.801 100.19 237.055C100.14 241.298 100.19 245.542 99.9879 249.785C99.8868 251.93 99.4317 254.029 99.2295 256.174C99.0272 258.319 99.1283 260.464 99.0272 262.609C98.6733 270.91 99.8362 279.164 99.5328 287.511C99.3811 291.382 99.3811 295.485 98.7238 299.309C98.0159 303.273 98.471 307.47 98.471 311.48C98.471 315.444 98.0665 319.361 97.9654 323.325C97.8643 327.382 97.9654 331.392 97.9654 335.449C97.9654 339.926 96.853 344.263 96.9541 348.786C97.0047 351.025 96.6002 353.123 96.5496 355.362C96.4991 357.553 96.7519 359.792 96.8024 361.983C96.9541 366.553 97.6114 370.89 98.2687 375.414C98.5721 377.465 98.7744 379.517 99.1283 381.569C99.4317 383.201 99.9373 383.808 101.1 384.927C101.252 385.02 101.505 384.787 101.606 384.6Z" fill="#C7C7C7" fill-opacity="0.1"/>
<path d="M101.707 128.448C102.668 121.034 102.617 113.526 103.123 106.065C103.578 99.4427 105.095 92.8675 105.095 86.199C105.095 82.6083 103.578 79.2041 103.325 75.6134C103.022 71.8361 103.224 68.0123 103.173 64.235C103.123 60.5044 102.87 56.7738 102.971 53.0432C103.072 49.4525 103.477 45.955 102.87 42.3643C102.162 38.3072 102.162 34.1103 101.656 30.0066C101.151 25.6232 101.909 21.3796 102.617 17.0894C102.769 16.1101 101.404 14.7111 100.999 16.1567C100.089 19.5143 99.3811 22.9651 99.0777 26.4626C98.8249 29.9134 99.3305 33.3642 99.1283 36.815C98.926 40.7321 99.4822 44.556 99.0777 48.4732C98.6732 52.2504 98.5721 56.0277 98.471 59.8515C98.3193 67.3594 97.4597 74.9139 98.9766 82.3285C99.735 85.9192 99.28 89.0436 99.1788 92.6809C99.1283 94.2664 99.3811 95.852 99.3305 97.4841C99.28 99.1162 98.9766 100.655 99.0777 102.287C99.735 111.008 99.6845 119.821 100.797 128.495C100.847 129.101 101.606 129.054 101.707 128.448Z" fill="#C7C7C7" fill-opacity="0.1"/>
<path d="M118.292 32.0572C118.292 31.8241 118.342 31.5443 118.342 31.3111C118.443 29.9588 116.674 28.9328 116.522 30.6582C115.966 37.5599 115.258 44.4615 115.056 51.3632C114.853 58.1715 114.853 64.9799 114.803 71.8349C114.803 74.7261 114.803 77.6173 114.803 80.5552C114.803 84.0993 114.297 87.5967 114.297 91.0942C114.247 97.6694 114.348 104.245 114.348 110.82C114.348 117.395 114.954 123.924 115.005 130.499C115.056 137.027 114.348 143.463 114.145 149.991C113.893 156.706 114.247 163.468 114.398 170.183C114.499 176.712 114.651 183.194 114.702 189.722C114.752 196.95 114.449 204.178 114.449 211.406C114.449 215.044 113.994 218.635 114.095 222.272C114.196 225.863 115.056 229.873 114.196 233.417C113.943 234.443 115.308 235.749 115.865 234.35C116.876 231.878 116.775 229.313 116.825 226.702C116.876 222.971 117.028 219.287 117.432 215.603C117.735 212.572 117.685 209.495 117.735 206.463C117.735 203.152 118.191 199.935 118.342 196.671C118.696 190.142 118.544 183.52 118.646 176.992C118.747 170.183 118.848 163.375 118.898 156.566C118.898 153.395 118.848 150.318 119.252 147.147C119.657 143.976 119.91 140.805 120.011 137.634C120.314 130.779 120.011 123.924 119.758 117.069C119.505 110.493 119.859 103.918 119.809 97.343C119.809 90.861 120.264 84.3791 120.264 77.8971C120.264 70.296 120.213 62.6949 120.061 55.0938C119.859 47.0263 119.151 39.0988 118.544 31.0779C118.393 29.4924 116.522 29.4924 116.674 31.1246C116.674 31.4044 116.724 31.6375 116.724 31.9173C116.623 32.8966 118.14 33.5495 118.292 32.0572Z" fill="#C7C7C7" fill-opacity="0.1"/>
<path d="M117.786 247.127C116.876 247.5 116.623 248.013 116.471 248.899C116.269 250.438 115.814 251.837 115.561 253.33C115.207 255.195 115.106 257.153 114.803 259.019C114.449 260.977 114.348 262.982 114.247 264.988C113.792 273.382 114.044 281.822 113.842 290.216C113.792 292.268 113.539 294.18 113.235 296.185C112.983 298.237 113.185 300.289 113.134 302.34C113.033 306.491 112.376 310.455 112.78 314.605C113.185 318.708 113.084 322.812 113.084 326.916C113.084 328.688 112.932 330.46 112.983 332.232C113.033 333.817 113.69 335.263 113.792 336.615C113.943 338.574 114.297 340.719 114.196 342.678C114.095 344.636 113.69 346.595 113.589 348.6C113.337 353.217 113.185 357.787 114.095 362.357C114.55 364.548 116.674 363.616 116.724 361.797C116.876 357.693 117.078 353.776 117.634 349.673C118.089 346.315 119 343.191 119 339.74C119 338.248 119.151 336.709 119.101 335.216C119.05 333.678 118.393 332.512 118.494 331.02C118.797 327.102 118.747 323.185 118.646 319.268C118.544 315.491 117.887 311.807 118.191 308.03C118.494 304.159 118.292 300.195 118.848 296.371C119.91 288.537 119 280.19 118.646 272.356C118.443 267.926 118.14 263.542 118.342 259.112C118.443 256.967 118.039 254.822 118.292 252.677C118.393 251.884 118.494 251.184 118.443 250.392C118.393 249.599 117.988 248.666 118.241 247.873C118.393 247.687 118.292 246.941 117.786 247.127Z" fill="#C7C7C7" fill-opacity="0.1"/>
<path d="M130.932 193.545C130.123 196.436 129.87 199.234 129.82 202.219C129.769 205.95 129.769 209.773 129.82 213.504C129.972 220.592 130.882 227.587 130.73 234.722C130.679 237.986 130.629 241.204 130.629 244.468C130.578 248.152 129.972 251.743 129.87 255.38C129.668 262.468 129.82 269.463 129.264 276.551C128.708 283.733 128.809 290.868 129.163 298.096C129.365 301.5 129.82 304.811 129.719 308.262C129.618 311.806 129.264 315.35 129.213 318.847C128.91 333.163 130.174 347.573 129.112 361.889C128.505 370.143 128.91 378.444 128.96 386.698C128.96 390.895 128.96 395.138 129.112 399.335C129.163 401.294 129.314 403.252 129.567 405.164C129.769 406.936 130.477 408.568 130.781 410.294C131.185 412.719 133.865 412.439 134.32 410.201C134.876 407.216 134.017 403.905 133.966 400.874C133.865 397.33 134.067 393.739 134.118 390.195C134.168 382.874 133.966 375.553 134.067 368.231C134.118 364.594 134.573 360.957 134.775 357.319C134.927 353.728 134.724 350.091 134.724 346.5C134.674 339.319 134.775 332.184 134.674 325.003C134.573 317.961 135.736 310.826 135.281 303.785C134.876 297.023 134.118 290.355 134.32 283.546C134.522 276.412 135.331 269.37 135.23 262.235C135.129 255.38 135.736 248.618 135.533 241.717C135.281 233.743 135.028 225.955 133.966 218.027C133.46 214.204 133.258 210.333 132.904 206.509C132.5 202.452 131.741 198.442 132.247 194.385C132.399 193.545 131.286 192.333 130.932 193.545Z" fill="#B0ECFF" fill-opacity="0.07"/>
<path d="M133.157 178.063C133.41 172.793 133.41 167.477 133.562 162.208C133.713 157.032 134.472 151.949 134.573 146.772C134.674 141.689 135.281 136.373 134.724 131.337C134.168 126.441 134.371 121.544 134.371 116.648C134.371 112.264 134.472 107.927 135.23 103.59C136.14 98.3676 134.977 92.865 135.432 87.5489C135.837 82.6524 134.927 77.6161 134.927 72.7197C134.927 67.2637 135.129 61.8076 135.635 56.3982C136.14 50.7557 136.899 45.2064 136.949 39.5639C137 33.6415 136.191 27.7192 137 21.8434C137.151 20.631 135.685 19.745 135.382 21.2838C134.371 26.1803 134.472 31.2166 134.421 36.1597C134.371 41.3825 133.915 46.5587 133.208 51.7816C131.792 62.1341 131.337 72.673 130.983 83.1188C130.882 85.497 130.123 87.782 130.022 90.2069C129.87 92.9583 129.82 95.7562 129.82 98.5542C129.82 103.311 128.809 107.974 128.809 112.777C128.809 117.72 128.758 122.71 128.758 127.653C128.758 129.985 129.365 132.27 129.415 134.601C129.516 137.259 129.466 139.917 129.516 142.575C129.516 145.467 129.719 148.404 129.719 151.296C129.668 154.234 129.163 157.171 129.163 160.109C129.112 166.172 129.618 172.187 130.022 178.203C130.174 180.861 133.005 180.768 133.157 178.063Z" fill="#C7C7C7" fill-opacity="0.1"/>
<path d="M146.809 9.95363C146.404 14.2905 146.657 18.6273 146.253 22.9175C145.798 27.3476 144.736 31.6845 144.382 36.1146C143.725 44.8349 143.269 53.6018 142.713 62.3221C142.157 71.3222 142.511 80.4156 142.511 89.4157C142.511 98.5557 142.309 107.696 142.41 116.836C142.46 125.463 145.393 133.763 145.696 142.344C146 151.157 146 159.971 146.202 168.831C146.303 173.308 146.455 177.785 146.859 182.215C147.062 184.406 147.011 186.552 147.112 188.697C147.264 190.795 147.972 192.8 148.174 194.899C149.135 203.899 148.73 212.992 147.921 221.946C147.719 224.324 147.871 226.702 147.517 229.034C147.213 231.226 146.809 233.417 146.809 235.656C146.758 241.018 146.809 246.241 146.404 251.604C145.696 261.584 145.393 271.656 145.494 281.636C145.494 283.128 147.163 283.035 147.213 281.589C147.416 272.542 147.871 263.356 148.781 254.309C149.236 249.879 149.843 245.449 149.893 240.972C149.944 238.827 149.742 236.635 149.944 234.49C150.146 232.345 150.702 230.2 150.904 228.055C151.612 219.381 152.219 210.847 151.966 202.173C151.916 200.028 151.865 197.883 151.713 195.738C151.612 193.453 150.955 191.308 150.702 189.07C150.5 187.065 150.753 185.059 150.601 183.054C150.449 180.676 150.298 178.298 150.247 175.919C150.095 167.012 150.652 158.106 150.854 149.199C150.955 144.955 151.208 140.758 150.601 136.561C149.994 132.364 149.236 128.167 148.528 124.017C147.82 119.68 148.022 115.204 148.073 110.82C148.123 106.25 148.123 101.68 148.123 97.1101C148.123 88.0167 148.123 78.97 148.073 69.8766C148.022 60.0837 148.68 50.2442 148.427 40.4514C148.326 35.3218 148.983 30.3321 149.286 25.2025C149.59 20.2594 149.286 15.2231 148.781 10.2801C148.629 9.06761 146.961 8.32148 146.809 9.95363Z" fill="#C7C7C7" fill-opacity="0.1"/>
<path d="M148.528 293.154C148.326 292.688 148.073 292.268 147.77 291.848C147.517 291.522 147.062 291.522 146.809 291.848C145.292 294.367 146.051 298.33 146.202 301.035C146.455 304.999 146.152 309.009 146.455 312.973C146.961 320.248 145.545 327.662 144.635 334.89C143.674 342.118 142.511 349.3 142.41 356.574C142.359 359.885 143.118 363.056 143.219 366.367C143.27 369.025 143.624 371.73 146.051 373.455C147.669 374.575 148.427 371.777 147.871 370.751C146.961 369.119 148.275 365.714 148.275 363.896C148.225 360.538 147.921 357.227 148.022 353.87C148.225 347.201 149.64 340.533 150.348 333.911C151.056 327.009 151.815 320.248 150.854 313.346C149.893 306.444 148.528 299.449 148.022 292.501C147.82 292.828 147.618 293.154 147.365 293.434C147.669 293.434 147.921 293.527 148.073 293.807C148.478 294.133 148.629 293.341 148.528 293.154Z" fill="#C7C7C7" fill-opacity="0.1"/>
<path d="M158.843 25.8076C158.691 26.8802 158.995 27.7662 158.944 28.8388C158.893 30.0979 158.792 31.217 158.894 32.4761C159.096 35.414 159.349 38.3518 159.551 41.2897C159.753 43.9944 160.158 46.6991 160.208 49.4038C160.259 52.5282 160.056 55.6059 160.41 58.7303C161.068 64.606 161.118 70.6683 161.118 76.5906C161.118 82.6529 161.169 88.7617 160.865 94.824C160.562 100.98 160.107 107.088 160.107 113.197C160.107 119.399 158.894 125.415 158.641 131.571C158.388 137.54 158.792 143.602 159.298 149.524C159.804 155.54 159.905 161.649 160.259 167.711C160.663 174.706 160.967 181.654 160.714 188.649C160.41 195.597 159.955 202.499 160.158 209.4C160.208 210.66 161.573 210.613 161.624 209.354C161.826 196.95 162.939 184.592 162.989 172.188C163.04 166.079 162.989 160.016 163.242 153.908C163.495 147.612 164.051 141.317 164.152 134.975C164.253 128.959 165.416 123.083 165.618 117.068C165.821 111.052 165.821 105.083 166.175 99.0676C166.933 86.6633 166.478 74.3989 166.175 62.0412C166.073 58.8236 165.568 55.7458 165.618 52.5282C165.719 49.0773 165.366 45.6732 164.91 42.2223C164.506 39.1446 164 36.1601 163.141 33.1756C162.686 31.6367 162.231 30.1445 161.978 28.559C161.826 27.4864 161.118 26.647 160.916 25.6677C160.613 24.4087 159.045 24.4087 158.843 25.8076Z" fill="#C7C7C7" fill-opacity="0.1"/>
<path d="M176.135 24.5019C178.107 24.5019 178.057 20.3516 176.034 20.3516C174.012 20.3516 174.113 24.5019 176.135 24.5019Z" fill="#C7C7C7" fill-opacity="0.1"/>
<path d="M174.922 22.4524C174.366 30.7996 173.86 39.1002 173.506 47.4475C173.152 55.6548 174.062 63.7689 173.911 71.9763C173.809 75.8934 174.214 79.8106 173.86 83.6811C173.455 87.878 173.203 92.075 173.152 96.3185C173.102 104.899 173.354 113.479 173.354 122.06C173.354 126.117 173.708 130.267 173.203 134.278C172.697 138.148 173.051 141.972 172.596 145.796C171.686 154.19 172.394 162.817 172.495 171.211C172.596 179.838 172.849 188.465 172.748 197.045C172.697 201.102 172.242 205.206 172.394 209.263C172.545 213.32 172.95 217.424 173.455 221.434C174.062 226.33 174.264 231.087 174.366 236.03C174.416 240.507 175.529 244.844 175.731 249.32C176.135 258.833 176.944 268.393 178.714 277.813C179.017 279.398 180.534 278.699 180.585 277.393C180.838 268.906 179.017 260.466 178.967 251.978C178.916 247.921 178.461 244.004 177.956 239.994C177.45 235.797 178.107 231.553 177.854 227.356C177.45 219.009 176.338 210.942 176.995 202.548C177.652 194.107 177.551 185.573 177.652 177.086C177.753 168.553 177.551 159.972 177.703 151.438C177.804 147.475 178.36 143.557 178.31 139.547C178.259 135.63 178.866 131.713 178.866 127.749C178.815 119.262 178.866 110.821 178.714 102.334C178.613 98.1372 178.562 93.9403 178.815 89.7433C179.017 85.6863 179.523 81.7225 179.472 77.6655C179.371 73.1887 179.776 68.6654 179.371 64.1886C178.967 59.6653 178.613 55.2352 178.512 50.6651C178.36 41.1521 177.905 31.6857 177.298 22.2192C177.096 20.3539 175.023 20.4938 174.922 22.4524Z" fill="#C7C7C7" fill-opacity="0.1"/>
<path d="M192.063 5.94248C192.063 5.84922 192.113 5.70932 192.113 5.61606C192.164 5.14973 192.113 4.40361 191.658 4.12381C191.557 4.07718 191.456 4.03054 191.355 3.93728C190.849 3.65748 190.445 3.75075 190.091 4.17044C188.624 6.12901 189.332 10.0462 189.231 12.2845C189.079 16.2949 188.978 20.3053 188.574 24.3158C188.119 28.3728 188.372 32.4765 187.815 36.5335C187.259 40.5906 186.905 44.6476 186.754 48.7046C186.45 56.7721 187.057 64.8395 186.501 72.8604C186.248 76.9174 185.641 80.9278 185.591 84.9848C185.54 88.9953 185.894 92.959 186.096 96.9694C186.551 105.55 184.883 114.177 187.158 122.617C187.613 124.203 189.332 123.69 189.231 122.198C188.725 114.736 190.192 107.415 190.242 99.9539C190.242 92.2129 190.495 84.5652 191.152 76.8708C191.81 68.9898 191.506 61.1089 191.456 53.1814C191.405 45.1139 192.265 37.0465 192.063 28.979C191.961 24.6888 192.366 20.3986 192.265 16.1084C192.164 12.5177 191.557 8.74044 191.81 5.14973C191.456 5.61606 191.152 6.12901 190.799 6.59534C190.9 6.59534 191.001 6.54871 191.102 6.54871C190.849 6.31555 190.546 6.12901 190.293 5.89585C190.343 5.98912 190.394 6.08238 190.445 6.17565C190.95 7.1083 191.961 6.82851 192.063 5.94248Z" fill="#C7C7C7" fill-opacity="0.1"/>
<path d="M188.877 136.281C189.787 137.307 188.978 139.359 188.827 140.571C188.624 142.157 188.675 143.742 188.776 145.328C188.978 149.198 188.978 153.022 188.928 156.939C188.928 158.991 189.029 161.043 188.928 163.095C188.827 165.147 188.321 167.199 188.119 169.25C187.765 172.981 188.018 176.712 187.562 180.489C185.692 196.297 187.411 212.339 187.967 228.147C188.018 229.5 189.484 229.453 189.534 228.101C189.838 219.567 189.484 211.173 189.585 202.639C189.636 198.069 189.585 193.453 189.636 188.883C189.686 184.966 190.445 181.095 190.647 177.178C190.748 175.219 190.647 173.307 190.748 171.349C190.799 169.297 191.254 167.245 191.456 165.193C191.911 160.996 191.608 156.66 191.557 152.463C191.557 148.592 190.748 144.768 190.798 140.944C190.849 139.079 191.051 136.608 189.484 135.162C188.877 134.556 188.523 135.908 188.877 136.281Z" fill="#B0ECFF" fill-opacity="0.07"/>
<path d="M161.371 220.967C161.219 220.967 161.068 220.967 160.966 220.967C160.461 220.967 160.107 221.433 160.006 221.806C159.096 224.138 159.146 226.749 158.893 229.128C158.539 232.252 158.995 235.283 158.843 238.407C158.742 241.019 159.247 243.537 159.197 246.148C159.197 249.553 159.197 252.91 159.146 256.314C159.146 259.299 159.096 262.283 159.096 265.268C159.045 268.346 159.702 271.377 159.601 274.454C159.5 277.252 159.348 280.05 159.753 282.848C160.157 285.74 160.006 288.631 160.41 291.522C160.764 294.18 160.764 296.792 160.966 299.45C161.219 302.527 161.573 305.558 161.826 308.636C162.079 311.434 162.281 314.232 162.18 317.03C162.079 320.154 161.472 323.372 161.068 326.497C159.5 338.574 160.157 350.745 159.551 362.87C159.399 366.274 158.641 369.585 158.489 372.989C158.337 376.44 158.287 379.938 158.287 383.388C158.236 390.616 158.893 397.844 159.753 405.026C160.056 407.311 162.837 407.124 163.09 404.933C163.899 398.637 162.686 392.295 162.534 386C162.382 379.891 162.281 373.735 162.332 367.627C162.433 355.176 160.966 342.771 162.483 330.367C163.191 324.818 164.455 319.408 164.708 313.859C164.961 307.89 165.871 301.968 166.174 295.952C166.276 293.201 165.719 290.589 165.719 287.838C165.669 284.9 165.113 282.102 165.062 279.211C165.012 276.6 165.365 273.988 165.163 271.377C164.91 268.392 164.658 265.548 164.708 262.516C164.759 258.833 164.759 255.195 164.759 251.511C164.759 248.247 164.961 244.843 164.304 241.625C163.697 238.641 163.596 235.376 163.292 232.345C163.09 230.666 162.989 228.941 162.787 227.262C162.585 225.723 162.129 224.091 162.18 222.552C161.927 223.065 161.624 223.625 161.371 224.138C161.523 224.091 161.624 224.045 161.775 223.951C162.888 223.532 162.787 220.967 161.371 220.967Z" fill="#B0ECFF" fill-opacity="0.07"/>
<path d="M178.461 292.968C177.551 296.558 177.349 300.336 177.045 303.973C176.894 305.698 176.843 307.47 176.59 309.149C176.338 310.735 175.731 312.227 175.478 313.859C174.416 320.854 174.416 327.942 173.557 334.937C173.354 336.523 173.506 338.108 173.304 339.694C173.102 341.466 172.849 343.191 172.798 344.963C172.646 348.647 172.748 352.378 173.253 356.015C173.658 359.093 174.315 362.17 174.416 365.248C174.467 366.927 174.669 368.652 174.618 370.331C174.568 372.336 174.062 374.342 174.214 376.393C174.315 377.792 176.287 379.518 176.944 377.373C179.017 370.518 179.22 363.849 178.916 356.761C178.765 353.357 178.36 349.999 178.36 346.549C178.36 344.73 178.562 343.051 178.815 341.279C179.017 339.554 178.916 337.828 179.119 336.103C179.574 332.652 179.422 329.248 179.927 325.797C180.433 322.206 180.281 318.522 180.939 314.978C181.293 313.113 181.849 311.481 181.899 309.615C181.95 307.704 181.95 305.792 181.899 303.926C181.798 300.289 181.748 296.512 180.888 292.921C180.383 291.335 178.815 291.475 178.461 292.968Z" fill="#C7C7C7" fill-opacity="0.1"/>
<path d="M189.484 240.879C189.181 243.257 188.574 245.542 188.422 247.967C188.27 250.532 188.169 253.097 188.018 255.661C187.765 260.744 187.765 265.874 187.563 270.957C187.36 275.527 187.108 280.143 186.703 284.714C186.501 287.092 186.349 289.377 186.754 291.755C187.108 293.9 187.866 295.952 188.321 298.097C189.282 302.62 188.978 307.47 188.978 312.087C188.978 314.279 188.978 316.47 188.978 318.662C188.978 321.134 188.473 323.465 188.169 325.89C187.664 330.507 187.31 335.17 187.259 339.787C187.259 341.792 186.804 343.797 186.905 345.802C187.006 348.32 187.259 350.885 187.057 353.403C186.602 358.72 187.209 363.756 187.512 369.072C187.664 371.823 187.815 374.575 187.815 377.326C187.815 379.098 187.613 380.87 188.877 382.362C190.394 384.088 191.456 381.01 190.596 379.797C190.242 379.331 190.596 378.352 190.596 377.792C190.698 376.72 190.698 375.601 190.748 374.481C190.849 372.056 191.001 369.632 190.95 367.16C190.9 364.922 190.698 362.637 190.647 360.398C190.596 357.973 191.051 355.688 191.254 353.264C191.456 351.165 191.405 348.973 191.456 346.875C191.456 344.683 192.063 342.678 192.214 340.486C192.518 336.103 193.074 331.719 193.63 327.382C194.237 322.766 194.54 318.336 194.54 313.672C194.54 308.962 194.439 304.346 194.035 299.683C193.832 297.631 193.58 295.765 193.023 293.76C192.518 291.755 191.962 289.796 192.012 287.745C192.214 283.221 192.467 278.698 192.771 274.221C193.125 268.765 192.872 263.309 192.619 257.853C192.518 255.195 192.366 252.584 192.214 249.926C192.063 246.894 191.405 244.05 191.051 241.112C190.9 240.133 189.636 239.526 189.484 240.879Z" fill="#C7C7C7" fill-opacity="0.1"/>
<path d="M203.338 190.33C203.187 190.33 203.035 190.376 202.934 190.376C202.529 190.423 202.378 190.796 202.276 191.123C201.67 193.967 201.012 196.532 200.76 199.423C200.507 202.921 200.304 206.371 200.355 209.869C200.456 216.397 201.619 222.879 201.821 229.361C201.922 232.532 201.821 235.843 201.619 239.014C201.417 242.185 200.557 245.31 200.304 248.481C199.849 254.73 199.849 260.792 198.686 267.041C198.13 270.072 197.17 273.056 196.613 276.087C196.007 279.398 196.158 282.709 196.31 286.02C196.411 288.958 196.866 291.896 197.068 294.787C197.321 298.191 197.473 301.642 198.13 304.953C198.737 308.124 199.243 311.202 199.495 314.419C199.748 317.637 199.495 320.855 200.052 324.026C200.557 327.01 200.254 329.995 200.254 332.979C200.203 336.337 200.608 339.694 201.012 343.005C201.872 350.42 201.67 357.834 201.771 365.296C201.872 372.99 203.793 380.964 202.378 388.612C202.175 389.824 203.894 391.55 204.4 389.731C206.17 383.622 205.614 376.814 205.209 370.565C204.805 363.71 205.462 356.808 205.462 349.953C205.462 343.518 204.501 337.129 204.754 330.694C204.855 327.523 204.552 324.585 204.198 321.461C203.844 318.29 204.097 314.979 203.844 311.761C203.591 308.544 202.833 305.466 202.378 302.248C201.872 298.704 201.922 295.113 201.771 291.523C201.619 288.538 201.467 285.6 201.518 282.569C201.619 279.631 202.327 276.787 203.035 273.942C204.703 267.507 205.614 260.838 205.664 254.217C205.715 247.921 207.08 241.766 207.13 235.47C207.181 231.833 207.181 228.335 206.625 224.745C206.069 220.921 205.411 217.144 205.007 213.32C204.602 209.449 204.349 205.579 204.046 201.755C203.793 198.257 203.389 194.853 203.591 191.356C203.439 191.682 203.288 192.009 203.085 192.288C203.237 192.242 203.338 192.195 203.49 192.149C204.299 191.962 204.198 190.237 203.338 190.33Z" fill="#C7C7C7" fill-opacity="0.14"/>
<path d="M203.035 179.556C203.186 177.365 205.007 175.266 205.512 173.028C206.17 170.23 206.119 167.385 206.726 164.587C207.939 158.852 207.282 153.256 207.788 147.473C208.293 141.597 207.737 135.768 207.737 129.893C207.737 124.204 208.192 118.421 207.838 112.732C207.687 110.074 207.231 107.649 207.231 104.991C207.282 102.006 207.333 99.0685 206.979 96.1306C206.271 90.1617 204.754 84.3792 204.602 78.3636C204.552 75.5656 205.057 72.9076 205.057 70.1096C205.007 67.2184 204.855 64.2805 204.602 61.3893C204.299 58.4514 203.591 55.5602 203.288 52.6224C203.035 49.7311 203.186 46.7466 203.136 43.8554C203.085 36.8139 203.591 29.819 204.097 22.7774C204.349 19.5598 204.501 16.2955 204.501 13.0778C204.501 11.3058 204.45 9.53377 204.45 7.76173C204.45 6.73581 203.844 4.12438 204.45 3.33162C205.462 1.97927 203.995 -1.33165 202.377 0.580294C200.911 2.3057 201.417 4.91713 201.417 6.96897C201.366 10.3265 201.316 13.6841 201.063 17.0416C200.608 23.1971 199.596 29.306 199.141 35.4615C198.686 41.4305 198.08 47.6793 198.484 53.6483C198.939 59.6639 200.355 65.6795 199.698 71.7417C199.04 77.8506 199.141 83.6331 200.203 89.742C200.709 92.5399 201.366 95.2912 201.568 98.0892C201.821 101.167 201.619 104.245 201.568 107.322C201.568 110.074 202.276 112.639 202.226 115.39C202.226 118.514 202.074 121.639 202.074 124.763C202.074 127.561 202.074 130.359 202.074 133.157C202.074 136.141 202.58 139.079 202.58 142.064C202.58 145.468 202.023 148.826 202.125 152.23C202.226 155.401 202.377 158.525 201.821 161.65C201.518 163.328 201.316 165.007 201.417 166.686C201.518 168.365 201.771 169.997 201.67 171.676C201.518 174.427 200.254 176.945 200.658 179.696C200.962 181.095 202.883 181.095 203.035 179.556Z" fill="#C7C7C7" fill-opacity="0.1"/>
<path d="M266.307 36.6739C266.205 37.6999 266.054 38.6791 266.104 39.7051C266.155 41.104 266.509 42.3631 266.205 43.8087C265.649 46.2336 264.941 48.0523 266.003 50.4306C265.902 49.6378 265.801 48.8451 265.7 48.0057C265.194 50.2907 265.902 52.7622 266.155 55.0472C266.408 57.7053 266.104 60.3633 265.649 62.9748C264.638 68.6639 265.093 74.5863 265.093 80.3221C265.093 86.4776 265.194 92.6331 265.447 98.7887C265.548 101.493 265.7 104.245 265.852 106.949C265.953 109.934 266.762 112.778 267.014 115.716C267.217 118.468 267.116 121.219 267.116 123.97C267.116 126.395 267.419 128.727 267.419 131.105C267.419 132.178 267.925 133.157 268.076 134.229C268.228 135.628 268.026 137.121 267.925 138.52C267.722 141.597 267.722 144.629 267.672 147.706C267.571 153.815 267.368 159.971 267.217 166.08C267.116 169.017 267.217 171.909 267.571 174.847C267.874 177.365 267.621 179.883 267.722 182.401C267.823 185.759 268.228 189.069 268.228 192.474C268.228 195.691 268.329 198.862 268.734 202.08C269.138 205.158 269.239 208.329 269.745 211.407C270.25 214.578 271.717 217.749 272.728 220.826C273.284 222.552 275.458 221.759 275.56 220.22C275.762 217.096 274.7 214.298 274.599 211.22C274.447 208.002 274.7 204.831 274.296 201.614C273.537 195.505 273.79 189.303 273.385 183.147C273.234 180.489 273.486 177.878 273.234 175.22C272.88 171.815 272.728 168.505 272.677 165.1C272.576 158.525 272.374 151.95 272.273 145.375C272.222 142.157 272.172 138.939 271.919 135.722C271.717 133.157 270.655 130.965 270.2 128.494C269.644 125.463 269.795 122.292 269.846 119.214C269.897 116.276 269.644 113.291 269.846 110.4C270.756 97.343 270.807 84.2859 270.756 71.1821C270.756 64.5136 272.526 58.2182 270.958 51.5498C270.706 50.3839 270.402 49.1715 270.099 48.0057C269.745 46.7 268.835 46.1404 268.734 45.6274C268.531 44.5082 268.632 43.3424 268.43 42.2232C268.127 40.4512 267.722 38.7724 267.621 36.9537C267.47 36.1143 266.408 35.6947 266.307 36.6739Z" fill="#C7C7C7" fill-opacity="0.1"/>
<path d="M251.138 12.7515C248.407 13.5909 248.761 19.2335 248.66 20.9589C248.559 22.6843 248.458 24.5496 248.66 26.2284C248.812 27.3942 249.368 28.4667 249.469 29.5859C249.621 31.0315 249.469 32.617 249.469 34.0627C249.469 36.814 249.469 39.6119 249.469 42.3633C249.469 43.669 249.368 44.9747 249.318 46.2804C249.267 47.5861 249.065 49.7779 249.975 50.8504C250.025 50.9437 250.025 51.037 250.076 51.1302C250.228 49.5447 250.127 49.4048 249.823 50.7572C249.671 51.4566 249.621 52.1561 249.621 52.9023C249.671 54.0214 249.975 55.094 250.127 56.1665C250.582 59.0578 250.48 61.949 250.986 64.8402C251.492 67.7314 251.643 70.5294 251.745 73.4673C251.795 76.2186 252.604 78.9233 252.554 81.628C252.503 84.2394 252.655 86.9441 252.402 89.5555C252.301 90.8612 251.795 92.0737 251.542 93.3328C251.188 94.8717 251.391 96.2706 251.492 97.8561C251.846 103.685 251.846 109.468 252.452 115.25C253.059 121.033 252.907 126.908 253.009 132.691C253.059 135.349 253.767 137.354 254.981 139.686C256.245 142.157 255.638 145.095 255.233 147.753C254.273 153.862 254.526 159.691 254.475 165.847C254.424 172.095 254.627 178.251 255.739 184.406C256.801 190.282 257.559 196.204 259.026 201.987C262.009 213.738 259.177 226.096 260.795 238.034C261.2 240.879 261.705 243.723 261.908 246.568C262.16 249.785 261.908 253.003 262.009 256.174C262.11 258.692 262.666 261.164 262.717 263.682C262.818 266.76 262.363 269.791 261.908 272.822C260.947 279.677 259.936 286.579 259.885 293.527C259.885 296.605 260.795 299.216 261.655 302.154C262.616 305.465 261.604 308.263 260.896 311.527C259.481 317.962 259.733 324.584 258.318 331.02C256.953 337.268 255.79 343.937 255.891 350.372C255.891 351.351 256.497 352.983 257.812 352.937C259.228 352.89 259.531 351.258 259.632 350.279C259.986 344.683 261.048 338.854 262.363 333.398C263.677 327.802 264.082 322.253 265.093 316.61C266.104 310.874 268.43 305.838 266.913 299.962C266.256 297.351 265.397 295.252 265.447 292.594C265.548 289.703 265.7 286.812 266.054 283.921C266.711 277.998 267.975 272.076 268.228 266.107C268.329 263.449 268.026 260.837 267.672 258.179C267.267 255.148 267.672 252.117 267.571 249.086C267.419 243.257 265.953 237.521 265.599 231.692C265.245 225.77 265.801 219.754 265.75 213.832C265.7 201.94 261.857 190.469 260.34 178.671C259.582 172.888 260.087 167.106 259.936 161.323C259.885 158.665 259.632 155.96 259.986 153.302C260.441 150.178 261.048 147.1 261.149 143.929C261.25 141.225 260.896 138.473 259.733 136.002C259.329 135.209 258.621 134.323 258.419 133.484C258.065 132.085 258.469 130.219 258.469 128.774C258.52 126.069 258.267 123.411 258.014 120.706C257.812 117.908 257.812 115.157 257.306 112.406C256.346 106.81 256.75 101.027 255.233 95.5245C254.526 92.9597 254.93 90.255 254.93 87.597C254.93 84.9855 255.233 82.3275 255.031 79.7627C254.829 76.8248 254.526 74.0269 254.576 71.0424C254.677 67.7314 253.969 64.5138 253.868 61.2029C253.767 58.3583 254.172 55.6536 254.981 52.9489C255.436 51.5033 255.486 50.0577 255.132 48.612C254.728 47.0732 254.778 46.2804 254.829 44.6483C254.93 41.7104 254.829 38.7259 254.829 35.7881C254.829 32.8036 255.183 29.6326 254.323 26.6947C253.767 24.7361 253.717 22.9175 253.464 20.9122C253.363 20.1195 253.211 19.3267 253.16 18.534C253.16 18.2542 253.16 17.8811 253.11 17.6013C252.907 16.3422 253.919 17.2749 252.149 18.2075C254.424 17.0417 254.07 11.8189 251.138 12.7515Z" fill="#C7C7C7" fill-opacity="0.1"/>
<path d="M275.256 233.977C275.256 233.884 275.256 233.79 275.307 233.697C275.458 232.485 274.043 231.598 273.739 233.137C273.486 234.257 272.88 235.143 272.779 236.355C272.627 237.567 272.627 238.78 272.526 239.946C272.323 242.371 273.082 244.609 273.082 246.987C273.082 249.459 273.436 251.93 273.335 254.402C273.183 257.246 273.436 259.905 273.942 262.702C274.346 265.174 274.295 267.646 274.295 270.117C274.295 272.542 274.751 275.293 274.043 277.625C272.526 282.988 271.767 288.024 272.425 293.573C272.728 296.231 273.234 298.75 273.284 301.408C273.284 304.159 273.436 306.957 273.335 309.708C273.284 312.413 272.829 315.071 272.779 317.776C272.728 320.574 272.981 323.372 272.677 326.17C272.425 328.781 271.919 331.392 271.312 333.957C270.655 336.848 270.604 339.74 270.301 342.678C269.795 347.854 269.998 353.403 270.604 358.579C270.958 361.47 271.514 364.268 271.565 367.206C271.616 370.191 271.666 373.222 271.666 376.206C271.666 379.611 271.565 382.968 271.363 386.372C271.211 388.191 272.172 391.362 271.009 392.901C270.604 393.46 271.211 395.233 271.919 394.44C272.93 393.321 273.082 392.062 273.082 390.663C273.031 388.238 273.082 385.859 273.234 383.434C273.638 378.025 273.335 372.569 273.537 367.113C273.689 361.704 273.588 356.341 273.84 350.978C274.093 345.149 275.408 339.74 276.925 334.097C278.442 328.408 278.138 322.952 278.391 317.169C278.644 311.527 278.998 306.024 278.897 300.335C278.796 294.786 277.076 289.563 278.239 284.014C278.796 281.495 279.807 279.21 279.908 276.599C280.06 273.801 279.857 271.003 279.857 268.252C279.857 264.987 279.402 261.91 278.897 258.692C278.442 255.801 278.947 252.91 278.492 250.018C278.088 247.36 277.026 244.702 276.065 242.137C275.003 239.34 275.256 236.169 275.408 233.277C274.852 233.277 274.346 233.324 273.79 233.324C273.79 233.417 273.79 233.51 273.79 233.65C273.739 234.77 275.104 235.282 275.256 233.977Z" fill="#C7C7C7" fill-opacity="0.1"/>
<path d="M247.851 194.013C247.902 193.92 247.952 193.827 248.003 193.733C247.548 193.733 247.093 193.733 246.638 193.78C246.992 194.246 246.233 195.925 246.081 196.485C245.879 197.371 245.677 198.257 245.525 199.143C244.969 202.267 244.514 205.392 244.008 208.469C243.503 211.407 243.907 214.532 243.907 217.516C243.907 220.967 244.514 224.418 244.463 227.869C244.463 230.853 244.413 233.838 244.362 236.775C244.312 240.319 243.604 243.724 244.008 247.268C244.362 250.299 245.373 253.237 245.778 256.221C246.182 259.532 245.93 262.936 245.475 266.201C245.02 269.138 245.07 272.17 244.564 275.107C244.312 276.646 243.654 278.092 243.402 279.631C243.098 281.31 242.845 282.988 242.593 284.667C242.137 287.652 241.935 290.683 241.986 293.714C241.986 296.932 241.834 300.289 242.795 303.46C244.767 309.989 244.362 317.357 244.211 324.118C244.109 327.383 243.199 330.554 243.199 333.818C243.199 335.124 243.503 336.383 243.553 337.688C243.705 339.694 243.149 341.699 243.098 343.704C243.048 347.481 243.452 351.212 242.896 354.943C242.39 358.58 241.986 362.124 241.986 365.808C241.986 369.445 242.188 373.129 242.491 376.767C242.744 380.311 243.3 383.808 242.946 387.352C242.896 388.098 243.907 389.311 244.261 388.098C244.564 387.166 244.969 386.373 245.02 385.394C245.121 383.808 244.767 382.129 244.666 380.591C244.413 376.813 244.109 373.036 244.008 369.305C243.806 362.357 245.222 355.549 245.121 348.601C245.07 345.429 245.222 342.445 245.475 339.321C245.576 337.735 245.121 336.243 245.07 334.657C244.969 332.512 245.424 330.367 245.727 328.269C246.183 325.191 246.081 322.113 246.132 319.035C246.183 315.212 246.385 311.341 246.486 307.517C246.536 305.932 246.334 304.486 246.183 302.947C245.98 301.222 246.182 299.59 246.284 297.911C246.435 294.6 246.233 291.289 246.739 287.978C247.244 284.76 248.154 281.729 249.166 278.605C250.126 275.574 250.278 272.216 250.784 269.092C251.289 265.688 251.643 262.237 251.542 258.786C251.441 255.289 250.632 252.024 249.924 248.62C249.216 245.216 249.722 241.998 249.924 238.594C250.126 235.33 250.025 231.972 250.076 228.708C250.126 224.651 249.469 220.687 249.469 216.63C249.469 214.765 249.317 212.853 249.317 210.987C249.368 209.542 249.772 208.096 249.823 206.651C249.975 203.48 249.823 200.355 249.57 197.231C249.419 195.552 249.216 192.987 247.75 191.821C247.042 191.262 246.486 192.148 246.334 192.661C246.284 192.754 246.284 192.894 246.233 192.987C246.081 193.547 247.194 195.226 247.851 194.013Z" fill="#B0ECFF" fill-opacity="0.07"/>
<path d="M234.25 404.278C233.795 402.133 233.137 400.454 233.39 398.215C233.593 396.49 233.289 394.765 233.39 393.039C233.491 391.454 233.694 389.822 233.744 388.236C233.744 386.184 233.188 384.226 233.036 382.22C232.733 378.583 232.733 374.946 232.784 371.308C232.784 369.21 232.784 367.158 232.784 365.06C232.784 363.241 232.48 361.189 232.834 359.417C233.188 357.598 233.896 355.826 234.25 353.961C234.604 351.909 235.008 349.811 235.312 347.712C235.615 345.707 235.817 343.702 235.868 341.697C235.918 339.878 236.373 338.059 236.475 336.241C236.727 327.8 236.07 319.22 234.705 310.826C234.402 308.821 234.503 306.909 234.452 304.903C234.402 302.945 233.896 301.08 233.896 299.121C233.845 295.017 233.188 291.007 233.087 286.903C232.885 278.789 232.531 270.722 233.39 262.561C233.795 258.551 234.806 254.68 234.654 250.623C234.503 246.613 234.351 242.556 234.452 238.545C234.553 234.441 236.02 230.618 236.373 226.561C236.727 222.783 237.081 219.146 236.424 215.369C236.02 212.944 235.666 210.566 235.767 208.094C235.868 205.856 236.222 203.617 236.323 201.379C236.525 196.716 236.121 192.052 235.666 187.389C235.211 182.633 235.312 177.783 235.261 173.026C235.211 168.783 235.918 164.259 234.958 160.109C234.553 158.337 233.036 159.503 233.188 160.855C233.694 164.819 232.935 169.109 232.885 173.119C232.834 177.456 232.48 181.84 232.531 186.177C232.581 190.42 232.885 194.664 232.935 198.907C232.986 203.058 232.025 207.161 232.379 211.312C232.531 213.13 232.834 214.902 233.087 216.721C233.441 218.866 233.289 220.825 233.087 222.97C232.784 226.98 231.519 230.757 231.014 234.721C230.458 238.778 230.609 242.975 230.609 247.079C230.609 248.991 230.862 250.903 230.71 252.768C230.559 254.867 229.952 256.965 229.649 259.064C229.042 263.121 229.042 267.224 228.587 271.281C228.132 275.292 228.182 279.395 228.081 283.406C227.98 287.556 228.334 291.613 228.283 295.717C228.283 297.535 228.031 299.354 228.182 301.219C228.334 303.225 228.637 305.137 228.637 307.188C228.536 311.479 229.699 315.769 230.053 320.012C230.458 324.303 230.559 328.639 230.66 332.93C230.71 336.614 230.357 340.391 229.952 344.075C229.497 348.039 228.84 352.049 227.677 355.92C226.362 360.163 227.12 365.199 227.12 369.63C227.12 374.013 227.373 378.163 227.98 382.5C228.283 384.459 228.941 386.371 229.194 388.329C229.446 390.381 229.244 392.48 229.497 394.485C229.649 395.417 230.003 396.21 230.306 397.143C230.609 398.169 230.458 399.241 230.66 400.267C231.115 402.179 232.43 403.205 233.744 404.604C234.098 404.884 234.3 404.464 234.25 404.278Z" fill="#C7C7C7" fill-opacity="0.1"/>
<path d="M244.211 178.39C244.919 173.82 245.778 169.343 246.132 164.726C246.385 160.716 246.537 156.612 247.346 152.649C248.155 148.592 248.003 145.001 247.447 140.897C247.194 138.939 247.548 136.887 247.346 134.882C247.143 132.736 246.941 130.591 246.941 128.4C247.042 123.923 247.295 119.586 246.638 115.109C245.98 110.493 244.919 105.969 244.11 101.399C243.756 99.3941 243.149 97.3889 242.947 95.337C242.694 93.052 242.744 90.7204 242.643 88.4354C242.441 84.2384 242.441 80.0415 242.188 75.8446C242.037 73.5129 241.43 71.2746 241.126 68.9429C240.823 66.7046 240.57 64.5128 240.115 62.2745C239.104 57.4247 239.862 52.435 239.357 47.5385C239.256 46.3727 237.89 46.3727 237.992 47.5852C238.194 51.7355 237.536 55.8392 237.638 59.9895C237.688 61.9947 238.093 63.9999 238.295 66.0051C238.497 68.1035 238.548 70.202 238.851 72.3005C240.166 80.9275 237.638 89.6945 238.649 98.3681C239.154 102.938 239.61 107.462 240.52 111.985C241.379 116.415 241.834 120.659 241.632 125.182C241.48 129.426 242.087 133.622 242.037 137.866C241.986 141.69 243.048 145.467 242.34 149.244C241.531 153.721 241.025 158.198 241.228 162.721C241.43 168.037 242.441 173.167 243.25 178.39C243.2 179.183 244.11 179.089 244.211 178.39Z" fill="#C7C7C7" fill-opacity="0.1"/>
<path d="M225.148 9.39384C225.148 9.53373 225.098 9.67363 225.098 9.81353C225.3 9.39383 225.502 9.02077 225.705 8.60108C223.328 10.7462 223.834 15.4561 223.733 18.254C223.632 22.5909 224.441 26.8811 224.491 31.2179C224.542 35.3216 224.036 39.4253 224.39 43.5289C224.795 48.0989 225.047 52.6223 225.856 57.1457C227.474 66.0992 225.705 75.006 225.907 84.0061C225.957 86.1512 225.957 88.3429 226.16 90.488C226.362 92.6331 226.918 94.685 227.019 96.8301C227.272 101.167 227.626 105.504 227.677 109.841C227.778 114.457 228.587 118.887 228.941 123.457C229.295 128.167 229.547 132.924 229.901 137.634C229.952 138.333 230.862 138.706 230.963 137.82C231.115 136.002 231.115 134.136 231.216 132.318C231.267 130.359 230.913 128.447 230.913 126.488C230.862 122.338 230.306 118.234 230.154 114.084C230.003 109.747 230.407 105.317 230.66 100.98C230.761 98.8819 231.014 96.7835 231.064 94.7316C231.115 92.5865 230.71 90.4414 230.761 88.2963C231.014 79.3428 232.935 70.2495 232.076 61.3426C231.671 56.8193 230.559 52.3892 230.356 47.8658C230.154 43.5756 229.598 39.4253 229.8 35.1351C230.003 30.5184 229.345 25.8085 228.637 21.2385C228.233 18.767 228.132 16.3421 227.879 13.8239C227.828 13.2643 227.525 11.8187 227.525 11.6788C227.576 10.8394 227.879 10.3265 227.727 9.44047C227.424 7.57516 225.452 7.71506 225.148 9.39384Z" fill="#C7C7C7" fill-opacity="0.1"/>
<path d="M211.547 37.2797C209.423 38.1657 209.929 40.404 210.485 42.0828C211.294 44.7409 211.547 47.9119 211.699 50.6632C212.002 57.1452 213.013 63.767 214.126 70.2023C215.289 76.8242 215.693 83.6325 214.783 90.301C214.379 93.2855 214.581 96.3632 214.581 99.3944C214.581 103.032 213.974 106.622 213.974 110.306C213.974 117.488 214.075 124.716 214.075 131.897C214.075 135.208 214.126 138.519 214.075 141.83C214.025 145.467 214.581 149.058 214.581 152.696C214.581 155.867 214.227 158.944 214.682 162.115C215.188 165.799 215.086 169.39 215.086 173.121C215.036 180.255 215.188 187.437 215.491 194.572C215.643 198.209 215.036 201.893 214.935 205.53C214.834 209.494 214.834 213.458 214.783 217.422C214.733 221.292 214.985 225.209 215.137 229.033C215.289 233.23 215.137 237.52 215.643 241.671C215.744 242.603 216.907 243.163 217.058 241.904C217.867 234.956 217.665 227.774 217.867 220.826C217.969 217.701 218.424 214.577 218.626 211.453C218.879 207.629 219.081 203.805 219.688 199.981C220.8 193.499 220.547 186.784 220.598 180.209C220.648 176.618 220.699 173.027 220.749 169.437C220.8 165.986 220.193 162.675 219.991 159.224C219.789 156.1 220.294 153.022 220.042 149.898C219.738 146.214 219.637 142.669 219.637 138.986C219.637 131.991 219.688 125.042 219.637 118.047C219.637 114.503 219.485 111.006 219.536 107.462C219.587 104.198 220.143 100.98 220.143 97.7156C220.143 91.0005 221.356 84.2387 220.648 77.5236C220.244 73.9329 219.738 70.3888 219.131 66.8448C218.525 63.1608 217.463 59.6167 216.957 55.9327C216.553 52.9016 215.794 49.9171 215.137 46.9326C214.783 45.3471 214.328 43.715 213.873 42.1295C213.721 41.5699 212.255 39.145 212.407 38.7719C212.71 38.3522 212.407 36.9066 211.547 37.2797Z" fill="#C7C7C7" fill-opacity="0.1"/>
<path d="M214.48 256.079C215.238 256.592 215.086 259.017 215.339 259.763C215.895 261.535 215.289 263.4 215.592 265.266C215.895 267.131 216.098 268.903 216.148 270.815C216.148 273.1 216.704 275.198 216.654 277.437C216.603 279.395 217.058 281.307 217.109 283.219C217.159 285.364 216.856 287.509 217.21 289.654C217.918 293.991 217.463 298.375 217.463 302.758C217.463 307.468 217.968 312.178 218.676 316.841C219.384 321.458 220.952 325.795 221.103 330.458C221.255 334.795 220.8 339.038 220.294 343.329C220.092 345.101 220.092 346.779 219.839 348.552C219.536 350.743 219.081 352.842 218.575 355.033C217.513 359.557 217.412 364.313 217.463 368.883C217.513 373.267 216.755 377.744 218.272 381.987C218.676 383.2 219.789 381.941 219.637 381.148C218.727 376.624 219.334 372.148 219.334 367.531C219.334 362.961 219.991 358.298 221.205 353.868C222.216 350.09 223.025 346.173 223.429 342.349C223.632 340.251 224.339 338.292 224.592 336.194C224.845 334.002 224.794 331.67 224.845 329.479C225.098 319.733 222.924 310.126 223.075 300.38C223.126 298.002 223.176 295.67 223.176 293.292C223.227 291.1 222.62 289.095 222.57 286.95C222.469 282.66 222.671 278.276 222.014 273.986C221.66 271.748 221.356 269.416 220.851 267.178C220.396 264.986 219.384 262.981 219.081 260.789C218.828 259.017 217.766 257.618 217.058 255.986C216.654 255.006 216.098 253.98 214.834 253.98C213.873 254.027 213.873 255.706 214.48 256.079Z" fill="#C7C7C7" fill-opacity="0.1"/>
<path d="M284.408 91.9792C283.953 95.3834 283.194 98.6477 282.487 102.005C281.728 105.503 281.93 109.233 281.93 112.777C281.88 116.368 281.829 119.912 281.829 123.503C281.829 126.814 281.324 129.985 281.071 133.249C280.565 140.197 279.908 147.099 279.706 154.047C279.503 160.856 280.312 167.477 280.616 174.239C280.919 181.374 280.515 188.649 281.526 195.737C281.779 197.369 282.133 198.861 282.133 200.493C282.133 202.032 282.082 203.525 282.183 205.063C282.335 208.514 282.942 211.918 282.942 215.416C282.942 218.26 283.599 220.965 284.003 223.716C284.56 227.307 284.964 230.945 285.268 234.582C285.773 241.297 286.38 247.919 286.38 254.681C286.38 262.748 286.784 270.676 287.543 278.696C288.251 286.018 286.936 293.665 288.554 300.847C289.009 302.852 290.931 301.593 290.627 299.961C289.464 293.246 290.627 286.298 289.97 279.489C289.313 272.494 288.756 265.593 288.756 258.598C288.756 255.194 288.807 251.836 288.756 248.432C288.706 244.934 288.048 241.484 287.745 237.986C287.239 231.504 286.279 225.069 285.773 218.634C285.52 215.602 286.279 212.618 286.077 209.587C285.874 206.229 286.127 202.965 286.127 199.607C286.127 196.576 285.773 193.638 285.975 190.654C286.178 186.69 286.329 182.726 286.279 178.716C286.178 171.861 285.015 165.053 285.116 158.244C285.166 155.027 285.116 151.762 285.369 148.545C285.672 144.954 286.228 141.41 286.329 137.819C286.43 133.995 287.189 130.171 287.29 126.347C287.391 122.663 287.29 119.026 287.29 115.342C287.29 111.472 286.886 107.508 287.037 103.591C287.138 101.539 287.593 99.5337 287.543 97.5285C287.492 95.6165 287.037 93.7512 286.734 91.8859C286.532 90.3471 284.61 90.4403 284.408 91.9792Z" fill="#C7C7C7" fill-opacity="0.1"/>
<path d="M286.481 310.592C284.357 317.774 284.357 325.328 284.357 332.743C284.357 336.52 284.307 340.297 284.357 344.075C284.408 347.572 283.902 350.976 283.852 354.474C283.801 358.251 283.751 362.075 283.902 365.805C284.105 369.443 284.661 372.987 284.408 376.624C283.852 384.179 285.419 391.78 286.279 399.241C286.38 400.314 287.745 400.966 287.947 399.521C288.807 392.199 286.784 384.832 288.15 377.51C289.565 370.142 289.414 362.728 289.414 355.266C289.414 351.862 290.02 348.551 289.919 345.147C289.818 341.416 289.869 337.686 289.869 334.002C289.869 326.261 289.97 318.333 287.796 310.825C287.644 310.173 286.734 309.706 286.481 310.592Z" fill="#C7C7C7" fill-opacity="0.1"/>
<path d="M281.88 86.6631C281.779 86.7097 281.728 86.7564 281.627 86.803C278.998 88.2486 281.93 92.4922 283.194 90.3471C284.661 87.8289 284.863 84.8444 285.47 82.0931C286.077 79.2485 285.925 76.4505 285.874 73.6059C285.773 70.2018 284.863 66.8908 284.711 63.5333C284.61 60.3156 285.065 57.3311 284.459 54.0669C283.852 50.8492 283.346 47.8181 283.296 44.5538C283.245 41.3828 282.841 38.3983 282.284 35.2739C282.032 33.7816 282.183 32.2894 281.93 30.8438C281.678 29.3049 281.223 27.8127 281.02 26.2272C280.616 22.7763 280.565 19.3255 280.161 15.8747C280.06 15.0353 278.998 14.5224 278.846 15.6415C278.138 21.8437 278.138 28.0458 277.734 34.2013C277.531 37.3724 277.936 40.59 277.784 43.761C277.633 47.2119 277.885 50.4761 278.593 53.8337C278.897 55.2327 279.251 56.6317 279.352 58.0773C279.453 59.6628 279.149 61.2949 279.099 62.8804C279.048 66.1447 280.161 69.3157 280.312 72.58C280.414 75.4246 280.666 78.2692 280.414 81.1138C280.262 82.6527 280.565 84.1449 280.515 85.7304C280.464 87.3159 280.262 88.4351 280.818 90.0206C281.475 89.0414 282.133 88.0621 282.79 87.0828C282.638 86.9895 282.537 86.9429 282.385 86.8496C282.234 86.6631 282.032 86.5698 281.88 86.6631Z" fill="#F7F6DB"/>
</svg>
