<svg width="321" height="443" viewBox="0 0 321 443" fill="none" xmlns="http://www.w3.org/2000/svg">
<path d="M0 63.2417C0 39.522 16.6809 18.9464 40.0098 14.6587C132.351 -2.31296 196.034 -4.66838 283.162 13.6502C305.52 18.351 321 38.4896 321 61.3367V381.054C321 403.955 305.445 424.106 283.05 428.891C195.231 447.656 131.597 447.15 38.8561 428.462C16.0512 423.866 0 403.531 0 380.268V63.2417Z" fill="#6BBE78"/>
<g filter="url(#filter0_d_919_1825)">
<path d="M10 64.0224C10 46.9455 22.0215 32.153 38.8042 28.9972C133.43 11.2041 195.243 9.84338 283.322 28.4219C299.597 31.8547 311 46.4162 311 63.0492V380.792C311 397.676 299.249 412.374 282.68 415.622C191.582 433.476 130.11 432.696 38.693 415.432C21.9552 412.271 10 397.497 10 380.463V64.0224Z" fill="#FCFBDD"/>
</g>
<defs>
<filter id="filter0_d_919_1825" x="10" y="15.0605" width="301" height="417.639" filterUnits="userSpaceOnUse" color-interpolation-filters="sRGB">
<feFlood flood-opacity="0" result="BackgroundImageFix"/>
<feColorMatrix in="SourceAlpha" type="matrix" values="0 0 0 0 0 0 0 0 0 0 0 0 0 0 0 0 0 0 127 0" result="hardAlpha"/>
<feOffset dy="4"/>
<feComposite in2="hardAlpha" operator="out"/>
<feColorMatrix type="matrix" values="0 0 0 0 0 0 0 0 0 0 0 0 0 0 0 0 0 0 0.11 0"/>
<feBlend mode="normal" in2="BackgroundImageFix" result="effect1_dropShadow_919_1825"/>
<feBlend mode="normal" in="SourceGraphic" in2="effect1_dropShadow_919_1825" result="shape"/>
</filter>
</defs>
</svg>
