<svg width="267" height="73" viewBox="0 0 267 73" fill="none" xmlns="http://www.w3.org/2000/svg">
    <defs>
        <linearGradient id="paint0_linear_871_566" x1="133.482" y1="4.70026" x2="133.482" y2="68.7003" gradientUnits="userSpaceOnUse">
            <stop stop-color="#23A8F8"/>
            <stop offset="0.421875" stop-color="#1B9DF7"/>
            <stop offset="1" stop-color="#0E7DEC"/>
        </linearGradient>
    </defs>

    <path d="M2.2924 16.7462C4.96092 6.79499 14.6535 0.700256 24.9564 0.700256H242.209C252.41 0.700256 262.04 6.67208 264.712 16.5175C267.774 27.8006 267.758 37.4167 264.692 48.7706C262.019 58.6671 252.362 64.7003 242.111 64.7003H24.7353C14.5442 64.7003 4.92046 58.7401 2.26396 48.9013C-0.801042 37.5495 -0.717225 27.9695 2.2924 16.7462Z" fill="#42CAFF"/>
<path d="M2.2924 24.7462C4.96092 14.795 14.6535 8.70026 24.9564 8.70026H242.209C252.41 8.70026 262.04 14.6721 264.712 24.5175C267.774 35.8006 267.758 45.4167 264.692 56.7706C262.019 66.6671 252.362 72.7003 242.111 72.7003H24.7353C14.5442 72.7003 4.92046 66.7401 2.26396 56.9013C-0.801042 45.5495 -0.717225 35.9695 2.2924 24.7462Z" fill="#054EC1"/>
<path d="M2.2924 20.7462C4.96092 10.795 14.6535 4.70026 24.9564 4.70026H242.209C252.41 4.70026 262.04 10.6721 264.712 20.5175C267.774 31.8006 267.758 41.4167 264.692 52.7706C262.019 62.6671 252.362 68.7003 242.111 68.7003H24.7353C14.5442 68.7003 4.92046 62.7401 2.26396 52.9013C-0.801042 41.5495 -0.717225 31.9695 2.2924 20.7462Z" fill="url(#paint0_linear_871_566)"/>
<ellipse rx="6.13731" ry="1.95341" transform="matrix(0.985672 -0.168671 0.168782 0.985653 21.3592 2.96057)" fill="white" fill-opacity="0.5"/>
</svg>
