<svg width="148" height="53" viewBox="0 0 148 53" fill="none" xmlns="http://www.w3.org/2000/svg">
    <defs>
        <filter id="filter0_dd_3_2909" x="44.9198" y="19.2332" width="59.4766" height="22.2412" filterUnits="userSpaceOnUse" color-interpolation-filters="sRGB">
            <feFlood flood-opacity="0" result="BackgroundImageFix"/>
            <feColorMatrix in="SourceAlpha" type="matrix" values="0 0 0 0 0 0 0 0 0 0 0 0 0 0 0 0 0 0 127 0" result="hardAlpha"/>
            <feOffset dy="2"/>
            <feGaussianBlur stdDeviation="0.5"/>
            <feComposite in2="hardAlpha" operator="out"/>
            <feColorMatrix type="matrix" values="0 0 0 0 0.0019618 0 0 0 0 0.470833 0 0 0 0 0.0860048 0 0 0 1 0"/>
            <feBlend mode="normal" in2="BackgroundImageFix" result="effect1_dropShadow_3_2909"/>
            <feColorMatrix in="SourceAlpha" type="matrix" values="0 0 0 0 0 0 0 0 0 0 0 0 0 0 0 0 0 0 127 0" result="hardAlpha"/>
            <feOffset dy="1"/>
            <feComposite in2="hardAlpha" operator="out"/>
            <feColorMatrix type="matrix" values="0 0 0 0 0.135556 0 0 0 0 0.397778 0 0 0 0 0.182558 0 0 0 1 0"/>
            <feBlend mode="normal" in2="effect1_dropShadow_3_2909" result="effect2_dropShadow_3_2909"/>
            <feBlend mode="normal" in="SourceGraphic" in2="effect2_dropShadow_3_2909" result="shape"/>
        </filter>
        <linearGradient id="paint0_linear_3_2909" x1="73.965" y1="2.93628" x2="73.965" y2="49.9176" gradientUnits="userSpaceOnUse">
            <stop stop-color="#A0DDA4"/>
            <stop offset="0.427083" stop-color="#5EBB64"/>
            <stop offset="1" stop-color="#5EBB64"/>
        </linearGradient>
    </defs>

    <path d="M0.276832 18.234C1.39511 7.14737 11.9822 0 23.1251 0H124.977C136.037 0 146.572 7.04325 147.678 18.0477C148.043 21.6823 148.04 25.1967 147.669 28.8431C146.546 39.8867 135.993 46.9813 124.893 46.9813H22.935C11.8835 46.9813 1.35852 39.9456 0.265818 28.9483C-0.0942681 25.3242 -0.0864933 21.8361 0.276832 18.234Z" fill="#74C079"/>
<path d="M0.276832 24.1066C1.39511 13.0199 11.9822 5.87256 23.1251 5.87256H124.977C136.037 5.87256 146.572 12.9158 147.678 23.9202C148.043 27.5548 148.04 31.0692 147.669 34.7156C146.546 45.7593 135.993 52.8538 124.893 52.8538H22.935C11.8835 52.8538 1.35852 45.8181 0.265818 34.8208C-0.0942681 31.1968 -0.0864933 27.7086 0.276832 24.1066Z" fill="#23652F"/>
<path d="M0.276832 21.1703C1.39511 10.0837 11.9822 2.93628 23.1251 2.93628H124.977C136.037 2.93628 146.572 9.97953 147.678 20.9839C148.043 24.6186 148.04 28.1329 147.669 31.7793C146.546 42.823 135.993 49.9176 124.893 49.9176H22.935C11.8835 49.9176 1.35852 42.8818 0.265818 31.8845C-0.0942681 28.2605 -0.0864933 24.7723 0.276832 21.1703Z" fill="url(#paint0_linear_3_2909)"/>
<g filter="url(#filter0_dd_3_2909)">
<path d="M55.4569 24.8181C55.4569 25.9067 55.2342 26.9581 54.7889 27.9724C54.3436 28.9744 53.7437 29.865 52.9891 30.6443C52.2469 31.4236 51.3748 32.0483 50.3729 32.5183C49.3833 32.976 48.3381 33.2048 47.2371 33.2048H47.2C46.9774 33.2048 46.7918 33.1059 46.6434 32.908C46.5073 32.6977 46.3898 32.4379 46.2909 32.1287C46.1919 31.8194 46.1177 31.4731 46.0682 31.0896C46.0187 30.7061 45.9816 30.335 45.9569 29.9763C45.9321 29.6052 45.9198 29.2774 45.9198 28.9929C45.9198 28.696 45.9198 28.4734 45.9198 28.325C45.9198 27.9044 45.9259 27.49 45.9383 27.0818C45.9507 26.6612 45.9692 26.2406 45.994 25.8201C45.994 25.684 46.0002 25.4861 46.0125 25.2263C46.0373 24.9542 46.062 24.6511 46.0868 24.3171C46.1115 23.9832 46.1424 23.6368 46.1795 23.2781C46.2166 22.907 46.2537 22.5668 46.2909 22.2576C46.3403 21.936 46.3836 21.6576 46.4207 21.4226C46.4702 21.1752 46.5259 21.0082 46.5877 20.9216C46.7485 20.6495 46.9959 20.4083 47.3299 20.198C47.6639 19.9877 48.0226 19.8145 48.4061 19.6785C48.8019 19.5424 49.1978 19.4434 49.5936 19.3816C50.0018 19.3074 50.3543 19.2703 50.6512 19.2703C51.4676 19.2703 52.1727 19.4249 52.7664 19.7341C53.3726 20.031 53.8735 20.4392 54.2694 20.9587C54.6776 21.4659 54.9744 22.0535 55.16 22.7214C55.3579 23.3894 55.4569 24.0883 55.4569 24.8181ZM52.3397 25.3562C52.3397 25.0841 52.2902 24.8057 52.1912 24.5212C52.0923 24.2367 51.95 23.977 51.7645 23.7419C51.5913 23.5069 51.3748 23.3214 51.1151 23.1853C50.8677 23.0369 50.5894 22.9626 50.2801 22.9626C50.0203 22.9626 49.7544 23.0245 49.4823 23.1482C49.4204 23.1853 49.3647 23.3028 49.3153 23.5007C49.2658 23.6863 49.2225 23.9151 49.1854 24.1873C49.1606 24.4594 49.1359 24.7563 49.1112 25.0779C49.0864 25.3995 49.0679 25.7087 49.0555 26.0056C49.0555 26.2901 49.0493 26.5437 49.0369 26.7664C49.0369 26.989 49.0369 27.1375 49.0369 27.2117C49.0369 27.3354 49.0369 27.5209 49.0369 27.7683C49.0369 28.0033 49.0431 28.2384 49.0555 28.4734C49.0802 28.7084 49.105 28.9125 49.1297 29.0857C49.1545 29.2589 49.1978 29.3455 49.2596 29.3455C49.6307 29.3455 49.9956 29.2032 50.3543 28.9187C50.7254 28.6218 51.0594 28.2631 51.3563 27.8425C51.6532 27.422 51.8882 26.9828 52.0614 26.5251C52.2469 26.0675 52.3397 25.6778 52.3397 25.3562ZM64.5662 29.865C64.5662 30.2856 64.4302 30.7 64.158 31.1082C63.8983 31.504 63.5643 31.8627 63.1561 32.1843C62.7603 32.4936 62.3335 32.7472 61.8758 32.9451C61.4181 33.1306 60.9976 33.2234 60.6141 33.2234C59.9585 33.2234 59.3709 33.0626 58.8514 32.741C58.3442 32.407 57.9175 31.9864 57.5711 31.4792C57.2248 30.9721 56.9588 30.4154 56.7733 29.8093C56.6001 29.1908 56.5135 28.5909 56.5135 28.0095C56.5135 27.391 56.6001 26.7292 56.7733 26.0242C56.9465 25.3191 57.2062 24.6697 57.5526 24.0759C57.9113 23.4822 58.3566 22.9874 58.8885 22.5916C59.4328 22.1957 60.076 21.9978 60.8182 21.9978C61.2388 21.9978 61.6408 22.072 62.0243 22.2205C62.4077 22.3565 62.7417 22.5544 63.0262 22.8142C63.3107 23.074 63.5396 23.3832 63.7127 23.7419C63.8859 24.1007 63.9725 24.5027 63.9725 24.948C63.9725 25.5294 63.8488 26.0736 63.6014 26.5808C63.354 27.088 63.0262 27.5271 62.618 27.8982C62.2098 28.2693 61.7397 28.5723 61.2078 28.8074C60.6759 29.03 60.1317 29.1537 59.575 29.1785C59.6245 29.5372 59.7668 29.797 60.0018 29.9578C60.2492 30.1186 60.5399 30.199 60.8739 30.199C61.1213 30.199 61.3625 30.1371 61.5975 30.0134C61.8325 29.8897 62.0614 29.7537 62.284 29.6052C62.5067 29.4444 62.7231 29.3022 62.9334 29.1785C63.1561 29.0548 63.3787 28.9929 63.6014 28.9929C63.8488 28.9929 64.0715 29.0733 64.2694 29.2341C64.4673 29.3949 64.5662 29.6052 64.5662 29.865ZM61.5604 25.3191C61.5604 25.1583 61.5171 24.9913 61.4305 24.8181C61.3439 24.6449 61.2078 24.5583 61.0223 24.5583C60.7502 24.5583 60.5213 24.6326 60.3358 24.781C60.1502 24.9171 59.9956 25.0964 59.8719 25.3191C59.7482 25.5294 59.6493 25.7582 59.575 26.0056C59.5132 26.253 59.4761 26.4819 59.4637 26.6921C59.6369 26.655 59.841 26.6056 60.076 26.5437C60.3234 26.4819 60.5522 26.4014 60.7625 26.3025C60.9852 26.1912 61.1707 26.0551 61.3192 25.8943C61.48 25.7335 61.5604 25.5417 61.5604 25.3191ZM74.3065 27.6384C74.3065 28.1827 74.2446 28.7826 74.1209 29.4382C74.0096 30.0815 73.8117 30.6814 73.5272 31.238C73.255 31.7947 72.8901 32.2585 72.4325 32.6296C71.9871 33.0007 71.4243 33.1863 70.744 33.1863C70.5708 33.1863 70.3914 33.1739 70.2059 33.1492C70.0203 33.1244 69.841 33.0811 69.6678 33.0193C69.507 32.9574 69.3586 32.877 69.2225 32.7781C69.0864 32.6667 68.9813 32.5245 68.9071 32.3513L68.7401 35.0232C68.7277 35.3077 68.7153 35.6479 68.703 36.0437C68.703 36.4395 68.6535 36.8168 68.5545 37.1755C68.4679 37.5343 68.3133 37.8373 68.0907 38.0847C67.8804 38.3445 67.5711 38.4744 67.1629 38.4744C66.9279 38.4744 66.73 38.3507 66.5692 38.1033C66.4084 37.8682 66.2785 37.5652 66.1795 37.1941C66.0929 36.823 66.0249 36.4086 65.9754 35.9509C65.9259 35.4932 65.895 35.0541 65.8827 34.6335C65.8703 34.213 65.8641 33.8295 65.8641 33.4832C65.8641 33.1368 65.8641 32.8832 65.8641 32.7224C65.8641 31.8936 65.8579 31.071 65.8455 30.2546C65.8332 29.4259 65.827 28.5971 65.827 27.7683C65.827 27.6199 65.827 27.391 65.827 27.0818C65.827 26.7602 65.8394 26.4138 65.8641 26.0427C65.8888 25.6716 65.9259 25.2882 65.9754 24.8923C66.0373 24.4965 66.1239 24.1378 66.2352 23.8162C66.3465 23.4822 66.4888 23.2162 66.6619 23.0183C66.8351 22.808 67.0454 22.7029 67.2928 22.7029C67.4536 22.7029 67.5959 22.7524 67.7196 22.8513C67.8556 22.9379 67.967 23.0554 68.0536 23.2039C68.1525 23.3399 68.2329 23.4884 68.2948 23.6492C68.3566 23.81 68.4061 23.9584 68.4432 24.0945C68.8267 23.6615 69.2658 23.3337 69.7606 23.1111C70.2677 22.8884 70.8058 22.7771 71.3748 22.7771C71.9686 22.7771 72.451 22.9441 72.8221 23.2781C73.2056 23.6121 73.5024 24.0264 73.7127 24.5212C73.9354 25.016 74.09 25.5479 74.1766 26.1169C74.2632 26.6736 74.3065 27.1807 74.3065 27.6384ZM71.6532 27.49C71.6532 27.3044 71.6346 27.1189 71.5975 26.9333C71.5728 26.7354 71.5171 26.5561 71.4305 26.3953C71.3563 26.2221 71.245 26.086 71.0965 25.9871C70.9481 25.8757 70.7625 25.8201 70.5399 25.8201C70.243 25.8201 69.9276 25.919 69.5936 26.1169C69.272 26.3025 69.0308 26.519 68.87 26.7664C68.8081 26.8653 68.771 27.0261 68.7586 27.2488C68.7463 27.4714 68.7401 27.6384 68.7401 27.7498C68.7401 27.8363 68.7401 27.9539 68.7401 28.1023C68.7524 28.2384 68.7648 28.3806 68.7772 28.5291C68.7896 28.6775 68.8019 28.8197 68.8143 28.9558C68.839 29.0919 68.87 29.197 68.9071 29.2712C68.9442 29.3826 69.0246 29.4877 69.1483 29.5867C69.272 29.6733 69.408 29.7537 69.5565 29.8279C69.7049 29.9021 69.8534 29.9578 70.0018 29.9949C70.1626 30.032 70.2987 30.0505 70.41 30.0505C70.6698 30.0505 70.88 29.9516 71.0409 29.7537C71.2017 29.5557 71.3254 29.3207 71.4119 29.0486C71.5109 28.7764 71.5728 28.4981 71.5975 28.2136C71.6346 27.9167 71.6532 27.6755 71.6532 27.49ZM79.4637 33.7058C78.8328 33.7058 78.2824 33.5388 77.8123 33.2048C77.3423 32.8708 76.9465 32.4441 76.6248 31.9246C76.3032 31.405 76.062 30.8298 75.9012 30.199C75.7404 29.5557 75.66 28.9249 75.66 28.3064C75.66 27.6508 75.7404 26.9766 75.9012 26.2839C76.062 25.5789 76.3094 24.9418 76.6434 24.3728C76.9774 23.7914 77.4041 23.3214 77.9237 22.9626C78.4432 22.5916 79.0617 22.406 79.7791 22.406C80.4718 22.406 81.0594 22.5977 81.5418 22.9812C82.0366 23.3523 82.4325 23.8223 82.7293 24.3914C83.0262 24.948 83.2365 25.5603 83.3602 26.2283C83.4839 26.8962 83.5272 27.5271 83.4901 28.1208C83.453 28.7764 83.3478 29.4382 83.1746 30.1062C83.0138 30.7742 82.7726 31.3741 82.451 31.906C82.1294 32.4379 81.7212 32.8708 81.2264 33.2048C80.7316 33.5388 80.144 33.7058 79.4637 33.7058ZM79.6493 25.3191C79.4637 25.3191 79.2967 25.4181 79.1483 25.616C79.0122 25.8139 78.8947 26.0551 78.7957 26.3396C78.7091 26.6241 78.6411 26.9272 78.5916 27.2488C78.5422 27.558 78.5174 27.8302 78.5174 28.0652C78.5174 28.3621 78.5422 28.6837 78.5916 29.03C78.6535 29.3764 78.7339 29.698 78.8328 29.9949C78.9318 30.2794 79.0493 30.5206 79.1854 30.7185C79.3338 30.9041 79.5008 30.9968 79.6864 30.9968C79.8843 30.9968 80.0513 30.9041 80.1873 30.7185C80.3358 30.533 80.4533 30.2979 80.5399 30.0134C80.6265 29.7289 80.6883 29.4197 80.7254 29.0857C80.7625 28.7393 80.7811 28.4177 80.7811 28.1208C80.7811 27.8487 80.7564 27.5518 80.7069 27.2302C80.6574 26.8962 80.5832 26.587 80.4842 26.3025C80.3976 26.018 80.2801 25.783 80.1317 25.5974C79.9956 25.4119 79.8348 25.3191 79.6493 25.3191ZM90.3729 22.9626C90.3729 23.3214 90.2492 23.5873 90.0018 23.7605C89.7668 23.9337 89.5008 24.1007 89.2039 24.2615C88.9071 24.4099 88.6349 24.5893 88.3875 24.7996C88.1525 25.0098 88.035 25.3253 88.035 25.7458C88.035 25.9685 88.0845 26.1602 88.1834 26.321C88.2948 26.4819 88.4246 26.6303 88.5731 26.7664C88.7339 26.8901 88.9071 27.0199 89.0926 27.156C89.2782 27.2921 89.4452 27.4467 89.5936 27.6199C89.7544 27.7931 89.8843 28.0033 89.9832 28.2507C90.0946 28.4981 90.1502 28.8012 90.1502 29.1599C90.1502 29.6794 90.0142 30.1928 89.742 30.7C89.4823 31.1947 89.1421 31.6401 88.7215 32.0359C88.3133 32.4194 87.8494 32.7286 87.3299 32.9636C86.8104 33.1986 86.297 33.3162 85.7899 33.3162C85.5796 33.3162 85.3693 33.2976 85.159 33.2605C84.9487 33.2358 84.757 33.1801 84.5838 33.0935C84.423 33.0069 84.2869 32.8894 84.1756 32.741C84.0643 32.5802 84.0086 32.3761 84.0086 32.1287C84.0086 31.7823 84.0767 31.5164 84.2127 31.3308C84.3488 31.1329 84.522 30.9783 84.7323 30.8669C84.9425 30.7556 85.1652 30.669 85.4002 30.6072C85.6476 30.5453 85.8765 30.4711 86.0868 30.3845C86.297 30.2856 86.4702 30.1619 86.6063 30.0134C86.7424 29.865 86.8104 29.6547 86.8104 29.3826C86.8104 29.1228 86.7052 28.8569 86.495 28.5847C86.297 28.3002 86.0744 28.0033 85.827 27.6941C85.5796 27.3725 85.3508 27.0323 85.1405 26.6736C84.9425 26.3149 84.8436 25.919 84.8436 25.4861C84.8436 24.9542 84.9487 24.4656 85.159 24.0203C85.3817 23.5626 85.6724 23.1667 86.0311 22.8328C86.4022 22.4988 86.8228 22.239 87.2928 22.0535C87.7629 21.8556 88.2577 21.7566 88.7772 21.7566C88.9751 21.7566 89.1668 21.7751 89.3524 21.8123C89.5503 21.8494 89.7235 21.9174 89.8719 22.0164C90.0203 22.1029 90.1379 22.2266 90.2244 22.3875C90.3234 22.5359 90.3729 22.7276 90.3729 22.9626ZM94.6766 20.2166C94.6766 20.3897 94.6271 20.5444 94.5282 20.6804C94.4416 20.8165 94.3241 20.9402 94.1756 21.0515C94.0272 21.1505 93.8664 21.2309 93.6932 21.2927C93.52 21.3422 93.3592 21.3669 93.2108 21.3669C92.9634 21.3669 92.7469 21.3051 92.5614 21.1814C92.3758 21.0577 92.283 20.866 92.283 20.6062C92.283 20.4207 92.3263 20.2598 92.4129 20.1238C92.5119 19.9753 92.6294 19.8578 92.7655 19.7712C92.9015 19.6723 93.0562 19.5981 93.2293 19.5486C93.4025 19.4991 93.5695 19.4744 93.7303 19.4744C93.9653 19.4744 94.1818 19.53 94.3797 19.6414C94.5776 19.7527 94.6766 19.9444 94.6766 20.2166ZM94.825 26.5251C94.825 26.6983 94.825 26.8839 94.825 27.0818C94.825 27.2673 94.8189 27.4467 94.8065 27.6199C94.7941 27.8302 94.7879 28.1147 94.7879 28.4734C94.7879 28.8197 94.7756 29.197 94.7508 29.6052C94.7261 30.0134 94.6828 30.4278 94.6209 30.8484C94.5715 31.269 94.4849 31.6524 94.3612 31.9988C94.2375 32.3451 94.0705 32.6296 93.8602 32.8523C93.6623 33.0626 93.4087 33.1739 93.0994 33.1863C92.8644 33.1986 92.6665 33.1059 92.5057 32.908C92.3449 32.71 92.2088 32.4565 92.0975 32.1472C91.9985 31.8256 91.9243 31.4731 91.8748 31.0896C91.8254 30.6938 91.7883 30.3165 91.7635 29.9578C91.7388 29.5867 91.7264 29.2465 91.7264 28.9373C91.7264 28.628 91.7264 28.3992 91.7264 28.2507C91.7264 28.0528 91.7264 27.7745 91.7264 27.4158C91.7264 27.0447 91.7388 26.6488 91.7635 26.2283C91.7883 25.8077 91.8315 25.3809 91.8934 24.948C91.9676 24.5151 92.0666 24.1192 92.1903 23.7605C92.3263 23.4018 92.4995 23.1111 92.7098 22.8884C92.9201 22.6658 93.186 22.5544 93.5077 22.5544C93.8416 22.5544 94.0952 22.7214 94.2684 23.0554C94.4416 23.3894 94.5715 23.7791 94.658 24.2244C94.7446 24.6697 94.7941 25.115 94.8065 25.5603C94.8189 25.9932 94.825 26.3149 94.825 26.5251ZM100.966 33.8357C100.087 33.8357 99.4009 33.7182 98.9061 33.4832C98.4237 33.2605 98.0588 32.9389 97.8114 32.5183C97.5763 32.0977 97.4341 31.5906 97.3846 30.9968C97.3351 30.4031 97.3104 29.7413 97.3104 29.0115C97.3104 28.4301 97.3289 27.8487 97.3661 27.2673C97.4032 26.6736 97.4588 26.0427 97.533 25.3748C97.3599 25.3748 97.2238 25.3809 97.1248 25.3933C97.0259 25.3933 96.9455 25.3933 96.8836 25.3933C96.4878 25.3933 96.1476 25.3067 95.8631 25.1335C95.5662 24.9604 95.4178 24.6944 95.4178 24.3357C95.4178 24.113 95.5044 23.9151 95.6776 23.7419C95.8384 23.5688 96.0487 23.4203 96.3084 23.2966C96.5682 23.1729 96.8465 23.074 97.1434 22.9998C97.4526 22.9255 97.7433 22.8761 98.0155 22.8513C98.0155 22.505 98.0402 22.1215 98.0897 21.7009C98.1392 21.2804 98.2258 20.8907 98.3494 20.532C98.4855 20.1609 98.6649 19.8516 98.8875 19.6042C99.1102 19.3569 99.3947 19.2332 99.7411 19.2332C99.939 19.2332 100.112 19.295 100.261 19.4187C100.421 19.53 100.551 19.6785 100.65 19.864C100.749 20.0372 100.823 20.2351 100.873 20.4578C100.922 20.6804 100.947 20.8969 100.947 21.1072C100.947 21.3546 100.929 21.6082 100.891 21.8679C100.854 22.1277 100.786 22.4493 100.687 22.8328C100.898 22.808 101.04 22.7957 101.114 22.7957C101.188 22.7833 101.256 22.7771 101.318 22.7771C101.528 22.7771 101.745 22.7957 101.968 22.8328C102.203 22.8699 102.413 22.9317 102.598 23.0183C102.796 23.1049 102.957 23.2224 103.081 23.3708C103.205 23.5069 103.266 23.6739 103.266 23.8718C103.266 24.0945 103.174 24.2924 102.988 24.4656C102.815 24.6388 102.592 24.7872 102.32 24.9109C102.048 25.0346 101.757 25.1335 101.448 25.2078C101.139 25.2696 100.848 25.3129 100.576 25.3376C100.502 25.8448 100.446 26.3149 100.409 26.7478C100.384 27.1684 100.353 27.5951 100.316 28.0281C100.292 28.2384 100.267 28.4548 100.242 28.6775C100.23 28.8878 100.223 29.1042 100.223 29.3269C100.223 29.4877 100.23 29.6794 100.242 29.9021C100.254 30.1124 100.298 30.3165 100.372 30.5144C100.446 30.7123 100.564 30.8855 100.724 31.0339C100.885 31.17 101.108 31.238 101.392 31.238C101.566 31.238 101.745 31.2257 101.931 31.2009C102.116 31.1638 102.302 31.1453 102.487 31.1453C102.809 31.1453 103.038 31.2566 103.174 31.4792C103.322 31.7019 103.396 31.9864 103.396 32.3328C103.396 32.5925 103.316 32.8214 103.155 33.0193C103.007 33.2048 102.815 33.3533 102.58 33.4646C102.345 33.5883 102.079 33.6811 101.782 33.7429C101.498 33.8048 101.225 33.8357 100.966 33.8357Z" fill="white"/>
</g>
<ellipse rx="3.43713" ry="1.42515" transform="matrix(0.975254 -0.221089 0.128192 0.991749 14.9194 7.65934)" fill="white" fill-opacity="0.5"/>
</svg>
