<svg width="267" height="105" viewBox="0 0 267 105" fill="none" xmlns="http://www.w3.org/2000/svg">
    <defs>
        <filter id="filter0_dd_3_602" x="72.9673" y="23.6973" width="118.802" height="61.041" filterUnits="userSpaceOnUse" color-interpolation-filters="sRGB">
            <feFlood flood-opacity="0" result="BackgroundImageFix"/>
            <feColorMatrix in="SourceAlpha" type="matrix" values="0 0 0 0 0 0 0 0 0 0 0 0 0 0 0 0 0 0 127 0" result="hardAlpha"/>
            <feOffset dy="4"/>
            <feGaussianBlur stdDeviation="0.5"/>
            <feComposite in2="hardAlpha" operator="out"/>
            <feColorMatrix type="matrix" values="0 0 0 0 0.843137 0 0 0 0 0.203922 0 0 0 0 0.431373 0 0 0 1 0"/>
            <feBlend mode="normal" in2="BackgroundImageFix" result="effect1_dropShadow_3_602"/>
            <feColorMatrix in="SourceAlpha" type="matrix" values="0 0 0 0 0 0 0 0 0 0 0 0 0 0 0 0 0 0 127 0" result="hardAlpha"/>
            <feOffset dy="2"/>
            <feComposite in2="hardAlpha" operator="out"/>
            <feColorMatrix type="matrix" values="0 0 0 0 0.752941 0 0 0 0 0.109804 0 0 0 0 0.337255 0 0 0 1 0"/>
            <feBlend mode="normal" in2="effect1_dropShadow_3_602" result="effect2_dropShadow_3_602"/>
            <feBlend mode="normal" in="SourceGraphic" in2="effect2_dropShadow_3_602" result="shape"/>
        </filter>
        <linearGradient id="paint0_linear_3_602" x1="133.482" y1="6" x2="133.482" y2="99" gradientUnits="userSpaceOnUse">
            <stop stop-color="#FD6CB2"/>
            <stop offset="0.421875" stop-color="#FA61AA"/>
            <stop offset="1" stop-color="#D5316B"/>
        </linearGradient>
    </defs>

    <path d="M3.22064 18.6401C5.57923 7.50441 15.7862 0 27.1689 0H239.959C251.264 0 261.431 7.40404 263.803 18.458C268.083 38.4104 268.059 54.3491 263.773 74.4508C261.407 85.5448 251.222 93 239.879 93H26.9894C15.6918 93 5.52806 85.6041 3.16689 74.556C-1.13469 54.4285 -0.993365 38.5359 3.22064 18.6401Z" fill="#FF86C9"/>
<path d="M3.24872 29.7068C5.59632 18.5416 15.816 11 27.2253 11H239.901C251.234 11 261.414 18.4417 263.775 29.5258C268.092 49.7976 268.068 65.9595 263.745 86.3837C261.39 97.5076 251.192 105 239.822 105H27.047C15.722 105 5.54522 97.5666 3.19455 86.4883C-1.14486 66.0373 -1.00177 49.9221 3.24872 29.7068Z" fill="#C01C56"/>
<path d="M3.22064 24.6401C5.57923 13.5044 15.7862 6 27.1689 6H239.959C251.264 6 261.431 13.404 263.803 24.458C268.083 44.4104 268.059 60.3491 263.773 80.4508C261.407 91.5448 251.222 99 239.879 99H26.9894C15.6918 99 5.52806 91.6041 3.16689 80.556C-1.13469 60.4285 -0.993365 44.5359 3.22064 24.6401Z" fill="url(#paint0_linear_3_602)"/>
<g filter="url(#filter0_dd_3_602)">
<path d="M86.1753 29.8672C86.1753 30.8164 85.9644 31.748 85.5425 32.6621C85.1382 33.5762 84.5933 34.4023 83.9077 35.1406C83.2222 35.8613 82.4399 36.459 81.561 36.9336C80.6821 37.3906 79.7769 37.6455 78.8452 37.6982C78.8276 38.0146 78.8101 38.4189 78.7925 38.9111C78.7925 39.3857 78.7661 39.8867 78.7134 40.4141C78.6606 40.9414 78.5815 41.4688 78.4761 41.9961C78.3882 42.5234 78.2476 42.998 78.0542 43.4199C77.8784 43.8418 77.6411 44.1846 77.3423 44.4482C77.061 44.7119 76.7095 44.8438 76.2876 44.8438C75.7954 44.8438 75.3999 44.6768 75.1011 44.3428C74.8198 44.0264 74.6001 43.6396 74.4419 43.1826C74.3013 42.7256 74.2046 42.251 74.1519 41.7588C74.0991 41.249 74.064 40.8184 74.0464 40.4668C74.0112 39.957 73.9849 39.4561 73.9673 38.9639C73.9673 38.4717 73.9673 37.9707 73.9673 37.4609C73.9673 37.2324 73.9673 36.8105 73.9673 36.1953C73.9673 35.5625 73.9673 34.8506 73.9673 34.0596C73.9849 33.251 74.0024 32.416 74.02 31.5547C74.0376 30.6758 74.064 29.8672 74.0991 29.1289C74.1343 28.373 74.1694 27.7314 74.2046 27.2041C74.2573 26.6768 74.3188 26.3691 74.3892 26.2812C74.4067 26.2637 74.4595 26.2285 74.5474 26.1758C74.6353 26.1055 74.7319 26.0439 74.8374 25.9912C74.9429 25.9209 75.0396 25.8594 75.1274 25.8066C75.2153 25.7539 75.2769 25.7188 75.312 25.7012C76.1206 25.2441 77.0083 24.8486 77.9751 24.5146C78.9419 24.1807 79.8999 24.0137 80.8491 24.0137C81.6577 24.0137 82.3872 24.1807 83.0376 24.5146C83.7056 24.8311 84.2681 25.2617 84.7251 25.8066C85.1997 26.334 85.5601 26.958 85.8062 27.6787C86.0522 28.3818 86.1753 29.1113 86.1753 29.8672ZM81.6138 30.4736C81.6138 30.1221 81.5259 29.8145 81.3501 29.5508C81.1919 29.2871 80.9194 29.1553 80.5327 29.1553C80.1987 29.1553 79.8647 29.2256 79.5308 29.3662C79.1968 29.4893 78.8892 29.6211 78.6079 29.7617C78.6606 30.377 78.7046 30.9746 78.7397 31.5547C78.7925 32.1348 78.8013 32.7324 78.7661 33.3477C79.0474 33.207 79.355 33.0488 79.689 32.873C80.0229 32.6797 80.3306 32.4688 80.6118 32.2402C80.8931 32.0117 81.1304 31.7568 81.3237 31.4756C81.5171 31.1768 81.6138 30.8428 81.6138 30.4736ZM93.7388 28.0215C93.7388 28.9707 93.6948 29.9287 93.6069 30.8955C93.5366 31.8447 93.5015 32.8027 93.5015 33.7695C93.5015 35.0176 93.5366 36.2656 93.6069 37.5137C93.6948 38.7617 93.7388 40.0186 93.7388 41.2842C93.7388 41.6006 93.7212 41.9609 93.686 42.3652C93.6509 42.752 93.563 43.1123 93.4224 43.4463C93.2993 43.7803 93.106 44.0615 92.8423 44.29C92.5786 44.5186 92.2271 44.6328 91.7876 44.6328C91.3657 44.6328 90.9966 44.4219 90.6802 44C90.3813 43.5957 90.1265 43.0771 89.9155 42.4443C89.7222 41.7939 89.5552 41.0732 89.4146 40.2822C89.2915 39.4912 89.1948 38.7266 89.1245 37.9883C89.0718 37.2324 89.0278 36.5469 88.9927 35.9316C88.9751 35.2988 88.9663 34.833 88.9663 34.5342C88.9663 34.2002 88.9751 33.7168 88.9927 33.084C89.0278 32.4512 89.0894 31.7656 89.1772 31.0273C89.2651 30.2891 89.3794 29.542 89.52 28.7861C89.6782 28.0127 89.8804 27.3184 90.1265 26.7031C90.3726 26.0703 90.6626 25.5605 90.9966 25.1738C91.3481 24.7695 91.7612 24.5674 92.2358 24.5674C92.6226 24.5674 92.9126 24.6992 93.106 24.9629C93.3169 25.209 93.4663 25.5166 93.5542 25.8857C93.6421 26.2373 93.6948 26.6152 93.7124 27.0195C93.73 27.4062 93.7388 27.7402 93.7388 28.0215ZM108.949 40.2822C108.949 40.5986 108.931 41.0117 108.896 41.5215C108.878 42.0312 108.808 42.5322 108.685 43.0244C108.562 43.499 108.369 43.9121 108.105 44.2637C107.841 44.6152 107.472 44.791 106.998 44.791C106.347 44.791 105.846 44.5801 105.495 44.1582C105.143 43.7363 104.976 43.209 104.994 42.5762C104.431 43.0684 103.79 43.4551 103.069 43.7363C102.366 44.0176 101.645 44.1582 100.907 44.1582C100.397 44.1582 99.9136 44.0352 99.4565 43.7891C98.9995 43.543 98.5952 43.2266 98.2437 42.8398C97.8921 42.4531 97.6108 42.0225 97.3999 41.5479C97.189 41.0557 97.0835 40.5723 97.0835 40.0977C97.0835 39.2539 97.3384 38.5156 97.8481 37.8828C98.3755 37.25 99.0171 36.7139 99.7729 36.2744C100.529 35.8174 101.329 35.457 102.172 35.1934C103.034 34.9297 103.798 34.7539 104.466 34.666C104.466 34.5781 104.466 34.499 104.466 34.4287C104.484 34.3584 104.493 34.2793 104.493 34.1914C104.493 33.6465 104.343 33.207 104.044 32.873C103.746 32.5391 103.324 32.3721 102.779 32.3721C102.339 32.3721 101.961 32.4512 101.645 32.6094C101.329 32.75 101.03 32.917 100.749 33.1104C100.467 33.2861 100.186 33.4531 99.9048 33.6113C99.6235 33.752 99.3071 33.8223 98.9556 33.8223C98.5688 33.8223 98.2349 33.6992 97.9536 33.4531C97.6899 33.207 97.5581 32.8906 97.5581 32.5039C97.5581 31.9238 97.7251 31.3965 98.0591 30.9219C98.4106 30.4473 98.8413 30.0518 99.3511 29.7354C99.8784 29.4014 100.441 29.1465 101.039 28.9707C101.654 28.7773 102.216 28.6807 102.726 28.6807C103.201 28.6807 103.675 28.7422 104.15 28.8652C104.625 28.9707 105.073 29.1465 105.495 29.3926C105.917 29.6211 106.294 29.9111 106.628 30.2627C106.98 30.5967 107.261 30.9922 107.472 31.4492C107.789 32.0996 108.043 32.7939 108.237 33.5322C108.43 34.2529 108.58 35 108.685 35.7734C108.791 36.5293 108.861 37.2939 108.896 38.0674C108.931 38.8232 108.949 39.5615 108.949 40.2822ZM104.73 39.4385L104.651 37.6455C104.616 37.6455 104.581 37.6455 104.545 37.6455C104.51 37.6279 104.475 37.6191 104.44 37.6191C104.211 37.6191 103.921 37.6807 103.57 37.8037C103.236 37.9092 102.911 38.0674 102.594 38.2783C102.278 38.4717 102.005 38.6914 101.777 38.9375C101.566 39.1836 101.46 39.4385 101.46 39.7021C101.46 39.9482 101.548 40.1152 101.724 40.2031C101.9 40.291 102.102 40.335 102.331 40.335C102.717 40.335 103.13 40.2383 103.57 40.0449C104.009 39.834 104.396 39.6318 104.73 39.4385ZM118.252 51.6729C117.831 51.6729 117.347 51.6025 116.802 51.4619C116.275 51.3389 115.774 51.1543 115.299 50.9082C114.825 50.6621 114.42 50.3633 114.086 50.0117C113.77 49.6602 113.612 49.2559 113.612 48.7988C113.612 48.623 113.656 48.4473 113.744 48.2715C113.832 48.0957 113.946 47.9375 114.086 47.7969C114.245 47.6738 114.412 47.5684 114.587 47.4805C114.763 47.4102 114.948 47.375 115.141 47.375C115.352 47.375 115.554 47.4014 115.748 47.4541C115.958 47.5244 116.169 47.6035 116.38 47.6914C116.609 47.7793 116.829 47.8584 117.04 47.9287C117.268 47.999 117.505 48.0342 117.751 48.0342C118.191 48.0342 118.569 47.8848 118.885 47.5859C119.219 47.2871 119.5 46.8916 119.729 46.3994C119.958 45.9248 120.142 45.3887 120.283 44.791C120.423 44.2109 120.529 43.6309 120.599 43.0508C120.687 42.4707 120.749 41.9258 120.784 41.416C120.819 40.9062 120.845 40.4932 120.863 40.1768C120.248 41.1084 119.632 41.8291 119.017 42.3389C118.419 42.8311 117.681 43.0771 116.802 43.0771C116.134 43.0771 115.545 42.9365 115.036 42.6553C114.543 42.374 114.122 42.0049 113.77 41.5479C113.418 41.0908 113.128 40.5723 112.9 39.9922C112.671 39.3945 112.496 38.7793 112.373 38.1465C112.267 37.5137 112.197 36.8984 112.162 36.3008C112.126 35.6855 112.126 35.123 112.162 34.6133C112.179 34.2266 112.223 33.7256 112.293 33.1104C112.381 32.4775 112.513 31.8623 112.689 31.2646C112.865 30.667 113.111 30.166 113.427 29.7617C113.744 29.3398 114.157 29.1465 114.667 29.1816C115 29.1992 115.273 29.3486 115.484 29.6299C115.695 29.8936 115.862 30.2275 115.985 30.6318C116.125 31.0361 116.222 31.4844 116.275 31.9766C116.345 32.4512 116.389 32.9258 116.407 33.4004C116.424 33.875 116.424 34.3145 116.407 34.7188C116.407 35.1055 116.407 35.4043 116.407 35.6152C116.407 35.9141 116.416 36.2129 116.433 36.5117C116.451 36.8105 116.512 37.083 116.618 37.3291C116.723 37.5576 116.881 37.7422 117.092 37.8828C117.321 38.0234 117.637 38.0938 118.042 38.0938C118.499 38.0938 118.859 37.9795 119.123 37.751C119.404 37.5225 119.606 37.2412 119.729 36.9072C119.87 36.5557 119.958 36.1865 119.993 35.7998C120.028 35.3955 120.045 35.0176 120.045 34.666C120.045 34.4199 120.045 34.1211 120.045 33.7695C120.045 33.418 120.045 33.0488 120.045 32.6621C120.063 32.2754 120.098 31.8975 120.151 31.5283C120.221 31.1416 120.318 30.7988 120.441 30.5C120.582 30.1836 120.757 29.9287 120.968 29.7354C121.197 29.542 121.487 29.4453 121.838 29.4453C122.278 29.4453 122.656 29.6211 122.972 29.9727C123.289 30.3066 123.552 30.7549 123.763 31.3174C123.992 31.8623 124.167 32.4688 124.291 33.1367C124.431 33.8047 124.537 34.4727 124.607 35.1406C124.677 35.791 124.721 36.3975 124.739 36.96C124.774 37.5049 124.792 37.9355 124.792 38.252C124.792 38.9902 124.765 39.834 124.712 40.7832C124.66 41.7148 124.554 42.6816 124.396 43.6836C124.255 44.668 124.036 45.6348 123.737 46.584C123.438 47.5508 123.042 48.4121 122.55 49.168C122.076 49.9238 121.487 50.5303 120.784 50.9873C120.081 51.4443 119.237 51.6729 118.252 51.6729ZM149.991 44.3428C149.428 44.3428 148.918 44.0439 148.461 43.4463C148.022 42.8486 147.635 42.1367 147.301 41.3105C146.967 40.4668 146.686 39.6055 146.458 38.7266C146.247 37.8477 146.088 37.1182 145.983 36.5381C145.842 36.8896 145.649 37.3203 145.403 37.8301C145.174 38.3398 144.902 38.876 144.585 39.4385C144.287 40.001 143.961 40.5723 143.61 41.1523C143.258 41.7148 142.889 42.2246 142.502 42.6816C142.133 43.1387 141.755 43.5078 141.369 43.7891C141 44.0703 140.639 44.2109 140.288 44.2109C139.813 44.2109 139.391 43.9824 139.022 43.5254C138.67 43.0684 138.372 42.4707 138.125 41.7324C137.879 40.9941 137.668 40.1768 137.493 39.2803C137.334 38.3838 137.211 37.4873 137.124 36.5908C137.036 35.6943 136.974 34.8594 136.939 34.0859C136.904 33.3125 136.886 32.6885 136.886 32.2139C136.886 31.7744 136.904 31.3525 136.939 30.9482C136.992 30.5439 137.08 30.1836 137.203 29.8672C137.343 29.5508 137.537 29.3047 137.783 29.1289C138.046 28.9355 138.389 28.8389 138.811 28.8389C139.215 28.8389 139.558 28.9883 139.839 29.2871C140.138 29.5859 140.384 29.9814 140.578 30.4736C140.771 30.9482 140.929 31.4932 141.052 32.1084C141.175 32.7061 141.272 33.3213 141.342 33.9541C141.413 34.5693 141.457 35.1758 141.474 35.7734C141.509 36.3535 141.536 36.8545 141.553 37.2764C141.659 36.9072 141.808 36.459 142.001 35.9316C142.195 35.3867 142.406 34.8154 142.634 34.2178C142.863 33.6025 143.109 32.9961 143.373 32.3984C143.654 31.8008 143.926 31.2646 144.19 30.79C144.471 30.3154 144.744 29.9287 145.007 29.6299C145.271 29.3311 145.526 29.1816 145.772 29.1816H145.798C146.115 29.1816 146.422 29.3311 146.721 29.6299C147.02 29.9287 147.31 30.3154 147.591 30.79C147.873 31.2646 148.136 31.8096 148.382 32.4248C148.628 33.0225 148.857 33.6377 149.068 34.2705C149.279 34.8857 149.463 35.4922 149.622 36.0898C149.78 36.6699 149.912 37.1709 150.017 37.5928C150.035 37.083 150.061 36.5117 150.096 35.8789C150.131 35.2285 150.193 34.5781 150.281 33.9277C150.386 33.2773 150.518 32.6445 150.676 32.0293C150.852 31.4141 151.063 30.8691 151.309 30.3945C151.555 29.9023 151.854 29.5156 152.206 29.2344C152.575 28.9355 152.997 28.7861 153.471 28.7861C153.963 28.7861 154.324 28.9619 154.552 29.3135C154.798 29.6475 154.921 30.0605 154.921 30.5527C154.921 31.0801 154.851 31.7832 154.71 32.6621C154.587 33.541 154.412 34.499 154.183 35.5361C153.955 36.5557 153.682 37.5928 153.366 38.6475C153.067 39.6846 152.733 40.625 152.364 41.4688C151.995 42.3125 151.608 43.0068 151.204 43.5518C150.799 44.0791 150.395 44.3428 149.991 44.3428ZM162.59 25.5957C162.59 25.8418 162.52 26.0615 162.379 26.2549C162.256 26.4482 162.089 26.624 161.878 26.7822C161.667 26.9229 161.439 27.0371 161.193 27.125C160.947 27.1953 160.718 27.2305 160.507 27.2305C160.156 27.2305 159.848 27.1426 159.584 26.9668C159.321 26.791 159.189 26.5186 159.189 26.1494C159.189 25.8857 159.25 25.6572 159.374 25.4639C159.514 25.2529 159.681 25.0859 159.875 24.9629C160.068 24.8223 160.288 24.7168 160.534 24.6465C160.78 24.5762 161.017 24.541 161.246 24.541C161.58 24.541 161.887 24.6201 162.168 24.7783C162.45 24.9365 162.59 25.209 162.59 25.5957ZM162.801 34.5605C162.801 34.8066 162.801 35.0703 162.801 35.3516C162.801 35.6152 162.792 35.8701 162.775 36.1162C162.757 36.415 162.749 36.8193 162.749 37.3291C162.749 37.8213 162.731 38.3574 162.696 38.9375C162.661 39.5176 162.599 40.1064 162.511 40.7041C162.441 41.3018 162.318 41.8467 162.142 42.3389C161.966 42.8311 161.729 43.2354 161.43 43.5518C161.149 43.8506 160.789 44.0088 160.349 44.0264C160.015 44.0439 159.734 43.9121 159.505 43.6309C159.277 43.3496 159.083 42.9893 158.925 42.5498C158.785 42.0928 158.679 41.5918 158.609 41.0469C158.539 40.4844 158.486 39.9482 158.451 39.4385C158.416 38.9111 158.398 38.4277 158.398 37.9883C158.398 37.5488 158.398 37.2236 158.398 37.0127C158.398 36.7314 158.398 36.3359 158.398 35.8262C158.398 35.2988 158.416 34.7363 158.451 34.1387C158.486 33.541 158.547 32.9346 158.635 32.3193C158.741 31.7041 158.881 31.1416 159.057 30.6318C159.25 30.1221 159.497 29.709 159.795 29.3926C160.094 29.0762 160.472 28.918 160.929 28.918C161.404 28.918 161.764 29.1553 162.01 29.6299C162.256 30.1045 162.441 30.6582 162.564 31.291C162.687 31.9238 162.757 32.5566 162.775 33.1895C162.792 33.8047 162.801 34.2617 162.801 34.5605ZM172.817 44.9492C171.569 44.9492 170.593 44.7822 169.89 44.4482C169.205 44.1318 168.686 43.6748 168.334 43.0771C168 42.4795 167.798 41.7588 167.728 40.915C167.658 40.0713 167.623 39.1309 167.623 38.0938C167.623 37.2676 167.649 36.4414 167.702 35.6152C167.754 34.7715 167.833 33.875 167.939 32.9258C167.693 32.9258 167.5 32.9346 167.359 32.9521C167.218 32.9521 167.104 32.9521 167.016 32.9521C166.454 32.9521 165.97 32.8291 165.566 32.583C165.144 32.3369 164.933 31.959 164.933 31.4492C164.933 31.1328 165.056 30.8516 165.302 30.6055C165.531 30.3594 165.83 30.1484 166.199 29.9727C166.568 29.7969 166.963 29.6562 167.385 29.5508C167.825 29.4453 168.238 29.375 168.625 29.3398C168.625 28.8477 168.66 28.3027 168.73 27.7051C168.8 27.1074 168.923 26.5537 169.099 26.0439C169.292 25.5166 169.547 25.0771 169.864 24.7256C170.18 24.374 170.584 24.1982 171.077 24.1982C171.358 24.1982 171.604 24.2861 171.815 24.4619C172.043 24.6201 172.228 24.8311 172.369 25.0947C172.509 25.3408 172.615 25.6221 172.685 25.9385C172.755 26.2549 172.791 26.5625 172.791 26.8613C172.791 27.2129 172.764 27.5732 172.711 27.9424C172.659 28.3115 172.562 28.7686 172.421 29.3135C172.72 29.2783 172.922 29.2607 173.028 29.2607C173.133 29.2432 173.23 29.2344 173.318 29.2344C173.617 29.2344 173.924 29.2607 174.241 29.3135C174.575 29.3662 174.874 29.4541 175.137 29.5771C175.418 29.7002 175.647 29.8672 175.823 30.0781C175.999 30.2715 176.086 30.5088 176.086 30.79C176.086 31.1064 175.955 31.3877 175.691 31.6338C175.445 31.8799 175.128 32.0908 174.742 32.2666C174.355 32.4424 173.942 32.583 173.502 32.6885C173.063 32.7764 172.65 32.8379 172.263 32.873C172.158 33.5938 172.079 34.2617 172.026 34.877C171.991 35.4746 171.947 36.0811 171.894 36.6963C171.859 36.9951 171.824 37.3027 171.789 37.6191C171.771 37.918 171.762 38.2256 171.762 38.542C171.762 38.7705 171.771 39.043 171.789 39.3594C171.806 39.6582 171.868 39.9482 171.973 40.2295C172.079 40.5107 172.246 40.7568 172.474 40.9678C172.703 41.1611 173.019 41.2578 173.423 41.2578C173.669 41.2578 173.924 41.2402 174.188 41.2051C174.452 41.1523 174.715 41.126 174.979 41.126C175.436 41.126 175.761 41.2842 175.955 41.6006C176.166 41.917 176.271 42.3213 176.271 42.8135C176.271 43.1826 176.157 43.5078 175.928 43.7891C175.717 44.0527 175.445 44.2637 175.111 44.4219C174.777 44.5977 174.399 44.7295 173.977 44.8174C173.573 44.9053 173.186 44.9492 172.817 44.9492ZM190.769 37.1709C190.769 37.4697 190.76 37.918 190.743 38.5156C190.743 39.0957 190.716 39.7109 190.664 40.3613C190.628 40.9941 190.576 41.6006 190.505 42.1807C190.435 42.7432 190.347 43.1562 190.242 43.4199C190.101 43.7539 189.917 44.0439 189.688 44.29C189.459 44.5361 189.152 44.6592 188.765 44.6592C188.167 44.6592 187.737 44.4219 187.473 43.9473C187.209 43.4727 187.034 42.8838 186.946 42.1807C186.858 41.4775 186.823 40.7129 186.84 39.8867C186.858 39.0605 186.849 38.2959 186.814 37.5928C186.779 36.8896 186.682 36.3008 186.524 35.8262C186.366 35.3516 186.076 35.1143 185.654 35.1143C185.074 35.1143 184.625 35.2109 184.309 35.4043C184.01 35.5801 183.791 35.8174 183.65 36.1162C183.527 36.415 183.448 36.7578 183.413 37.1445C183.395 37.5312 183.369 37.9355 183.333 38.3574C183.298 38.7617 183.272 39.3066 183.254 39.9922C183.237 40.6777 183.158 41.3545 183.017 42.0225C182.876 42.6904 182.639 43.2705 182.305 43.7627C181.989 44.2373 181.514 44.4746 180.881 44.4746C180.495 44.4746 180.178 44.3252 179.932 44.0264C179.704 43.7275 179.519 43.3408 179.378 42.8662C179.238 42.3916 179.132 41.8643 179.062 41.2842C179.009 40.7041 178.974 40.1416 178.957 39.5967C178.957 39.0342 178.957 38.5244 178.957 38.0674C178.974 37.6104 178.983 37.2676 178.983 37.0391C178.983 36.6875 178.992 36.1074 179.009 35.2988C179.044 34.4902 179.106 33.5938 179.194 32.6094C179.282 31.6074 179.396 30.5791 179.537 29.5244C179.677 28.4697 179.862 27.5117 180.09 26.6504C180.319 25.7715 180.591 25.0596 180.908 24.5146C181.242 23.9697 181.628 23.7061 182.068 23.7236C182.349 23.7412 182.586 23.8643 182.78 24.0928C182.991 24.3213 183.158 24.6201 183.281 24.9893C183.421 25.3408 183.536 25.7275 183.624 26.1494C183.711 26.5713 183.773 26.9932 183.808 27.415C183.861 27.8193 183.887 28.1973 183.887 28.5488C183.905 28.9004 183.914 29.1729 183.914 29.3662C183.914 29.8232 183.905 30.2803 183.887 30.7373C183.87 31.1943 183.843 31.6514 183.808 32.1084C184.212 31.5635 184.749 31.1152 185.417 30.7637C186.102 30.4121 186.788 30.2363 187.473 30.2363C188.352 30.2363 189.011 30.4824 189.451 30.9746C189.908 31.4492 190.233 32.0469 190.426 32.7676C190.62 33.4707 190.725 34.2266 190.743 35.0352C190.76 35.8262 190.769 36.5381 190.769 37.1709ZM101.396 59.9629C101.396 60.6309 101.168 61.2373 100.711 61.7822C100.254 62.3271 99.6914 62.8193 99.0234 63.2588C98.373 63.6807 97.6875 64.0498 96.9668 64.3662C96.2461 64.6826 95.6221 64.9463 95.0947 65.1572C95.0947 65.5264 95.0859 65.9043 95.0684 66.291C95.0508 66.6777 95.0244 67.0645 94.9893 67.4512C95.5518 67.1699 96.1846 66.9062 96.8877 66.6602C97.5908 66.4141 98.2588 66.291 98.8916 66.291C99.4014 66.291 99.8145 66.3965 100.131 66.6074C100.465 66.8184 100.632 67.1875 100.632 67.7148C100.632 68.2949 100.421 68.8135 99.999 69.2705C99.5947 69.7275 99.1025 70.1318 98.5225 70.4834C97.9424 70.835 97.3359 71.1338 96.7031 71.3799C96.0703 71.626 95.5342 71.8193 95.0947 71.96C95.0947 72.54 95.0859 73.1201 95.0684 73.7002C95.0508 74.2627 95.0244 74.8252 94.9893 75.3877C94.9717 75.6689 94.9365 76.0205 94.8838 76.4424C94.8486 76.8643 94.7607 77.2773 94.6201 77.6816C94.4971 78.0684 94.3125 78.4111 94.0664 78.71C93.8203 78.9912 93.5039 79.1318 93.1172 79.1318C92.748 79.1318 92.4316 78.9561 92.168 78.6045C91.9043 78.2354 91.6758 77.7695 91.4824 77.207C91.3066 76.6445 91.1572 76.0205 91.0342 75.335C90.9287 74.6318 90.8408 73.9463 90.7705 73.2783C90.7178 72.6104 90.6826 71.9951 90.665 71.4326C90.665 70.8701 90.665 70.4395 90.665 70.1406C90.665 69.9121 90.665 69.5781 90.665 69.1387C90.6826 68.6816 90.6914 68.1807 90.6914 67.6357C90.709 67.0908 90.7266 66.5195 90.7441 65.9219C90.7793 65.3242 90.8145 64.7617 90.8496 64.2344C90.8848 63.6895 90.9287 63.2148 90.9814 62.8105C91.0518 62.3887 91.1309 62.0811 91.2188 61.8877C91.4121 61.501 91.8691 61.123 92.5898 60.7539C93.3281 60.3672 94.1455 60.0332 95.042 59.752C95.9385 59.4531 96.8086 59.2158 97.6523 59.04C98.5137 58.8467 99.1729 58.75 99.6299 58.75C99.8408 58.75 100.043 58.7676 100.236 58.8027C100.447 58.8203 100.641 58.873 100.816 58.9609C100.992 59.0488 101.133 59.1719 101.238 59.3301C101.344 59.4883 101.396 59.6992 101.396 59.9629ZM112.678 69.1387C112.432 69.1562 112.221 69.1387 112.045 69.0859C111.869 69.0156 111.693 68.9453 111.518 68.875C111.359 68.8047 111.201 68.7432 111.043 68.6904C110.885 68.6201 110.709 68.5938 110.516 68.6113C110.164 68.6289 109.848 68.7256 109.566 68.9014C109.303 69.0771 109.057 69.2969 108.828 69.5605C108.617 69.8242 108.433 70.123 108.274 70.457C108.116 70.7734 107.993 71.0898 107.905 71.4062C107.853 71.6172 107.809 71.9424 107.773 72.3818C107.756 72.8037 107.747 73.2607 107.747 73.7529C107.729 74.2627 107.721 74.7461 107.721 75.2031C107.721 75.6602 107.703 76.0205 107.668 76.2842C107.65 76.5654 107.606 76.8994 107.536 77.2861C107.466 77.6553 107.352 78.0068 107.193 78.3408C107.053 78.6748 106.859 78.9561 106.613 79.1846C106.367 79.4131 106.051 79.5273 105.664 79.5273C105.365 79.5273 105.102 79.4395 104.873 79.2637C104.662 79.0879 104.478 78.8594 104.319 78.5781C104.179 78.2793 104.056 77.9365 103.95 77.5498C103.862 77.1631 103.792 76.7676 103.739 76.3633C103.687 75.9414 103.643 75.5195 103.607 75.0977C103.59 74.6758 103.572 74.2803 103.555 73.9111C103.555 73.5244 103.555 73.1729 103.555 72.8564C103.572 72.54 103.581 72.2852 103.581 72.0918C103.563 71.4766 103.528 70.8613 103.476 70.2461C103.44 69.6133 103.423 68.9893 103.423 68.374C103.423 67.9873 103.44 67.5566 103.476 67.082C103.511 66.6074 103.607 66.168 103.766 65.7637C103.924 65.3418 104.152 64.9902 104.451 64.709C104.768 64.4277 105.198 64.2871 105.743 64.2871C106.042 64.2871 106.297 64.3838 106.508 64.5771C106.719 64.7705 106.886 65.0078 107.009 65.2891C107.149 65.5703 107.255 65.8691 107.325 66.1855C107.396 66.502 107.439 66.792 107.457 67.0557C107.879 66.3701 108.354 65.8164 108.881 65.3945C109.408 64.9551 110.094 64.7178 110.938 64.6826C111.359 64.665 111.772 64.709 112.177 64.8145C112.599 64.9023 112.977 65.0605 113.311 65.2891C113.662 65.5 113.943 65.7812 114.154 66.1328C114.383 66.4844 114.506 66.8975 114.523 67.3721C114.559 67.9346 114.392 68.3652 114.022 68.6641C113.653 68.9629 113.205 69.1211 112.678 69.1387ZM121.27 60.5957C121.27 60.8418 121.199 61.0615 121.059 61.2549C120.936 61.4482 120.769 61.624 120.558 61.7822C120.347 61.9229 120.118 62.0371 119.872 62.125C119.626 62.1953 119.397 62.2305 119.187 62.2305C118.835 62.2305 118.527 62.1426 118.264 61.9668C118 61.791 117.868 61.5186 117.868 61.1494C117.868 60.8857 117.93 60.6572 118.053 60.4639C118.193 60.2529 118.36 60.0859 118.554 59.9629C118.747 59.8223 118.967 59.7168 119.213 59.6465C119.459 59.5762 119.696 59.541 119.925 59.541C120.259 59.541 120.566 59.6201 120.848 59.7783C121.129 59.9365 121.27 60.209 121.27 60.5957ZM121.48 69.5605C121.48 69.8066 121.48 70.0703 121.48 70.3516C121.48 70.6152 121.472 70.8701 121.454 71.1162C121.437 71.415 121.428 71.8193 121.428 72.3291C121.428 72.8213 121.41 73.3574 121.375 73.9375C121.34 74.5176 121.278 75.1064 121.19 75.7041C121.12 76.3018 120.997 76.8467 120.821 77.3389C120.646 77.8311 120.408 78.2354 120.109 78.5518C119.828 78.8506 119.468 79.0088 119.028 79.0264C118.694 79.0439 118.413 78.9121 118.185 78.6309C117.956 78.3496 117.763 77.9893 117.604 77.5498C117.464 77.0928 117.358 76.5918 117.288 76.0469C117.218 75.4844 117.165 74.9482 117.13 74.4385C117.095 73.9111 117.077 73.4277 117.077 72.9883C117.077 72.5488 117.077 72.2236 117.077 72.0127C117.077 71.7314 117.077 71.3359 117.077 70.8262C117.077 70.2988 117.095 69.7363 117.13 69.1387C117.165 68.541 117.227 67.9346 117.314 67.3193C117.42 66.7041 117.561 66.1416 117.736 65.6318C117.93 65.1221 118.176 64.709 118.475 64.3926C118.773 64.0762 119.151 63.918 119.608 63.918C120.083 63.918 120.443 64.1553 120.689 64.6299C120.936 65.1045 121.12 65.6582 121.243 66.291C121.366 66.9238 121.437 67.5566 121.454 68.1895C121.472 68.8047 121.48 69.2617 121.48 69.5605ZM136.4 74.3066C136.4 74.9043 136.207 75.4932 135.82 76.0732C135.451 76.6357 134.977 77.1455 134.396 77.6025C133.834 78.042 133.228 78.4023 132.577 78.6836C131.927 78.9473 131.329 79.0791 130.784 79.0791C129.853 79.0791 129.018 78.8506 128.279 78.3936C127.559 77.9189 126.952 77.3213 126.46 76.6006C125.968 75.8799 125.59 75.0889 125.326 74.2275C125.08 73.3486 124.957 72.4961 124.957 71.6699C124.957 70.791 125.08 69.8506 125.326 68.8486C125.572 67.8467 125.941 66.9238 126.434 66.0801C126.943 65.2363 127.576 64.5332 128.332 63.9707C129.105 63.4082 130.02 63.127 131.074 63.127C131.672 63.127 132.243 63.2324 132.788 63.4434C133.333 63.6367 133.808 63.918 134.212 64.2871C134.616 64.6562 134.941 65.0957 135.188 65.6055C135.434 66.1152 135.557 66.6865 135.557 67.3193C135.557 68.1455 135.381 68.9189 135.029 69.6396C134.678 70.3604 134.212 70.9844 133.632 71.5117C133.052 72.0391 132.384 72.4697 131.628 72.8037C130.872 73.1201 130.099 73.2959 129.308 73.3311C129.378 73.8408 129.58 74.21 129.914 74.4385C130.266 74.667 130.679 74.7812 131.153 74.7812C131.505 74.7812 131.848 74.6934 132.182 74.5176C132.516 74.3418 132.841 74.1484 133.157 73.9375C133.474 73.709 133.781 73.5068 134.08 73.3311C134.396 73.1553 134.713 73.0674 135.029 73.0674C135.381 73.0674 135.697 73.1816 135.979 73.4102C136.26 73.6387 136.4 73.9375 136.4 74.3066ZM132.129 67.8467C132.129 67.6182 132.067 67.3809 131.944 67.1348C131.821 66.8887 131.628 66.7656 131.364 66.7656C130.978 66.7656 130.652 66.8711 130.389 67.082C130.125 67.2754 129.905 67.5303 129.729 67.8467C129.554 68.1455 129.413 68.4707 129.308 68.8223C129.22 69.1738 129.167 69.499 129.149 69.7979C129.396 69.7451 129.686 69.6748 130.02 69.5869C130.371 69.499 130.696 69.3848 130.995 69.2441C131.312 69.0859 131.575 68.8926 131.786 68.6641C132.015 68.4355 132.129 68.1631 132.129 67.8467ZM146.943 79.7383C146.645 79.7383 146.407 79.5977 146.231 79.3164C146.056 79.0527 145.924 78.7451 145.836 78.3936C145.748 78.042 145.687 77.6904 145.651 77.3389C145.634 76.9697 145.625 76.6885 145.625 76.4951C145.625 75.9678 145.651 75.4404 145.704 74.9131C145.774 74.3857 145.845 73.8584 145.915 73.3311C146.003 72.8037 146.073 72.2764 146.126 71.749C146.196 71.2217 146.231 70.6943 146.231 70.167C146.231 69.9561 146.223 69.7275 146.205 69.4814C146.188 69.2354 146.144 69.0068 146.073 68.7959C146.021 68.5674 145.924 68.3828 145.783 68.2422C145.643 68.1016 145.458 68.0312 145.229 68.0312C145.071 68.0312 144.896 68.1631 144.702 68.4268C144.509 68.6729 144.324 68.9629 144.148 69.2969C143.99 69.6133 143.85 69.9385 143.727 70.2725C143.621 70.5889 143.568 70.8262 143.568 70.9844C143.568 71.3711 143.568 71.7666 143.568 72.1709C143.586 72.5576 143.595 72.9531 143.595 73.3574V74.8867C143.577 75.2031 143.551 75.5283 143.516 75.8623C143.48 76.1963 143.428 76.5215 143.357 76.8379C143.305 77.1543 143.226 77.4619 143.12 77.7607C143.015 78.042 142.874 78.2969 142.698 78.5254C142.54 78.7363 142.347 78.9121 142.118 79.0527C141.89 79.1934 141.617 79.2637 141.301 79.2637C140.949 79.2637 140.659 79.1494 140.431 78.9209C140.202 78.6924 140.018 78.4023 139.877 78.0508C139.736 77.6816 139.631 77.2773 139.561 76.8379C139.508 76.3809 139.464 75.9414 139.429 75.5195C139.411 75.0801 139.402 74.6846 139.402 74.333C139.42 73.9639 139.429 73.6738 139.429 73.4629V72.2236C139.429 71.5557 139.411 70.8965 139.376 70.2461C139.358 69.5957 139.35 68.9453 139.35 68.2949C139.35 67.9434 139.35 67.4951 139.35 66.9502C139.367 66.4053 139.438 65.8779 139.561 65.3682C139.684 64.8408 139.886 64.3926 140.167 64.0234C140.448 63.6543 140.861 63.4697 141.406 63.4697C141.652 63.4697 141.872 63.5488 142.065 63.707C142.259 63.8652 142.426 64.0586 142.566 64.2871C142.725 64.5156 142.848 64.7617 142.936 65.0254C143.041 65.2891 143.12 65.5176 143.173 65.7109C143.349 65.4648 143.551 65.2275 143.779 64.999C144.025 64.7705 144.298 64.5684 144.597 64.3926C144.896 64.2168 145.229 64.0762 145.599 63.9707C145.968 63.8652 146.39 63.8125 146.864 63.8125C147.761 63.8125 148.455 64.0322 148.947 64.4717C149.457 64.8936 149.826 65.4297 150.055 66.0801C150.301 66.7129 150.45 67.3984 150.503 68.1367C150.556 68.875 150.582 69.543 150.582 70.1406C150.582 70.4395 150.556 70.8877 150.503 71.4854C150.45 72.0654 150.362 72.7158 150.239 73.4365C150.134 74.1396 149.984 74.8691 149.791 75.625C149.598 76.3633 149.369 77.04 149.105 77.6553C148.842 78.2705 148.525 78.7715 148.156 79.1582C147.805 79.5449 147.4 79.7383 146.943 79.7383ZM165.423 61.6504C165.423 62.9336 165.37 64.208 165.265 65.4736C165.177 66.7393 165.133 68.0137 165.133 69.2969C165.133 70.334 165.159 71.3623 165.212 72.3818C165.282 73.4014 165.317 74.4297 165.317 75.4668C165.317 75.748 165.309 76.0908 165.291 76.4951C165.273 76.8818 165.212 77.2598 165.106 77.6289C165.019 77.998 164.86 78.3145 164.632 78.5781C164.421 78.8418 164.113 78.9736 163.709 78.9736C163.182 78.9736 162.742 78.7803 162.391 78.3936C162.057 77.9893 161.846 77.541 161.758 77.0488C161.424 77.6816 160.94 78.2178 160.308 78.6572C159.675 79.0967 158.989 79.3164 158.251 79.3164C157.46 79.3164 156.774 79.0439 156.194 78.499C155.632 77.9541 155.157 77.2949 154.771 76.5215C154.401 75.748 154.12 74.9395 153.927 74.0957C153.751 73.252 153.663 72.5225 153.663 71.9072C153.663 71.4678 153.689 70.9668 153.742 70.4043C153.795 69.8418 153.883 69.2705 154.006 68.6904C154.146 68.1104 154.322 67.5479 154.533 67.0029C154.744 66.4404 155.008 65.9395 155.324 65.5C155.658 65.0605 156.045 64.709 156.484 64.4453C156.941 64.1816 157.46 64.0498 158.04 64.0498C158.673 64.0498 159.279 64.2344 159.859 64.6035C160.439 64.9727 160.879 65.4297 161.178 65.9746L161.415 61.7822C161.433 61.4482 161.459 61.0615 161.494 60.6221C161.529 60.165 161.6 59.7344 161.705 59.3301C161.828 58.9258 162.013 58.583 162.259 58.3018C162.505 58.0205 162.865 57.8799 163.34 57.8799C163.85 57.8799 164.245 58.0029 164.526 58.249C164.808 58.4951 165.01 58.8115 165.133 59.1982C165.273 59.5674 165.353 59.9717 165.37 60.4111C165.405 60.8506 165.423 61.2637 165.423 61.6504ZM161.125 73.3574C161.125 72.9531 161.116 72.5576 161.099 72.1709C161.081 71.7842 161.081 71.3887 161.099 70.9844C160.993 70.7559 160.87 70.5098 160.729 70.2461C160.589 69.9648 160.413 69.71 160.202 69.4814C160.009 69.2354 159.789 69.0332 159.543 68.875C159.297 68.7168 159.033 68.6377 158.752 68.6377C158.436 68.6377 158.181 68.7344 157.987 68.9277C157.794 69.1211 157.653 69.3584 157.565 69.6396C157.478 69.9033 157.416 70.1934 157.381 70.5098C157.363 70.8262 157.354 71.0986 157.354 71.3271C157.354 71.5381 157.372 71.8545 157.407 72.2764C157.442 72.6807 157.504 73.0938 157.592 73.5156C157.697 73.9375 157.838 74.3066 158.014 74.623C158.189 74.9395 158.427 75.0977 158.726 75.0977C158.954 75.0977 159.183 75.0537 159.411 74.9658C159.64 74.8604 159.851 74.7373 160.044 74.5967C160.255 74.4385 160.448 74.2715 160.624 74.0957C160.817 73.9023 160.984 73.7266 161.125 73.5684V73.3574ZM176.889 64.498C176.889 65.0078 176.713 65.3857 176.361 65.6318C176.027 65.8779 175.649 66.1152 175.228 66.3438C174.806 66.5547 174.419 66.8096 174.067 67.1084C173.733 67.4072 173.566 67.8555 173.566 68.4531C173.566 68.7695 173.637 69.042 173.777 69.2705C173.936 69.499 174.12 69.71 174.331 69.9033C174.56 70.0791 174.806 70.2637 175.069 70.457C175.333 70.6504 175.57 70.8701 175.781 71.1162C176.01 71.3623 176.194 71.6611 176.335 72.0127C176.493 72.3643 176.572 72.7949 176.572 73.3047C176.572 74.043 176.379 74.7725 175.992 75.4932C175.623 76.1963 175.14 76.8291 174.542 77.3916C173.962 77.9365 173.303 78.376 172.564 78.71C171.826 79.0439 171.097 79.2109 170.376 79.2109C170.077 79.2109 169.778 79.1846 169.479 79.1318C169.181 79.0967 168.908 79.0176 168.662 78.8945C168.434 78.7715 168.24 78.6045 168.082 78.3936C167.924 78.165 167.845 77.875 167.845 77.5234C167.845 77.0312 167.941 76.6533 168.135 76.3896C168.328 76.1084 168.574 75.8887 168.873 75.7305C169.172 75.5723 169.488 75.4492 169.822 75.3613C170.174 75.2734 170.499 75.168 170.798 75.0449C171.097 74.9043 171.343 74.7285 171.536 74.5176C171.729 74.3066 171.826 74.0078 171.826 73.6211C171.826 73.252 171.677 72.874 171.378 72.4873C171.097 72.083 170.78 71.6611 170.429 71.2217C170.077 70.7646 169.752 70.2812 169.453 69.7715C169.172 69.2617 169.031 68.6992 169.031 68.084C169.031 67.3281 169.181 66.6338 169.479 66.001C169.796 65.3506 170.209 64.7881 170.719 64.3135C171.246 63.8389 171.844 63.4697 172.512 63.2061C173.18 62.9248 173.883 62.7842 174.621 62.7842C174.902 62.7842 175.175 62.8105 175.438 62.8633C175.72 62.916 175.966 63.0127 176.177 63.1533C176.388 63.2764 176.555 63.4521 176.678 63.6807C176.818 63.8916 176.889 64.1641 176.889 64.498Z" fill="white"/>
</g>
<ellipse cx="21.3769" cy="3.96045" rx="6.13529" ry="1.95339" transform="rotate(-9.7138 21.3769 3.96045)" fill="white" fill-opacity="0.5"/>
</svg>
