<svg width="300" height="73" viewBox="0 0 300 73" fill="none" xmlns="http://www.w3.org/2000/svg">
    <defs>
        <filter id="filter0_dd_3_393" x="55.1335" y="26.6085" width="191.213" height="26.3838" filterUnits="userSpaceOnUse" color-interpolation-filters="sRGB">
            <feFlood flood-opacity="0" result="BackgroundImageFix"/>
            <feColorMatrix in="SourceAlpha" type="matrix" values="0 0 0 0 0 0 0 0 0 0 0 0 0 0 0 0 0 0 127 0" result="hardAlpha"/>
            <feOffset dy="4"/>
            <feGaussianBlur stdDeviation="0.5"/>
            <feComposite in2="hardAlpha" operator="out"/>
            <feColorMatrix type="matrix" values="0 0 0 0 0.0705882 0 0 0 0 0.443137 0 0 0 0 0.843137 0 0 0 1 0"/>
            <feBlend mode="normal" in2="BackgroundImageFix" result="effect1_dropShadow_3_393"/>
            <feColorMatrix in="SourceAlpha" type="matrix" values="0 0 0 0 0 0 0 0 0 0 0 0 0 0 0 0 0 0 127 0" result="hardAlpha"/>
            <feOffset dy="2"/>
            <feComposite in2="hardAlpha" operator="out"/>
            <feColorMatrix type="matrix" values="0 0 0 0 0.057 0 0 0 0 0.228 0 0 0 0 0.57 0 0 0 1 0"/>
            <feBlend mode="normal" in2="effect1_dropShadow_3_393" result="effect2_dropShadow_3_393"/>
            <feBlend mode="normal" in="SourceGraphic" in2="effect2_dropShadow_3_393" result="shape"/>
        </filter>
        <linearGradient id="paint0_linear_3_393" x1="149.98" y1="4.70026" x2="149.98" y2="68.7003" gradientUnits="userSpaceOnUse">
            <stop stop-color="#23A8F8"/>
            <stop offset="0.421875" stop-color="#1B9DF7"/>
            <stop offset="1" stop-color="#0E7DEC"/>
        </linearGradient>
    </defs>

    <path d="M2.88027 15.759C5.86143 6.31321 15.2514 0.700256 25.1565 0.700256H275.015C284.811 0.700256 294.13 6.18682 297.117 15.5168C300.973 27.5666 300.955 37.6364 297.098 49.7638C294.112 59.15 284.761 64.7003 274.912 64.7003H24.9243C15.1391 64.7003 5.82517 59.224 2.85461 49.9006C-1.00931 37.7733 -0.90173 27.7424 2.88027 15.759Z" fill="#42CAFF"/>
<path d="M2.88027 23.759C5.86143 14.3132 15.2514 8.70026 25.1565 8.70026H275.015C284.811 8.70026 294.13 14.1868 297.117 23.5168C300.973 35.5666 300.955 45.6364 297.098 57.7638C294.112 67.15 284.761 72.7003 274.912 72.7003H24.9243C15.1391 72.7003 5.82517 67.224 2.85461 57.9006C-1.00931 45.7733 -0.90173 35.7424 2.88027 23.759Z" fill="#054EC1"/>
<path d="M2.88027 19.759C5.86143 10.3132 15.2514 4.70026 25.1565 4.70026H275.015C284.811 4.70026 294.13 10.1868 297.117 19.5168C300.973 31.5666 300.955 41.6364 297.098 53.7638C294.112 63.15 284.761 68.7003 274.912 68.7003H24.9243C15.1391 68.7003 5.82517 63.224 2.85461 53.9006C-1.00931 41.7733 -0.90173 31.7424 2.88027 19.759Z" fill="url(#paint0_linear_3_393)"/>
<g filter="url(#filter0_dd_3_393)">
<path d="M68.4469 33.2794C68.4469 33.6133 68.403 33.9649 68.3151 34.334C68.2448 34.7032 68.1217 35.046 67.946 35.3624C67.7702 35.6788 67.5417 35.9424 67.2604 36.1534C66.9792 36.3643 66.6364 36.4698 66.2321 36.4698C65.6169 36.4698 65.1598 36.3643 64.861 36.1534C64.5622 35.9249 64.3512 35.6436 64.2282 35.3096C64.1051 34.9756 64.0348 34.6241 64.0172 34.2549C64.0172 33.8682 64.0085 33.5079 63.9909 33.1739C63.9733 32.8399 63.9118 32.5674 63.8063 32.3565C63.7184 32.128 63.5163 32.0137 63.1999 32.0137C62.8483 32.0137 62.5407 32.1456 62.277 32.4092C62.0133 32.6553 61.7848 32.9805 61.5915 33.3848C61.3981 33.7891 61.2311 34.2462 61.0905 34.7559C60.9674 35.2657 60.862 35.7755 60.7741 36.2852C60.7038 36.7774 60.651 37.252 60.6159 37.709C60.5807 38.1485 60.5631 38.5089 60.5631 38.7901C60.5631 39.1592 60.5719 39.5987 60.5895 40.1085C60.6247 40.6182 60.7126 41.1104 60.8532 41.585C60.9938 42.0421 61.2047 42.4376 61.486 42.7715C61.7672 43.088 62.1715 43.2462 62.6989 43.2462C63.0504 43.2462 63.3932 43.2022 63.7272 43.1143C64.0612 43.0264 64.3952 42.9297 64.7292 42.8243C65.0631 42.7012 65.3971 42.5958 65.7311 42.5079C66.0827 42.42 66.4342 42.376 66.7858 42.376C67.1901 42.376 67.5241 42.543 67.7878 42.877C68.0514 43.1934 68.1833 43.5538 68.1833 43.9581C68.1833 44.5206 68.0075 45.0479 67.6559 45.5401C67.3044 46.0147 66.8649 46.4366 66.3376 46.8057C65.8278 47.1749 65.2653 47.4649 64.6501 47.6758C64.0524 47.8868 63.5075 47.9922 63.0153 47.9922C61.7497 47.9922 60.6774 47.7022 59.7985 47.1221C58.9196 46.5596 58.2077 45.8301 57.6628 44.9337C57.1178 44.0196 56.7223 43.0089 56.4762 41.9014C56.2477 40.7764 56.1335 39.6602 56.1335 38.5528C56.1335 37.8145 56.2038 37.0059 56.3444 36.127C56.485 35.2481 56.696 34.3692 56.9772 33.4903C57.2585 32.5938 57.61 31.7325 58.0319 30.9063C58.4713 30.0801 58.9811 29.3506 59.5612 28.7178C60.1413 28.085 60.7917 27.5753 61.5124 27.1885C62.2506 26.8018 63.0592 26.6085 63.9381 26.6085C64.7995 26.6085 65.5202 26.8282 66.1003 27.2676C66.6803 27.6895 67.1461 28.2344 67.4977 28.9024C67.8493 29.5528 68.0954 30.2735 68.236 31.0645C68.3766 31.838 68.4469 32.5762 68.4469 33.2794ZM80.651 36.8389C80.4049 36.8565 80.194 36.8389 80.0182 36.7862C79.8424 36.7159 79.6667 36.6456 79.4909 36.5753C79.3327 36.5049 79.1745 36.4434 79.0163 36.3907C78.8581 36.3204 78.6823 36.294 78.4889 36.3116C78.1374 36.3292 77.821 36.4258 77.5397 36.6016C77.276 36.7774 77.0299 36.9971 76.8014 37.2608C76.5905 37.5245 76.4059 37.8233 76.2477 38.1573C76.0895 38.4737 75.9665 38.7901 75.8786 39.1065C75.8258 39.3174 75.7819 39.6426 75.7467 40.0821C75.7292 40.504 75.7204 40.961 75.7204 41.4532C75.7028 41.963 75.694 42.4464 75.694 42.9034C75.694 43.3604 75.6764 43.7208 75.6413 43.9844C75.6237 44.2657 75.5797 44.5997 75.5094 44.9864C75.4391 45.3555 75.3249 45.7071 75.1667 46.0411C75.026 46.3751 74.8327 46.6563 74.5866 46.8848C74.3405 47.1133 74.0241 47.2276 73.6374 47.2276C73.3385 47.2276 73.0749 47.1397 72.8463 46.9639C72.6354 46.7881 72.4508 46.5596 72.2926 46.2784C72.152 45.9796 72.029 45.6368 71.9235 45.2501C71.8356 44.8633 71.7653 44.4678 71.7126 44.0635C71.6598 43.6417 71.6159 43.2198 71.5807 42.7979C71.5631 42.376 71.5456 41.9805 71.528 41.6114C71.528 41.2247 71.528 40.8731 71.528 40.5567C71.5456 40.2403 71.5544 39.9854 71.5544 39.7921C71.5368 39.1768 71.5016 38.5616 71.4489 37.9464C71.4137 37.3135 71.3961 36.6895 71.3961 36.0743C71.3961 35.6876 71.4137 35.2569 71.4489 34.7823C71.484 34.3077 71.5807 33.8682 71.7389 33.4639C71.8971 33.0421 72.1256 32.6905 72.4245 32.4092C72.7409 32.128 73.1715 31.9874 73.7165 31.9874C74.0153 31.9874 74.2702 32.084 74.4811 32.2774C74.692 32.4708 74.859 32.7081 74.9821 32.9893C75.1227 33.2706 75.2282 33.5694 75.2985 33.8858C75.3688 34.2022 75.4128 34.4922 75.4303 34.7559C75.8522 34.0704 76.3268 33.5167 76.8542 33.0948C77.3815 32.6553 78.067 32.418 78.9108 32.3829C79.3327 32.3653 79.7458 32.4092 80.1501 32.5147C80.5719 32.6026 80.9499 32.7608 81.2838 32.9893C81.6354 33.2003 81.9167 33.4815 82.1276 33.8331C82.3561 34.1846 82.4792 34.5977 82.4967 35.0723C82.5319 35.6348 82.3649 36.0655 81.9958 36.3643C81.6266 36.6631 81.1784 36.8214 80.651 36.8389ZM95.9401 42.0069C95.9401 42.6046 95.7467 43.1934 95.36 43.7735C94.9909 44.336 94.5163 44.8458 93.9362 45.3028C93.3737 45.7422 92.7672 46.1026 92.1169 46.3839C91.4665 46.6475 90.8688 46.7794 90.3239 46.7794C89.3922 46.7794 88.5573 46.5508 87.819 46.0938C87.0983 45.6192 86.4919 45.0215 85.9997 44.3008C85.5075 43.5801 85.1295 42.7891 84.8659 41.9278C84.6198 41.0489 84.4967 40.1964 84.4967 39.3702C84.4967 38.4913 84.6198 37.5508 84.8659 36.5489C85.112 35.5469 85.4811 34.6241 85.9733 33.7803C86.4831 32.9366 87.1159 32.2335 87.8717 31.671C88.6452 31.1085 89.5592 30.8272 90.6139 30.8272C91.2116 30.8272 91.7829 30.9327 92.3278 31.1436C92.8727 31.337 93.3473 31.6182 93.7516 31.9874C94.1559 32.3565 94.4811 32.796 94.7272 33.3057C94.9733 33.8155 95.0963 34.3868 95.0963 35.0196C95.0963 35.8458 94.9206 36.6192 94.569 37.3399C94.2174 38.0606 93.7516 38.6846 93.1715 39.212C92.5915 39.7393 91.9235 40.17 91.1676 40.504C90.4118 40.8204 89.6383 40.9962 88.8473 41.0313C88.9176 41.5411 89.1198 41.9102 89.4538 42.1387C89.8053 42.3672 90.2184 42.4815 90.693 42.4815C91.0446 42.4815 91.3874 42.3936 91.7213 42.2178C92.0553 42.0421 92.3805 41.8487 92.6969 41.6378C93.0133 41.4092 93.321 41.2071 93.6198 41.0313C93.9362 40.8555 94.2526 40.7676 94.569 40.7676C94.9206 40.7676 95.237 40.8819 95.5182 41.1104C95.7995 41.3389 95.9401 41.6378 95.9401 42.0069ZM91.6686 35.5469C91.6686 35.3184 91.6071 35.0811 91.484 34.835C91.361 34.5889 91.1676 34.4659 90.904 34.4659C90.5172 34.4659 90.192 34.5714 89.9284 34.7823C89.6647 34.9756 89.445 35.2305 89.2692 35.5469C89.0934 35.8458 88.9528 36.171 88.8473 36.5225C88.7594 36.8741 88.7067 37.1993 88.6891 37.4981C88.9352 37.4454 89.2253 37.3751 89.5592 37.2872C89.9108 37.1993 90.236 37.085 90.5348 36.9444C90.8512 36.7862 91.1149 36.5928 91.3258 36.3643C91.5544 36.1358 91.6686 35.8633 91.6686 35.5469ZM110.201 42.9825C110.201 43.2989 110.183 43.712 110.148 44.2217C110.131 44.7315 110.06 45.2325 109.937 45.7247C109.814 46.1993 109.621 46.6124 109.357 46.9639C109.093 47.3155 108.724 47.4913 108.25 47.4913C107.599 47.4913 107.098 47.2803 106.747 46.8585C106.395 46.4366 106.228 45.9092 106.246 45.2764C105.683 45.7686 105.042 46.1553 104.321 46.4366C103.618 46.7178 102.897 46.8585 102.159 46.8585C101.649 46.8585 101.166 46.7354 100.709 46.4893C100.252 46.2432 99.8473 45.9268 99.4958 45.5401C99.1442 45.1534 98.8629 44.7227 98.652 44.2481C98.4411 43.7559 98.3356 43.2725 98.3356 42.7979C98.3356 41.9542 98.5905 41.2159 99.1003 40.5831C99.6276 39.9503 100.269 39.4141 101.025 38.9747C101.781 38.5176 102.581 38.1573 103.424 37.8936C104.286 37.6299 105.05 37.4542 105.718 37.3663C105.718 37.2784 105.718 37.1993 105.718 37.129C105.736 37.0587 105.745 36.9796 105.745 36.8917C105.745 36.3467 105.595 35.9073 105.297 35.5733C104.998 35.2393 104.576 35.0723 104.031 35.0723C103.591 35.0723 103.214 35.1514 102.897 35.3096C102.581 35.4503 102.282 35.6172 102.001 35.8106C101.719 35.9864 101.438 36.1534 101.157 36.3116C100.876 36.4522 100.559 36.5225 100.208 36.5225C99.821 36.5225 99.487 36.3995 99.2057 36.1534C98.942 35.9073 98.8102 35.5909 98.8102 35.2042C98.8102 34.6241 98.9772 34.0967 99.3112 33.6221C99.6628 33.1475 100.093 32.752 100.603 32.4356C101.131 32.1016 101.693 31.8467 102.291 31.671C102.906 31.4776 103.468 31.3809 103.978 31.3809C104.453 31.3809 104.927 31.4424 105.402 31.5655C105.877 31.671 106.325 31.8467 106.747 32.0928C107.169 32.3214 107.547 32.6114 107.881 32.963C108.232 33.2969 108.513 33.6924 108.724 34.1495C109.041 34.7999 109.296 35.4942 109.489 36.2325C109.682 36.9532 109.832 37.7003 109.937 38.4737C110.043 39.2296 110.113 39.9942 110.148 40.7676C110.183 41.5235 110.201 42.2618 110.201 42.9825ZM105.982 42.1387L105.903 40.3458C105.868 40.3458 105.833 40.3458 105.798 40.3458C105.762 40.3282 105.727 40.3194 105.692 40.3194C105.464 40.3194 105.173 40.3809 104.822 40.504C104.488 40.6094 104.163 40.7676 103.846 40.9786C103.53 41.1719 103.257 41.3917 103.029 41.6378C102.818 41.8839 102.713 42.1387 102.713 42.4024C102.713 42.6485 102.8 42.8155 102.976 42.9034C103.152 42.9913 103.354 43.0352 103.583 43.0352C103.969 43.0352 104.382 42.9385 104.822 42.7452C105.261 42.5342 105.648 42.3321 105.982 42.1387ZM119.926 47.6495C118.678 47.6495 117.703 47.4825 117 47.1485C116.314 46.8321 115.796 46.3751 115.444 45.7774C115.11 45.1797 114.908 44.459 114.838 43.6153C114.767 42.7715 114.732 41.8311 114.732 40.794C114.732 39.9678 114.758 39.1417 114.811 38.3155C114.864 37.4717 114.943 36.5753 115.048 35.626C114.802 35.626 114.609 35.6348 114.468 35.6524C114.328 35.6524 114.214 35.6524 114.126 35.6524C113.563 35.6524 113.08 35.5294 112.675 35.2833C112.254 35.0372 112.043 34.6592 112.043 34.1495C112.043 33.8331 112.166 33.5518 112.412 33.3057C112.64 33.0596 112.939 32.8487 113.308 32.6729C113.677 32.4971 114.073 32.3565 114.495 32.251C114.934 32.1456 115.347 32.0753 115.734 32.0401C115.734 31.5479 115.769 31.003 115.84 30.4053C115.91 29.8077 116.033 29.254 116.209 28.7442C116.402 28.2169 116.657 27.7774 116.973 27.4258C117.29 27.0743 117.694 26.8985 118.186 26.8985C118.467 26.8985 118.714 26.9864 118.924 27.1622C119.153 27.3204 119.338 27.5313 119.478 27.795C119.619 28.0411 119.724 28.3223 119.795 28.6387C119.865 28.9551 119.9 29.2628 119.9 29.5616C119.9 29.9131 119.874 30.2735 119.821 30.6426C119.768 31.0118 119.672 31.4688 119.531 32.0137C119.83 31.9786 120.032 31.961 120.137 31.961C120.243 31.9434 120.34 31.9346 120.427 31.9346C120.726 31.9346 121.034 31.961 121.35 32.0137C121.684 32.0665 121.983 32.1544 122.247 32.2774C122.528 32.4005 122.757 32.5674 122.932 32.7784C123.108 32.9717 123.196 33.209 123.196 33.4903C123.196 33.8067 123.064 34.088 122.8 34.334C122.554 34.5801 122.238 34.7911 121.851 34.9669C121.465 35.1426 121.051 35.2833 120.612 35.3887C120.173 35.4766 119.759 35.5381 119.373 35.5733C119.267 36.294 119.188 36.962 119.135 37.5772C119.1 38.1749 119.056 38.7813 119.004 39.3965C118.968 39.6954 118.933 40.003 118.898 40.3194C118.881 40.6182 118.872 40.9258 118.872 41.2422C118.872 41.4708 118.881 41.7432 118.898 42.0596C118.916 42.3585 118.977 42.6485 119.083 42.9297C119.188 43.211 119.355 43.4571 119.584 43.668C119.812 43.8614 120.129 43.9581 120.533 43.9581C120.779 43.9581 121.034 43.9405 121.298 43.9053C121.561 43.8526 121.825 43.8262 122.089 43.8262C122.546 43.8262 122.871 43.9844 123.064 44.3008C123.275 44.6172 123.381 45.0215 123.381 45.5137C123.381 45.8829 123.266 46.2081 123.038 46.4893C122.827 46.753 122.554 46.9639 122.22 47.1221C121.886 47.2979 121.508 47.4297 121.087 47.5176C120.682 47.6055 120.296 47.6495 119.926 47.6495ZM136.956 42.0069C136.956 42.6046 136.762 43.1934 136.376 43.7735C136.007 44.336 135.532 44.8458 134.952 45.3028C134.389 45.7422 133.783 46.1026 133.132 46.3839C132.482 46.6475 131.884 46.7794 131.34 46.7794C130.408 46.7794 129.573 46.5508 128.835 46.0938C128.114 45.6192 127.507 45.0215 127.015 44.3008C126.523 43.5801 126.145 42.7891 125.882 41.9278C125.635 41.0489 125.512 40.1964 125.512 39.3702C125.512 38.4913 125.635 37.5508 125.882 36.5489C126.128 35.5469 126.497 34.6241 126.989 33.7803C127.499 32.9366 128.132 32.2335 128.887 31.671C129.661 31.1085 130.575 30.8272 131.63 30.8272C132.227 30.8272 132.798 30.9327 133.343 31.1436C133.888 31.337 134.363 31.6182 134.767 31.9874C135.172 32.3565 135.497 32.796 135.743 33.3057C135.989 33.8155 136.112 34.3868 136.112 35.0196C136.112 35.8458 135.936 36.6192 135.585 37.3399C135.233 38.0606 134.767 38.6846 134.187 39.212C133.607 39.7393 132.939 40.17 132.183 40.504C131.427 40.8204 130.654 40.9962 129.863 41.0313C129.933 41.5411 130.135 41.9102 130.469 42.1387C130.821 42.3672 131.234 42.4815 131.709 42.4815C132.06 42.4815 132.403 42.3936 132.737 42.2178C133.071 42.0421 133.396 41.8487 133.713 41.6378C134.029 41.4092 134.337 41.2071 134.635 41.0313C134.952 40.8555 135.268 40.7676 135.585 40.7676C135.936 40.7676 136.253 40.8819 136.534 41.1104C136.815 41.3389 136.956 41.6378 136.956 42.0069ZM132.684 35.5469C132.684 35.3184 132.623 35.0811 132.5 34.835C132.377 34.5889 132.183 34.4659 131.92 34.4659C131.533 34.4659 131.208 34.5714 130.944 34.7823C130.68 34.9756 130.461 35.2305 130.285 35.5469C130.109 35.8458 129.968 36.171 129.863 36.5225C129.775 36.8741 129.722 37.1993 129.705 37.4981C129.951 37.4454 130.241 37.3751 130.575 37.2872C130.926 37.1993 131.252 37.085 131.55 36.9444C131.867 36.7862 132.131 36.5928 132.341 36.3643C132.57 36.1358 132.684 35.8633 132.684 35.5469ZM161.68 42.7979C161.68 43.1495 161.645 43.5714 161.575 44.0635C161.522 44.5557 161.408 45.0303 161.232 45.4874C161.056 45.9268 160.819 46.3047 160.52 46.6212C160.221 46.92 159.826 47.0694 159.334 47.0694C158.683 47.0694 158.191 46.8321 157.857 46.3575C157.541 45.8829 157.312 45.3204 157.172 44.67C157.031 44.002 156.943 43.3253 156.908 42.6397C156.89 41.9542 156.873 41.4092 156.855 41.0049C155.59 41.2159 154.341 41.4005 153.111 41.5587C153.076 41.963 152.997 42.4639 152.874 43.0616C152.768 43.6592 152.592 44.2393 152.346 44.8018C152.118 45.3467 151.81 45.8214 151.423 46.2256C151.054 46.6299 150.597 46.8321 150.052 46.8321C149.631 46.8321 149.297 46.6827 149.05 46.3839C148.822 46.0674 148.646 45.6983 148.523 45.2764C148.4 44.8546 148.321 44.4239 148.286 43.9844C148.268 43.5274 148.259 43.1495 148.259 42.8506C148.259 41.8487 148.339 40.8643 148.497 39.8975C148.655 38.9131 148.84 37.9376 149.05 36.9708C149.156 36.461 149.297 35.8633 149.472 35.1778C149.648 34.4922 149.859 33.7891 150.105 33.0684C150.369 32.3301 150.668 31.6094 151.002 30.9063C151.353 30.1856 151.749 29.544 152.188 28.9815C152.628 28.419 153.129 27.962 153.691 27.6104C154.254 27.2589 154.878 27.0831 155.563 27.0831C156.231 27.0831 156.811 27.2325 157.303 27.5313C157.796 27.8301 158.226 28.2256 158.595 28.7178C158.965 29.21 159.272 29.7725 159.518 30.4053C159.764 31.0206 159.966 31.6534 160.125 32.3038C160.3 32.9366 160.441 33.5606 160.547 34.1758C160.67 34.7911 160.775 35.336 160.863 35.8106C161.091 36.9532 161.285 38.1133 161.443 39.2911C161.601 40.4512 161.68 41.6202 161.68 42.7979ZM156.591 36.3907C156.591 36.1797 156.574 35.837 156.539 35.3624C156.521 34.8702 156.468 34.3868 156.381 33.9122C156.293 33.42 156.152 32.9893 155.959 32.6202C155.783 32.2335 155.537 32.0401 155.22 32.0401C155.045 32.0401 154.878 32.1631 154.719 32.4092C154.561 32.6378 154.421 32.9366 154.298 33.3057C154.174 33.6573 154.06 34.0528 153.955 34.4922C153.867 34.9317 153.788 35.3536 153.717 35.7579C153.647 36.1622 153.594 36.5313 153.559 36.8653C153.524 37.1817 153.498 37.4102 153.48 37.5508C154.535 37.463 155.572 37.3311 156.591 37.1553V36.3907ZM175.176 36.5753C175.176 36.6631 175.168 36.7598 175.15 36.8653C175.132 36.9532 175.106 37.0411 175.071 37.129C174.913 37.5333 174.667 37.876 174.333 38.1573C173.999 38.421 173.603 38.5528 173.146 38.5528C172.461 38.5528 171.995 38.21 171.749 37.5245C171.714 37.4366 171.696 37.3399 171.696 37.2344C171.696 37.1114 171.687 36.9883 171.67 36.8653V36.1006C171.634 35.8546 171.573 35.6612 171.485 35.5206C171.397 35.3799 171.248 35.3096 171.037 35.3096C170.738 35.3096 170.448 35.503 170.167 35.8897C169.903 36.2589 169.666 36.7071 169.455 37.2344C169.261 37.7442 169.103 38.2715 168.98 38.8165C168.857 39.3614 168.796 39.8008 168.796 40.1348C168.796 40.3985 168.813 40.7237 168.848 41.1104C168.883 41.4796 168.954 41.8399 169.059 42.1915C169.165 42.543 169.305 42.8506 169.481 43.1143C169.674 43.3604 169.921 43.4835 170.219 43.4835C170.518 43.4835 170.791 43.3956 171.037 43.2198C171.3 43.0264 171.555 42.8067 171.801 42.5606C172.03 42.3497 172.276 42.1299 172.54 41.9014C172.821 41.6729 173.137 41.5587 173.489 41.5587C173.928 41.5587 174.271 41.7169 174.517 42.0333C174.781 42.3497 174.913 42.71 174.913 43.1143C174.913 43.712 174.755 44.2745 174.438 44.8018C174.122 45.3116 173.726 45.7598 173.252 46.1465C172.777 46.5157 172.25 46.8057 171.67 47.0167C171.09 47.2452 170.536 47.3594 170.008 47.3594C169.059 47.3594 168.251 47.1221 167.583 46.6475C166.932 46.1729 166.405 45.5753 166.001 44.8546C165.596 44.1163 165.306 43.3165 165.131 42.4551C164.955 41.5938 164.867 40.7764 164.867 40.003C164.867 39.1065 164.99 38.1397 165.236 37.1026C165.482 36.0479 165.86 35.0723 166.37 34.1758C166.88 33.2794 167.53 32.5323 168.321 31.9346C169.13 31.337 170.088 31.0381 171.195 31.0381C171.881 31.0381 172.469 31.1876 172.962 31.4864C173.471 31.7852 173.884 32.1807 174.201 32.6729C174.535 33.1475 174.781 33.6837 174.939 34.2813C175.115 34.879 175.203 35.4678 175.203 36.0479C175.203 36.1358 175.203 36.2237 175.203 36.3116C175.203 36.3995 175.194 36.4874 175.176 36.5753ZM188.435 36.5753C188.435 36.6631 188.426 36.7598 188.409 36.8653C188.391 36.9532 188.365 37.0411 188.33 37.129C188.172 37.5333 187.925 37.876 187.591 38.1573C187.257 38.421 186.862 38.5528 186.405 38.5528C185.719 38.5528 185.254 38.21 185.007 37.5245C184.972 37.4366 184.955 37.3399 184.955 37.2344C184.955 37.1114 184.946 36.9883 184.928 36.8653V36.1006C184.893 35.8546 184.832 35.6612 184.744 35.5206C184.656 35.3799 184.507 35.3096 184.296 35.3096C183.997 35.3096 183.707 35.503 183.425 35.8897C183.162 36.2589 182.924 36.7071 182.714 37.2344C182.52 37.7442 182.362 38.2715 182.239 38.8165C182.116 39.3614 182.054 39.8008 182.054 40.1348C182.054 40.3985 182.072 40.7237 182.107 41.1104C182.142 41.4796 182.213 41.8399 182.318 42.1915C182.423 42.543 182.564 42.8506 182.74 43.1143C182.933 43.3604 183.179 43.4835 183.478 43.4835C183.777 43.4835 184.049 43.3956 184.296 43.2198C184.559 43.0264 184.814 42.8067 185.06 42.5606C185.289 42.3497 185.535 42.1299 185.798 41.9014C186.08 41.6729 186.396 41.5587 186.748 41.5587C187.187 41.5587 187.53 41.7169 187.776 42.0333C188.04 42.3497 188.172 42.71 188.172 43.1143C188.172 43.712 188.013 44.2745 187.697 44.8018C187.381 45.3116 186.985 45.7598 186.51 46.1465C186.036 46.5157 185.508 46.8057 184.928 47.0167C184.348 47.2452 183.795 47.3594 183.267 47.3594C182.318 47.3594 181.509 47.1221 180.841 46.6475C180.191 46.1729 179.664 45.5753 179.259 44.8546C178.855 44.1163 178.565 43.3165 178.389 42.4551C178.214 41.5938 178.126 40.7764 178.126 40.003C178.126 39.1065 178.249 38.1397 178.495 37.1026C178.741 36.0479 179.119 35.0723 179.629 34.1758C180.138 33.2794 180.789 32.5323 181.58 31.9346C182.388 31.337 183.346 31.0381 184.454 31.0381C185.139 31.0381 185.728 31.1876 186.22 31.4864C186.73 31.7852 187.143 32.1807 187.46 32.6729C187.794 33.1475 188.04 33.6837 188.198 34.2813C188.374 34.879 188.462 35.4678 188.462 36.0479C188.462 36.1358 188.462 36.2237 188.462 36.3116C188.462 36.3995 188.453 36.4874 188.435 36.5753ZM196.922 47.4649C196.025 47.4649 195.243 47.2276 194.575 46.753C193.907 46.2784 193.344 45.6719 192.887 44.9337C192.43 44.1954 192.088 43.378 191.859 42.4815C191.631 41.5674 191.516 40.671 191.516 39.7921C191.516 38.8604 191.631 37.9024 191.859 36.918C192.088 35.9161 192.439 35.0108 192.914 34.2022C193.388 33.376 193.995 32.7081 194.733 32.1983C195.471 31.671 196.35 31.4073 197.37 31.4073C198.354 31.4073 199.189 31.6797 199.875 32.2247C200.578 32.752 201.14 33.42 201.562 34.2286C201.984 35.0196 202.283 35.8897 202.459 36.8389C202.634 37.7881 202.696 38.6846 202.643 39.5284C202.59 40.46 202.441 41.4005 202.195 42.3497C201.966 43.2989 201.624 44.1514 201.167 44.9073C200.71 45.6631 200.13 46.2784 199.426 46.753C198.723 47.2276 197.888 47.4649 196.922 47.4649ZM197.185 35.5469C196.922 35.5469 196.684 35.6876 196.473 35.9688C196.28 36.2501 196.113 36.5928 195.972 36.9971C195.849 37.4014 195.753 37.8321 195.682 38.2891C195.612 38.7286 195.577 39.1153 195.577 39.4493C195.577 39.8712 195.612 40.3282 195.682 40.8204C195.77 41.3126 195.884 41.7696 196.025 42.1915C196.166 42.5958 196.333 42.9385 196.526 43.2198C196.737 43.4835 196.974 43.6153 197.238 43.6153C197.519 43.6153 197.757 43.4835 197.95 43.2198C198.161 42.9561 198.328 42.6221 198.451 42.2178C198.574 41.8135 198.662 41.3741 198.715 40.8995C198.767 40.4073 198.794 39.9503 198.794 39.5284C198.794 39.1417 198.758 38.7198 198.688 38.2628C198.618 37.7881 198.512 37.3487 198.372 36.9444C198.249 36.5401 198.082 36.2061 197.871 35.9424C197.677 35.6788 197.449 35.5469 197.185 35.5469ZM217.537 39.1592C217.537 40.126 217.44 41.084 217.247 42.0333C217.053 42.9825 216.728 43.835 216.271 44.5909C215.814 45.3292 215.199 45.9268 214.425 46.3839C213.67 46.8409 212.72 47.0694 211.578 47.0694C210.453 47.0694 209.512 46.8497 208.757 46.4102C208.001 45.9532 207.394 45.3555 206.937 44.6172C206.498 43.879 206.181 43.044 205.988 42.1124C205.812 41.1807 205.724 40.2315 205.724 39.2647C205.724 38.21 205.847 37.1641 206.093 36.127C206.146 35.8458 206.243 35.459 206.383 34.9669C206.542 34.4571 206.735 33.9649 206.964 33.4903C207.21 32.9981 207.482 32.5762 207.781 32.2247C208.097 31.8731 208.44 31.6973 208.809 31.6973C209.161 31.6973 209.442 31.794 209.653 31.9874C209.864 32.1807 210.031 32.4268 210.154 32.7256C210.277 33.0069 210.356 33.3145 210.391 33.6485C210.426 33.9649 210.444 34.2549 210.444 34.5186C210.444 34.9229 210.409 35.3184 210.339 35.7051C210.286 36.0919 210.224 36.4786 210.154 36.8653C210.084 37.3926 210.013 37.92 209.943 38.4473C209.89 38.9747 209.864 39.502 209.864 40.0294C209.864 40.293 209.873 40.5919 209.89 40.9258C209.925 41.2422 209.996 41.5499 210.101 41.8487C210.207 42.1475 210.356 42.4024 210.549 42.6133C210.743 42.8067 211.015 42.9034 211.367 42.9034C211.824 42.9034 212.184 42.7803 212.448 42.5342C212.729 42.2881 212.931 41.9805 213.054 41.6114C213.195 41.2422 213.283 40.8467 213.318 40.4249C213.353 40.003 213.371 39.6163 213.371 39.2647C213.371 38.4913 213.318 37.7354 213.213 36.9971C213.107 36.2413 213.01 35.4766 212.923 34.7032C212.905 34.6153 212.896 34.4922 212.896 34.334C212.896 34.0704 212.94 33.8067 213.028 33.543C213.116 33.2794 213.239 33.0421 213.397 32.8311C213.555 32.6202 213.749 32.4532 213.977 32.3301C214.206 32.1895 214.461 32.1192 214.742 32.1192C215.129 32.1192 215.471 32.2598 215.77 32.5411C216.069 32.8047 216.315 33.1563 216.508 33.5958C216.719 34.0176 216.886 34.501 217.009 35.046C217.15 35.5733 217.256 36.1006 217.326 36.628C217.414 37.1378 217.466 37.6212 217.484 38.0782C217.519 38.5352 217.537 38.8956 217.537 39.1592ZM228.633 47.4385C228.335 47.4385 228.097 47.2979 227.922 47.0167C227.746 46.753 227.614 46.4454 227.526 46.0938C227.438 45.7422 227.377 45.3907 227.341 45.0391C227.324 44.67 227.315 44.3887 227.315 44.1954C227.315 43.668 227.341 43.1407 227.394 42.6133C227.465 42.086 227.535 41.5587 227.605 41.0313C227.693 40.504 227.763 39.9766 227.816 39.4493C227.886 38.9219 227.922 38.3946 227.922 37.8672C227.922 37.6563 227.913 37.4278 227.895 37.1817C227.878 36.9356 227.834 36.7071 227.763 36.4962C227.711 36.2676 227.614 36.0831 227.473 35.9424C227.333 35.8018 227.148 35.7315 226.92 35.7315C226.761 35.7315 226.586 35.8633 226.392 36.127C226.199 36.3731 226.014 36.6631 225.839 36.9971C225.68 37.3135 225.54 37.6387 225.417 37.9727C225.311 38.2891 225.258 38.5264 225.258 38.6846C225.258 39.0714 225.258 39.4669 225.258 39.8712C225.276 40.2579 225.285 40.6534 225.285 41.0577V42.587C225.267 42.9034 225.241 43.2286 225.206 43.5626C225.171 43.8965 225.118 44.2217 225.048 44.5381C224.995 44.8546 224.916 45.1622 224.81 45.461C224.705 45.7422 224.564 45.9971 224.388 46.2256C224.23 46.4366 224.037 46.6124 223.808 46.753C223.58 46.8936 223.307 46.9639 222.991 46.9639C222.639 46.9639 222.349 46.8497 222.121 46.6212C221.892 46.3926 221.708 46.1026 221.567 45.751C221.426 45.3819 221.321 44.9776 221.251 44.5381C221.198 44.0811 221.154 43.6417 221.119 43.2198C221.101 42.7803 221.092 42.3848 221.092 42.0333C221.11 41.6641 221.119 41.3741 221.119 41.1631V39.9239C221.119 39.2559 221.101 38.5967 221.066 37.9464C221.048 37.296 221.04 36.6456 221.04 35.9952C221.04 35.6436 221.04 35.1954 221.04 34.6505C221.057 34.1055 221.128 33.5782 221.251 33.0684C221.374 32.5411 221.576 32.0928 221.857 31.7237C222.138 31.3546 222.551 31.17 223.096 31.17C223.342 31.17 223.562 31.2491 223.756 31.4073C223.949 31.5655 224.116 31.7589 224.257 31.9874C224.415 32.2159 224.538 32.462 224.626 32.7256C224.731 32.9893 224.81 33.2178 224.863 33.4112C225.039 33.1651 225.241 32.9278 225.469 32.6993C225.715 32.4708 225.988 32.2686 226.287 32.0928C226.586 31.9171 226.92 31.7764 227.289 31.671C227.658 31.5655 228.08 31.5128 228.554 31.5128C229.451 31.5128 230.145 31.7325 230.637 32.1719C231.147 32.5938 231.516 33.1299 231.745 33.7803C231.991 34.4131 232.14 35.0987 232.193 35.837C232.246 36.5753 232.272 37.2432 232.272 37.8409C232.272 38.1397 232.246 38.588 232.193 39.1856C232.14 39.7657 232.052 40.4161 231.929 41.1368C231.824 41.8399 231.674 42.5694 231.481 43.3253C231.288 44.0635 231.059 44.7403 230.796 45.3555C230.532 45.9708 230.215 46.4717 229.846 46.8585C229.495 47.2452 229.09 47.4385 228.633 47.4385ZM241.892 47.6495C240.644 47.6495 239.669 47.4825 238.965 47.1485C238.28 46.8321 237.761 46.3751 237.41 45.7774C237.076 45.1797 236.874 44.459 236.803 43.6153C236.733 42.7715 236.698 41.8311 236.698 40.794C236.698 39.9678 236.724 39.1417 236.777 38.3155C236.83 37.4717 236.909 36.5753 237.014 35.626C236.768 35.626 236.575 35.6348 236.434 35.6524C236.294 35.6524 236.179 35.6524 236.091 35.6524C235.529 35.6524 235.046 35.5294 234.641 35.2833C234.219 35.0372 234.008 34.6592 234.008 34.1495C234.008 33.8331 234.132 33.5518 234.378 33.3057C234.606 33.0596 234.905 32.8487 235.274 32.6729C235.643 32.4971 236.039 32.3565 236.461 32.251C236.9 32.1456 237.313 32.0753 237.7 32.0401C237.7 31.5479 237.735 31.003 237.805 30.4053C237.876 29.8077 237.999 29.254 238.174 28.7442C238.368 28.2169 238.623 27.7774 238.939 27.4258C239.256 27.0743 239.66 26.8985 240.152 26.8985C240.433 26.8985 240.679 26.9864 240.89 27.1622C241.119 27.3204 241.303 27.5313 241.444 27.795C241.585 28.0411 241.69 28.3223 241.76 28.6387C241.831 28.9551 241.866 29.2628 241.866 29.5616C241.866 29.9131 241.84 30.2735 241.787 30.6426C241.734 31.0118 241.637 31.4688 241.497 32.0137C241.796 31.9786 241.998 31.961 242.103 31.961C242.209 31.9434 242.305 31.9346 242.393 31.9346C242.692 31.9346 243 31.961 243.316 32.0137C243.65 32.0665 243.949 32.1544 244.213 32.2774C244.494 32.4005 244.722 32.5674 244.898 32.7784C245.074 32.9717 245.162 33.209 245.162 33.4903C245.162 33.8067 245.03 34.088 244.766 34.334C244.52 34.5801 244.204 34.7911 243.817 34.9669C243.43 35.1426 243.017 35.2833 242.578 35.3887C242.138 35.4766 241.725 35.5381 241.339 35.5733C241.233 36.294 241.154 36.962 241.101 37.5772C241.066 38.1749 241.022 38.7813 240.969 39.3965C240.934 39.6954 240.899 40.003 240.864 40.3194C240.846 40.6182 240.838 40.9258 240.838 41.2422C240.838 41.4708 240.846 41.7432 240.864 42.0596C240.882 42.3585 240.943 42.6485 241.048 42.9297C241.154 43.211 241.321 43.4571 241.549 43.668C241.778 43.8614 242.094 43.9581 242.499 43.9581C242.745 43.9581 243 43.9405 243.263 43.9053C243.527 43.8526 243.791 43.8262 244.054 43.8262C244.511 43.8262 244.837 43.9844 245.03 44.3008C245.241 44.6172 245.346 45.0215 245.346 45.5137C245.346 45.8829 245.232 46.2081 245.004 46.4893C244.793 46.753 244.52 46.9639 244.186 47.1221C243.852 47.2979 243.474 47.4297 243.052 47.5176C242.648 47.6055 242.261 47.6495 241.892 47.6495Z" fill="white"/>
</g>
<ellipse rx="6.87543" ry="1.9607" transform="matrix(0.9886 -0.150563 0.188938 0.981989 23.9992 2.96057)" fill="white" fill-opacity="0.5"/>
</svg>
