<svg width="267" height="105" viewBox="0 0 267 105" fill="none" xmlns="http://www.w3.org/2000/svg">
    <defs>
        <filter id="filter0_dd_3_608" x="72.9673" y="23.6973" width="120.476" height="67.8438" filterUnits="userSpaceOnUse" color-interpolation-filters="sRGB">
            <feFlood flood-opacity="0" result="BackgroundImageFix"/>
            <feColorMatrix in="SourceAlpha" type="matrix" values="0 0 0 0 0 0 0 0 0 0 0 0 0 0 0 0 0 0 127 0" result="hardAlpha"/>
            <feOffset dy="4"/>
            <feGaussianBlur stdDeviation="0.5"/>
            <feComposite in2="hardAlpha" operator="out"/>
            <feColorMatrix type="matrix" values="0 0 0 0 0.964706 0 0 0 0 0.443137 0 0 0 0 0.337255 0 0 0 1 0"/>
            <feBlend mode="normal" in2="BackgroundImageFix" result="effect1_dropShadow_3_608"/>
            <feColorMatrix in="SourceAlpha" type="matrix" values="0 0 0 0 0 0 0 0 0 0 0 0 0 0 0 0 0 0 127 0" result="hardAlpha"/>
            <feOffset dy="2"/>
            <feComposite in2="hardAlpha" operator="out"/>
            <feColorMatrix type="matrix" values="0 0 0 0 0.882353 0 0 0 0 0.34902 0 0 0 0 0.258824 0 0 0 1 0"/>
            <feBlend mode="normal" in2="effect1_dropShadow_3_608" result="effect2_dropShadow_3_608"/>
            <feBlend mode="normal" in="SourceGraphic" in2="effect2_dropShadow_3_608" result="shape"/>
        </filter>
        <linearGradient id="paint0_linear_3_608" x1="133.482" y1="6" x2="133.482" y2="99" gradientUnits="userSpaceOnUse">
            <stop stop-color="#FDA492"/>
            <stop offset="0.421875" stop-color="#FC876F"/>
            <stop offset="1" stop-color="#F56F54"/>
        </linearGradient>
    </defs>

    <path d="M3.22064 18.6401C5.57923 7.50441 15.7862 0 27.1689 0H239.959C251.264 0 261.431 7.40404 263.803 18.458C268.083 38.4104 268.059 54.3491 263.773 74.4508C261.407 85.5448 251.222 93 239.879 93H26.9894C15.6918 93 5.52806 85.6041 3.16689 74.556C-1.13469 54.4285 -0.993365 38.5359 3.22064 18.6401Z" fill="#FEB7A9"/>
<path d="M3.24872 29.7068C5.59632 18.5416 15.816 11 27.2253 11H239.901C251.234 11 261.414 18.4417 263.775 29.5258C268.092 49.7976 268.068 65.9595 263.745 86.3837C261.39 97.5076 251.192 105 239.822 105H27.047C15.722 105 5.54522 97.5666 3.19455 86.4883C-1.14486 66.0373 -1.00177 49.9221 3.24872 29.7068Z" fill="#E15942"/>
<path d="M3.22064 24.6401C5.57923 13.5044 15.7862 6 27.1689 6H239.959C251.264 6 261.431 13.404 263.803 24.458C268.083 44.4104 268.059 60.3491 263.773 80.4508C261.407 91.5448 251.222 99 239.879 99H26.9894C15.6918 99 5.52806 91.6041 3.16689 80.556C-1.13469 60.4285 -0.993365 44.5359 3.22064 24.6401Z" fill="url(#paint0_linear_3_608)"/>
<g filter="url(#filter0_dd_3_608)">
<path d="M86.1753 29.8672C86.1753 30.8164 85.9644 31.748 85.5425 32.6621C85.1382 33.5762 84.5933 34.4023 83.9077 35.1406C83.2222 35.8613 82.4399 36.459 81.561 36.9336C80.6821 37.3906 79.7769 37.6455 78.8452 37.6982C78.8276 38.0146 78.8101 38.4189 78.7925 38.9111C78.7925 39.3857 78.7661 39.8867 78.7134 40.4141C78.6606 40.9414 78.5815 41.4688 78.4761 41.9961C78.3882 42.5234 78.2476 42.998 78.0542 43.4199C77.8784 43.8418 77.6411 44.1846 77.3423 44.4482C77.061 44.7119 76.7095 44.8438 76.2876 44.8438C75.7954 44.8438 75.3999 44.6768 75.1011 44.3428C74.8198 44.0264 74.6001 43.6396 74.4419 43.1826C74.3013 42.7256 74.2046 42.251 74.1519 41.7588C74.0991 41.249 74.064 40.8184 74.0464 40.4668C74.0112 39.957 73.9849 39.4561 73.9673 38.9639C73.9673 38.4717 73.9673 37.9707 73.9673 37.4609C73.9673 37.2324 73.9673 36.8105 73.9673 36.1953C73.9673 35.5625 73.9673 34.8506 73.9673 34.0596C73.9849 33.251 74.0024 32.416 74.02 31.5547C74.0376 30.6758 74.064 29.8672 74.0991 29.1289C74.1343 28.373 74.1694 27.7314 74.2046 27.2041C74.2573 26.6768 74.3188 26.3691 74.3892 26.2812C74.4067 26.2637 74.4595 26.2285 74.5474 26.1758C74.6353 26.1055 74.7319 26.0439 74.8374 25.9912C74.9429 25.9209 75.0396 25.8594 75.1274 25.8066C75.2153 25.7539 75.2769 25.7188 75.312 25.7012C76.1206 25.2441 77.0083 24.8486 77.9751 24.5146C78.9419 24.1807 79.8999 24.0137 80.8491 24.0137C81.6577 24.0137 82.3872 24.1807 83.0376 24.5146C83.7056 24.8311 84.2681 25.2617 84.7251 25.8066C85.1997 26.334 85.5601 26.958 85.8062 27.6787C86.0522 28.3818 86.1753 29.1113 86.1753 29.8672ZM81.6138 30.4736C81.6138 30.1221 81.5259 29.8145 81.3501 29.5508C81.1919 29.2871 80.9194 29.1553 80.5327 29.1553C80.1987 29.1553 79.8647 29.2256 79.5308 29.3662C79.1968 29.4893 78.8892 29.6211 78.6079 29.7617C78.6606 30.377 78.7046 30.9746 78.7397 31.5547C78.7925 32.1348 78.8013 32.7324 78.7661 33.3477C79.0474 33.207 79.355 33.0488 79.689 32.873C80.0229 32.6797 80.3306 32.4688 80.6118 32.2402C80.8931 32.0117 81.1304 31.7568 81.3237 31.4756C81.5171 31.1768 81.6138 30.8428 81.6138 30.4736ZM93.7388 28.0215C93.7388 28.9707 93.6948 29.9287 93.6069 30.8955C93.5366 31.8447 93.5015 32.8027 93.5015 33.7695C93.5015 35.0176 93.5366 36.2656 93.6069 37.5137C93.6948 38.7617 93.7388 40.0186 93.7388 41.2842C93.7388 41.6006 93.7212 41.9609 93.686 42.3652C93.6509 42.752 93.563 43.1123 93.4224 43.4463C93.2993 43.7803 93.106 44.0615 92.8423 44.29C92.5786 44.5186 92.2271 44.6328 91.7876 44.6328C91.3657 44.6328 90.9966 44.4219 90.6802 44C90.3813 43.5957 90.1265 43.0771 89.9155 42.4443C89.7222 41.7939 89.5552 41.0732 89.4146 40.2822C89.2915 39.4912 89.1948 38.7266 89.1245 37.9883C89.0718 37.2324 89.0278 36.5469 88.9927 35.9316C88.9751 35.2988 88.9663 34.833 88.9663 34.5342C88.9663 34.2002 88.9751 33.7168 88.9927 33.084C89.0278 32.4512 89.0894 31.7656 89.1772 31.0273C89.2651 30.2891 89.3794 29.542 89.52 28.7861C89.6782 28.0127 89.8804 27.3184 90.1265 26.7031C90.3726 26.0703 90.6626 25.5605 90.9966 25.1738C91.3481 24.7695 91.7612 24.5674 92.2358 24.5674C92.6226 24.5674 92.9126 24.6992 93.106 24.9629C93.3169 25.209 93.4663 25.5166 93.5542 25.8857C93.6421 26.2373 93.6948 26.6152 93.7124 27.0195C93.73 27.4062 93.7388 27.7402 93.7388 28.0215ZM108.949 40.2822C108.949 40.5986 108.931 41.0117 108.896 41.5215C108.878 42.0312 108.808 42.5322 108.685 43.0244C108.562 43.499 108.369 43.9121 108.105 44.2637C107.841 44.6152 107.472 44.791 106.998 44.791C106.347 44.791 105.846 44.5801 105.495 44.1582C105.143 43.7363 104.976 43.209 104.994 42.5762C104.431 43.0684 103.79 43.4551 103.069 43.7363C102.366 44.0176 101.645 44.1582 100.907 44.1582C100.397 44.1582 99.9136 44.0352 99.4565 43.7891C98.9995 43.543 98.5952 43.2266 98.2437 42.8398C97.8921 42.4531 97.6108 42.0225 97.3999 41.5479C97.189 41.0557 97.0835 40.5723 97.0835 40.0977C97.0835 39.2539 97.3384 38.5156 97.8481 37.8828C98.3755 37.25 99.0171 36.7139 99.7729 36.2744C100.529 35.8174 101.329 35.457 102.172 35.1934C103.034 34.9297 103.798 34.7539 104.466 34.666C104.466 34.5781 104.466 34.499 104.466 34.4287C104.484 34.3584 104.493 34.2793 104.493 34.1914C104.493 33.6465 104.343 33.207 104.044 32.873C103.746 32.5391 103.324 32.3721 102.779 32.3721C102.339 32.3721 101.961 32.4512 101.645 32.6094C101.329 32.75 101.03 32.917 100.749 33.1104C100.467 33.2861 100.186 33.4531 99.9048 33.6113C99.6235 33.752 99.3071 33.8223 98.9556 33.8223C98.5688 33.8223 98.2349 33.6992 97.9536 33.4531C97.6899 33.207 97.5581 32.8906 97.5581 32.5039C97.5581 31.9238 97.7251 31.3965 98.0591 30.9219C98.4106 30.4473 98.8413 30.0518 99.3511 29.7354C99.8784 29.4014 100.441 29.1465 101.039 28.9707C101.654 28.7773 102.216 28.6807 102.726 28.6807C103.201 28.6807 103.675 28.7422 104.15 28.8652C104.625 28.9707 105.073 29.1465 105.495 29.3926C105.917 29.6211 106.294 29.9111 106.628 30.2627C106.98 30.5967 107.261 30.9922 107.472 31.4492C107.789 32.0996 108.043 32.7939 108.237 33.5322C108.43 34.2529 108.58 35 108.685 35.7734C108.791 36.5293 108.861 37.2939 108.896 38.0674C108.931 38.8232 108.949 39.5615 108.949 40.2822ZM104.73 39.4385L104.651 37.6455C104.616 37.6455 104.581 37.6455 104.545 37.6455C104.51 37.6279 104.475 37.6191 104.44 37.6191C104.211 37.6191 103.921 37.6807 103.57 37.8037C103.236 37.9092 102.911 38.0674 102.594 38.2783C102.278 38.4717 102.005 38.6914 101.777 38.9375C101.566 39.1836 101.46 39.4385 101.46 39.7021C101.46 39.9482 101.548 40.1152 101.724 40.2031C101.9 40.291 102.102 40.335 102.331 40.335C102.717 40.335 103.13 40.2383 103.57 40.0449C104.009 39.834 104.396 39.6318 104.73 39.4385ZM118.252 51.6729C117.831 51.6729 117.347 51.6025 116.802 51.4619C116.275 51.3389 115.774 51.1543 115.299 50.9082C114.825 50.6621 114.42 50.3633 114.086 50.0117C113.77 49.6602 113.612 49.2559 113.612 48.7988C113.612 48.623 113.656 48.4473 113.744 48.2715C113.832 48.0957 113.946 47.9375 114.086 47.7969C114.245 47.6738 114.412 47.5684 114.587 47.4805C114.763 47.4102 114.948 47.375 115.141 47.375C115.352 47.375 115.554 47.4014 115.748 47.4541C115.958 47.5244 116.169 47.6035 116.38 47.6914C116.609 47.7793 116.829 47.8584 117.04 47.9287C117.268 47.999 117.505 48.0342 117.751 48.0342C118.191 48.0342 118.569 47.8848 118.885 47.5859C119.219 47.2871 119.5 46.8916 119.729 46.3994C119.958 45.9248 120.142 45.3887 120.283 44.791C120.423 44.2109 120.529 43.6309 120.599 43.0508C120.687 42.4707 120.749 41.9258 120.784 41.416C120.819 40.9062 120.845 40.4932 120.863 40.1768C120.248 41.1084 119.632 41.8291 119.017 42.3389C118.419 42.8311 117.681 43.0771 116.802 43.0771C116.134 43.0771 115.545 42.9365 115.036 42.6553C114.543 42.374 114.122 42.0049 113.77 41.5479C113.418 41.0908 113.128 40.5723 112.9 39.9922C112.671 39.3945 112.496 38.7793 112.373 38.1465C112.267 37.5137 112.197 36.8984 112.162 36.3008C112.126 35.6855 112.126 35.123 112.162 34.6133C112.179 34.2266 112.223 33.7256 112.293 33.1104C112.381 32.4775 112.513 31.8623 112.689 31.2646C112.865 30.667 113.111 30.166 113.427 29.7617C113.744 29.3398 114.157 29.1465 114.667 29.1816C115 29.1992 115.273 29.3486 115.484 29.6299C115.695 29.8936 115.862 30.2275 115.985 30.6318C116.125 31.0361 116.222 31.4844 116.275 31.9766C116.345 32.4512 116.389 32.9258 116.407 33.4004C116.424 33.875 116.424 34.3145 116.407 34.7188C116.407 35.1055 116.407 35.4043 116.407 35.6152C116.407 35.9141 116.416 36.2129 116.433 36.5117C116.451 36.8105 116.512 37.083 116.618 37.3291C116.723 37.5576 116.881 37.7422 117.092 37.8828C117.321 38.0234 117.637 38.0938 118.042 38.0938C118.499 38.0938 118.859 37.9795 119.123 37.751C119.404 37.5225 119.606 37.2412 119.729 36.9072C119.87 36.5557 119.958 36.1865 119.993 35.7998C120.028 35.3955 120.045 35.0176 120.045 34.666C120.045 34.4199 120.045 34.1211 120.045 33.7695C120.045 33.418 120.045 33.0488 120.045 32.6621C120.063 32.2754 120.098 31.8975 120.151 31.5283C120.221 31.1416 120.318 30.7988 120.441 30.5C120.582 30.1836 120.757 29.9287 120.968 29.7354C121.197 29.542 121.487 29.4453 121.838 29.4453C122.278 29.4453 122.656 29.6211 122.972 29.9727C123.289 30.3066 123.552 30.7549 123.763 31.3174C123.992 31.8623 124.167 32.4688 124.291 33.1367C124.431 33.8047 124.537 34.4727 124.607 35.1406C124.677 35.791 124.721 36.3975 124.739 36.96C124.774 37.5049 124.792 37.9355 124.792 38.252C124.792 38.9902 124.765 39.834 124.712 40.7832C124.66 41.7148 124.554 42.6816 124.396 43.6836C124.255 44.668 124.036 45.6348 123.737 46.584C123.438 47.5508 123.042 48.4121 122.55 49.168C122.076 49.9238 121.487 50.5303 120.784 50.9873C120.081 51.4443 119.237 51.6729 118.252 51.6729ZM149.991 44.3428C149.428 44.3428 148.918 44.0439 148.461 43.4463C148.022 42.8486 147.635 42.1367 147.301 41.3105C146.967 40.4668 146.686 39.6055 146.458 38.7266C146.247 37.8477 146.088 37.1182 145.983 36.5381C145.842 36.8896 145.649 37.3203 145.403 37.8301C145.174 38.3398 144.902 38.876 144.585 39.4385C144.287 40.001 143.961 40.5723 143.61 41.1523C143.258 41.7148 142.889 42.2246 142.502 42.6816C142.133 43.1387 141.755 43.5078 141.369 43.7891C141 44.0703 140.639 44.2109 140.288 44.2109C139.813 44.2109 139.391 43.9824 139.022 43.5254C138.67 43.0684 138.372 42.4707 138.125 41.7324C137.879 40.9941 137.668 40.1768 137.493 39.2803C137.334 38.3838 137.211 37.4873 137.124 36.5908C137.036 35.6943 136.974 34.8594 136.939 34.0859C136.904 33.3125 136.886 32.6885 136.886 32.2139C136.886 31.7744 136.904 31.3525 136.939 30.9482C136.992 30.5439 137.08 30.1836 137.203 29.8672C137.343 29.5508 137.537 29.3047 137.783 29.1289C138.046 28.9355 138.389 28.8389 138.811 28.8389C139.215 28.8389 139.558 28.9883 139.839 29.2871C140.138 29.5859 140.384 29.9814 140.578 30.4736C140.771 30.9482 140.929 31.4932 141.052 32.1084C141.175 32.7061 141.272 33.3213 141.342 33.9541C141.413 34.5693 141.457 35.1758 141.474 35.7734C141.509 36.3535 141.536 36.8545 141.553 37.2764C141.659 36.9072 141.808 36.459 142.001 35.9316C142.195 35.3867 142.406 34.8154 142.634 34.2178C142.863 33.6025 143.109 32.9961 143.373 32.3984C143.654 31.8008 143.926 31.2646 144.19 30.79C144.471 30.3154 144.744 29.9287 145.007 29.6299C145.271 29.3311 145.526 29.1816 145.772 29.1816H145.798C146.115 29.1816 146.422 29.3311 146.721 29.6299C147.02 29.9287 147.31 30.3154 147.591 30.79C147.873 31.2646 148.136 31.8096 148.382 32.4248C148.628 33.0225 148.857 33.6377 149.068 34.2705C149.279 34.8857 149.463 35.4922 149.622 36.0898C149.78 36.6699 149.912 37.1709 150.017 37.5928C150.035 37.083 150.061 36.5117 150.096 35.8789C150.131 35.2285 150.193 34.5781 150.281 33.9277C150.386 33.2773 150.518 32.6445 150.676 32.0293C150.852 31.4141 151.063 30.8691 151.309 30.3945C151.555 29.9023 151.854 29.5156 152.206 29.2344C152.575 28.9355 152.997 28.7861 153.471 28.7861C153.963 28.7861 154.324 28.9619 154.552 29.3135C154.798 29.6475 154.921 30.0605 154.921 30.5527C154.921 31.0801 154.851 31.7832 154.71 32.6621C154.587 33.541 154.412 34.499 154.183 35.5361C153.955 36.5557 153.682 37.5928 153.366 38.6475C153.067 39.6846 152.733 40.625 152.364 41.4688C151.995 42.3125 151.608 43.0068 151.204 43.5518C150.799 44.0791 150.395 44.3428 149.991 44.3428ZM162.59 25.5957C162.59 25.8418 162.52 26.0615 162.379 26.2549C162.256 26.4482 162.089 26.624 161.878 26.7822C161.667 26.9229 161.439 27.0371 161.193 27.125C160.947 27.1953 160.718 27.2305 160.507 27.2305C160.156 27.2305 159.848 27.1426 159.584 26.9668C159.321 26.791 159.189 26.5186 159.189 26.1494C159.189 25.8857 159.25 25.6572 159.374 25.4639C159.514 25.2529 159.681 25.0859 159.875 24.9629C160.068 24.8223 160.288 24.7168 160.534 24.6465C160.78 24.5762 161.017 24.541 161.246 24.541C161.58 24.541 161.887 24.6201 162.168 24.7783C162.45 24.9365 162.59 25.209 162.59 25.5957ZM162.801 34.5605C162.801 34.8066 162.801 35.0703 162.801 35.3516C162.801 35.6152 162.792 35.8701 162.775 36.1162C162.757 36.415 162.749 36.8193 162.749 37.3291C162.749 37.8213 162.731 38.3574 162.696 38.9375C162.661 39.5176 162.599 40.1064 162.511 40.7041C162.441 41.3018 162.318 41.8467 162.142 42.3389C161.966 42.8311 161.729 43.2354 161.43 43.5518C161.149 43.8506 160.789 44.0088 160.349 44.0264C160.015 44.0439 159.734 43.9121 159.505 43.6309C159.277 43.3496 159.083 42.9893 158.925 42.5498C158.785 42.0928 158.679 41.5918 158.609 41.0469C158.539 40.4844 158.486 39.9482 158.451 39.4385C158.416 38.9111 158.398 38.4277 158.398 37.9883C158.398 37.5488 158.398 37.2236 158.398 37.0127C158.398 36.7314 158.398 36.3359 158.398 35.8262C158.398 35.2988 158.416 34.7363 158.451 34.1387C158.486 33.541 158.547 32.9346 158.635 32.3193C158.741 31.7041 158.881 31.1416 159.057 30.6318C159.25 30.1221 159.497 29.709 159.795 29.3926C160.094 29.0762 160.472 28.918 160.929 28.918C161.404 28.918 161.764 29.1553 162.01 29.6299C162.256 30.1045 162.441 30.6582 162.564 31.291C162.687 31.9238 162.757 32.5566 162.775 33.1895C162.792 33.8047 162.801 34.2617 162.801 34.5605ZM172.817 44.9492C171.569 44.9492 170.593 44.7822 169.89 44.4482C169.205 44.1318 168.686 43.6748 168.334 43.0771C168 42.4795 167.798 41.7588 167.728 40.915C167.658 40.0713 167.623 39.1309 167.623 38.0938C167.623 37.2676 167.649 36.4414 167.702 35.6152C167.754 34.7715 167.833 33.875 167.939 32.9258C167.693 32.9258 167.5 32.9346 167.359 32.9521C167.218 32.9521 167.104 32.9521 167.016 32.9521C166.454 32.9521 165.97 32.8291 165.566 32.583C165.144 32.3369 164.933 31.959 164.933 31.4492C164.933 31.1328 165.056 30.8516 165.302 30.6055C165.531 30.3594 165.83 30.1484 166.199 29.9727C166.568 29.7969 166.963 29.6562 167.385 29.5508C167.825 29.4453 168.238 29.375 168.625 29.3398C168.625 28.8477 168.66 28.3027 168.73 27.7051C168.8 27.1074 168.923 26.5537 169.099 26.0439C169.292 25.5166 169.547 25.0771 169.864 24.7256C170.18 24.374 170.584 24.1982 171.077 24.1982C171.358 24.1982 171.604 24.2861 171.815 24.4619C172.043 24.6201 172.228 24.8311 172.369 25.0947C172.509 25.3408 172.615 25.6221 172.685 25.9385C172.755 26.2549 172.791 26.5625 172.791 26.8613C172.791 27.2129 172.764 27.5732 172.711 27.9424C172.659 28.3115 172.562 28.7686 172.421 29.3135C172.72 29.2783 172.922 29.2607 173.028 29.2607C173.133 29.2432 173.23 29.2344 173.318 29.2344C173.617 29.2344 173.924 29.2607 174.241 29.3135C174.575 29.3662 174.874 29.4541 175.137 29.5771C175.418 29.7002 175.647 29.8672 175.823 30.0781C175.999 30.2715 176.086 30.5088 176.086 30.79C176.086 31.1064 175.955 31.3877 175.691 31.6338C175.445 31.8799 175.128 32.0908 174.742 32.2666C174.355 32.4424 173.942 32.583 173.502 32.6885C173.063 32.7764 172.65 32.8379 172.263 32.873C172.158 33.5938 172.079 34.2617 172.026 34.877C171.991 35.4746 171.947 36.0811 171.894 36.6963C171.859 36.9951 171.824 37.3027 171.789 37.6191C171.771 37.918 171.762 38.2256 171.762 38.542C171.762 38.7705 171.771 39.043 171.789 39.3594C171.806 39.6582 171.868 39.9482 171.973 40.2295C172.079 40.5107 172.246 40.7568 172.474 40.9678C172.703 41.1611 173.019 41.2578 173.423 41.2578C173.669 41.2578 173.924 41.2402 174.188 41.2051C174.452 41.1523 174.715 41.126 174.979 41.126C175.436 41.126 175.761 41.2842 175.955 41.6006C176.166 41.917 176.271 42.3213 176.271 42.8135C176.271 43.1826 176.157 43.5078 175.928 43.7891C175.717 44.0527 175.445 44.2637 175.111 44.4219C174.777 44.5977 174.399 44.7295 173.977 44.8174C173.573 44.9053 173.186 44.9492 172.817 44.9492ZM190.769 37.1709C190.769 37.4697 190.76 37.918 190.743 38.5156C190.743 39.0957 190.716 39.7109 190.664 40.3613C190.628 40.9941 190.576 41.6006 190.505 42.1807C190.435 42.7432 190.347 43.1562 190.242 43.4199C190.101 43.7539 189.917 44.0439 189.688 44.29C189.459 44.5361 189.152 44.6592 188.765 44.6592C188.167 44.6592 187.737 44.4219 187.473 43.9473C187.209 43.4727 187.034 42.8838 186.946 42.1807C186.858 41.4775 186.823 40.7129 186.84 39.8867C186.858 39.0605 186.849 38.2959 186.814 37.5928C186.779 36.8896 186.682 36.3008 186.524 35.8262C186.366 35.3516 186.076 35.1143 185.654 35.1143C185.074 35.1143 184.625 35.2109 184.309 35.4043C184.01 35.5801 183.791 35.8174 183.65 36.1162C183.527 36.415 183.448 36.7578 183.413 37.1445C183.395 37.5312 183.369 37.9355 183.333 38.3574C183.298 38.7617 183.272 39.3066 183.254 39.9922C183.237 40.6777 183.158 41.3545 183.017 42.0225C182.876 42.6904 182.639 43.2705 182.305 43.7627C181.989 44.2373 181.514 44.4746 180.881 44.4746C180.495 44.4746 180.178 44.3252 179.932 44.0264C179.704 43.7275 179.519 43.3408 179.378 42.8662C179.238 42.3916 179.132 41.8643 179.062 41.2842C179.009 40.7041 178.974 40.1416 178.957 39.5967C178.957 39.0342 178.957 38.5244 178.957 38.0674C178.974 37.6104 178.983 37.2676 178.983 37.0391C178.983 36.6875 178.992 36.1074 179.009 35.2988C179.044 34.4902 179.106 33.5938 179.194 32.6094C179.282 31.6074 179.396 30.5791 179.537 29.5244C179.677 28.4697 179.862 27.5117 180.09 26.6504C180.319 25.7715 180.591 25.0596 180.908 24.5146C181.242 23.9697 181.628 23.7061 182.068 23.7236C182.349 23.7412 182.586 23.8643 182.78 24.0928C182.991 24.3213 183.158 24.6201 183.281 24.9893C183.421 25.3408 183.536 25.7275 183.624 26.1494C183.711 26.5713 183.773 26.9932 183.808 27.415C183.861 27.8193 183.887 28.1973 183.887 28.5488C183.905 28.9004 183.914 29.1729 183.914 29.3662C183.914 29.8232 183.905 30.2803 183.887 30.7373C183.87 31.1943 183.843 31.6514 183.808 32.1084C184.212 31.5635 184.749 31.1152 185.417 30.7637C186.102 30.4121 186.788 30.2363 187.473 30.2363C188.352 30.2363 189.011 30.4824 189.451 30.9746C189.908 31.4492 190.233 32.0469 190.426 32.7676C190.62 33.4707 190.725 34.2266 190.743 35.0352C190.76 35.8262 190.769 36.5381 190.769 37.1709ZM87.4502 65.5791C87.4502 65.9131 87.4062 66.2646 87.3184 66.6338C87.248 67.0029 87.125 67.3457 86.9492 67.6621C86.7734 67.9785 86.5449 68.2422 86.2637 68.4531C85.9824 68.6641 85.6396 68.7695 85.2354 68.7695C84.6201 68.7695 84.1631 68.6641 83.8643 68.4531C83.5654 68.2246 83.3545 67.9434 83.2314 67.6094C83.1084 67.2754 83.0381 66.9238 83.0205 66.5547C83.0205 66.168 83.0117 65.8076 82.9941 65.4736C82.9766 65.1396 82.915 64.8672 82.8096 64.6562C82.7217 64.4277 82.5195 64.3135 82.2031 64.3135C81.8516 64.3135 81.5439 64.4453 81.2803 64.709C81.0166 64.9551 80.7881 65.2803 80.5947 65.6846C80.4014 66.0889 80.2344 66.5459 80.0938 67.0557C79.9707 67.5654 79.8652 68.0752 79.7773 68.585C79.707 69.0771 79.6543 69.5518 79.6191 70.0088C79.584 70.4482 79.5664 70.8086 79.5664 71.0898C79.5664 71.459 79.5752 71.8984 79.5928 72.4082C79.6279 72.918 79.7158 73.4102 79.8564 73.8848C79.9971 74.3418 80.208 74.7373 80.4893 75.0713C80.7705 75.3877 81.1748 75.5459 81.7021 75.5459C82.0537 75.5459 82.3965 75.502 82.7305 75.4141C83.0645 75.3262 83.3984 75.2295 83.7324 75.124C84.0664 75.001 84.4004 74.8955 84.7344 74.8076C85.0859 74.7197 85.4375 74.6758 85.7891 74.6758C86.1934 74.6758 86.5273 74.8428 86.791 75.1768C87.0547 75.4932 87.1865 75.8535 87.1865 76.2578C87.1865 76.8203 87.0107 77.3477 86.6592 77.8398C86.3076 78.3145 85.8682 78.7363 85.3408 79.1055C84.8311 79.4746 84.2686 79.7646 83.6533 79.9756C83.0557 80.1865 82.5107 80.292 82.0186 80.292C80.7529 80.292 79.6807 80.002 78.8018 79.4219C77.9229 78.8594 77.2109 78.1299 76.666 77.2334C76.1211 76.3193 75.7256 75.3086 75.4795 74.2012C75.251 73.0762 75.1367 71.96 75.1367 70.8525C75.1367 70.1143 75.207 69.3057 75.3477 68.4268C75.4883 67.5479 75.6992 66.6689 75.9805 65.79C76.2617 64.8936 76.6133 64.0322 77.0352 63.2061C77.4746 62.3799 77.9844 61.6504 78.5645 61.0176C79.1445 60.3848 79.7949 59.875 80.5156 59.4883C81.2539 59.1016 82.0625 58.9082 82.9414 58.9082C83.8027 58.9082 84.5234 59.1279 85.1035 59.5674C85.6836 59.9893 86.1494 60.5342 86.501 61.2021C86.8525 61.8525 87.0986 62.5732 87.2393 63.3643C87.3799 64.1377 87.4502 64.876 87.4502 65.5791ZM95.5146 79.7646C94.6182 79.7646 93.8359 79.5273 93.168 79.0527C92.5 78.5781 91.9375 77.9717 91.4805 77.2334C91.0234 76.4951 90.6807 75.6777 90.4521 74.7812C90.2236 73.8672 90.1094 72.9707 90.1094 72.0918C90.1094 71.1602 90.2236 70.2021 90.4521 69.2178C90.6807 68.2158 91.0322 67.3105 91.5068 66.502C91.9814 65.6758 92.5879 65.0078 93.3262 64.498C94.0645 63.9707 94.9434 63.707 95.9629 63.707C96.9473 63.707 97.7822 63.9795 98.4678 64.5244C99.1709 65.0518 99.7334 65.7197 100.155 66.5283C100.577 67.3193 100.876 68.1895 101.052 69.1387C101.228 70.0879 101.289 70.9844 101.236 71.8281C101.184 72.7598 101.034 73.7002 100.788 74.6494C100.56 75.5986 100.217 76.4512 99.7598 77.207C99.3027 77.9629 98.7227 78.5781 98.0195 79.0527C97.3164 79.5273 96.4814 79.7646 95.5146 79.7646ZM95.7783 67.8467C95.5146 67.8467 95.2773 67.9873 95.0664 68.2686C94.873 68.5498 94.7061 68.8926 94.5654 69.2969C94.4424 69.7012 94.3457 70.1318 94.2754 70.5889C94.2051 71.0283 94.1699 71.415 94.1699 71.749C94.1699 72.1709 94.2051 72.6279 94.2754 73.1201C94.3633 73.6123 94.4775 74.0693 94.6182 74.4912C94.7588 74.8955 94.9258 75.2383 95.1191 75.5195C95.3301 75.7832 95.5674 75.915 95.8311 75.915C96.1123 75.915 96.3496 75.7832 96.543 75.5195C96.7539 75.2559 96.9209 74.9219 97.0439 74.5176C97.167 74.1133 97.2549 73.6738 97.3076 73.1992C97.3604 72.707 97.3867 72.25 97.3867 71.8281C97.3867 71.4414 97.3516 71.0195 97.2812 70.5625C97.2109 70.0879 97.1055 69.6484 96.9648 69.2441C96.8418 68.8398 96.6748 68.5059 96.4639 68.2422C96.2705 67.9785 96.042 67.8467 95.7783 67.8467ZM120.586 70.2988C120.586 70.6328 120.586 71.0898 120.586 71.6699C120.586 72.2324 120.568 72.8477 120.533 73.5156C120.516 74.1836 120.463 74.8604 120.375 75.5459C120.287 76.2139 120.146 76.8203 119.953 77.3652C119.777 77.9102 119.549 78.3584 119.268 78.71C118.986 79.0615 118.626 79.2373 118.187 79.2373C117.8 79.2373 117.501 79.0791 117.29 78.7627C117.097 78.4287 116.956 78.042 116.868 77.6025C116.78 77.1631 116.728 76.7148 116.71 76.2578C116.71 75.8008 116.71 75.4404 116.71 75.1768C116.71 74.3857 116.736 73.6123 116.789 72.8564C116.842 72.1006 116.868 71.3271 116.868 70.5361C116.868 70.4482 116.868 70.29 116.868 70.0615C116.868 69.833 116.851 69.6045 116.815 69.376C116.78 69.1475 116.719 68.9453 116.631 68.7695C116.561 68.5938 116.446 68.5059 116.288 68.5059C115.972 68.5059 115.717 68.6729 115.523 69.0068C115.33 69.3232 115.172 69.7012 115.049 70.1406C114.926 70.5801 114.838 71.0195 114.785 71.459C114.732 71.8809 114.697 72.1973 114.68 72.4082C114.645 72.6367 114.609 72.9795 114.574 73.4365C114.557 73.8936 114.521 74.3945 114.469 74.9395C114.434 75.4844 114.363 76.0469 114.258 76.627C114.17 77.1895 114.047 77.708 113.889 78.1826C113.748 78.6396 113.563 79.0176 113.335 79.3164C113.106 79.6152 112.825 79.7646 112.491 79.7646C112.069 79.7646 111.744 79.5801 111.516 79.2109C111.287 78.8418 111.12 78.4111 111.015 77.9189C110.909 77.4268 110.839 76.9258 110.804 76.416C110.786 75.9062 110.777 75.5107 110.777 75.2295C110.777 74.9307 110.777 74.6406 110.777 74.3594C110.795 74.0781 110.804 73.7881 110.804 73.4893C110.804 73.3662 110.804 73.1641 110.804 72.8828C110.804 72.6016 110.795 72.2939 110.777 71.96C110.777 71.6084 110.76 71.248 110.725 70.8789C110.707 70.5098 110.672 70.1758 110.619 69.877C110.566 69.5605 110.487 69.3057 110.382 69.1123C110.276 68.9189 110.153 68.8223 110.013 68.8223C109.784 68.8223 109.573 68.9717 109.38 69.2705C109.187 69.5518 109.02 69.8945 108.879 70.2988C108.738 70.6855 108.624 71.0723 108.536 71.459C108.466 71.8457 108.431 72.127 108.431 72.3027V72.4609C108.431 73.3047 108.483 74.1309 108.589 74.9395C108.694 75.748 108.747 76.5742 108.747 77.418C108.747 77.9102 108.589 78.3672 108.272 78.7891C107.956 79.1934 107.517 79.3955 106.954 79.3955C106.55 79.3955 106.216 79.2461 105.952 78.9473C105.688 78.6309 105.469 78.2266 105.293 77.7344C105.117 77.2422 104.977 76.7061 104.871 76.126C104.783 75.5283 104.722 74.9482 104.687 74.3857C104.651 73.8057 104.625 73.2871 104.607 72.8301C104.607 72.3555 104.607 72.0039 104.607 71.7754C104.607 71.5117 104.599 71.125 104.581 70.6152C104.581 70.1055 104.59 69.5518 104.607 68.9541C104.643 68.3564 104.695 67.75 104.766 67.1348C104.836 66.502 104.95 65.9307 105.108 65.4209C105.267 64.9111 105.469 64.498 105.715 64.1816C105.979 63.8477 106.312 63.6807 106.717 63.6807C107.174 63.6807 107.543 63.8037 107.824 64.0498C108.123 64.2959 108.272 64.665 108.272 65.1572C108.272 65.2627 108.264 65.3682 108.246 65.4736C108.246 65.5791 108.237 65.6758 108.22 65.7637C108.413 65.4824 108.65 65.2012 108.932 64.9199C109.213 64.6211 109.512 64.3574 109.828 64.1289C110.162 63.8828 110.514 63.6895 110.883 63.5488C111.252 63.3906 111.621 63.3115 111.99 63.3115C112.342 63.3115 112.658 63.4082 112.939 63.6016C113.221 63.7949 113.467 64.041 113.678 64.3398C113.889 64.6211 114.064 64.9287 114.205 65.2627C114.346 65.5967 114.442 65.9131 114.495 66.2119C114.671 65.8955 114.882 65.5791 115.128 65.2627C115.392 64.9287 115.673 64.6387 115.972 64.3926C116.271 64.1465 116.596 63.9443 116.947 63.7861C117.316 63.6279 117.694 63.5488 118.081 63.5488C118.45 63.5488 118.767 63.6807 119.03 63.9443C119.294 64.208 119.522 64.5508 119.716 64.9727C119.909 65.377 120.059 65.8428 120.164 66.3701C120.27 66.8799 120.357 67.3896 120.428 67.8994C120.498 68.3916 120.542 68.8574 120.56 69.2969C120.577 69.7188 120.586 70.0527 120.586 70.2988ZM136.402 71.1426C136.402 71.916 136.314 72.7686 136.139 73.7002C135.98 74.6143 135.699 75.4668 135.295 76.2578C134.908 77.0488 134.39 77.708 133.739 78.2354C133.106 78.7627 132.307 79.0264 131.34 79.0264C131.094 79.0264 130.839 79.0088 130.575 78.9736C130.312 78.9385 130.057 78.877 129.811 78.7891C129.582 78.7012 129.371 78.5869 129.178 78.4463C128.984 78.2881 128.835 78.0859 128.729 77.8398L128.492 81.6367C128.475 82.041 128.457 82.5244 128.439 83.0869C128.439 83.6494 128.369 84.1855 128.229 84.6953C128.105 85.2051 127.886 85.6357 127.569 85.9873C127.271 86.3564 126.831 86.541 126.251 86.541C125.917 86.541 125.636 86.3652 125.407 86.0137C125.179 85.6797 124.994 85.249 124.854 84.7217C124.73 84.1943 124.634 83.6055 124.563 82.9551C124.493 82.3047 124.449 81.6807 124.432 81.083C124.414 80.4854 124.405 79.9404 124.405 79.4482C124.405 78.9561 124.405 78.5957 124.405 78.3672C124.405 77.1895 124.396 76.0205 124.379 74.8604C124.361 73.6826 124.353 72.5049 124.353 71.3271C124.353 71.1162 124.353 70.791 124.353 70.3516C124.353 69.8945 124.37 69.4023 124.405 68.875C124.44 68.3477 124.493 67.8027 124.563 67.2402C124.651 66.6777 124.774 66.168 124.933 65.7109C125.091 65.2363 125.293 64.8584 125.539 64.5771C125.785 64.2783 126.084 64.1289 126.436 64.1289C126.664 64.1289 126.866 64.1992 127.042 64.3398C127.235 64.4629 127.394 64.6299 127.517 64.8408C127.657 65.0342 127.771 65.2451 127.859 65.4736C127.947 65.7021 128.018 65.9131 128.07 66.1064C128.615 65.4912 129.239 65.0254 129.942 64.709C130.663 64.3926 131.428 64.2344 132.236 64.2344C133.08 64.2344 133.766 64.4717 134.293 64.9463C134.838 65.4209 135.26 66.0098 135.559 66.7129C135.875 67.416 136.095 68.1719 136.218 68.9805C136.341 69.7715 136.402 70.4922 136.402 71.1426ZM132.632 70.9316C132.632 70.668 132.605 70.4043 132.553 70.1406C132.518 69.8594 132.438 69.6045 132.315 69.376C132.21 69.1299 132.052 68.9365 131.841 68.7959C131.63 68.6377 131.366 68.5586 131.05 68.5586C130.628 68.5586 130.18 68.6992 129.705 68.9805C129.248 69.2441 128.905 69.5518 128.677 69.9033C128.589 70.0439 128.536 70.2725 128.519 70.5889C128.501 70.9053 128.492 71.1426 128.492 71.3008C128.492 71.4238 128.492 71.5908 128.492 71.8018C128.51 71.9951 128.527 72.1973 128.545 72.4082C128.562 72.6191 128.58 72.8213 128.598 73.0146C128.633 73.208 128.677 73.3574 128.729 73.4629C128.782 73.6211 128.896 73.7705 129.072 73.9111C129.248 74.0342 129.441 74.1484 129.652 74.2539C129.863 74.3594 130.074 74.4385 130.285 74.4912C130.514 74.5439 130.707 74.5703 130.865 74.5703C131.234 74.5703 131.533 74.4297 131.762 74.1484C131.99 73.8672 132.166 73.5332 132.289 73.1465C132.43 72.7598 132.518 72.3643 132.553 71.96C132.605 71.5381 132.632 71.1953 132.632 70.9316ZM151.56 71.459C151.56 72.4258 151.463 73.3838 151.27 74.333C151.076 75.2822 150.751 76.1348 150.294 76.8906C149.837 77.6289 149.222 78.2266 148.448 78.6836C147.692 79.1406 146.743 79.3691 145.601 79.3691C144.476 79.3691 143.535 79.1494 142.779 78.71C142.023 78.2529 141.417 77.6553 140.96 76.917C140.521 76.1787 140.204 75.3438 140.011 74.4121C139.835 73.4805 139.747 72.5312 139.747 71.5645C139.747 70.5098 139.87 69.4639 140.116 68.4268C140.169 68.1455 140.266 67.7588 140.406 67.2666C140.564 66.7568 140.758 66.2646 140.986 65.79C141.232 65.2979 141.505 64.876 141.804 64.5244C142.12 64.1729 142.463 63.9971 142.832 63.9971C143.184 63.9971 143.465 64.0938 143.676 64.2871C143.887 64.4805 144.054 64.7266 144.177 65.0254C144.3 65.3066 144.379 65.6143 144.414 65.9482C144.449 66.2646 144.467 66.5547 144.467 66.8184C144.467 67.2227 144.432 67.6182 144.361 68.0049C144.309 68.3916 144.247 68.7783 144.177 69.165C144.106 69.6924 144.036 70.2197 143.966 70.7471C143.913 71.2744 143.887 71.8018 143.887 72.3291C143.887 72.5928 143.896 72.8916 143.913 73.2256C143.948 73.542 144.019 73.8496 144.124 74.1484C144.229 74.4473 144.379 74.7021 144.572 74.9131C144.766 75.1064 145.038 75.2031 145.39 75.2031C145.847 75.2031 146.207 75.0801 146.471 74.834C146.752 74.5879 146.954 74.2803 147.077 73.9111C147.218 73.542 147.306 73.1465 147.341 72.7246C147.376 72.3027 147.394 71.916 147.394 71.5645C147.394 70.791 147.341 70.0352 147.235 69.2969C147.13 68.541 147.033 67.7764 146.945 67.0029C146.928 66.915 146.919 66.792 146.919 66.6338C146.919 66.3701 146.963 66.1064 147.051 65.8428C147.139 65.5791 147.262 65.3418 147.42 65.1309C147.578 64.9199 147.771 64.7529 148 64.6299C148.229 64.4893 148.483 64.4189 148.765 64.4189C149.151 64.4189 149.494 64.5596 149.793 64.8408C150.092 65.1045 150.338 65.4561 150.531 65.8955C150.742 66.3174 150.909 66.8008 151.032 67.3457C151.173 67.873 151.278 68.4004 151.349 68.9277C151.437 69.4375 151.489 69.9209 151.507 70.3779C151.542 70.835 151.56 71.1953 151.56 71.459ZM161.312 79.9492C160.063 79.9492 159.088 79.7822 158.385 79.4482C157.699 79.1318 157.181 78.6748 156.829 78.0771C156.495 77.4795 156.293 76.7588 156.223 75.915C156.152 75.0713 156.117 74.1309 156.117 73.0938C156.117 72.2676 156.144 71.4414 156.196 70.6152C156.249 69.7715 156.328 68.875 156.434 67.9258C156.188 67.9258 155.994 67.9346 155.854 67.9521C155.713 67.9521 155.599 67.9521 155.511 67.9521C154.948 67.9521 154.465 67.8291 154.061 67.583C153.639 67.3369 153.428 66.959 153.428 66.4492C153.428 66.1328 153.551 65.8516 153.797 65.6055C154.025 65.3594 154.324 65.1484 154.693 64.9727C155.062 64.7969 155.458 64.6562 155.88 64.5508C156.319 64.4453 156.732 64.375 157.119 64.3398C157.119 63.8477 157.154 63.3027 157.225 62.7051C157.295 62.1074 157.418 61.5537 157.594 61.0439C157.787 60.5166 158.042 60.0771 158.358 59.7256C158.675 59.374 159.079 59.1982 159.571 59.1982C159.853 59.1982 160.099 59.2861 160.31 59.4619C160.538 59.6201 160.723 59.8311 160.863 60.0947C161.004 60.3408 161.109 60.6221 161.18 60.9385C161.25 61.2549 161.285 61.5625 161.285 61.8613C161.285 62.2129 161.259 62.5732 161.206 62.9424C161.153 63.3115 161.057 63.7686 160.916 64.3135C161.215 64.2783 161.417 64.2607 161.522 64.2607C161.628 64.2432 161.725 64.2344 161.812 64.2344C162.111 64.2344 162.419 64.2607 162.735 64.3135C163.069 64.3662 163.368 64.4541 163.632 64.5771C163.913 64.7002 164.142 64.8672 164.317 65.0781C164.493 65.2715 164.581 65.5088 164.581 65.79C164.581 66.1064 164.449 66.3877 164.186 66.6338C163.939 66.8799 163.623 67.0908 163.236 67.2666C162.85 67.4424 162.437 67.583 161.997 67.6885C161.558 67.7764 161.145 67.8379 160.758 67.873C160.652 68.5938 160.573 69.2617 160.521 69.877C160.485 70.4746 160.441 71.0811 160.389 71.6963C160.354 71.9951 160.318 72.3027 160.283 72.6191C160.266 72.918 160.257 73.2256 160.257 73.542C160.257 73.7705 160.266 74.043 160.283 74.3594C160.301 74.6582 160.362 74.9482 160.468 75.2295C160.573 75.5107 160.74 75.7568 160.969 75.9678C161.197 76.1611 161.514 76.2578 161.918 76.2578C162.164 76.2578 162.419 76.2402 162.683 76.2051C162.946 76.1523 163.21 76.126 163.474 76.126C163.931 76.126 164.256 76.2842 164.449 76.6006C164.66 76.917 164.766 77.3213 164.766 77.8135C164.766 78.1826 164.651 78.5078 164.423 78.7891C164.212 79.0527 163.939 79.2637 163.605 79.4219C163.271 79.5977 162.894 79.7295 162.472 79.8174C162.067 79.9053 161.681 79.9492 161.312 79.9492ZM178.341 74.3066C178.341 74.9043 178.147 75.4932 177.761 76.0732C177.392 76.6357 176.917 77.1455 176.337 77.6025C175.774 78.042 175.168 78.4023 174.518 78.6836C173.867 78.9473 173.27 79.0791 172.725 79.0791C171.793 79.0791 170.958 78.8506 170.22 78.3936C169.499 77.9189 168.893 77.3213 168.4 76.6006C167.908 75.8799 167.53 75.0889 167.267 74.2275C167.021 73.3486 166.897 72.4961 166.897 71.6699C166.897 70.791 167.021 69.8506 167.267 68.8486C167.513 67.8467 167.882 66.9238 168.374 66.0801C168.884 65.2363 169.517 64.5332 170.272 63.9707C171.046 63.4082 171.96 63.127 173.015 63.127C173.612 63.127 174.184 63.2324 174.729 63.4434C175.273 63.6367 175.748 63.918 176.152 64.2871C176.557 64.6562 176.882 65.0957 177.128 65.6055C177.374 66.1152 177.497 66.6865 177.497 67.3193C177.497 68.1455 177.321 68.9189 176.97 69.6396C176.618 70.3604 176.152 70.9844 175.572 71.5117C174.992 72.0391 174.324 72.4697 173.568 72.8037C172.812 73.1201 172.039 73.2959 171.248 73.3311C171.318 73.8408 171.521 74.21 171.854 74.4385C172.206 74.667 172.619 74.7812 173.094 74.7812C173.445 74.7812 173.788 74.6934 174.122 74.5176C174.456 74.3418 174.781 74.1484 175.098 73.9375C175.414 73.709 175.722 73.5068 176.021 73.3311C176.337 73.1553 176.653 73.0674 176.97 73.0674C177.321 73.0674 177.638 73.1816 177.919 73.4102C178.2 73.6387 178.341 73.9375 178.341 74.3066ZM174.069 67.8467C174.069 67.6182 174.008 67.3809 173.885 67.1348C173.762 66.8887 173.568 66.7656 173.305 66.7656C172.918 66.7656 172.593 66.8711 172.329 67.082C172.065 67.2754 171.846 67.5303 171.67 67.8467C171.494 68.1455 171.354 68.4707 171.248 68.8223C171.16 69.1738 171.107 69.499 171.09 69.7979C171.336 69.7451 171.626 69.6748 171.96 69.5869C172.312 69.499 172.637 69.3848 172.936 69.2441C173.252 69.0859 173.516 68.8926 173.727 68.6641C173.955 68.4355 174.069 68.1631 174.069 67.8467ZM190.545 69.1387C190.299 69.1562 190.088 69.1387 189.912 69.0859C189.736 69.0156 189.561 68.9453 189.385 68.875C189.227 68.8047 189.068 68.7432 188.91 68.6904C188.752 68.6201 188.576 68.5938 188.383 68.6113C188.031 68.6289 187.715 68.7256 187.434 68.9014C187.17 69.0771 186.924 69.2969 186.695 69.5605C186.484 69.8242 186.3 70.123 186.142 70.457C185.983 70.7734 185.86 71.0898 185.772 71.4062C185.72 71.6172 185.676 71.9424 185.641 72.3818C185.623 72.8037 185.614 73.2607 185.614 73.7529C185.597 74.2627 185.588 74.7461 185.588 75.2031C185.588 75.6602 185.57 76.0205 185.535 76.2842C185.518 76.5654 185.474 76.8994 185.403 77.2861C185.333 77.6553 185.219 78.0068 185.061 78.3408C184.92 78.6748 184.727 78.9561 184.48 79.1846C184.234 79.4131 183.918 79.5273 183.531 79.5273C183.232 79.5273 182.969 79.4395 182.74 79.2637C182.529 79.0879 182.345 78.8594 182.187 78.5781C182.046 78.2793 181.923 77.9365 181.817 77.5498C181.729 77.1631 181.659 76.7676 181.606 76.3633C181.554 75.9414 181.51 75.5195 181.475 75.0977C181.457 74.6758 181.439 74.2803 181.422 73.9111C181.422 73.5244 181.422 73.1729 181.422 72.8564C181.439 72.54 181.448 72.2852 181.448 72.0918C181.431 71.4766 181.396 70.8613 181.343 70.2461C181.308 69.6133 181.29 68.9893 181.29 68.374C181.29 67.9873 181.308 67.5566 181.343 67.082C181.378 66.6074 181.475 66.168 181.633 65.7637C181.791 65.3418 182.02 64.9902 182.318 64.709C182.635 64.4277 183.065 64.2871 183.61 64.2871C183.909 64.2871 184.164 64.3838 184.375 64.5771C184.586 64.7705 184.753 65.0078 184.876 65.2891C185.017 65.5703 185.122 65.8691 185.192 66.1855C185.263 66.502 185.307 66.792 185.324 67.0557C185.746 66.3701 186.221 65.8164 186.748 65.3945C187.275 64.9551 187.961 64.7178 188.805 64.6826C189.227 64.665 189.64 64.709 190.044 64.8145C190.466 64.9023 190.844 65.0605 191.178 65.2891C191.529 65.5 191.811 65.7812 192.021 66.1328C192.25 66.4844 192.373 66.8975 192.391 67.3721C192.426 67.9346 192.259 68.3652 191.89 68.6641C191.521 68.9629 191.072 69.1211 190.545 69.1387Z" fill="white"/>
</g>
<ellipse cx="21.3769" cy="3.96045" rx="6.13529" ry="1.95339" transform="rotate(-9.7138 21.3769 3.96045)" fill="white" fill-opacity="0.5"/>
</svg>
