<svg width="21" height="17" viewBox="0 0 21 17" fill="none" xmlns="http://www.w3.org/2000/svg">
<rect y="1" width="21" height="16" rx="4" fill="#846404"/>
<g filter="url(#filter0_i_14_1601)">
<rect width="21" height="15" rx="4" fill="#EAB632"/>
</g>
<path fill-rule="evenodd" clip-rule="evenodd" d="M10.7428 3.02519C10.8588 3.06066 10.9601 3.13118 11.0321 3.2265C11.104 3.32182 11.1428 3.43697 11.1428 3.55519V6.33297H13.4284C13.5329 6.33293 13.6354 6.36076 13.7248 6.41343C13.8142 6.4661 13.887 6.54161 13.9353 6.63172C13.9836 6.72183 14.0056 6.8231 13.9988 6.92451C13.992 7.02592 13.9568 7.12358 13.8969 7.20686L9.89715 12.7624C9.82754 12.8594 9.72792 12.9322 9.61279 12.9703C9.49766 13.0085 9.37302 13.0099 9.25702 12.9744C9.14101 12.9388 9.03968 12.8683 8.96778 12.7729C8.89587 12.6775 8.85714 12.5623 8.85722 12.4441V9.66631H6.57165C6.46713 9.66635 6.3646 9.63853 6.27522 9.58585C6.18584 9.53318 6.11303 9.45767 6.06471 9.36756C6.0164 9.27745 5.99443 9.17618 6.0012 9.07477C6.00797 8.97336 6.04322 8.8757 6.1031 8.79242L10.1029 3.23686C10.1726 3.14007 10.2722 3.06742 10.3873 3.02946C10.5024 2.99149 10.6269 2.99019 10.7428 3.02575V3.02519Z" fill="white" fill-opacity="0.33"/>
<path d="M10.2651 3.35375L6.26548 8.90918C6.26546 8.90921 6.26544 8.90924 6.26542 8.90928C6.22716 8.96251 6.20501 9.02436 6.20076 9.08809C6.1965 9.15185 6.21027 9.21578 6.24098 9.27306C6.27171 9.33039 6.31845 9.37918 6.37676 9.41355C6.43511 9.44793 6.50251 9.46634 6.57156 9.46631H6.57165H8.85722H9.05722V9.66631V12.4441V12.4442C9.05717 12.5185 9.08146 12.5915 9.12747 12.6525C9.17355 12.7136 9.23921 12.7597 9.31556 12.7831C9.39195 12.8065 9.47416 12.8056 9.54993 12.7805C9.62565 12.7554 9.69013 12.7079 9.73468 12.6458L9.73484 12.6456L13.7345 7.0901L10.2651 3.35375ZM10.2651 3.35375C10.2651 3.35374 10.2652 3.35373 10.2652 3.35371C10.3098 3.29178 10.3743 3.24435 10.4499 3.21939C10.5257 3.1944 10.6078 3.19354 10.6842 3.21695L10.7038 3.22298M10.2651 3.35375L10.7038 3.22298M10.7038 3.22298C10.7718 3.24784 10.8303 3.29115 10.8724 3.34698C10.9185 3.40797 10.9428 3.48091 10.9428 3.55518V3.55519V6.33297V6.53297H11.1428H13.4284H13.4284C13.4975 6.53294 13.5649 6.55135 13.6232 6.58574C13.6815 6.6201 13.7283 6.66889 13.759 6.72622C13.7897 6.7835 13.8035 6.84743 13.7992 6.91119C13.795 6.97492 13.7728 7.03678 13.7346 7.09001L10.7038 3.22298Z" stroke="white" stroke-opacity="0.45" stroke-width="0.4"/>
<defs>
<filter id="filter0_i_14_1601" x="0" y="0" width="21" height="19" filterUnits="userSpaceOnUse" color-interpolation-filters="sRGB">
<feFlood flood-opacity="0" result="BackgroundImageFix"/>
<feBlend mode="normal" in="SourceGraphic" in2="BackgroundImageFix" result="shape"/>
<feColorMatrix in="SourceAlpha" type="matrix" values="0 0 0 0 0 0 0 0 0 0 0 0 0 0 0 0 0 0 127 0" result="hardAlpha"/>
<feOffset dy="4"/>
<feGaussianBlur stdDeviation="2"/>
<feComposite in2="hardAlpha" operator="arithmetic" k2="-1" k3="1"/>
<feColorMatrix type="matrix" values="0 0 0 0 1 0 0 0 0 0.8 0 0 0 0 0.2 0 0 0 1 0"/>
<feBlend mode="normal" in2="shape" result="effect1_innerShadow_14_1601"/>
</filter>
</defs>
</svg>
