<svg width="21" height="17" viewBox="0 0 21 17" fill="none" xmlns="http://www.w3.org/2000/svg">
<rect y="1" width="21" height="16" rx="4" fill="#840312"/>
<g filter="url(#filter0_i_655_617)">
<rect width="21" height="15" rx="4" fill="#D52B40"/>
</g>
<path fill-rule="evenodd" clip-rule="evenodd" d="M11.7428 3.02519C11.8588 3.06066 11.9601 3.13118 12.0321 3.2265C12.104 3.32182 12.1428 3.43697 12.1428 3.55519V6.33297H14.4284C14.5329 6.33293 14.6354 6.36076 14.7248 6.41343C14.8142 6.4661 14.887 6.54161 14.9353 6.63172C14.9836 6.72183 15.0056 6.8231 14.9988 6.92451C14.992 7.02592 14.9568 7.12358 14.8969 7.20686L10.8971 12.7624C10.8275 12.8594 10.7279 12.9322 10.6128 12.9703C10.4977 13.0085 10.373 13.0099 10.257 12.9744C10.141 12.9388 10.0397 12.8683 9.96778 12.7729C9.89587 12.6775 9.85714 12.5623 9.85722 12.4441V9.66631H7.57165C7.46713 9.66635 7.3646 9.63853 7.27522 9.58585C7.18584 9.53318 7.11303 9.45767 7.06471 9.36756C7.0164 9.27745 6.99443 9.17618 7.0012 9.07477C7.00797 8.97336 7.04322 8.8757 7.1031 8.79242L11.1029 3.23686C11.1726 3.14007 11.2722 3.06742 11.3873 3.02946C11.5024 2.99149 11.6269 2.99019 11.7428 3.02575V3.02519Z" fill="white" fill-opacity="0.33"/>
<path d="M11.2651 3.35375L7.26548 8.90918C7.26546 8.90921 7.26544 8.90924 7.26542 8.90928C7.22716 8.96251 7.20501 9.02436 7.20076 9.08809C7.1965 9.15185 7.21027 9.21578 7.24098 9.27306C7.27171 9.33039 7.31845 9.37918 7.37676 9.41355C7.43511 9.44793 7.50251 9.46634 7.57156 9.46631H7.57165H9.85722H10.0572V9.66631V12.4441V12.4442C10.0572 12.5185 10.0815 12.5915 10.1275 12.6525C10.1735 12.7136 10.2392 12.7597 10.3156 12.7831C10.3919 12.8065 10.4742 12.8056 10.5499 12.7805C10.6256 12.7554 10.6901 12.7079 10.7347 12.6458L10.7348 12.6456L14.7345 7.0901L11.2651 3.35375ZM11.2651 3.35375C11.2651 3.35374 11.2652 3.35373 11.2652 3.35371C11.3098 3.29178 11.3743 3.24435 11.4499 3.21939C11.5257 3.1944 11.6078 3.19354 11.6842 3.21695L11.7038 3.22298M11.2651 3.35375L11.7038 3.22298M11.7038 3.22298C11.7718 3.24784 11.8303 3.29115 11.8724 3.34698C11.9185 3.40797 11.9428 3.48091 11.9428 3.55518V3.55519V6.33297V6.53297H12.1428H14.4284H14.4284C14.4975 6.53294 14.5649 6.55135 14.6232 6.58574C14.6815 6.6201 14.7283 6.6689 14.759 6.72622C14.7897 6.7835 14.8035 6.84743 14.7992 6.91119C14.795 6.97492 14.7728 7.03678 14.7346 7.09001L11.7038 3.22298Z" stroke="white" stroke-opacity="0.45" stroke-width="0.4"/>
<defs>
<filter id="filter0_i_655_617" x="0" y="0" width="21" height="19" filterUnits="userSpaceOnUse" color-interpolation-filters="sRGB">
<feFlood flood-opacity="0" result="BackgroundImageFix"/>
<feBlend mode="normal" in="SourceGraphic" in2="BackgroundImageFix" result="shape"/>
<feColorMatrix in="SourceAlpha" type="matrix" values="0 0 0 0 0 0 0 0 0 0 0 0 0 0 0 0 0 0 127 0" result="hardAlpha"/>
<feOffset dy="4"/>
<feGaussianBlur stdDeviation="2"/>
<feComposite in2="hardAlpha" operator="arithmetic" k2="-1" k3="1"/>
<feColorMatrix type="matrix" values="0 0 0 0 0.991667 0 0 0 0 0.268576 0 0 0 0 0.355174 0 0 0 1 0"/>
<feBlend mode="normal" in2="shape" result="effect1_innerShadow_655_617"/>
</filter>
</defs>
</svg>
