<svg width="267" height="73" viewBox="0 0 267 73" fill="none" xmlns="http://www.w3.org/2000/svg">
    <defs>
        <filter id="filter0_dd_3_596" x="64.8633" y="26.7139" width="138.701" height="32.6592" filterUnits="userSpaceOnUse" color-interpolation-filters="sRGB">
            <feFlood flood-opacity="0" result="BackgroundImageFix"/>
            <feColorMatrix in="SourceAlpha" type="matrix" values="0 0 0 0 0 0 0 0 0 0 0 0 0 0 0 0 0 0 127 0" result="hardAlpha"/>
            <feOffset dy="4"/>
            <feGaussianBlur stdDeviation="0.5"/>
            <feComposite in2="hardAlpha" operator="out"/>
            <feColorMatrix type="matrix" values="0 0 0 0 0.0705882 0 0 0 0 0.443137 0 0 0 0 0.843137 0 0 0 1 0"/>
            <feBlend mode="normal" in2="BackgroundImageFix" result="effect1_dropShadow_3_596"/>
            <feColorMatrix in="SourceAlpha" type="matrix" values="0 0 0 0 0 0 0 0 0 0 0 0 0 0 0 0 0 0 127 0" result="hardAlpha"/>
            <feOffset dy="2"/>
            <feComposite in2="hardAlpha" operator="out"/>
            <feColorMatrix type="matrix" values="0 0 0 0 0.057 0 0 0 0 0.228 0 0 0 0 0.57 0 0 0 1 0"/>
            <feBlend mode="normal" in2="effect1_dropShadow_3_596" result="effect2_dropShadow_3_596"/>
            <feBlend mode="normal" in="SourceGraphic" in2="effect2_dropShadow_3_596" result="shape"/>
        </filter>
        <linearGradient id="paint0_linear_3_596" x1="133.437" y1="4.70026" x2="133.437" y2="68.7003" gradientUnits="userSpaceOnUse">
            <stop stop-color="#23A8F8"/>
            <stop offset="0.421875" stop-color="#1B9DF7"/>
            <stop offset="1" stop-color="#0E7DEC"/>
        </linearGradient>
    </defs>

    <path d="M2.29088 16.749C4.9585 6.79636 14.6519 0.700256 24.9559 0.700256H242.119C252.321 0.700256 261.952 6.67347 264.623 16.5203C267.683 27.8013 267.667 37.416 264.603 48.7678C261.931 58.6657 252.273 64.7003 242.021 64.7003H24.7349C14.5426 64.7003 4.91803 58.7387 2.26243 48.8985C-0.800504 37.5489 -0.716746 27.9701 2.29088 16.749Z" fill="#42CAFF"/>
<path d="M2.29088 24.749C4.9585 14.7964 14.6519 8.70026 24.9559 8.70026H242.119C252.321 8.70026 261.952 14.6735 264.623 24.5203C267.683 35.8013 267.667 45.416 264.603 56.7678C261.931 66.6657 252.273 72.7003 242.021 72.7003H24.7349C14.5426 72.7003 4.91803 66.7387 2.26243 56.8985C-0.800504 45.5489 -0.716746 35.9701 2.29088 24.749Z" fill="#054EC1"/>
<path d="M2.29088 20.749C4.9585 10.7964 14.6519 4.70026 24.9559 4.70026H242.119C252.321 4.70026 261.952 10.6735 264.623 20.5203C267.683 31.8013 267.667 41.416 264.603 52.7678C261.931 62.6657 252.273 68.7003 242.021 68.7003H24.7349C14.5426 68.7003 4.91803 62.7387 2.26243 52.8985C-0.800504 41.5489 -0.716746 31.9701 2.29088 20.749Z" fill="url(#paint0_linear_3_596)"/>
<g filter="url(#filter0_dd_3_596)">
<path d="M78.0713 32.5674C78.0713 33.5167 77.8604 34.4483 77.4385 35.3624C77.0342 36.2764 76.4893 37.1026 75.8037 37.8409C75.1182 38.5616 74.3359 39.1592 73.457 39.6339C72.5781 40.0909 71.6729 40.3458 70.7412 40.3985C70.7236 40.7149 70.7061 41.1192 70.6885 41.6114C70.6885 42.086 70.6621 42.587 70.6094 43.1143C70.5566 43.6417 70.4775 44.169 70.3721 44.6964C70.2842 45.2237 70.1436 45.6983 69.9502 46.1202C69.7744 46.5421 69.5371 46.8848 69.2383 47.1485C68.957 47.4122 68.6055 47.544 68.1836 47.544C67.6914 47.544 67.2959 47.377 66.9971 47.043C66.7158 46.7266 66.4961 46.3399 66.3379 45.8829C66.1973 45.4258 66.1006 44.9512 66.0479 44.459C65.9951 43.9493 65.96 43.5186 65.9424 43.1671C65.9072 42.6573 65.8809 42.1563 65.8633 41.6641C65.8633 41.1719 65.8633 40.671 65.8633 40.1612C65.8633 39.9327 65.8633 39.5108 65.8633 38.8956C65.8633 38.2628 65.8633 37.5508 65.8633 36.7598C65.8809 35.9512 65.8984 35.1163 65.916 34.2549C65.9336 33.376 65.96 32.5674 65.9951 31.8292C66.0303 31.0733 66.0654 30.4317 66.1006 29.9044C66.1533 29.377 66.2148 29.0694 66.2852 28.9815C66.3027 28.9639 66.3555 28.9288 66.4434 28.876C66.5312 28.8057 66.6279 28.7442 66.7334 28.6915C66.8389 28.6212 66.9355 28.5596 67.0234 28.5069C67.1113 28.4542 67.1729 28.419 67.208 28.4014C68.0166 27.9444 68.9043 27.5489 69.8711 27.2149C70.8379 26.8809 71.7959 26.7139 72.7451 26.7139C73.5537 26.7139 74.2832 26.8809 74.9336 27.2149C75.6016 27.5313 76.1641 27.962 76.6211 28.5069C77.0957 29.0342 77.4561 29.6583 77.7021 30.379C77.9482 31.0821 78.0713 31.8116 78.0713 32.5674ZM73.5098 33.1739C73.5098 32.8223 73.4219 32.5147 73.2461 32.251C73.0879 31.9874 72.8154 31.8555 72.4287 31.8555C72.0947 31.8555 71.7607 31.9258 71.4268 32.0665C71.0928 32.1895 70.7852 32.3214 70.5039 32.462C70.5566 33.0772 70.6006 33.6749 70.6357 34.2549C70.6885 34.835 70.6973 35.4327 70.6621 36.0479C70.9434 35.9073 71.251 35.7491 71.585 35.5733C71.9189 35.3799 72.2266 35.169 72.5078 34.9405C72.7891 34.712 73.0264 34.4571 73.2197 34.1758C73.4131 33.877 73.5098 33.543 73.5098 33.1739ZM85.6348 30.7217C85.6348 31.671 85.5908 32.629 85.5029 33.5958C85.4326 34.545 85.3975 35.503 85.3975 36.4698C85.3975 37.7178 85.4326 38.9659 85.5029 40.2139C85.5908 41.462 85.6348 42.7188 85.6348 43.9844C85.6348 44.3008 85.6172 44.6612 85.582 45.0655C85.5469 45.4522 85.459 45.8126 85.3184 46.1465C85.1953 46.4805 85.002 46.7618 84.7383 46.9903C84.4746 47.2188 84.123 47.3331 83.6836 47.3331C83.2617 47.3331 82.8926 47.1221 82.5762 46.7003C82.2773 46.296 82.0225 45.7774 81.8115 45.1446C81.6182 44.4942 81.4512 43.7735 81.3105 42.9825C81.1875 42.1915 81.0908 41.4268 81.0205 40.6885C80.9678 39.9327 80.9238 39.2471 80.8887 38.6319C80.8711 37.9991 80.8623 37.5333 80.8623 37.2344C80.8623 36.9005 80.8711 36.4171 80.8887 35.7842C80.9238 35.1514 80.9854 34.4659 81.0732 33.7276C81.1611 32.9893 81.2754 32.2422 81.416 31.4864C81.5742 30.713 81.7764 30.0186 82.0225 29.4034C82.2686 28.7706 82.5586 28.2608 82.8926 27.8741C83.2441 27.4698 83.6572 27.2676 84.1318 27.2676C84.5186 27.2676 84.8086 27.3995 85.002 27.6631C85.2129 27.9092 85.3623 28.2169 85.4502 28.586C85.5381 28.9376 85.5908 29.3155 85.6084 29.7198C85.626 30.1065 85.6348 30.4405 85.6348 30.7217ZM100.845 42.9825C100.845 43.2989 100.827 43.712 100.792 44.2217C100.774 44.7315 100.704 45.2325 100.581 45.7247C100.458 46.1993 100.265 46.6124 100.001 46.9639C99.7373 47.3155 99.3682 47.4913 98.8936 47.4913C98.2432 47.4913 97.7422 47.2803 97.3906 46.8585C97.0391 46.4366 96.8721 45.9092 96.8896 45.2764C96.3271 45.7686 95.6855 46.1553 94.9648 46.4366C94.2617 46.7178 93.541 46.8585 92.8027 46.8585C92.293 46.8585 91.8096 46.7354 91.3525 46.4893C90.8955 46.2432 90.4912 45.9268 90.1396 45.5401C89.7881 45.1534 89.5068 44.7227 89.2959 44.2481C89.085 43.7559 88.9795 43.2725 88.9795 42.7979C88.9795 41.9542 89.2344 41.2159 89.7441 40.5831C90.2715 39.9503 90.9131 39.4141 91.6689 38.9747C92.4248 38.5176 93.2246 38.1573 94.0684 37.8936C94.9297 37.6299 95.6943 37.4542 96.3623 37.3663C96.3623 37.2784 96.3623 37.1993 96.3623 37.129C96.3799 37.0587 96.3887 36.9796 96.3887 36.8917C96.3887 36.3467 96.2393 35.9073 95.9404 35.5733C95.6416 35.2393 95.2197 35.0723 94.6748 35.0723C94.2354 35.0723 93.8574 35.1514 93.541 35.3096C93.2246 35.4503 92.9258 35.6172 92.6445 35.8106C92.3633 35.9864 92.082 36.1534 91.8008 36.3116C91.5195 36.4522 91.2031 36.5225 90.8516 36.5225C90.4648 36.5225 90.1309 36.3995 89.8496 36.1534C89.5859 35.9073 89.4541 35.5909 89.4541 35.2042C89.4541 34.6241 89.6211 34.0967 89.9551 33.6221C90.3066 33.1475 90.7373 32.752 91.2471 32.4356C91.7744 32.1016 92.3369 31.8467 92.9346 31.671C93.5498 31.4776 94.1123 31.3809 94.6221 31.3809C95.0967 31.3809 95.5713 31.4424 96.0459 31.5655C96.5205 31.671 96.9688 31.8467 97.3906 32.0928C97.8125 32.3214 98.1904 32.6114 98.5244 32.963C98.876 33.2969 99.1572 33.6924 99.3682 34.1495C99.6846 34.7999 99.9395 35.4942 100.133 36.2325C100.326 36.9532 100.476 37.7003 100.581 38.4737C100.687 39.2296 100.757 39.9942 100.792 40.7676C100.827 41.5235 100.845 42.2618 100.845 42.9825ZM96.626 42.1387L96.5469 40.3458C96.5117 40.3458 96.4766 40.3458 96.4414 40.3458C96.4062 40.3282 96.3711 40.3194 96.3359 40.3194C96.1074 40.3194 95.8174 40.3809 95.4658 40.504C95.1318 40.6094 94.8066 40.7676 94.4902 40.9786C94.1738 41.1719 93.9014 41.3917 93.6729 41.6378C93.4619 41.8839 93.3564 42.1387 93.3564 42.4024C93.3564 42.6485 93.4443 42.8155 93.6201 42.9034C93.7959 42.9913 93.998 43.0352 94.2266 43.0352C94.6133 43.0352 95.0264 42.9385 95.4658 42.7452C95.9053 42.5342 96.292 42.3321 96.626 42.1387ZM110.148 54.3731C109.727 54.3731 109.243 54.3028 108.698 54.1622C108.171 54.0391 107.67 53.8546 107.195 53.6085C106.721 53.3624 106.316 53.0635 105.982 52.712C105.666 52.3604 105.508 51.9561 105.508 51.4991C105.508 51.3233 105.552 51.1475 105.64 50.9717C105.728 50.796 105.842 50.6378 105.982 50.4971C106.141 50.3741 106.308 50.2686 106.483 50.1807C106.659 50.1104 106.844 50.0753 107.037 50.0753C107.248 50.0753 107.45 50.1016 107.644 50.1544C107.854 50.2247 108.065 50.3038 108.276 50.3917C108.505 50.4796 108.725 50.5587 108.936 50.629C109.164 50.6993 109.401 50.7344 109.647 50.7344C110.087 50.7344 110.465 50.585 110.781 50.2862C111.115 49.9874 111.396 49.5919 111.625 49.0997C111.854 48.6251 112.038 48.0889 112.179 47.4913C112.319 46.9112 112.425 46.3311 112.495 45.751C112.583 45.171 112.645 44.626 112.68 44.1163C112.715 43.6065 112.741 43.1934 112.759 42.877C112.144 43.8087 111.528 44.5294 110.913 45.0391C110.315 45.5313 109.577 45.7774 108.698 45.7774C108.03 45.7774 107.441 45.6368 106.932 45.3555C106.439 45.0743 106.018 44.7051 105.666 44.2481C105.314 43.7911 105.024 43.2725 104.796 42.6924C104.567 42.0948 104.392 41.4796 104.269 40.8467C104.163 40.2139 104.093 39.5987 104.058 39.001C104.022 38.3858 104.022 37.8233 104.058 37.3135C104.075 36.9268 104.119 36.4258 104.189 35.8106C104.277 35.1778 104.409 34.5626 104.585 33.9649C104.761 33.3672 105.007 32.8663 105.323 32.462C105.64 32.0401 106.053 31.8467 106.562 31.8819C106.896 31.8995 107.169 32.0489 107.38 32.3301C107.591 32.5938 107.758 32.9278 107.881 33.3321C108.021 33.7364 108.118 34.1846 108.171 34.6768C108.241 35.1514 108.285 35.626 108.303 36.1006C108.32 36.5753 108.32 37.0147 108.303 37.419C108.303 37.8057 108.303 38.1046 108.303 38.3155C108.303 38.6143 108.312 38.9131 108.329 39.212C108.347 39.5108 108.408 39.7833 108.514 40.0294C108.619 40.2579 108.777 40.4424 108.988 40.5831C109.217 40.7237 109.533 40.794 109.938 40.794C110.395 40.794 110.755 40.6797 111.019 40.4512C111.3 40.2227 111.502 39.9415 111.625 39.6075C111.766 39.2559 111.854 38.8868 111.889 38.5001C111.924 38.0958 111.941 37.7178 111.941 37.3663C111.941 37.1202 111.941 36.8214 111.941 36.4698C111.941 36.1182 111.941 35.7491 111.941 35.3624C111.959 34.9756 111.994 34.5977 112.047 34.2286C112.117 33.8419 112.214 33.4991 112.337 33.2003C112.478 32.8839 112.653 32.629 112.864 32.4356C113.093 32.2422 113.383 32.1456 113.734 32.1456C114.174 32.1456 114.552 32.3214 114.868 32.6729C115.185 33.0069 115.448 33.4551 115.659 34.0176C115.888 34.5626 116.063 35.169 116.187 35.837C116.327 36.5049 116.433 37.1729 116.503 37.8409C116.573 38.4913 116.617 39.0977 116.635 39.6602C116.67 40.2051 116.688 40.6358 116.688 40.9522C116.688 41.6905 116.661 42.5342 116.608 43.4835C116.556 44.4151 116.45 45.3819 116.292 46.3839C116.151 47.3682 115.932 48.335 115.633 49.2842C115.334 50.251 114.938 51.1124 114.446 51.8682C113.972 52.6241 113.383 53.2305 112.68 53.6876C111.977 54.1446 111.133 54.3731 110.148 54.3731ZM134.794 47.5704C133.722 47.5704 132.79 47.2979 131.999 46.753C131.208 46.2256 130.549 45.5137 130.021 44.6172C129.512 43.7032 129.125 42.6485 128.861 41.4532C128.615 40.2579 128.492 39.001 128.492 37.6827C128.492 36.4522 128.624 35.2042 128.888 33.9385C129.169 32.6729 129.591 31.5303 130.153 30.5108C130.716 29.4913 131.428 28.6563 132.289 28.0059C133.15 27.3555 134.179 27.0303 135.374 27.0303C136.534 27.0303 137.501 27.3467 138.274 27.9796C139.065 28.5948 139.689 29.4034 140.146 30.4053C140.621 31.3897 140.955 32.4971 141.148 33.7276C141.359 34.9581 141.465 36.1885 141.465 37.419C141.465 38.7901 141.324 40.0909 141.043 41.3214C140.779 42.5342 140.366 43.6065 139.804 44.5381C139.259 45.4698 138.564 46.2081 137.721 46.753C136.895 47.2979 135.919 47.5704 134.794 47.5704ZM135.11 32.8575C134.776 32.8575 134.486 32.9893 134.24 33.253C134.012 33.5167 133.818 33.8682 133.66 34.3077C133.502 34.7296 133.388 35.213 133.317 35.7579C133.247 36.2852 133.212 36.8214 133.212 37.3663C133.212 37.9815 133.247 38.5967 133.317 39.212C133.405 39.8272 133.528 40.3809 133.687 40.8731C133.845 41.3653 134.038 41.7608 134.267 42.0596C134.513 42.3585 134.803 42.5079 135.137 42.5079C135.523 42.5079 135.831 42.3145 136.06 41.9278C136.288 41.5411 136.464 41.0753 136.587 40.5303C136.728 39.9854 136.815 39.4229 136.851 38.8428C136.903 38.2628 136.93 37.7794 136.93 37.3926C136.93 36.918 136.895 36.4171 136.824 35.8897C136.771 35.3624 136.675 34.879 136.534 34.4395C136.394 33.9825 136.209 33.6046 135.98 33.3057C135.752 33.0069 135.462 32.8575 135.11 32.8575ZM152.43 47.4385C152.131 47.4385 151.894 47.2979 151.718 47.0167C151.542 46.753 151.41 46.4454 151.322 46.0938C151.234 45.7422 151.173 45.3907 151.138 45.0391C151.12 44.67 151.111 44.3887 151.111 44.1954C151.111 43.668 151.138 43.1407 151.19 42.6133C151.261 42.086 151.331 41.5587 151.401 41.0313C151.489 40.504 151.56 39.9766 151.612 39.4493C151.683 38.9219 151.718 38.3946 151.718 37.8672C151.718 37.6563 151.709 37.4278 151.691 37.1817C151.674 36.9356 151.63 36.7071 151.56 36.4962C151.507 36.2676 151.41 36.0831 151.27 35.9424C151.129 35.8018 150.944 35.7315 150.716 35.7315C150.558 35.7315 150.382 35.8633 150.188 36.127C149.995 36.3731 149.811 36.6631 149.635 36.9971C149.477 37.3135 149.336 37.6387 149.213 37.9727C149.107 38.2891 149.055 38.5264 149.055 38.6846C149.055 39.0714 149.055 39.4669 149.055 39.8712C149.072 40.2579 149.081 40.6534 149.081 41.0577V42.587C149.063 42.9034 149.037 43.2286 149.002 43.5626C148.967 43.8965 148.914 44.2217 148.844 44.5381C148.791 44.8546 148.712 45.1622 148.606 45.461C148.501 45.7422 148.36 45.9971 148.185 46.2256C148.026 46.4366 147.833 46.6124 147.604 46.753C147.376 46.8936 147.104 46.9639 146.787 46.9639C146.436 46.9639 146.146 46.8497 145.917 46.6212C145.688 46.3926 145.504 46.1026 145.363 45.751C145.223 45.3819 145.117 44.9776 145.047 44.5381C144.994 44.0811 144.95 43.6417 144.915 43.2198C144.897 42.7803 144.889 42.3848 144.889 42.0333C144.906 41.6641 144.915 41.3741 144.915 41.1631V39.9239C144.915 39.2559 144.897 38.5967 144.862 37.9464C144.845 37.296 144.836 36.6456 144.836 35.9952C144.836 35.6436 144.836 35.1954 144.836 34.6505C144.854 34.1055 144.924 33.5782 145.047 33.0684C145.17 32.5411 145.372 32.0928 145.653 31.7237C145.935 31.3546 146.348 31.17 146.893 31.17C147.139 31.17 147.358 31.2491 147.552 31.4073C147.745 31.5655 147.912 31.7589 148.053 31.9874C148.211 32.2159 148.334 32.462 148.422 32.7256C148.527 32.9893 148.606 33.2178 148.659 33.4112C148.835 33.1651 149.037 32.9278 149.266 32.6993C149.512 32.4708 149.784 32.2686 150.083 32.0928C150.382 31.9171 150.716 31.7764 151.085 31.671C151.454 31.5655 151.876 31.5128 152.351 31.5128C153.247 31.5128 153.941 31.7325 154.434 32.1719C154.943 32.5938 155.312 33.1299 155.541 33.7803C155.787 34.4131 155.937 35.0987 155.989 35.837C156.042 36.5753 156.068 37.2432 156.068 37.8409C156.068 38.1397 156.042 38.588 155.989 39.1856C155.937 39.7657 155.849 40.4161 155.726 41.1368C155.62 41.8399 155.471 42.5694 155.277 43.3253C155.084 44.0635 154.855 44.7403 154.592 45.3555C154.328 45.9708 154.012 46.4717 153.643 46.8585C153.291 47.2452 152.887 47.4385 152.43 47.4385ZM164.476 30.7217C164.476 31.671 164.432 32.629 164.344 33.5958C164.273 34.545 164.238 35.503 164.238 36.4698C164.238 37.7178 164.273 38.9659 164.344 40.2139C164.432 41.462 164.476 42.7188 164.476 43.9844C164.476 44.3008 164.458 44.6612 164.423 45.0655C164.388 45.4522 164.3 45.8126 164.159 46.1465C164.036 46.4805 163.843 46.7618 163.579 46.9903C163.315 47.2188 162.964 47.3331 162.524 47.3331C162.103 47.3331 161.733 47.1221 161.417 46.7003C161.118 46.296 160.863 45.7774 160.652 45.1446C160.459 44.4942 160.292 43.7735 160.151 42.9825C160.028 42.1915 159.932 41.4268 159.861 40.6885C159.809 39.9327 159.765 39.2471 159.729 38.6319C159.712 37.9991 159.703 37.5333 159.703 37.2344C159.703 36.9005 159.712 36.4171 159.729 35.7842C159.765 35.1514 159.826 34.4659 159.914 33.7276C160.002 32.9893 160.116 32.2422 160.257 31.4864C160.415 30.713 160.617 30.0186 160.863 29.4034C161.109 28.7706 161.399 28.2608 161.733 27.8741C162.085 27.4698 162.498 27.2676 162.973 27.2676C163.359 27.2676 163.649 27.3995 163.843 27.6631C164.054 27.9092 164.203 28.2169 164.291 28.586C164.379 28.9376 164.432 29.3155 164.449 29.7198C164.467 30.1065 164.476 30.4405 164.476 30.7217ZM172.83 28.296C172.83 28.5421 172.76 28.7618 172.619 28.9551C172.496 29.1485 172.329 29.3243 172.118 29.4825C171.907 29.6231 171.679 29.7374 171.433 29.8253C171.187 29.8956 170.958 29.9307 170.747 29.9307C170.396 29.9307 170.088 29.8428 169.824 29.6671C169.561 29.4913 169.429 29.2188 169.429 28.8497C169.429 28.586 169.49 28.3575 169.613 28.1641C169.754 27.9532 169.921 27.7862 170.114 27.6631C170.308 27.5225 170.527 27.4171 170.773 27.3467C171.02 27.2764 171.257 27.2413 171.485 27.2413C171.819 27.2413 172.127 27.3204 172.408 27.4786C172.689 27.6368 172.83 27.9092 172.83 28.296ZM173.041 37.2608C173.041 37.5069 173.041 37.7706 173.041 38.0518C173.041 38.3155 173.032 38.5704 173.015 38.8165C172.997 39.1153 172.988 39.5196 172.988 40.0294C172.988 40.5215 172.971 41.0577 172.936 41.6378C172.9 42.2178 172.839 42.8067 172.751 43.4044C172.681 44.002 172.558 44.5469 172.382 45.0391C172.206 45.5313 171.969 45.9356 171.67 46.252C171.389 46.5508 171.028 46.709 170.589 46.7266C170.255 46.7442 169.974 46.6124 169.745 46.3311C169.517 46.0499 169.323 45.6895 169.165 45.2501C169.024 44.793 168.919 44.2921 168.849 43.7471C168.778 43.1846 168.726 42.6485 168.69 42.1387C168.655 41.6114 168.638 41.128 168.638 40.6885C168.638 40.2491 168.638 39.9239 168.638 39.713C168.638 39.4317 168.638 39.0362 168.638 38.5264C168.638 37.9991 168.655 37.4366 168.69 36.8389C168.726 36.2413 168.787 35.6348 168.875 35.0196C168.98 34.4044 169.121 33.8419 169.297 33.3321C169.49 32.8223 169.736 32.4092 170.035 32.0928C170.334 31.7764 170.712 31.6182 171.169 31.6182C171.644 31.6182 172.004 31.8555 172.25 32.3301C172.496 32.8047 172.681 33.3585 172.804 33.9913C172.927 34.6241 172.997 35.2569 173.015 35.8897C173.032 36.5049 173.041 36.962 173.041 37.2608ZM184.401 47.4385C184.103 47.4385 183.865 47.2979 183.689 47.0167C183.514 46.753 183.382 46.4454 183.294 46.0938C183.206 45.7422 183.145 45.3907 183.109 45.0391C183.092 44.67 183.083 44.3887 183.083 44.1954C183.083 43.668 183.109 43.1407 183.162 42.6133C183.232 42.086 183.303 41.5587 183.373 41.0313C183.461 40.504 183.531 39.9766 183.584 39.4493C183.654 38.9219 183.689 38.3946 183.689 37.8672C183.689 37.6563 183.681 37.4278 183.663 37.1817C183.646 36.9356 183.602 36.7071 183.531 36.4962C183.479 36.2676 183.382 36.0831 183.241 35.9424C183.101 35.8018 182.916 35.7315 182.688 35.7315C182.529 35.7315 182.354 35.8633 182.16 36.127C181.967 36.3731 181.782 36.6631 181.606 36.9971C181.448 37.3135 181.308 37.6387 181.185 37.9727C181.079 38.2891 181.026 38.5264 181.026 38.6846C181.026 39.0714 181.026 39.4669 181.026 39.8712C181.044 40.2579 181.053 40.6534 181.053 41.0577V42.587C181.035 42.9034 181.009 43.2286 180.974 43.5626C180.938 43.8965 180.886 44.2217 180.815 44.5381C180.763 44.8546 180.684 45.1622 180.578 45.461C180.473 45.7422 180.332 45.9971 180.156 46.2256C179.998 46.4366 179.805 46.6124 179.576 46.753C179.348 46.8936 179.075 46.9639 178.759 46.9639C178.407 46.9639 178.117 46.8497 177.889 46.6212C177.66 46.3926 177.476 46.1026 177.335 45.751C177.194 45.3819 177.089 44.9776 177.019 44.5381C176.966 44.0811 176.922 43.6417 176.887 43.2198C176.869 42.7803 176.86 42.3848 176.86 42.0333C176.878 41.6641 176.887 41.3741 176.887 41.1631V39.9239C176.887 39.2559 176.869 38.5967 176.834 37.9464C176.816 37.296 176.808 36.6456 176.808 35.9952C176.808 35.6436 176.808 35.1954 176.808 34.6505C176.825 34.1055 176.896 33.5782 177.019 33.0684C177.142 32.5411 177.344 32.0928 177.625 31.7237C177.906 31.3546 178.319 31.17 178.864 31.17C179.11 31.17 179.33 31.2491 179.523 31.4073C179.717 31.5655 179.884 31.7589 180.024 31.9874C180.183 32.2159 180.306 32.462 180.394 32.7256C180.499 32.9893 180.578 33.2178 180.631 33.4112C180.807 33.1651 181.009 32.9278 181.237 32.6993C181.483 32.4708 181.756 32.2686 182.055 32.0928C182.354 31.9171 182.688 31.7764 183.057 31.671C183.426 31.5655 183.848 31.5128 184.322 31.5128C185.219 31.5128 185.913 31.7325 186.405 32.1719C186.915 32.5938 187.284 33.1299 187.513 33.7803C187.759 34.4131 187.908 35.0987 187.961 35.837C188.014 36.5753 188.04 37.2432 188.04 37.8409C188.04 38.1397 188.014 38.588 187.961 39.1856C187.908 39.7657 187.82 40.4161 187.697 41.1368C187.592 41.8399 187.442 42.5694 187.249 43.3253C187.056 44.0635 186.827 44.7403 186.563 45.3555C186.3 45.9708 185.983 46.4717 185.614 46.8585C185.263 47.2452 184.858 47.4385 184.401 47.4385ZM202.564 42.0069C202.564 42.6046 202.371 43.1934 201.984 43.7735C201.615 44.336 201.141 44.8458 200.561 45.3028C199.998 45.7422 199.392 46.1026 198.741 46.3839C198.091 46.6475 197.493 46.7794 196.948 46.7794C196.017 46.7794 195.182 46.5508 194.443 46.0938C193.723 45.6192 193.116 45.0215 192.624 44.3008C192.132 43.5801 191.754 42.7891 191.49 41.9278C191.244 41.0489 191.121 40.1964 191.121 39.3702C191.121 38.4913 191.244 37.5508 191.49 36.5489C191.736 35.5469 192.105 34.6241 192.598 33.7803C193.107 32.9366 193.74 32.2335 194.496 31.671C195.27 31.1085 196.184 30.8272 197.238 30.8272C197.836 30.8272 198.407 30.9327 198.952 31.1436C199.497 31.337 199.972 31.6182 200.376 31.9874C200.78 32.3565 201.105 32.796 201.352 33.3057C201.598 33.8155 201.721 34.3868 201.721 35.0196C201.721 35.8458 201.545 36.6192 201.193 37.3399C200.842 38.0606 200.376 38.6846 199.796 39.212C199.216 39.7393 198.548 40.17 197.792 40.504C197.036 40.8204 196.263 40.9962 195.472 41.0313C195.542 41.5411 195.744 41.9102 196.078 42.1387C196.43 42.3672 196.843 42.4815 197.317 42.4815C197.669 42.4815 198.012 42.3936 198.346 42.2178C198.68 42.0421 199.005 41.8487 199.321 41.6378C199.638 41.4092 199.945 41.2071 200.244 41.0313C200.561 40.8555 200.877 40.7676 201.193 40.7676C201.545 40.7676 201.861 40.8819 202.143 41.1104C202.424 41.3389 202.564 41.6378 202.564 42.0069ZM198.293 35.5469C198.293 35.3184 198.231 35.0811 198.108 34.835C197.985 34.5889 197.792 34.4659 197.528 34.4659C197.142 34.4659 196.816 34.5714 196.553 34.7823C196.289 34.9756 196.069 35.2305 195.894 35.5469C195.718 35.8458 195.577 36.171 195.472 36.5225C195.384 36.8741 195.331 37.1993 195.313 37.4981C195.56 37.4454 195.85 37.3751 196.184 37.2872C196.535 37.1993 196.86 37.085 197.159 36.9444C197.476 36.7862 197.739 36.5928 197.95 36.3643C198.179 36.1358 198.293 35.8633 198.293 35.5469Z" fill="white"/>
</g>
<ellipse cx="21.352" cy="2.96057" rx="6.13529" ry="1.95339" transform="rotate(-9.7138 21.352 2.96057)" fill="white" fill-opacity="0.5"/>
</svg>
