<svg width="267" height="73" viewBox="0 0 267 73" fill="none" xmlns="http://www.w3.org/2000/svg">
    <defs>
        <filter id="filter0_dd_3_1095" x="107.972" y="26.7139" width="52.8242" height="32.6592" filterUnits="userSpaceOnUse" color-interpolation-filters="sRGB">
            <feFlood flood-opacity="0" result="BackgroundImageFix"/>
            <feColorMatrix in="SourceAlpha" type="matrix" values="0 0 0 0 0 0 0 0 0 0 0 0 0 0 0 0 0 0 127 0" result="hardAlpha"/>
            <feOffset dy="4"/>
            <feGaussianBlur stdDeviation="0.5"/>
            <feComposite in2="hardAlpha" operator="out"/>
            <feColorMatrix type="matrix" values="0 0 0 0 0.271719 0 0 0 0 0.653281 0 0 0 0 0.331481 0 0 0 1 0"/>
            <feBlend mode="normal" in2="BackgroundImageFix" result="effect1_dropShadow_3_1095"/>
            <feColorMatrix in="SourceAlpha" type="matrix" values="0 0 0 0 0 0 0 0 0 0 0 0 0 0 0 0 0 0 127 0" result="hardAlpha"/>
            <feOffset dy="2"/>
            <feComposite in2="hardAlpha" operator="out"/>
            <feColorMatrix type="matrix" values="0 0 0 0 0.286275 0 0 0 0 0.572549 0 0 0 0 0.329412 0 0 0 1 0"/>
            <feBlend mode="normal" in2="effect1_dropShadow_3_1095" result="effect2_dropShadow_3_1095"/>
            <feBlend mode="normal" in="SourceGraphic" in2="effect2_dropShadow_3_1095" result="shape"/>
        </filter>
        <linearGradient id="paint0_linear_3_1095" x1="133.437" y1="4.70026" x2="133.437" y2="68.7003" gradientUnits="userSpaceOnUse">
            <stop stop-color="#8FF495"/>
            <stop offset="0.421875" stop-color="#6CCE7D"/>
            <stop offset="1" stop-color="#459F53"/>
        </linearGradient>
    </defs>

    <path d="M2.29088 16.749C4.9585 6.79636 14.6519 0.700256 24.9559 0.700256H242.119C252.321 0.700256 261.952 6.67347 264.623 16.5203C267.683 27.8013 267.667 37.416 264.603 48.7678C261.931 58.6657 252.273 64.7003 242.021 64.7003H24.7349C14.5426 64.7003 4.91803 58.7387 2.26243 48.8985C-0.800504 37.5489 -0.716746 27.9701 2.29088 16.749Z" fill="#C0FAC4"/>
<path d="M2.29088 24.749C4.9585 14.7964 14.6519 8.70026 24.9559 8.70026H242.119C252.321 8.70026 261.952 14.6735 264.623 24.5203C267.683 35.8013 267.667 45.416 264.603 56.7678C261.931 66.6657 252.273 72.7003 242.021 72.7003H24.7349C14.5426 72.7003 4.91803 66.7387 2.26243 56.8985C-0.800504 45.5489 -0.716746 35.9701 2.29088 24.749Z" fill="#499254"/>
<path d="M2.29088 20.749C4.9585 10.7964 14.6519 4.70026 24.9559 4.70026H242.119C252.321 4.70026 261.952 10.6735 264.623 20.5203C267.683 31.8013 267.667 41.416 264.603 52.7678C261.931 62.6657 252.273 68.7003 242.021 68.7003H24.7349C14.5426 68.7003 4.91803 62.7387 2.26243 52.8985C-0.800504 41.5489 -0.716746 31.9701 2.29088 20.749Z" fill="url(#paint0_linear_3_1095)"/>
<g filter="url(#filter0_dd_3_1095)">
<path d="M121.18 32.5674C121.18 33.5167 120.969 34.4483 120.547 35.3624C120.143 36.2764 119.598 37.1026 118.913 37.8409C118.227 38.5616 117.445 39.1592 116.566 39.6339C115.687 40.0909 114.782 40.3458 113.85 40.3985C113.833 40.7149 113.815 41.1192 113.797 41.6114C113.797 42.086 113.771 42.587 113.718 43.1143C113.666 43.6417 113.586 44.169 113.481 44.6964C113.393 45.2237 113.252 45.6983 113.059 46.1202C112.883 46.5421 112.646 46.8848 112.347 47.1485C112.066 47.4122 111.714 47.544 111.292 47.544C110.8 47.544 110.405 47.377 110.106 47.043C109.825 46.7266 109.605 46.3399 109.447 45.8829C109.306 45.4258 109.209 44.9512 109.157 44.459C109.104 43.9493 109.069 43.5186 109.051 43.1671C109.016 42.6573 108.99 42.1563 108.972 41.6641C108.972 41.1719 108.972 40.671 108.972 40.1612C108.972 39.9327 108.972 39.5108 108.972 38.8956C108.972 38.2628 108.972 37.5508 108.972 36.7598C108.99 35.9512 109.007 35.1163 109.025 34.2549C109.042 33.376 109.069 32.5674 109.104 31.8292C109.139 31.0733 109.174 30.4317 109.209 29.9044C109.262 29.377 109.324 29.0694 109.394 28.9815C109.412 28.9639 109.464 28.9288 109.552 28.876C109.64 28.8057 109.737 28.7442 109.842 28.6915C109.948 28.6212 110.044 28.5596 110.132 28.5069C110.22 28.4542 110.282 28.419 110.317 28.4014C111.125 27.9444 112.013 27.5489 112.98 27.2149C113.947 26.8809 114.905 26.7139 115.854 26.7139C116.663 26.7139 117.392 26.8809 118.042 27.2149C118.71 27.5313 119.273 27.962 119.73 28.5069C120.205 29.0342 120.565 29.6583 120.811 30.379C121.057 31.0821 121.18 31.8116 121.18 32.5674ZM116.619 33.1739C116.619 32.8223 116.531 32.5147 116.355 32.251C116.197 31.9874 115.924 31.8555 115.538 31.8555C115.204 31.8555 114.87 31.9258 114.536 32.0665C114.202 32.1895 113.894 32.3214 113.613 32.462C113.666 33.0772 113.709 33.6749 113.745 34.2549C113.797 34.835 113.806 35.4327 113.771 36.0479C114.052 35.9073 114.36 35.7491 114.694 35.5733C115.028 35.3799 115.335 35.169 115.617 34.9405C115.898 34.712 116.135 34.4571 116.329 34.1758C116.522 33.877 116.619 33.543 116.619 33.1739ZM128.744 30.7217C128.744 31.671 128.7 32.629 128.612 33.5958C128.542 34.545 128.506 35.503 128.506 36.4698C128.506 37.7178 128.542 38.9659 128.612 40.2139C128.7 41.462 128.744 42.7188 128.744 43.9844C128.744 44.3008 128.726 44.6612 128.691 45.0655C128.656 45.4522 128.568 45.8126 128.427 46.1465C128.304 46.4805 128.111 46.7618 127.847 46.9903C127.583 47.2188 127.232 47.3331 126.792 47.3331C126.371 47.3331 126.001 47.1221 125.685 46.7003C125.386 46.296 125.131 45.7774 124.92 45.1446C124.727 44.4942 124.56 43.7735 124.419 42.9825C124.296 42.1915 124.2 41.4268 124.129 40.6885C124.077 39.9327 124.033 39.2471 123.998 38.6319C123.98 37.9991 123.971 37.5333 123.971 37.2344C123.971 36.9005 123.98 36.4171 123.998 35.7842C124.033 35.1514 124.094 34.4659 124.182 33.7276C124.27 32.9893 124.384 32.2422 124.525 31.4864C124.683 30.713 124.885 30.0186 125.131 29.4034C125.377 28.7706 125.667 28.2608 126.001 27.8741C126.353 27.4698 126.766 27.2676 127.241 27.2676C127.627 27.2676 127.917 27.3995 128.111 27.6631C128.322 27.9092 128.471 28.2169 128.559 28.586C128.647 28.9376 128.7 29.3155 128.717 29.7198C128.735 30.1065 128.744 30.4405 128.744 30.7217ZM143.954 42.9825C143.954 43.2989 143.936 43.712 143.901 44.2217C143.883 44.7315 143.813 45.2325 143.69 45.7247C143.567 46.1993 143.374 46.6124 143.11 46.9639C142.846 47.3155 142.477 47.4913 142.002 47.4913C141.352 47.4913 140.851 47.2803 140.5 46.8585C140.148 46.4366 139.981 45.9092 139.999 45.2764C139.436 45.7686 138.794 46.1553 138.074 46.4366C137.371 46.7178 136.65 46.8585 135.912 46.8585C135.402 46.8585 134.918 46.7354 134.461 46.4893C134.004 46.2432 133.6 45.9268 133.249 45.5401C132.897 45.1534 132.616 44.7227 132.405 44.2481C132.194 43.7559 132.088 43.2725 132.088 42.7979C132.088 41.9542 132.343 41.2159 132.853 40.5831C133.38 39.9503 134.022 39.4141 134.778 38.9747C135.534 38.5176 136.333 38.1573 137.177 37.8936C138.039 37.6299 138.803 37.4542 139.471 37.3663C139.471 37.2784 139.471 37.1993 139.471 37.129C139.489 37.0587 139.498 36.9796 139.498 36.8917C139.498 36.3467 139.348 35.9073 139.049 35.5733C138.75 35.2393 138.329 35.0723 137.784 35.0723C137.344 35.0723 136.966 35.1514 136.65 35.3096C136.333 35.4503 136.035 35.6172 135.753 35.8106C135.472 35.9864 135.191 36.1534 134.91 36.3116C134.628 36.4522 134.312 36.5225 133.96 36.5225C133.574 36.5225 133.24 36.3995 132.958 36.1534C132.695 35.9073 132.563 35.5909 132.563 35.2042C132.563 34.6241 132.73 34.0967 133.064 33.6221C133.416 33.1475 133.846 32.752 134.356 32.4356C134.883 32.1016 135.446 31.8467 136.043 31.671C136.659 31.4776 137.221 31.3809 137.731 31.3809C138.206 31.3809 138.68 31.4424 139.155 31.5655C139.629 31.671 140.078 31.8467 140.5 32.0928C140.921 32.3214 141.299 32.6114 141.633 32.963C141.985 33.2969 142.266 33.6924 142.477 34.1495C142.793 34.7999 143.048 35.4942 143.242 36.2325C143.435 36.9532 143.584 37.7003 143.69 38.4737C143.795 39.2296 143.866 39.9942 143.901 40.7676C143.936 41.5235 143.954 42.2618 143.954 42.9825ZM139.735 42.1387L139.656 40.3458C139.621 40.3458 139.585 40.3458 139.55 40.3458C139.515 40.3282 139.48 40.3194 139.445 40.3194C139.216 40.3194 138.926 40.3809 138.575 40.504C138.241 40.6094 137.916 40.7676 137.599 40.9786C137.283 41.1719 137.01 41.3917 136.782 41.6378C136.571 41.8839 136.465 42.1387 136.465 42.4024C136.465 42.6485 136.553 42.8155 136.729 42.9034C136.905 42.9913 137.107 43.0352 137.335 43.0352C137.722 43.0352 138.135 42.9385 138.575 42.7452C139.014 42.5342 139.401 42.3321 139.735 42.1387ZM153.257 54.3731C152.835 54.3731 152.352 54.3028 151.807 54.1622C151.28 54.0391 150.779 53.8546 150.304 53.6085C149.83 53.3624 149.425 53.0635 149.091 52.712C148.775 52.3604 148.617 51.9561 148.617 51.4991C148.617 51.3233 148.661 51.1475 148.749 50.9717C148.836 50.796 148.951 50.6378 149.091 50.4971C149.25 50.3741 149.417 50.2686 149.592 50.1807C149.768 50.1104 149.953 50.0753 150.146 50.0753C150.357 50.0753 150.559 50.1016 150.752 50.1544C150.963 50.2247 151.174 50.3038 151.385 50.3917C151.614 50.4796 151.833 50.5587 152.044 50.629C152.273 50.6993 152.51 50.7344 152.756 50.7344C153.196 50.7344 153.574 50.585 153.89 50.2862C154.224 49.9874 154.505 49.5919 154.734 49.0997C154.962 48.6251 155.147 48.0889 155.288 47.4913C155.428 46.9112 155.534 46.3311 155.604 45.751C155.692 45.171 155.753 44.626 155.789 44.1163C155.824 43.6065 155.85 43.1934 155.868 42.877C155.252 43.8087 154.637 44.5294 154.022 45.0391C153.424 45.5313 152.686 45.7774 151.807 45.7774C151.139 45.7774 150.55 45.6368 150.041 45.3555C149.548 45.0743 149.126 44.7051 148.775 44.2481C148.423 43.7911 148.133 43.2725 147.905 42.6924C147.676 42.0948 147.5 41.4796 147.377 40.8467C147.272 40.2139 147.202 39.5987 147.167 39.001C147.131 38.3858 147.131 37.8233 147.167 37.3135C147.184 36.9268 147.228 36.4258 147.298 35.8106C147.386 35.1778 147.518 34.5626 147.694 33.9649C147.87 33.3672 148.116 32.8663 148.432 32.462C148.749 32.0401 149.162 31.8467 149.671 31.8819C150.005 31.8995 150.278 32.0489 150.489 32.3301C150.7 32.5938 150.867 32.9278 150.99 33.3321C151.13 33.7364 151.227 34.1846 151.28 34.6768C151.35 35.1514 151.394 35.626 151.412 36.1006C151.429 36.5753 151.429 37.0147 151.412 37.419C151.412 37.8057 151.412 38.1046 151.412 38.3155C151.412 38.6143 151.42 38.9131 151.438 39.212C151.456 39.5108 151.517 39.7833 151.623 40.0294C151.728 40.2579 151.886 40.4424 152.097 40.5831C152.326 40.7237 152.642 40.794 153.046 40.794C153.503 40.794 153.864 40.6797 154.127 40.4512C154.409 40.2227 154.611 39.9415 154.734 39.6075C154.875 39.2559 154.962 38.8868 154.998 38.5001C155.033 38.0958 155.05 37.7178 155.05 37.3663C155.05 37.1202 155.05 36.8214 155.05 36.4698C155.05 36.1182 155.05 35.7491 155.05 35.3624C155.068 34.9756 155.103 34.5977 155.156 34.2286C155.226 33.8419 155.323 33.4991 155.446 33.2003C155.586 32.8839 155.762 32.629 155.973 32.4356C156.202 32.2422 156.492 32.1456 156.843 32.1456C157.283 32.1456 157.661 32.3214 157.977 32.6729C158.293 33.0069 158.557 33.4551 158.768 34.0176C158.997 34.5626 159.172 35.169 159.295 35.837C159.436 36.5049 159.542 37.1729 159.612 37.8409C159.682 38.4913 159.726 39.0977 159.744 39.6602C159.779 40.2051 159.796 40.6358 159.796 40.9522C159.796 41.6905 159.77 42.5342 159.717 43.4835C159.665 44.4151 159.559 45.3819 159.401 46.3839C159.26 47.3682 159.041 48.335 158.742 49.2842C158.443 50.251 158.047 51.1124 157.555 51.8682C157.081 52.6241 156.492 53.2305 155.789 53.6876C155.085 54.1446 154.242 54.3731 153.257 54.3731Z" fill="white"/>
</g>
<ellipse cx="21.352" cy="2.96057" rx="6.13529" ry="1.95339" transform="rotate(-9.7138 21.352 2.96057)" fill="white" fill-opacity="0.5"/>
</svg>
