<svg width="300" height="73" viewBox="0 0 300 73" fill="none" xmlns="http://www.w3.org/2000/svg">
    <defs>
        <filter id="filter0_dd_3_448" x="96.7687" y="26.6085" width="107.415" height="26.3838" filterUnits="userSpaceOnUse" color-interpolation-filters="sRGB">
            <feFlood flood-opacity="0" result="BackgroundImageFix"/>
            <feColorMatrix in="SourceAlpha" type="matrix" values="0 0 0 0 0 0 0 0 0 0 0 0 0 0 0 0 0 0 127 0" result="hardAlpha"/>
            <feOffset dy="4"/>
            <feGaussianBlur stdDeviation="0.5"/>
            <feComposite in2="hardAlpha" operator="out"/>
            <feColorMatrix type="matrix" values="0 0 0 0 0.0705882 0 0 0 0 0.443137 0 0 0 0 0.843137 0 0 0 1 0"/>
            <feBlend mode="normal" in2="BackgroundImageFix" result="effect1_dropShadow_3_448"/>
            <feColorMatrix in="SourceAlpha" type="matrix" values="0 0 0 0 0 0 0 0 0 0 0 0 0 0 0 0 0 0 127 0" result="hardAlpha"/>
            <feOffset dy="2"/>
            <feComposite in2="hardAlpha" operator="out"/>
            <feColorMatrix type="matrix" values="0 0 0 0 0.057 0 0 0 0 0.228 0 0 0 0 0.57 0 0 0 1 0"/>
            <feBlend mode="normal" in2="effect1_dropShadow_3_448" result="effect2_dropShadow_3_448"/>
            <feBlend mode="normal" in="SourceGraphic" in2="effect2_dropShadow_3_448" result="shape"/>
        </filter>
        <linearGradient id="paint0_linear_3_448" x1="149.98" y1="4.70026" x2="149.98" y2="68.7003" gradientUnits="userSpaceOnUse">
            <stop stop-color="#23A8F8"/>
            <stop offset="0.421875" stop-color="#1B9DF7"/>
            <stop offset="1" stop-color="#0E7DEC"/>
        </linearGradient>
    </defs>

    <path d="M2.88027 15.759C5.86143 6.31321 15.2514 0.700256 25.1565 0.700256H275.015C284.811 0.700256 294.13 6.18682 297.117 15.5168C300.973 27.5666 300.955 37.6364 297.098 49.7638C294.112 59.15 284.761 64.7003 274.912 64.7003H24.9243C15.1391 64.7003 5.82517 59.224 2.85461 49.9006C-1.00931 37.7733 -0.90173 27.7424 2.88027 15.759Z" fill="#42CAFF"/>
<path d="M2.88027 23.759C5.86143 14.3132 15.2514 8.70026 25.1565 8.70026H275.015C284.811 8.70026 294.13 14.1868 297.117 23.5168C300.973 35.5666 300.955 45.6364 297.098 57.7638C294.112 67.15 284.761 72.7003 274.912 72.7003H24.9243C15.1391 72.7003 5.82517 67.224 2.85461 57.9006C-1.00931 45.7733 -0.90173 35.7424 2.88027 23.759Z" fill="#054EC1"/>
<path d="M2.88027 19.759C5.86143 10.3132 15.2514 4.70026 25.1565 4.70026H275.015C284.811 4.70026 294.13 10.1868 297.117 19.5168C300.973 31.5666 300.955 41.6364 297.098 53.7638C294.112 63.15 284.761 68.7003 274.912 68.7003H24.9243C15.1391 68.7003 5.82517 63.224 2.85461 53.9006C-1.00931 41.7733 -0.90173 31.7424 2.88027 19.759Z" fill="url(#paint0_linear_3_448)"/>
<g filter="url(#filter0_dd_3_448)">
<path d="M110.082 33.2794C110.082 33.6133 110.038 33.9649 109.95 34.334C109.88 34.7032 109.757 35.046 109.581 35.3624C109.405 35.6788 109.177 35.9424 108.896 36.1534C108.614 36.3643 108.272 36.4698 107.867 36.4698C107.252 36.4698 106.795 36.3643 106.496 36.1534C106.197 35.9249 105.986 35.6436 105.863 35.3096C105.74 34.9756 105.67 34.6241 105.652 34.2549C105.652 33.8682 105.644 33.5079 105.626 33.1739C105.609 32.8399 105.547 32.5674 105.442 32.3565C105.354 32.128 105.151 32.0137 104.835 32.0137C104.484 32.0137 104.176 32.1456 103.912 32.4092C103.649 32.6553 103.42 32.9805 103.227 33.3848C103.033 33.7891 102.866 34.2462 102.726 34.7559C102.603 35.2657 102.497 35.7755 102.409 36.2852C102.339 36.7774 102.286 37.252 102.251 37.709C102.216 38.1485 102.198 38.5089 102.198 38.7901C102.198 39.1592 102.207 39.5987 102.225 40.1085C102.26 40.6182 102.348 41.1104 102.488 41.585C102.629 42.0421 102.84 42.4376 103.121 42.7715C103.402 43.088 103.807 43.2462 104.334 43.2462C104.686 43.2462 105.028 43.2022 105.362 43.1143C105.696 43.0264 106.03 42.9297 106.364 42.8243C106.698 42.7012 107.032 42.5958 107.366 42.5079C107.718 42.42 108.069 42.376 108.421 42.376C108.825 42.376 109.159 42.543 109.423 42.877C109.687 43.1934 109.818 43.5538 109.818 43.9581C109.818 44.5206 109.643 45.0479 109.291 45.5401C108.94 46.0147 108.5 46.4366 107.973 46.8057C107.463 47.1749 106.901 47.4649 106.285 47.6758C105.688 47.8868 105.143 47.9922 104.651 47.9922C103.385 47.9922 102.313 47.7022 101.434 47.1221C100.555 46.5596 99.8429 45.8301 99.298 44.9337C98.753 44.0196 98.3575 43.0089 98.1114 41.9014C97.8829 40.7764 97.7687 39.6602 97.7687 38.5528C97.7687 37.8145 97.839 37.0059 97.9796 36.127C98.1202 35.2481 98.3312 34.3692 98.6124 33.4903C98.8937 32.5938 99.2452 31.7325 99.6671 30.9063C100.107 30.0801 100.616 29.3506 101.196 28.7178C101.776 28.085 102.427 27.5753 103.148 27.1885C103.886 26.8018 104.694 26.6085 105.573 26.6085C106.435 26.6085 107.155 26.8282 107.735 27.2676C108.316 27.6895 108.781 28.2344 109.133 28.9024C109.484 29.5528 109.731 30.2735 109.871 31.0645C110.012 31.838 110.082 32.5762 110.082 33.2794ZM118.147 47.4649C117.25 47.4649 116.468 47.2276 115.8 46.753C115.132 46.2784 114.569 45.6719 114.112 44.9337C113.655 44.1954 113.313 43.378 113.084 42.4815C112.856 41.5674 112.741 40.671 112.741 39.7921C112.741 38.8604 112.856 37.9024 113.084 36.918C113.313 35.9161 113.664 35.0108 114.139 34.2022C114.613 33.376 115.22 32.7081 115.958 32.1983C116.696 31.671 117.575 31.4073 118.595 31.4073C119.579 31.4073 120.414 31.6797 121.1 32.2247C121.803 32.752 122.365 33.42 122.787 34.2286C123.209 35.0196 123.508 35.8897 123.684 36.8389C123.859 37.7881 123.921 38.6846 123.868 39.5284C123.816 40.46 123.666 41.4005 123.42 42.3497C123.192 43.2989 122.849 44.1514 122.392 44.9073C121.935 45.6631 121.355 46.2784 120.651 46.753C119.948 47.2276 119.113 47.4649 118.147 47.4649ZM118.41 35.5469C118.147 35.5469 117.909 35.6876 117.698 35.9688C117.505 36.2501 117.338 36.5928 117.197 36.9971C117.074 37.4014 116.978 37.8321 116.907 38.2891C116.837 38.7286 116.802 39.1153 116.802 39.4493C116.802 39.8712 116.837 40.3282 116.907 40.8204C116.995 41.3126 117.109 41.7696 117.25 42.1915C117.391 42.5958 117.558 42.9385 117.751 43.2198C117.962 43.4835 118.199 43.6153 118.463 43.6153C118.744 43.6153 118.982 43.4835 119.175 43.2198C119.386 42.9561 119.553 42.6221 119.676 42.2178C119.799 41.8135 119.887 41.3741 119.94 40.8995C119.992 40.4073 120.019 39.9503 120.019 39.5284C120.019 39.1417 119.984 38.7198 119.913 38.2628C119.843 37.7881 119.737 37.3487 119.597 36.9444C119.474 36.5401 119.307 36.2061 119.096 35.9424C118.902 35.6788 118.674 35.5469 118.41 35.5469ZM134.701 47.4385C134.402 47.4385 134.165 47.2979 133.989 47.0167C133.814 46.753 133.682 46.4454 133.594 46.0938C133.506 45.7422 133.444 45.3907 133.409 45.0391C133.392 44.67 133.383 44.3887 133.383 44.1954C133.383 43.668 133.409 43.1407 133.462 42.6133C133.532 42.086 133.603 41.5587 133.673 41.0313C133.761 40.504 133.831 39.9766 133.884 39.4493C133.954 38.9219 133.989 38.3946 133.989 37.8672C133.989 37.6563 133.981 37.4278 133.963 37.1817C133.945 36.9356 133.901 36.7071 133.831 36.4962C133.778 36.2676 133.682 36.0831 133.541 35.9424C133.401 35.8018 133.216 35.7315 132.987 35.7315C132.829 35.7315 132.653 35.8633 132.46 36.127C132.267 36.3731 132.082 36.6631 131.906 36.9971C131.748 37.3135 131.608 37.6387 131.484 37.9727C131.379 38.2891 131.326 38.5264 131.326 38.6846C131.326 39.0714 131.326 39.4669 131.326 39.8712C131.344 40.2579 131.353 40.6534 131.353 41.0577V42.587C131.335 42.9034 131.309 43.2286 131.274 43.5626C131.238 43.8965 131.186 44.2217 131.115 44.5381C131.063 44.8546 130.984 45.1622 130.878 45.461C130.773 45.7422 130.632 45.9971 130.456 46.2256C130.298 46.4366 130.105 46.6124 129.876 46.753C129.648 46.8936 129.375 46.9639 129.059 46.9639C128.707 46.9639 128.417 46.8497 128.189 46.6212C127.96 46.3926 127.776 46.1026 127.635 45.751C127.494 45.3819 127.389 44.9776 127.318 44.5381C127.266 44.0811 127.222 43.6417 127.187 43.2198C127.169 42.7803 127.16 42.3848 127.16 42.0333C127.178 41.6641 127.187 41.3741 127.187 41.1631V39.9239C127.187 39.2559 127.169 38.5967 127.134 37.9464C127.116 37.296 127.108 36.6456 127.108 35.9952C127.108 35.6436 127.108 35.1954 127.108 34.6505C127.125 34.1055 127.195 33.5782 127.318 33.0684C127.442 32.5411 127.644 32.0928 127.925 31.7237C128.206 31.3546 128.619 31.17 129.164 31.17C129.41 31.17 129.63 31.2491 129.823 31.4073C130.017 31.5655 130.184 31.7589 130.324 31.9874C130.483 32.2159 130.606 32.462 130.693 32.7256C130.799 32.9893 130.878 33.2178 130.931 33.4112C131.107 33.1651 131.309 32.9278 131.537 32.6993C131.783 32.4708 132.056 32.2686 132.355 32.0928C132.653 31.9171 132.987 31.7764 133.357 31.671C133.726 31.5655 134.148 31.5128 134.622 31.5128C135.519 31.5128 136.213 31.7325 136.705 32.1719C137.215 32.5938 137.584 33.1299 137.813 33.7803C138.059 34.4131 138.208 35.0987 138.261 35.837C138.314 36.5753 138.34 37.2432 138.34 37.8409C138.34 38.1397 138.314 38.588 138.261 39.1856C138.208 39.7657 138.12 40.4161 137.997 41.1368C137.892 41.8399 137.742 42.5694 137.549 43.3253C137.356 44.0635 137.127 44.7403 136.863 45.3555C136.6 45.9708 136.283 46.4717 135.914 46.8585C135.563 47.2452 135.158 47.4385 134.701 47.4385ZM147.96 47.6495C146.712 47.6495 145.736 47.4825 145.033 47.1485C144.348 46.8321 143.829 46.3751 143.478 45.7774C143.144 45.1797 142.942 44.459 142.871 43.6153C142.801 42.7715 142.766 41.8311 142.766 40.794C142.766 39.9678 142.792 39.1417 142.845 38.3155C142.898 37.4717 142.977 36.5753 143.082 35.626C142.836 35.626 142.643 35.6348 142.502 35.6524C142.361 35.6524 142.247 35.6524 142.159 35.6524C141.597 35.6524 141.113 35.5294 140.709 35.2833C140.287 35.0372 140.076 34.6592 140.076 34.1495C140.076 33.8331 140.199 33.5518 140.445 33.3057C140.674 33.0596 140.973 32.8487 141.342 32.6729C141.711 32.4971 142.107 32.3565 142.528 32.251C142.968 32.1456 143.381 32.0753 143.768 32.0401C143.768 31.5479 143.803 31.003 143.873 30.4053C143.943 29.8077 144.067 29.254 144.242 28.7442C144.436 28.2169 144.691 27.7774 145.007 27.4258C145.323 27.0743 145.728 26.8985 146.22 26.8985C146.501 26.8985 146.747 26.9864 146.958 27.1622C147.187 27.3204 147.371 27.5313 147.512 27.795C147.652 28.0411 147.758 28.3223 147.828 28.6387C147.899 28.9551 147.934 29.2628 147.934 29.5616C147.934 29.9131 147.907 30.2735 147.855 30.6426C147.802 31.0118 147.705 31.4688 147.565 32.0137C147.863 31.9786 148.066 31.961 148.171 31.961C148.276 31.9434 148.373 31.9346 148.461 31.9346C148.76 31.9346 149.067 31.961 149.384 32.0137C149.718 32.0665 150.017 32.1544 150.28 32.2774C150.562 32.4005 150.79 32.5674 150.966 32.7784C151.142 32.9717 151.23 33.209 151.23 33.4903C151.23 33.8067 151.098 34.088 150.834 34.334C150.588 34.5801 150.272 34.7911 149.885 34.9669C149.498 35.1426 149.085 35.2833 148.646 35.3887C148.206 35.4766 147.793 35.5381 147.406 35.5733C147.301 36.294 147.222 36.962 147.169 37.5772C147.134 38.1749 147.09 38.7813 147.037 39.3965C147.002 39.6954 146.967 40.003 146.932 40.3194C146.914 40.6182 146.905 40.9258 146.905 41.2422C146.905 41.4708 146.914 41.7432 146.932 42.0596C146.949 42.3585 147.011 42.6485 147.116 42.9297C147.222 43.211 147.389 43.4571 147.617 43.668C147.846 43.8614 148.162 43.9581 148.567 43.9581C148.813 43.9581 149.067 43.9405 149.331 43.9053C149.595 43.8526 149.859 43.8262 150.122 43.8262C150.579 43.8262 150.904 43.9844 151.098 44.3008C151.309 44.6172 151.414 45.0215 151.414 45.5137C151.414 45.8829 151.3 46.2081 151.071 46.4893C150.86 46.753 150.588 46.9639 150.254 47.1221C149.92 47.2979 149.542 47.4297 149.12 47.5176C148.716 47.6055 148.329 47.6495 147.96 47.6495ZM158.292 28.296C158.292 28.5421 158.222 28.7618 158.081 28.9551C157.958 29.1485 157.791 29.3243 157.58 29.4825C157.369 29.6231 157.141 29.7374 156.895 29.8253C156.649 29.8956 156.42 29.9307 156.209 29.9307C155.858 29.9307 155.55 29.8428 155.286 29.6671C155.023 29.4913 154.891 29.2188 154.891 28.8497C154.891 28.586 154.952 28.3575 155.075 28.1641C155.216 27.9532 155.383 27.7862 155.576 27.6631C155.77 27.5225 155.989 27.4171 156.235 27.3467C156.482 27.2764 156.719 27.2413 156.947 27.2413C157.281 27.2413 157.589 27.3204 157.87 27.4786C158.151 27.6368 158.292 27.9092 158.292 28.296ZM158.503 37.2608C158.503 37.5069 158.503 37.7706 158.503 38.0518C158.503 38.3155 158.494 38.5704 158.477 38.8165C158.459 39.1153 158.45 39.5196 158.45 40.0294C158.45 40.5215 158.433 41.0577 158.398 41.6378C158.362 42.2178 158.301 42.8067 158.213 43.4044C158.143 44.002 158.02 44.5469 157.844 45.0391C157.668 45.5313 157.431 45.9356 157.132 46.252C156.851 46.5508 156.49 46.709 156.051 46.7266C155.717 46.7442 155.436 46.6124 155.207 46.3311C154.979 46.0499 154.785 45.6895 154.627 45.2501C154.486 44.793 154.381 44.2921 154.311 43.7471C154.24 43.1846 154.188 42.6485 154.152 42.1387C154.117 41.6114 154.1 41.128 154.1 40.6885C154.1 40.2491 154.1 39.9239 154.1 39.713C154.1 39.4317 154.1 39.0362 154.1 38.5264C154.1 37.9991 154.117 37.4366 154.152 36.8389C154.188 36.2413 154.249 35.6348 154.337 35.0196C154.442 34.4044 154.583 33.8419 154.759 33.3321C154.952 32.8223 155.198 32.4092 155.497 32.0928C155.796 31.7764 156.174 31.6182 156.631 31.6182C157.106 31.6182 157.466 31.8555 157.712 32.3301C157.958 32.8047 158.143 33.3585 158.266 33.9913C158.389 34.6241 158.459 35.2569 158.477 35.8897C158.494 36.5049 158.503 36.962 158.503 37.2608ZM169.863 47.4385C169.565 47.4385 169.327 47.2979 169.151 47.0167C168.976 46.753 168.844 46.4454 168.756 46.0938C168.668 45.7422 168.607 45.3907 168.571 45.0391C168.554 44.67 168.545 44.3887 168.545 44.1954C168.545 43.668 168.571 43.1407 168.624 42.6133C168.694 42.086 168.765 41.5587 168.835 41.0313C168.923 40.504 168.993 39.9766 169.046 39.4493C169.116 38.9219 169.151 38.3946 169.151 37.8672C169.151 37.6563 169.143 37.4278 169.125 37.1817C169.108 36.9356 169.064 36.7071 168.993 36.4962C168.941 36.2676 168.844 36.0831 168.703 35.9424C168.563 35.8018 168.378 35.7315 168.15 35.7315C167.991 35.7315 167.816 35.8633 167.622 36.127C167.429 36.3731 167.244 36.6631 167.068 36.9971C166.91 37.3135 166.77 37.6387 166.647 37.9727C166.541 38.2891 166.488 38.5264 166.488 38.6846C166.488 39.0714 166.488 39.4669 166.488 39.8712C166.506 40.2579 166.515 40.6534 166.515 41.0577V42.587C166.497 42.9034 166.471 43.2286 166.436 43.5626C166.4 43.8965 166.348 44.2217 166.277 44.5381C166.225 44.8546 166.146 45.1622 166.04 45.461C165.935 45.7422 165.794 45.9971 165.618 46.2256C165.46 46.4366 165.267 46.6124 165.038 46.753C164.81 46.8936 164.537 46.9639 164.221 46.9639C163.869 46.9639 163.579 46.8497 163.351 46.6212C163.122 46.3926 162.938 46.1026 162.797 45.751C162.656 45.3819 162.551 44.9776 162.481 44.5381C162.428 44.0811 162.384 43.6417 162.349 43.2198C162.331 42.7803 162.322 42.3848 162.322 42.0333C162.34 41.6641 162.349 41.3741 162.349 41.1631V39.9239C162.349 39.2559 162.331 38.5967 162.296 37.9464C162.278 37.296 162.27 36.6456 162.27 35.9952C162.27 35.6436 162.27 35.1954 162.27 34.6505C162.287 34.1055 162.358 33.5782 162.481 33.0684C162.604 32.5411 162.806 32.0928 163.087 31.7237C163.368 31.3546 163.781 31.17 164.326 31.17C164.572 31.17 164.792 31.2491 164.985 31.4073C165.179 31.5655 165.346 31.7589 165.486 31.9874C165.645 32.2159 165.768 32.462 165.856 32.7256C165.961 32.9893 166.04 33.2178 166.093 33.4112C166.269 33.1651 166.471 32.9278 166.699 32.6993C166.945 32.4708 167.218 32.2686 167.517 32.0928C167.816 31.9171 168.15 31.7764 168.519 31.671C168.888 31.5655 169.31 31.5128 169.784 31.5128C170.681 31.5128 171.375 31.7325 171.867 32.1719C172.377 32.5938 172.746 33.1299 172.975 33.7803C173.221 34.4131 173.37 35.0987 173.423 35.837C173.476 36.5753 173.502 37.2432 173.502 37.8409C173.502 38.1397 173.476 38.588 173.423 39.1856C173.37 39.7657 173.282 40.4161 173.159 41.1368C173.054 41.8399 172.904 42.5694 172.711 43.3253C172.518 44.0635 172.289 44.7403 172.025 45.3555C171.762 45.9708 171.445 46.4717 171.076 46.8585C170.725 47.2452 170.32 47.4385 169.863 47.4385ZM188.527 39.1592C188.527 40.126 188.431 41.084 188.237 42.0333C188.044 42.9825 187.719 43.835 187.262 44.5909C186.805 45.3292 186.19 45.9268 185.416 46.3839C184.66 46.8409 183.711 47.0694 182.568 47.0694C181.443 47.0694 180.503 46.8497 179.747 46.4102C178.991 45.9532 178.385 45.3555 177.928 44.6172C177.488 43.879 177.172 43.044 176.979 42.1124C176.803 41.1807 176.715 40.2315 176.715 39.2647C176.715 38.21 176.838 37.1641 177.084 36.127C177.137 35.8458 177.234 35.459 177.374 34.9669C177.532 34.4571 177.726 33.9649 177.954 33.4903C178.2 32.9981 178.473 32.5762 178.772 32.2247C179.088 31.8731 179.431 31.6973 179.8 31.6973C180.151 31.6973 180.433 31.794 180.644 31.9874C180.855 32.1807 181.022 32.4268 181.145 32.7256C181.268 33.0069 181.347 33.3145 181.382 33.6485C181.417 33.9649 181.435 34.2549 181.435 34.5186C181.435 34.9229 181.4 35.3184 181.329 35.7051C181.276 36.0919 181.215 36.4786 181.145 36.8653C181.074 37.3926 181.004 37.92 180.934 38.4473C180.881 38.9747 180.855 39.502 180.855 40.0294C180.855 40.293 180.863 40.5919 180.881 40.9258C180.916 41.2422 180.986 41.5499 181.092 41.8487C181.197 42.1475 181.347 42.4024 181.54 42.6133C181.734 42.8067 182.006 42.9034 182.358 42.9034C182.815 42.9034 183.175 42.7803 183.439 42.5342C183.72 42.2881 183.922 41.9805 184.045 41.6114C184.186 41.2422 184.274 40.8467 184.309 40.4249C184.344 40.003 184.361 39.6163 184.361 39.2647C184.361 38.4913 184.309 37.7354 184.203 36.9971C184.098 36.2413 184.001 35.4766 183.913 34.7032C183.896 34.6153 183.887 34.4922 183.887 34.334C183.887 34.0704 183.931 33.8067 184.019 33.543C184.107 33.2794 184.23 33.0421 184.388 32.8311C184.546 32.6202 184.739 32.4532 184.968 32.3301C185.196 32.1895 185.451 32.1192 185.733 32.1192C186.119 32.1192 186.462 32.2598 186.761 32.5411C187.06 32.8047 187.306 33.1563 187.499 33.5958C187.71 34.0176 187.877 34.501 188 35.046C188.141 35.5733 188.246 36.1006 188.317 36.628C188.404 37.1378 188.457 37.6212 188.475 38.0782C188.51 38.5352 188.527 38.8956 188.527 39.1592ZM203.184 42.0069C203.184 42.6046 202.99 43.1934 202.604 43.7735C202.234 44.336 201.76 44.8458 201.18 45.3028C200.617 45.7422 200.011 46.1026 199.36 46.3839C198.71 46.6475 198.112 46.7794 197.567 46.7794C196.636 46.7794 195.801 46.5508 195.063 46.0938C194.342 45.6192 193.735 45.0215 193.243 44.3008C192.751 43.5801 192.373 42.7891 192.109 41.9278C191.863 41.0489 191.74 40.1964 191.74 39.3702C191.74 38.4913 191.863 37.5508 192.109 36.5489C192.356 35.5469 192.725 34.6241 193.217 33.7803C193.727 32.9366 194.359 32.2335 195.115 31.671C195.889 31.1085 196.803 30.8272 197.858 30.8272C198.455 30.8272 199.026 30.9327 199.571 31.1436C200.116 31.337 200.591 31.6182 200.995 31.9874C201.4 32.3565 201.725 32.796 201.971 33.3057C202.217 33.8155 202.34 34.3868 202.34 35.0196C202.34 35.8458 202.164 36.6192 201.813 37.3399C201.461 38.0606 200.995 38.6846 200.415 39.212C199.835 39.7393 199.167 40.17 198.411 40.504C197.655 40.8204 196.882 40.9962 196.091 41.0313C196.161 41.5411 196.363 41.9102 196.697 42.1387C197.049 42.3672 197.462 42.4815 197.937 42.4815C198.288 42.4815 198.631 42.3936 198.965 42.2178C199.299 42.0421 199.624 41.8487 199.941 41.6378C200.257 41.4092 200.565 41.2071 200.863 41.0313C201.18 40.8555 201.496 40.7676 201.813 40.7676C202.164 40.7676 202.481 40.8819 202.762 41.1104C203.043 41.3389 203.184 41.6378 203.184 42.0069ZM198.912 35.5469C198.912 35.3184 198.851 35.0811 198.728 34.835C198.605 34.5889 198.411 34.4659 198.148 34.4659C197.761 34.4659 197.436 34.5714 197.172 34.7823C196.908 34.9756 196.689 35.2305 196.513 35.5469C196.337 35.8458 196.196 36.171 196.091 36.5225C196.003 36.8741 195.95 37.1993 195.933 37.4981C196.179 37.4454 196.469 37.3751 196.803 37.2872C197.154 37.1993 197.48 37.085 197.778 36.9444C198.095 36.7862 198.359 36.5928 198.569 36.3643C198.798 36.1358 198.912 35.8633 198.912 35.5469Z" fill="white"/>
</g>
<ellipse rx="6.87543" ry="1.9607" transform="matrix(0.9886 -0.150563 0.188938 0.981989 23.9992 2.96057)" fill="white" fill-opacity="0.5"/>
</svg>
