<svg width="300" height="73" viewBox="0 0 300 73" fill="none" xmlns="http://www.w3.org/2000/svg">
    <defs>
        <filter id="filter0_dd_3_235" x="117.839" y="27.1358" width="66.6631" height="32.7119" filterUnits="userSpaceOnUse" color-interpolation-filters="sRGB">
            <feFlood flood-opacity="0" result="BackgroundImageFix"/>
            <feColorMatrix in="SourceAlpha" type="matrix" values="0 0 0 0 0 0 0 0 0 0 0 0 0 0 0 0 0 0 127 0" result="hardAlpha"/>
            <feOffset dy="4"/>
            <feGaussianBlur stdDeviation="0.5"/>
            <feComposite in2="hardAlpha" operator="out"/>
            <feColorMatrix type="matrix" values="0 0 0 0 0.0705882 0 0 0 0 0.443137 0 0 0 0 0.843137 0 0 0 1 0"/>
            <feBlend mode="normal" in2="BackgroundImageFix" result="effect1_dropShadow_3_235"/>
            <feColorMatrix in="SourceAlpha" type="matrix" values="0 0 0 0 0 0 0 0 0 0 0 0 0 0 0 0 0 0 127 0" result="hardAlpha"/>
            <feOffset dy="2"/>
            <feComposite in2="hardAlpha" operator="out"/>
            <feColorMatrix type="matrix" values="0 0 0 0 0.057 0 0 0 0 0.228 0 0 0 0 0.57 0 0 0 1 0"/>
            <feBlend mode="normal" in2="effect1_dropShadow_3_235" result="effect2_dropShadow_3_235"/>
            <feBlend mode="normal" in="SourceGraphic" in2="effect2_dropShadow_3_235" result="shape"/>
        </filter>
        <linearGradient id="paint0_linear_3_235" x1="149.98" y1="4.70026" x2="149.98" y2="68.7003" gradientUnits="userSpaceOnUse">
            <stop stop-color="#23A8F8"/>
            <stop offset="0.421875" stop-color="#1B9DF7"/>
            <stop offset="1" stop-color="#0E7DEC"/>
        </linearGradient>
    </defs>

    <path d="M2.88027 15.759C5.86143 6.31321 15.2514 0.700256 25.1565 0.700256H275.015C284.811 0.700256 294.13 6.18682 297.117 15.5168C300.973 27.5666 300.955 37.6364 297.098 49.7638C294.112 59.15 284.761 64.7003 274.912 64.7003H24.9243C15.1391 64.7003 5.82517 59.224 2.85461 49.9006C-1.00931 37.7733 -0.90173 27.7424 2.88027 15.759Z" fill="#42CAFF"/>
<path d="M2.88027 23.759C5.86143 14.3132 15.2514 8.70026 25.1565 8.70026H275.015C284.811 8.70026 294.13 14.1868 297.117 23.5168C300.973 35.5666 300.955 45.6364 297.098 57.7638C294.112 67.15 284.761 72.7003 274.912 72.7003H24.9243C15.1391 72.7003 5.82517 67.224 2.85461 57.9006C-1.00931 45.7733 -0.90173 35.7424 2.88027 23.759Z" fill="#054EC1"/>
<path d="M2.88027 19.759C5.86143 10.3132 15.2514 4.70026 25.1565 4.70026H275.015C284.811 4.70026 294.13 10.1868 297.117 19.5168C300.973 31.5666 300.955 41.6364 297.098 53.7638C294.112 63.15 284.761 68.7003 274.912 68.7003H24.9243C15.1391 68.7003 5.82517 63.224 2.85461 53.9006C-1.00931 41.7733 -0.90173 31.7424 2.88027 19.759Z" fill="url(#paint0_linear_3_235)"/>
<g filter="url(#filter0_dd_3_235)">
<path d="M131.389 43.0616C131.389 43.501 131.205 43.9141 130.836 44.3008C130.484 44.6876 130.018 45.0391 129.438 45.3555C128.876 45.6719 128.243 45.9532 127.54 46.1993C126.837 46.4278 126.142 46.6212 125.457 46.7794C124.771 46.9551 124.121 47.087 123.506 47.1749C122.908 47.2628 122.433 47.3067 122.082 47.3067C121.748 47.3067 121.387 47.2715 121.001 47.2012C120.632 47.1485 120.324 47.0167 120.078 46.8057C119.937 46.7003 119.814 46.463 119.709 46.0938C119.603 45.7247 119.498 45.2852 119.392 44.7755C119.304 44.2657 119.225 43.7208 119.155 43.1407C119.085 42.543 119.023 41.963 118.97 41.4005C118.935 40.838 118.9 40.3194 118.865 39.8448C118.847 39.3702 118.839 39.001 118.839 38.7374C118.839 38.2979 118.847 37.7706 118.865 37.1553C118.9 36.5225 118.944 35.8546 118.997 35.1514C119.049 34.4307 119.12 33.7012 119.208 32.963C119.296 32.2247 119.392 31.5303 119.498 30.8799C119.621 30.212 119.761 29.6143 119.92 29.087C120.095 28.5596 120.28 28.1465 120.473 27.8477C120.807 27.3731 121.229 27.1358 121.739 27.1358C122.09 27.1358 122.389 27.2589 122.635 27.5049C122.882 27.7335 123.075 28.0411 123.215 28.4278C123.374 28.7969 123.488 29.2188 123.558 29.6934C123.646 30.1505 123.708 30.6075 123.743 31.0645C123.778 31.5215 123.796 31.9434 123.796 32.3301C123.796 32.7169 123.796 33.0245 123.796 33.253C123.796 34.6241 123.76 35.9864 123.69 37.3399C123.637 38.6758 123.611 40.0294 123.611 41.4005V42.4288C124.402 42.1827 125.263 41.9542 126.195 41.7432C127.127 41.5147 128.014 41.4005 128.858 41.4005C129.157 41.4005 129.456 41.418 129.755 41.4532C130.071 41.4883 130.343 41.5674 130.572 41.6905C130.818 41.796 131.011 41.963 131.152 42.1915C131.31 42.4024 131.389 42.6924 131.389 43.0616ZM139.058 47.4649C138.162 47.4649 137.38 47.2276 136.712 46.753C136.044 46.2784 135.481 45.6719 135.024 44.9337C134.567 44.1954 134.224 43.378 133.996 42.4815C133.767 41.5674 133.653 40.671 133.653 39.7921C133.653 38.8604 133.767 37.9024 133.996 36.918C134.224 35.9161 134.576 35.0108 135.05 34.2022C135.525 33.376 136.132 32.7081 136.87 32.1983C137.608 31.671 138.487 31.4073 139.507 31.4073C140.491 31.4073 141.326 31.6797 142.011 32.2247C142.715 32.752 143.277 33.42 143.699 34.2286C144.121 35.0196 144.42 35.8897 144.595 36.8389C144.771 37.7881 144.833 38.6846 144.78 39.5284C144.727 40.46 144.578 41.4005 144.332 42.3497C144.103 43.2989 143.76 44.1514 143.303 44.9073C142.846 45.6631 142.266 46.2784 141.563 46.753C140.86 47.2276 140.025 47.4649 139.058 47.4649ZM139.322 35.5469C139.058 35.5469 138.821 35.6876 138.61 35.9688C138.417 36.2501 138.25 36.5928 138.109 36.9971C137.986 37.4014 137.889 37.8321 137.819 38.2891C137.749 38.7286 137.714 39.1153 137.714 39.4493C137.714 39.8712 137.749 40.3282 137.819 40.8204C137.907 41.3126 138.021 41.7696 138.162 42.1915C138.302 42.5958 138.469 42.9385 138.663 43.2198C138.874 43.4835 139.111 43.6153 139.375 43.6153C139.656 43.6153 139.893 43.4835 140.087 43.2198C140.298 42.9561 140.465 42.6221 140.588 42.2178C140.711 41.8135 140.799 41.3741 140.851 40.8995C140.904 40.4073 140.93 39.9503 140.93 39.5284C140.93 39.1417 140.895 38.7198 140.825 38.2628C140.755 37.7881 140.649 37.3487 140.508 36.9444C140.385 36.5401 140.218 36.2061 140.007 35.9424C139.814 35.6788 139.586 35.5469 139.322 35.5469ZM160.069 37.709C160.069 38.6055 160.051 39.502 160.016 40.3985C159.999 41.295 159.955 42.1915 159.884 43.088C159.832 43.8614 159.761 44.6876 159.674 45.5665C159.586 46.4454 159.445 47.3155 159.252 48.1768C159.058 49.0557 158.803 49.8907 158.487 50.6817C158.171 51.4903 157.749 52.2022 157.221 52.8174C156.712 53.4327 156.088 53.9249 155.349 54.294C154.611 54.6631 153.732 54.8477 152.713 54.8477C152.238 54.8477 151.702 54.7686 151.104 54.6104C150.524 54.4698 149.97 54.2589 149.443 53.9776C148.933 53.6964 148.494 53.3448 148.125 52.9229C147.773 52.5186 147.597 52.044 147.597 51.4991C147.597 51.0948 147.738 50.7169 148.019 50.3653C148.318 50.0313 148.696 49.8643 149.153 49.8643C149.434 49.8643 149.698 49.9083 149.944 49.9962C150.208 50.1016 150.463 50.2159 150.709 50.3389C150.972 50.462 151.218 50.5674 151.447 50.6553C151.693 50.7608 151.939 50.8135 152.185 50.8135C152.836 50.8135 153.381 50.6465 153.82 50.3126C154.259 49.9962 154.611 49.5831 154.875 49.0733C155.138 48.5811 155.332 48.0362 155.455 47.4385C155.595 46.8585 155.692 46.3047 155.745 45.7774C155.393 46.1817 154.98 46.463 154.506 46.6212C154.049 46.7618 153.565 46.8321 153.055 46.8321C152.124 46.8321 151.333 46.6739 150.682 46.3575C150.032 46.0235 149.505 45.5753 149.1 45.0128C148.696 44.4327 148.397 43.7647 148.204 43.0089C148.01 42.253 147.914 41.4356 147.914 40.5567C147.914 40.0118 147.966 39.3965 148.072 38.711C148.195 38.0255 148.371 37.3311 148.599 36.628C148.828 35.9249 149.109 35.2393 149.443 34.5714C149.795 33.9034 150.199 33.3145 150.656 32.8047C151.113 32.295 151.623 31.8819 152.185 31.5655C152.765 31.2491 153.398 31.0909 154.084 31.0909C154.752 31.0909 155.34 31.2842 155.85 31.671C156.378 32.0577 156.685 32.6026 156.773 33.3057C156.966 32.9366 157.221 32.5762 157.538 32.2247C157.854 31.8555 158.241 31.671 158.698 31.671C158.944 31.671 159.146 31.794 159.304 32.0401C159.48 32.2862 159.612 32.6114 159.7 33.0157C159.805 33.4024 159.884 33.8331 159.937 34.3077C159.99 34.7647 160.025 35.2217 160.043 35.6788C160.06 36.1182 160.069 36.5225 160.069 36.8917C160.069 37.2608 160.069 37.5333 160.069 37.709ZM156.061 39.4229C156.061 39.1592 156.017 38.8165 155.929 38.3946C155.859 37.9727 155.745 37.5684 155.587 37.1817C155.446 36.795 155.261 36.461 155.033 36.1797C154.804 35.8985 154.532 35.7579 154.215 35.7579C153.811 35.7579 153.451 35.8985 153.134 36.1797C152.836 36.461 152.581 36.8038 152.37 37.2081C152.159 37.5948 151.992 38.0167 151.869 38.4737C151.763 38.9131 151.711 39.2911 151.711 39.6075C151.711 39.836 151.728 40.1436 151.763 40.5303C151.799 40.9171 151.869 41.295 151.974 41.6641C152.097 42.0333 152.256 42.3497 152.449 42.6133C152.642 42.877 152.897 43.0089 153.214 43.0089C153.688 43.0089 154.101 42.8946 154.453 42.6661C154.804 42.4376 155.094 42.1475 155.323 41.796C155.569 41.4444 155.754 41.0577 155.877 40.6358C156 40.2139 156.061 39.8096 156.061 39.4229ZM168.292 28.296C168.292 28.5421 168.221 28.7618 168.081 28.9551C167.958 29.1485 167.791 29.3243 167.58 29.4825C167.369 29.6231 167.14 29.7374 166.894 29.8253C166.648 29.8956 166.42 29.9307 166.209 29.9307C165.857 29.9307 165.549 29.8428 165.286 29.6671C165.022 29.4913 164.89 29.2188 164.89 28.8497C164.89 28.586 164.952 28.3575 165.075 28.1641C165.215 27.9532 165.382 27.7862 165.576 27.6631C165.769 27.5225 165.989 27.4171 166.235 27.3467C166.481 27.2764 166.718 27.2413 166.947 27.2413C167.281 27.2413 167.589 27.3204 167.87 27.4786C168.151 27.6368 168.292 27.9092 168.292 28.296ZM168.503 37.2608C168.503 37.5069 168.503 37.7706 168.503 38.0518C168.503 38.3155 168.494 38.5704 168.476 38.8165C168.459 39.1153 168.45 39.5196 168.45 40.0294C168.45 40.5215 168.432 41.0577 168.397 41.6378C168.362 42.2178 168.3 42.8067 168.213 43.4044C168.142 44.002 168.019 44.5469 167.843 45.0391C167.668 45.5313 167.43 45.9356 167.132 46.252C166.85 46.5508 166.49 46.709 166.05 46.7266C165.716 46.7442 165.435 46.6124 165.207 46.3311C164.978 46.0499 164.785 45.6895 164.627 45.2501C164.486 44.793 164.381 44.2921 164.31 43.7471C164.24 43.1846 164.187 42.6485 164.152 42.1387C164.117 41.6114 164.099 41.128 164.099 40.6885C164.099 40.2491 164.099 39.9239 164.099 39.713C164.099 39.4317 164.099 39.0362 164.099 38.5264C164.099 37.9991 164.117 37.4366 164.152 36.8389C164.187 36.2413 164.249 35.6348 164.337 35.0196C164.442 34.4044 164.583 33.8419 164.758 33.3321C164.952 32.8223 165.198 32.4092 165.497 32.0928C165.796 31.7764 166.174 31.6182 166.631 31.6182C167.105 31.6182 167.465 31.8555 167.712 32.3301C167.958 32.8047 168.142 33.3585 168.265 33.9913C168.388 34.6241 168.459 35.2569 168.476 35.8897C168.494 36.5049 168.503 36.962 168.503 37.2608ZM179.863 47.4385C179.564 47.4385 179.327 47.2979 179.151 47.0167C178.975 46.753 178.843 46.4454 178.756 46.0938C178.668 45.7422 178.606 45.3907 178.571 45.0391C178.553 44.67 178.545 44.3887 178.545 44.1954C178.545 43.668 178.571 43.1407 178.624 42.6133C178.694 42.086 178.764 41.5587 178.835 41.0313C178.923 40.504 178.993 39.9766 179.046 39.4493C179.116 38.9219 179.151 38.3946 179.151 37.8672C179.151 37.6563 179.142 37.4278 179.125 37.1817C179.107 36.9356 179.063 36.7071 178.993 36.4962C178.94 36.2676 178.843 36.0831 178.703 35.9424C178.562 35.8018 178.378 35.7315 178.149 35.7315C177.991 35.7315 177.815 35.8633 177.622 36.127C177.428 36.3731 177.244 36.6631 177.068 36.9971C176.91 37.3135 176.769 37.6387 176.646 37.9727C176.541 38.2891 176.488 38.5264 176.488 38.6846C176.488 39.0714 176.488 39.4669 176.488 39.8712C176.506 40.2579 176.514 40.6534 176.514 41.0577V42.587C176.497 42.9034 176.47 43.2286 176.435 43.5626C176.4 43.8965 176.347 44.2217 176.277 44.5381C176.224 44.8546 176.145 45.1622 176.04 45.461C175.934 45.7422 175.794 45.9971 175.618 46.2256C175.46 46.4366 175.266 46.6124 175.038 46.753C174.809 46.8936 174.537 46.9639 174.22 46.9639C173.869 46.9639 173.579 46.8497 173.35 46.6212C173.122 46.3926 172.937 46.1026 172.797 45.751C172.656 45.3819 172.55 44.9776 172.48 44.5381C172.427 44.0811 172.383 43.6417 172.348 43.2198C172.331 42.7803 172.322 42.3848 172.322 42.0333C172.34 41.6641 172.348 41.3741 172.348 41.1631V39.9239C172.348 39.2559 172.331 38.5967 172.296 37.9464C172.278 37.296 172.269 36.6456 172.269 35.9952C172.269 35.6436 172.269 35.1954 172.269 34.6505C172.287 34.1055 172.357 33.5782 172.48 33.0684C172.603 32.5411 172.805 32.0928 173.087 31.7237C173.368 31.3546 173.781 31.17 174.326 31.17C174.572 31.17 174.792 31.2491 174.985 31.4073C175.178 31.5655 175.345 31.7589 175.486 31.9874C175.644 32.2159 175.767 32.462 175.855 32.7256C175.961 32.9893 176.04 33.2178 176.092 33.4112C176.268 33.1651 176.47 32.9278 176.699 32.6993C176.945 32.4708 177.217 32.2686 177.516 32.0928C177.815 31.9171 178.149 31.7764 178.518 31.671C178.887 31.5655 179.309 31.5128 179.784 31.5128C180.68 31.5128 181.375 31.7325 181.867 32.1719C182.377 32.5938 182.746 33.1299 182.974 33.7803C183.22 34.4131 183.37 35.0987 183.423 35.837C183.475 36.5753 183.502 37.2432 183.502 37.8409C183.502 38.1397 183.475 38.588 183.423 39.1856C183.37 39.7657 183.282 40.4161 183.159 41.1368C183.053 41.8399 182.904 42.5694 182.711 43.3253C182.517 44.0635 182.289 44.7403 182.025 45.3555C181.761 45.9708 181.445 46.4717 181.076 46.8585C180.724 47.2452 180.32 47.4385 179.863 47.4385Z" fill="white"/>
</g>
<ellipse rx="6.87543" ry="1.9607" transform="matrix(0.9886 -0.150563 0.188938 0.981989 23.9992 2.96057)" fill="white" fill-opacity="0.5"/>
</svg>
