<svg width="267" height="73" viewBox="0 0 267 73" fill="none" xmlns="http://www.w3.org/2000/svg">
    <defs>
        <filter id="filter0_dd_3_741" x="105.139" y="26.8458" width="58.6777" height="25.8037" filterUnits="userSpaceOnUse" color-interpolation-filters="sRGB">
            <feFlood flood-opacity="0" result="BackgroundImageFix"/>
            <feColorMatrix in="SourceAlpha" type="matrix" values="0 0 0 0 0 0 0 0 0 0 0 0 0 0 0 0 0 0 127 0" result="hardAlpha"/>
            <feOffset dy="4"/>
            <feGaussianBlur stdDeviation="0.5"/>
            <feComposite in2="hardAlpha" operator="out"/>
            <feColorMatrix type="matrix" values="0 0 0 0 0.271719 0 0 0 0 0.653281 0 0 0 0 0.331481 0 0 0 1 0"/>
            <feBlend mode="normal" in2="BackgroundImageFix" result="effect1_dropShadow_3_741"/>
            <feColorMatrix in="SourceAlpha" type="matrix" values="0 0 0 0 0 0 0 0 0 0 0 0 0 0 0 0 0 0 127 0" result="hardAlpha"/>
            <feOffset dy="2"/>
            <feComposite in2="hardAlpha" operator="out"/>
            <feColorMatrix type="matrix" values="0 0 0 0 0.286275 0 0 0 0 0.572549 0 0 0 0 0.329412 0 0 0 1 0"/>
            <feBlend mode="normal" in2="effect1_dropShadow_3_741" result="effect2_dropShadow_3_741"/>
            <feBlend mode="normal" in="SourceGraphic" in2="effect2_dropShadow_3_741" result="shape"/>
        </filter>
        <linearGradient id="paint0_linear_3_741" x1="133.437" y1="4.70026" x2="133.437" y2="68.7003" gradientUnits="userSpaceOnUse">
            <stop stop-color="#8FF495"/>
            <stop offset="0.421875" stop-color="#6CCE7D"/>
            <stop offset="1" stop-color="#459F53"/>
        </linearGradient>
    </defs>

    <path d="M2.29088 16.749C4.9585 6.79636 14.6519 0.700256 24.9559 0.700256H242.119C252.321 0.700256 261.952 6.67347 264.623 16.5203C267.683 27.8013 267.667 37.416 264.603 48.7678C261.931 58.6657 252.273 64.7003 242.021 64.7003H24.7349C14.5426 64.7003 4.91803 58.7387 2.26243 48.8985C-0.800504 37.5489 -0.716746 27.9701 2.29088 16.749Z" fill="#C0FAC4"/>
<path d="M2.29088 24.749C4.9585 14.7964 14.6519 8.70026 24.9559 8.70026H242.119C252.321 8.70026 261.952 14.6735 264.623 24.5203C267.683 35.8013 267.667 45.416 264.603 56.7678C261.931 66.6657 252.273 72.7003 242.021 72.7003H24.7349C14.5426 72.7003 4.91803 66.7387 2.26243 56.8985C-0.800504 45.5489 -0.716746 35.9701 2.29088 24.749Z" fill="#499254"/>
<path d="M2.29088 20.749C4.9585 10.7964 14.6519 4.70026 24.9559 4.70026H242.119C252.321 4.70026 261.952 10.6735 264.623 20.5203C267.683 31.8013 267.667 41.416 264.603 52.7678C261.931 62.6657 252.273 68.7003 242.021 68.7003H24.7349C14.5426 68.7003 4.91803 62.7387 2.26243 52.8985C-0.800504 41.5489 -0.716746 31.9701 2.29088 20.749Z" fill="url(#paint0_linear_3_741)"/>
<g filter="url(#filter0_dd_3_741)">
<path d="M121.458 35.3887C121.458 35.7755 121.44 36.3292 121.405 37.0499C121.37 37.753 121.3 38.5352 121.194 39.3965C121.106 40.2403 120.975 41.1104 120.799 42.0069C120.623 42.8858 120.395 43.6856 120.113 44.4063C119.832 45.127 119.489 45.7247 119.085 46.1993C118.681 46.6563 118.197 46.8848 117.635 46.8848C117.107 46.8848 116.624 46.7354 116.185 46.4366C115.745 46.1202 115.35 45.7422 114.998 45.3028C114.646 44.8458 114.339 44.3624 114.075 43.8526C113.812 43.3428 113.592 42.877 113.416 42.4551C113.047 41.5587 112.678 40.6797 112.309 39.8184C111.939 38.9395 111.588 38.0518 111.254 37.1553V37.8936C111.254 38.6495 111.245 39.4053 111.228 40.1612C111.228 40.8995 111.175 41.6378 111.069 42.376C111.034 42.6749 110.99 43.0264 110.938 43.4307C110.902 43.8174 110.841 44.2042 110.753 44.5909C110.665 44.9776 110.533 45.338 110.357 45.6719C110.199 46.0059 109.979 46.252 109.698 46.4102C109.54 46.4981 109.391 46.5508 109.25 46.5684C109.127 46.586 108.986 46.6124 108.828 46.6475H108.749C108.345 46.6475 108.002 46.5157 107.721 46.252C107.439 45.9708 107.202 45.6192 107.009 45.1973C106.815 44.7579 106.657 44.2745 106.534 43.7471C106.429 43.2022 106.341 42.6749 106.271 42.1651C106.218 41.6378 106.183 41.1544 106.165 40.7149C106.147 40.2755 106.139 39.9239 106.139 39.6602C106.139 39.2559 106.156 38.6671 106.191 37.8936C106.227 37.1026 106.297 36.2325 106.402 35.2833C106.525 34.334 106.675 33.3585 106.851 32.3565C107.044 31.3546 107.29 30.4493 107.589 29.6407C107.888 28.8145 108.248 28.1465 108.67 27.6368C109.092 27.1094 109.584 26.8458 110.146 26.8458C110.691 26.8458 111.175 27.0567 111.597 27.4786C112.036 27.9005 112.423 28.4014 112.757 28.9815C113.091 29.5616 113.372 30.168 113.601 30.8008C113.829 31.4337 114.022 31.961 114.181 32.3829C114.479 33.209 114.77 34.0352 115.051 34.8614C115.332 35.67 115.604 36.4962 115.868 37.3399C115.886 37.3751 115.921 37.4717 115.974 37.6299C116.026 37.7881 116.088 37.9639 116.158 38.1573C116.229 38.3682 116.316 38.6055 116.422 38.8692C116.422 38.6407 116.413 38.4825 116.396 38.3946C116.396 38.2891 116.396 38.2012 116.396 38.1309C116.396 38.043 116.396 37.9376 116.396 37.8145C116.396 37.6915 116.396 37.4981 116.396 37.2344C116.378 36.6544 116.36 36.0743 116.343 35.4942C116.343 34.9141 116.343 34.3428 116.343 33.7803C116.343 33.5342 116.343 33.1915 116.343 32.752C116.36 32.3126 116.387 31.8467 116.422 31.3546C116.475 30.8448 116.545 30.335 116.633 29.8253C116.721 29.3155 116.844 28.8585 117.002 28.4542C117.178 28.0323 117.389 27.6895 117.635 27.4258C117.898 27.1622 118.215 27.0303 118.584 27.0303C119.023 27.0303 119.401 27.1973 119.718 27.5313C120.034 27.8653 120.298 28.296 120.509 28.8233C120.72 29.3331 120.887 29.9131 121.01 30.5635C121.133 31.1964 121.229 31.8204 121.3 32.4356C121.37 33.0508 121.414 33.6221 121.432 34.1495C121.449 34.6768 121.458 35.0899 121.458 35.3887ZM136.246 42.0069C136.246 42.6046 136.053 43.1934 135.666 43.7735C135.297 44.336 134.822 44.8458 134.242 45.3028C133.68 45.7422 133.073 46.1026 132.423 46.3839C131.772 46.6475 131.175 46.7794 130.63 46.7794C129.698 46.7794 128.863 46.5508 128.125 46.0938C127.404 45.6192 126.798 45.0215 126.306 44.3008C125.813 43.5801 125.436 42.7891 125.172 41.9278C124.926 41.0489 124.803 40.1964 124.803 39.3702C124.803 38.4913 124.926 37.5508 125.172 36.5489C125.418 35.5469 125.787 34.6241 126.279 33.7803C126.789 32.9366 127.422 32.2335 128.178 31.671C128.951 31.1085 129.865 30.8272 130.92 30.8272C131.518 30.8272 132.089 30.9327 132.634 31.1436C133.179 31.337 133.653 31.6182 134.058 31.9874C134.462 32.3565 134.787 32.796 135.033 33.3057C135.279 33.8155 135.402 34.3868 135.402 35.0196C135.402 35.8458 135.227 36.6192 134.875 37.3399C134.523 38.0606 134.058 38.6846 133.478 39.212C132.897 39.7393 132.229 40.17 131.474 40.504C130.718 40.8204 129.944 40.9962 129.153 41.0313C129.224 41.5411 129.426 41.9102 129.76 42.1387C130.111 42.3672 130.524 42.4815 130.999 42.4815C131.351 42.4815 131.693 42.3936 132.027 42.2178C132.361 42.0421 132.687 41.8487 133.003 41.6378C133.319 41.4092 133.627 41.2071 133.926 41.0313C134.242 40.8555 134.559 40.7676 134.875 40.7676C135.227 40.7676 135.543 40.8819 135.824 41.1104C136.105 41.3389 136.246 41.6378 136.246 42.0069ZM131.975 35.5469C131.975 35.3184 131.913 35.0811 131.79 34.835C131.667 34.5889 131.474 34.4659 131.21 34.4659C130.823 34.4659 130.498 34.5714 130.234 34.7823C129.971 34.9756 129.751 35.2305 129.575 35.5469C129.399 35.8458 129.259 36.171 129.153 36.5225C129.065 36.8741 129.013 37.1993 128.995 37.4981C129.241 37.4454 129.531 37.3751 129.865 37.2872C130.217 37.1993 130.542 37.085 130.841 36.9444C131.157 36.7862 131.421 36.5928 131.632 36.3643C131.86 36.1358 131.975 35.8633 131.975 35.5469ZM150.428 33.0948C150.428 33.376 150.375 33.6749 150.27 33.9913C150.164 34.2901 150.032 34.5977 149.874 34.9141C149.716 35.2305 149.549 35.5381 149.373 35.837C149.197 36.1182 149.039 36.3819 148.898 36.628C148.547 37.1905 148.195 37.7618 147.844 38.3419C147.51 38.9219 147.167 39.4932 146.815 40.0557C146.974 40.3018 147.193 40.6446 147.475 41.084C147.756 41.5235 148.028 41.9893 148.292 42.4815C148.573 42.9561 148.811 43.4307 149.004 43.9053C149.197 44.3799 149.294 44.7842 149.294 45.1182C149.294 45.4346 149.171 45.7422 148.925 46.0411C148.679 46.3399 148.38 46.4893 148.028 46.4893C147.659 46.4893 147.281 46.3575 146.895 46.0938C146.525 45.8301 146.156 45.5225 145.787 45.171C145.436 44.8018 145.11 44.4239 144.812 44.0372C144.513 43.6329 144.258 43.2989 144.047 43.0352C143.818 43.2813 143.52 43.6153 143.15 44.0372C142.799 44.459 142.412 44.8721 141.99 45.2764C141.586 45.6807 141.182 46.0323 140.777 46.3311C140.373 46.6124 140.013 46.753 139.696 46.753C139.327 46.753 139.037 46.6212 138.826 46.3575C138.615 46.0938 138.51 45.7862 138.51 45.4346C138.51 45.0831 138.624 44.6348 138.853 44.0899C139.099 43.545 139.38 42.9825 139.696 42.4024C140.03 41.8223 140.355 41.2686 140.672 40.7413C141.006 40.2139 141.261 39.8008 141.437 39.502C141.261 39.1856 141.041 38.7725 140.777 38.2628C140.514 37.7354 140.259 37.1905 140.013 36.628C139.784 36.0479 139.582 35.4854 139.406 34.9405C139.248 34.378 139.169 33.9122 139.169 33.543C139.169 33.1387 139.292 32.8135 139.538 32.5674C139.784 32.3214 140.109 32.1983 140.514 32.1983C140.953 32.1983 141.366 32.3741 141.753 32.7256C142.14 33.0596 142.5 33.4727 142.834 33.9649C143.168 34.4395 143.458 34.9405 143.704 35.4678C143.968 35.9776 144.179 36.3995 144.337 36.7335C144.548 36.4171 144.838 35.9864 145.207 35.4415C145.594 34.8965 146.024 34.3604 146.499 33.8331C146.974 33.3057 147.466 32.8487 147.976 32.462C148.485 32.0753 148.969 31.8819 149.426 31.8819C149.725 31.8819 149.962 32.0137 150.138 32.2774C150.331 32.5235 150.428 32.796 150.428 33.0948ZM159.362 47.6495C158.114 47.6495 157.139 47.4825 156.436 47.1485C155.75 46.8321 155.231 46.3751 154.88 45.7774C154.546 45.1797 154.344 44.459 154.273 43.6153C154.203 42.7715 154.168 41.8311 154.168 40.794C154.168 39.9678 154.194 39.1417 154.247 38.3155C154.3 37.4717 154.379 36.5753 154.484 35.626C154.238 35.626 154.045 35.6348 153.904 35.6524C153.764 35.6524 153.649 35.6524 153.562 35.6524C152.999 35.6524 152.516 35.5294 152.111 35.2833C151.689 35.0372 151.479 34.6592 151.479 34.1495C151.479 33.8331 151.602 33.5518 151.848 33.3057C152.076 33.0596 152.375 32.8487 152.744 32.6729C153.113 32.4971 153.509 32.3565 153.931 32.251C154.37 32.1456 154.783 32.0753 155.17 32.0401C155.17 31.5479 155.205 31.003 155.275 30.4053C155.346 29.8077 155.469 29.254 155.645 28.7442C155.838 28.2169 156.093 27.7774 156.409 27.4258C156.726 27.0743 157.13 26.8985 157.622 26.8985C157.903 26.8985 158.149 26.9864 158.36 27.1622C158.589 27.3204 158.773 27.5313 158.914 27.795C159.055 28.0411 159.16 28.3223 159.23 28.6387C159.301 28.9551 159.336 29.2628 159.336 29.5616C159.336 29.9131 159.31 30.2735 159.257 30.6426C159.204 31.0118 159.107 31.4688 158.967 32.0137C159.266 31.9786 159.468 31.961 159.573 31.961C159.679 31.9434 159.775 31.9346 159.863 31.9346C160.162 31.9346 160.47 31.961 160.786 32.0137C161.12 32.0665 161.419 32.1544 161.683 32.2774C161.964 32.4005 162.192 32.5674 162.368 32.7784C162.544 32.9717 162.632 33.209 162.632 33.4903C162.632 33.8067 162.5 34.088 162.236 34.334C161.99 34.5801 161.674 34.7911 161.287 34.9669C160.9 35.1426 160.487 35.2833 160.048 35.3887C159.608 35.4766 159.195 35.5381 158.809 35.5733C158.703 36.294 158.624 36.962 158.571 37.5772C158.536 38.1749 158.492 38.7813 158.439 39.3965C158.404 39.6954 158.369 40.003 158.334 40.3194C158.316 40.6182 158.308 40.9258 158.308 41.2422C158.308 41.4708 158.316 41.7432 158.334 42.0596C158.352 42.3585 158.413 42.6485 158.519 42.9297C158.624 43.211 158.791 43.4571 159.02 43.668C159.248 43.8614 159.564 43.9581 159.969 43.9581C160.215 43.9581 160.47 43.9405 160.733 43.9053C160.997 43.8526 161.261 43.8262 161.524 43.8262C161.981 43.8262 162.307 43.9844 162.5 44.3008C162.711 44.6172 162.816 45.0215 162.816 45.5137C162.816 45.8829 162.702 46.2081 162.474 46.4893C162.263 46.753 161.99 46.9639 161.656 47.1221C161.322 47.2979 160.944 47.4297 160.522 47.5176C160.118 47.6055 159.731 47.6495 159.362 47.6495Z" fill="white"/>
</g>
<ellipse cx="21.352" cy="2.96057" rx="6.13529" ry="1.95339" transform="rotate(-9.7138 21.352 2.96057)" fill="white" fill-opacity="0.5"/>
</svg>
