<svg width="78" height="84" viewBox="0 0 78 84" fill="none" xmlns="http://www.w3.org/2000/svg">
    <defs>
        <filter id="filter0_dd_3_231" x="30.1924" y="30.2344" width="18.377" height="28.2324" filterUnits="userSpaceOnUse" color-interpolation-filters="sRGB">
            <feFlood flood-opacity="0" result="BackgroundImageFix"/>
            <feColorMatrix in="SourceAlpha" type="matrix" values="0 0 0 0 0 0 0 0 0 0 0 0 0 0 0 0 0 0 127 0" result="hardAlpha"/>
            <feOffset dy="4"/>
            <feGaussianBlur stdDeviation="0.5"/>
            <feComposite in2="hardAlpha" operator="out"/>
            <feColorMatrix type="matrix" values="0 0 0 0 0.992157 0 0 0 0 0.458824 0 0 0 0 0.423529 0 0 0 1 0"/>
            <feBlend mode="normal" in2="BackgroundImageFix" result="effect1_dropShadow_3_231"/>
            <feColorMatrix in="SourceAlpha" type="matrix" values="0 0 0 0 0 0 0 0 0 0 0 0 0 0 0 0 0 0 127 0" result="hardAlpha"/>
            <feOffset dy="2"/>
            <feComposite in2="hardAlpha" operator="out"/>
            <feColorMatrix type="matrix" values="0 0 0 0 0.764706 0 0 0 0 0.105882 0 0 0 0 0.054902 0 0 0 1 0"/>
            <feBlend mode="normal" in2="effect1_dropShadow_3_231" result="effect2_dropShadow_3_231"/>
            <feBlend mode="normal" in="SourceGraphic" in2="effect2_dropShadow_3_231" result="shape"/>
        </filter>
        <linearGradient id="paint0_linear_3_231" x1="39" y1="4" x2="39" y2="80" gradientUnits="userSpaceOnUse">
            <stop stop-color="#FB7A70"/>
            <stop offset="0.421875" stop-color="#FF5D51"/>
            <stop offset="1" stop-color="#F44336"/>
        </linearGradient>
        <linearGradient id="paint1_linear_3_231" x1="39" y1="4" x2="39" y2="80" gradientUnits="userSpaceOnUse">
            <stop stop-color="#FF5E52"/>
            <stop offset="0.162089" stop-color="#FA5044"/>
            <stop offset="1" stop-color="#BB1306"/>
        </linearGradient>
    </defs>

    <mask id="path-1-outside-1_3_231" maskUnits="userSpaceOnUse" x="0" y="0" width="78" height="84" fill="black">
<rect fill="white" width="78" height="84"/>
<path d="M1 41.5C1 20.7893 17.7893 4 38.5 4H39.5C60.2107 4 77 20.7893 77 41.5V42.5C77 63.2107 60.2107 80 39.5 80H38.5C17.7893 80 1 63.2107 1 42.5V41.5Z"/>
</mask>
<path d="M1 41.5C1 20.7893 17.7893 4 38.5 4H39.5C60.2107 4 77 20.7893 77 41.5V42.5C77 63.2107 60.2107 80 39.5 80H38.5C17.7893 80 1 63.2107 1 42.5V41.5Z" fill="url(#paint0_linear_3_231)"/>
<g filter="url(#filter0_dd_3_231)">
<path d="M45.1963 45.4688C45.0205 46.3477 44.7373 47.2656 44.3467 48.2227C43.9756 49.1602 43.4873 50.0195 42.8818 50.8008C42.2959 51.582 41.5928 52.2168 40.7725 52.7051C39.9521 53.2129 39.0146 53.4668 37.96 53.4668C37.1787 53.4668 36.4756 53.3105 35.8506 52.998C35.2256 52.6855 34.6592 52.2656 34.1514 51.7383C33.6436 51.2109 33.2041 50.6055 32.833 49.9219C32.4619 49.2383 32.1494 48.5352 31.8955 47.8125C31.6611 47.0703 31.4854 46.3379 31.3682 45.6152C31.251 44.8926 31.1924 44.2188 31.1924 43.5938C31.1924 42.7148 31.2705 41.7773 31.4268 40.7812C31.6025 39.7656 31.8564 38.7695 32.1885 37.793C32.5205 36.7969 32.9404 35.8496 33.4482 34.9512C33.9561 34.0332 34.5518 33.2324 35.2354 32.5488C35.9385 31.8457 36.7197 31.2891 37.5791 30.8789C38.458 30.4492 39.4346 30.2344 40.5088 30.2344C41.1924 30.2344 41.8271 30.3711 42.4131 30.6445C42.999 30.8984 43.5068 31.25 43.9365 31.6992C44.3662 32.1289 44.6982 32.6465 44.9326 33.252C45.1865 33.8574 45.3135 34.4922 45.3135 35.1562V35.4199C45.3135 35.7715 45.2939 36.2109 45.2549 36.7383C45.2354 37.2461 45.1475 37.7344 44.9912 38.2031C44.835 38.6719 44.6006 39.082 44.2881 39.4336C43.9756 39.7656 43.5361 39.9316 42.9697 39.9316C42.2861 39.9316 41.7686 39.7754 41.417 39.4629C41.0654 39.1504 40.8896 38.6328 40.8896 37.9102C40.8896 37.6367 40.8994 37.3633 40.9189 37.0898C40.9385 36.8164 40.9482 36.543 40.9482 36.2695C40.9482 35.8594 40.8799 35.5469 40.7432 35.332C40.6064 35.0977 40.3232 34.9805 39.8936 34.9805C39.4053 34.9805 38.9658 35.1367 38.5752 35.4492C38.1846 35.7617 37.8428 36.1719 37.5498 36.6797C37.2568 37.1875 37.0029 37.7637 36.7881 38.4082C36.5732 39.0527 36.3975 39.707 36.2607 40.3711C36.124 41.0156 36.0264 41.6406 35.9678 42.2461C35.9092 42.8516 35.8799 43.3691 35.8799 43.7988C35.8799 44.1504 35.8994 44.5605 35.9385 45.0293C35.9775 45.4785 36.0557 45.918 36.1729 46.3477C36.3096 46.7578 36.5049 47.1094 36.7588 47.4023C37.0127 47.6953 37.3447 47.8418 37.7549 47.8418C38.458 47.8418 39.0244 47.627 39.4541 47.1973C39.8838 46.748 40.1768 46.1816 40.333 45.498C40.0596 45.459 39.7861 45.4004 39.5127 45.3223C39.2588 45.2246 39.0146 45.0977 38.7803 44.9414C38.5654 44.7656 38.3896 44.5605 38.2529 44.3262C38.1162 44.0723 38.0479 43.7793 38.0479 43.4473C38.0479 42.8418 38.2529 42.373 38.6631 42.041C39.0732 41.6895 39.5518 41.4258 40.0986 41.25C40.665 41.0742 41.2412 40.9668 41.8271 40.9277C42.4131 40.8691 42.8818 40.8398 43.2334 40.8398C43.4873 40.8398 43.8584 40.8594 44.3467 40.8984C44.835 40.9375 45.3135 41.0254 45.7822 41.1621C46.2705 41.2793 46.6904 41.4551 47.042 41.6895C47.3936 41.9238 47.5693 42.2266 47.5693 42.5977C47.5693 43.3398 47.3643 43.9844 46.9541 44.5312C46.5635 45.0586 45.9775 45.3711 45.1963 45.4688Z" fill="white"/>
</g>
<path d="M0 38.5C0 17.237 17.237 0 38.5 0H39.5C60.763 0 78 17.237 78 38.5L76 41.5C76 22.9985 59.6584 8 39.5 8H38.5C18.3416 8 2 22.9985 2 41.5L0 38.5ZM78 45.5C78 66.763 60.763 84 39.5 84H38.5C17.237 84 0 66.763 0 45.5L2 42.5C2 61.0015 18.3416 76 38.5 76H39.5C59.6584 76 76 61.0015 76 42.5L78 45.5ZM38.5 84C17.237 84 0 66.763 0 45.5V38.5C0 17.237 17.237 0 38.5 0V8C18.3416 8 2 22.9985 2 41.5V42.5C2 61.0015 18.3416 76 38.5 76V84ZM39.5 0C60.763 0 78 17.237 78 38.5V45.5C78 66.763 60.763 84 39.5 84V76C59.6584 76 76 61.0015 76 42.5V41.5C76 22.9985 59.6584 8 39.5 8V0Z" fill="url(#paint1_linear_3_231)" mask="url(#path-1-outside-1_3_231)"/>
<ellipse cx="21.4224" cy="6.08304" rx="4.0659" ry="1.74955" transform="rotate(-20.8666 21.4224 6.08304)" fill="white" fill-opacity="0.5"/>
</svg>
