<svg width="267" height="73" viewBox="0 0 267 73" fill="none" xmlns="http://www.w3.org/2000/svg">
<path d="M2.29088 16.7489C4.9585 6.7963 14.6519 0.700195 24.9559 0.700195H242.119C252.321 0.700195 261.952 6.67341 264.623 16.5202C267.683 27.8012 267.667 37.416 264.603 48.7677C261.931 58.6656 252.273 64.7002 242.021 64.7002H24.7349C14.5426 64.7002 4.91803 58.7386 2.26243 48.8984C-0.800504 37.5488 -0.716746 27.97 2.29088 16.7489Z" fill="#C0FAC4"/>
<path d="M2.29088 24.7489C4.9585 14.7963 14.6519 8.7002 24.9559 8.7002H242.119C252.321 8.7002 261.952 14.6734 264.623 24.5202C267.683 35.8012 267.667 45.416 264.603 56.7677C261.931 66.6656 252.273 72.7002 242.021 72.7002H24.7349C14.5426 72.7002 4.91803 66.7386 2.26243 56.8984C-0.800504 45.5488 -0.716746 35.97 2.29088 24.7489Z" fill="#499254"/>
<path d="M2.29088 20.7489C4.9585 10.7963 14.6519 4.7002 24.9559 4.7002H242.119C252.321 4.7002 261.952 10.6734 264.623 20.5202C267.683 31.8012 267.667 41.416 264.603 52.7677C261.931 62.6656 252.273 68.7002 242.021 68.7002H24.7349C14.5426 68.7002 4.91803 62.7386 2.26243 52.8984C-0.800504 41.5488 -0.716746 31.97 2.29088 20.7489Z" fill="url(#paint0_linear_932_1825)"/>
<ellipse cx="21.3515" cy="2.96051" rx="6.13529" ry="1.95339" transform="rotate(-9.7138 21.3515 2.96051)" fill="white" fill-opacity="0.5"/>
<defs>
<linearGradient id="paint0_linear_932_1825" x1="133.437" y1="4.7002" x2="133.437" y2="68.7002" gradientUnits="userSpaceOnUse">
<stop stop-color="#8FF495"/>
<stop offset="0.421875" stop-color="#6CCE7D"/>
<stop offset="1" stop-color="#459F53"/>
</linearGradient>
</defs>
</svg>
