<svg width="44" height="50" viewBox="0 0 41 45" fill="none" xmlns="http://www.w3.org/2000/svg">
    <defs>
        <filter id="filter0_d_14_1720" x="0" y="0.174805" width="40.5454" height="43.8784" filterUnits="userSpaceOnUse" color-interpolation-filters="sRGB">
            <feFlood flood-opacity="0" result="BackgroundImageFix"/>
            <feColorMatrix in="SourceAlpha" type="matrix" values="0 0 0 0 0 0 0 0 0 0 0 0 0 0 0 0 0 0 127 0" result="hardAlpha"/>
            <feOffset dy="4"/>
            <feGaussianBlur stdDeviation="2"/>
            <feComposite in2="hardAlpha" operator="out"/>
            <feColorMatrix type="matrix" values="0 0 0 0 0 0 0 0 0 0 0 0 0 0 0 0 0 0 0.25 0"/>
            <feBlend mode="normal" in2="BackgroundImageFix" result="effect1_dropShadow_14_1720"/>
            <feBlend mode="normal" in="SourceGraphic" in2="effect1_dropShadow_14_1720" result="shape"/>
        </filter>
        <filter id="filter1_d_14_1720" x="12.2729" y="10.1138" width="15.9995" height="16.9995" filterUnits="userSpaceOnUse" color-interpolation-filters="sRGB">
            <feFlood flood-opacity="0" result="BackgroundImageFix"/>
            <feColorMatrix in="SourceAlpha" type="matrix" values="0 0 0 0 0 0 0 0 0 0 0 0 0 0 0 0 0 0 127 0" result="hardAlpha"/>
            <feOffset dy="1"/>
            <feComposite in2="hardAlpha" operator="out"/>
            <feColorMatrix type="matrix" values="0 0 0 0 0 0 0 0 0 0 0 0 0 0 0 0 0 0 0.28 0"/>
            <feBlend mode="normal" in2="BackgroundImageFix" result="effect1_dropShadow_14_1720"/>
            <feBlend mode="normal" in="SourceGraphic" in2="effect1_dropShadow_14_1720" result="shape"/>
        </filter>
        <linearGradient id="paint0_linear_14_1720" x1="20.2727" y1="4.1748" x2="20.2727" y2="32.0531" gradientUnits="userSpaceOnUse">
            <stop stop-color="#6BBE78"/>
            <stop offset="0.421875" stop-color="#8CE79A"/>
            <stop offset="1" stop-color="#6BBE78"/>
        </linearGradient>
        <linearGradient id="paint1_linear_14_1720" x1="20.2727" y1="4.1748" x2="20.2727" y2="32.0531" gradientUnits="userSpaceOnUse">
            <stop stop-color="#73ED86"/>
            <stop offset="0.453125" stop-color="#61C971"/>
            <stop offset="1" stop-color="#228531"/>
        </linearGradient>
    </defs>

    <g filter="url(#filter0_d_14_1720)">
<mask id="path-1-outside-1_14_1720" maskUnits="userSpaceOnUse" x="4" y="0.174805" width="33" height="36" fill="black">
<rect fill="white" x="4" y="0.174805" width="33" height="36"/>
<path d="M5 18.114C5 10.4156 11.2408 4.1748 18.9392 4.1748H21.6063C29.3047 4.1748 35.5455 10.4156 35.5455 18.114V18.114C35.5455 25.8123 29.3047 32.0531 21.6063 32.0531H18.9392C11.2408 32.0531 5 25.8123 5 18.114V18.114Z"/>
</mask>
<path d="M5 18.114C5 10.4156 11.2408 4.1748 18.9392 4.1748H21.6063C29.3047 4.1748 35.5455 10.4156 35.5455 18.114V18.114C35.5455 25.8123 29.3047 32.0531 21.6063 32.0531H18.9392C11.2408 32.0531 5 25.8123 5 18.114V18.114Z" fill="url(#paint0_linear_14_1720)" shape-rendering="crispEdges"/>
<g filter="url(#filter1_d_14_1720)">
<path fill-rule="evenodd" clip-rule="evenodd" d="M21.7627 11.2838C21.3827 9.72377 19.1627 9.72377 18.7827 11.2838C18.726 11.5182 18.6147 11.7359 18.4579 11.9192C18.3012 12.1025 18.1033 12.2462 17.8805 12.3385C17.6578 12.4309 17.4163 12.4694 17.1758 12.4509C16.9354 12.4323 16.7027 12.3572 16.4967 12.2318C15.1247 11.3958 13.5547 12.9658 14.3907 14.3378C14.9307 15.2238 14.4517 16.3798 13.4437 16.6248C11.8827 17.0038 11.8827 19.2248 13.4437 19.6028C13.6782 19.6596 13.8959 19.771 14.0792 19.9278C14.2625 20.0847 14.4061 20.2827 14.4984 20.5056C14.5907 20.7285 14.6291 20.9701 14.6104 21.2106C14.5916 21.4511 14.5164 21.6838 14.3907 21.8898C13.5547 23.2618 15.1247 24.8318 16.4967 23.9958C16.7026 23.8701 16.9354 23.7948 17.1759 23.7761C17.4164 23.7574 17.658 23.7957 17.8809 23.888C18.1038 23.9803 18.3017 24.124 18.4586 24.3073C18.6155 24.4905 18.7269 24.7083 18.7837 24.9428C19.1627 26.5038 21.3837 26.5038 21.7617 24.9428C21.8187 24.7084 21.9302 24.4908 22.0871 24.3077C22.244 24.1245 22.4419 23.9809 22.6648 23.8887C22.8876 23.7964 23.1291 23.758 23.3696 23.7766C23.61 23.7952 23.8427 23.8703 24.0487 23.9958C25.4207 24.8318 26.9907 23.2618 26.1547 21.8898C26.0292 21.6838 25.9542 21.4511 25.9355 21.2106C25.9169 20.9702 25.9553 20.7287 26.0476 20.5059C26.1399 20.283 26.2834 20.0851 26.4666 19.9282C26.6497 19.7713 26.8673 19.6598 27.1017 19.6028C28.6627 19.2238 28.6627 17.0028 27.1017 16.6248C26.8672 16.568 26.6495 16.4566 26.4662 16.2997C26.2829 16.1428 26.1393 15.9449 26.047 15.7219C25.9547 15.499 25.9163 15.2575 25.935 15.017C25.9538 14.7764 26.029 14.5437 26.1547 14.3378C26.9907 12.9658 25.4207 11.3958 24.0487 12.2318C23.8428 12.3575 23.61 12.4327 23.3695 12.4514C23.129 12.4702 22.8874 12.4318 22.6645 12.3395C22.4416 12.2472 22.2437 12.1036 22.0868 11.9203C21.9299 11.737 21.8185 11.5192 21.7617 11.2848L21.7627 11.2838ZM20.2727 21.1138C21.0683 21.1138 21.8314 20.7977 22.394 20.2351C22.9566 19.6725 23.2727 18.9094 23.2727 18.1138C23.2727 17.3181 22.9566 16.5551 22.394 15.9924C21.8314 15.4298 21.0683 15.1138 20.2727 15.1138C19.477 15.1138 18.714 15.4298 18.1514 15.9924C17.5888 16.5551 17.2727 17.3181 17.2727 18.1138C17.2727 18.9094 17.5888 19.6725 18.1514 20.2351C18.714 20.7977 19.477 21.1138 20.2727 21.1138Z" fill="white"/>
</g>
<path d="M4 15.114C4 6.86329 10.6885 0.174805 18.9392 0.174805H21.6063C29.857 0.174805 36.5455 6.86329 36.5455 15.114L34.5455 18.114C34.5455 12.6247 28.7524 8.1748 21.6063 8.1748H18.9392C11.7931 8.1748 6 12.6247 6 18.114L4 15.114ZM36.5455 21.114C36.5455 29.3646 29.857 36.0531 21.6063 36.0531H18.9392C10.6885 36.0531 4 29.3646 4 21.114L6 18.114C6 23.6032 11.7931 28.0531 18.9392 28.0531H21.6063C28.7524 28.0531 34.5455 23.6032 34.5455 18.114L36.5455 21.114ZM18.9392 36.0531C10.6885 36.0531 4 29.3646 4 21.114V15.114C4 6.86329 10.6885 0.174805 18.9392 0.174805V8.1748C11.7931 8.1748 6 12.6247 6 18.114C6 23.6032 11.7931 28.0531 18.9392 28.0531V36.0531ZM21.6063 0.174805C29.857 0.174805 36.5455 6.86329 36.5455 15.114V21.114C36.5455 29.3646 29.857 36.0531 21.6063 36.0531V28.0531C28.7524 28.0531 34.5455 23.6032 34.5455 18.114C34.5455 12.6247 28.7524 8.1748 21.6063 8.1748V0.174805Z" fill="url(#paint1_linear_14_1720)" mask="url(#path-1-outside-1_14_1720)"/>
</g>
<ellipse rx="2.30246" ry="1.0878" transform="matrix(0.944472 -0.328591 0.385399 0.92275 12.3915 4.76039)" fill="white" fill-opacity="0.5"/>
</svg>
