<svg width="30" height="30" viewBox="0 0 30 30" fill="none" xmlns="http://www.w3.org/2000/svg">
<path fill-rule="evenodd" clip-rule="evenodd" d="M10.9392 22.0596C10.658 21.7784 10.5 21.3969 10.5 20.9991C10.5 20.6014 10.658 20.2199 10.9392 19.9386L15.8787 14.9991L10.9392 10.0596C10.6659 9.77674 10.5148 9.39784 10.5182 9.00454C10.5216 8.61125 10.6793 8.23503 10.9575 7.95692C11.2356 7.67881 11.6118 7.52105 12.0051 7.51763C12.3984 7.51422 12.7773 7.66541 13.0602 7.93865L19.0602 13.9386C19.3414 14.2199 19.4994 14.6014 19.4994 14.9991C19.4994 15.3969 19.3414 15.7784 19.0602 16.0596L13.0602 22.0596C12.7789 22.3409 12.3974 22.4988 11.9997 22.4988C11.6019 22.4988 11.2205 22.3409 10.9392 22.0596Z" fill="#5EBB64"/>
</svg>
