<svg width="20" height="20" viewBox="0 0 20 20" fill="none" xmlns="http://www.w3.org/2000/svg">
<path d="M6.66536 5.83333V12.5C6.66536 12.942 6.84096 13.366 7.15352 13.6785C7.46608 13.9911 7.89 14.1667 8.33203 14.1667H13.332M6.66536 5.83333V4.16667C6.66536 3.72464 6.84096 3.30072 7.15352 2.98816C7.46608 2.67559 7.89 2.5 8.33203 2.5H12.1537C12.3747 2.50005 12.5866 2.58788 12.7429 2.74417L16.4212 6.4225C16.5775 6.57874 16.6653 6.79067 16.6654 7.01167V12.5C16.6654 12.942 16.4898 13.366 16.1772 13.6785C15.8646 13.9911 15.4407 14.1667 14.9987 14.1667H13.332M6.66536 5.83333H4.9987C4.55667 5.83333 4.13275 6.00893 3.82019 6.32149C3.50763 6.63405 3.33203 7.05797 3.33203 7.5V15.8333C3.33203 16.2754 3.50763 16.6993 3.82019 17.0118C4.13275 17.3244 4.55667 17.5 4.9987 17.5H11.6654C12.1074 17.5 12.5313 17.3244 12.8439 17.0118C13.1564 16.6993 13.332 16.2754 13.332 15.8333V14.1667" stroke="white" stroke-linecap="round" stroke-linejoin="round"/>
</svg>
