<svg width="33" height="37" viewBox="0 0 33 37" fill="none" xmlns="http://www.w3.org/2000/svg">
    <defs>
        <filter id="filter0_d_655_728" x="8.27344" y="10.1138" width="15.9995" height="16.9995" filterUnits="userSpaceOnUse" color-interpolation-filters="sRGB">
            <feFlood flood-opacity="0" result="BackgroundImageFix"/>
            <feColorMatrix in="SourceAlpha" type="matrix" values="0 0 0 0 0 0 0 0 0 0 0 0 0 0 0 0 0 0 127 0" result="hardAlpha"/>
            <feOffset dy="1"/>
            <feComposite in2="hardAlpha" operator="out"/>
            <feColorMatrix type="matrix" values="0 0 0 0 0 0 0 0 0 0 0 0 0 0 0 0 0 0 0.28 0"/>
            <feBlend mode="normal" in2="BackgroundImageFix" result="effect1_dropShadow_655_728"/>
            <feBlend mode="normal" in="SourceGraphic" in2="effect1_dropShadow_655_728" result="shape"/>
        </filter>
        <linearGradient id="paint0_linear_655_728" x1="16.2727" y1="4.1748" x2="16.2727" y2="32.0531" gradientUnits="userSpaceOnUse">
            <stop stop-color="#6BBE78"/>
            <stop offset="0.421875" stop-color="#8CE79A"/>
            <stop offset="1" stop-color="#6BBE78"/>
        </linearGradient>
        <linearGradient id="paint1_linear_655_728" x1="16.2727" y1="4.1748" x2="16.2727" y2="32.0531" gradientUnits="userSpaceOnUse">
            <stop stop-color="#73ED86"/>
            <stop offset="0.453125" stop-color="#61C971"/>
            <stop offset="1" stop-color="#228531"/>
        </linearGradient>
    </defs>

    <mask id="path-1-outside-1_655_728" maskUnits="userSpaceOnUse" x="0" y="0.174805" width="33" height="36" fill="black">
<rect fill="white" y="0.174805" width="33" height="36"/>
<path d="M1 18.114C1 10.4156 7.24077 4.1748 14.9392 4.1748H17.6063C25.3047 4.1748 31.5455 10.4156 31.5455 18.114C31.5455 25.8123 25.3047 32.0531 17.6063 32.0531H14.9392C7.24077 32.0531 1 25.8123 1 18.114Z"/>
</mask>
<path d="M1 18.114C1 10.4156 7.24077 4.1748 14.9392 4.1748H17.6063C25.3047 4.1748 31.5455 10.4156 31.5455 18.114C31.5455 25.8123 25.3047 32.0531 17.6063 32.0531H14.9392C7.24077 32.0531 1 25.8123 1 18.114Z" fill="url(#paint0_linear_655_728)"/>
<g filter="url(#filter0_d_655_728)">
<path fill-rule="evenodd" clip-rule="evenodd" d="M17.7632 11.2838C17.3832 9.72377 15.1632 9.72377 14.7832 11.2838C14.7265 11.5182 14.6152 11.7359 14.4584 11.9192C14.3016 12.1025 14.1038 12.2462 13.881 12.3385C13.6582 12.4309 13.4168 12.4694 13.1763 12.4509C12.9359 12.4323 12.7032 12.3572 12.4972 12.2318C11.1252 11.3958 9.55519 12.9658 10.3912 14.3378C10.9312 15.2238 10.4522 16.3798 9.44419 16.6248C7.88319 17.0038 7.88319 19.2248 9.44419 19.6028C9.67867 19.6596 9.89641 19.771 10.0797 19.9278C10.263 20.0847 10.4066 20.2827 10.4989 20.5056C10.5912 20.7285 10.6296 20.9701 10.6109 21.2106C10.5921 21.4511 10.5169 21.6838 10.3912 21.8898C9.55519 23.2618 11.1252 24.8318 12.4972 23.9958C12.7031 23.8701 12.9358 23.7948 13.1764 23.7761C13.4169 23.7574 13.6585 23.7957 13.8814 23.888C14.1043 23.9803 14.3022 24.124 14.4591 24.3073C14.616 24.4905 14.7274 24.7083 14.7842 24.9428C15.1632 26.5038 17.3842 26.5038 17.7622 24.9428C17.8192 24.7084 17.9307 24.4908 18.0876 24.3077C18.2445 24.1245 18.4424 23.9809 18.6653 23.8887C18.8881 23.7964 19.1296 23.758 19.37 23.7766C19.6105 23.7952 19.8432 23.8703 20.0492 23.9958C21.4212 24.8318 22.9912 23.2618 22.1552 21.8898C22.0297 21.6838 21.9546 21.4511 21.936 21.2106C21.9174 20.9702 21.9558 20.7287 22.0481 20.5059C22.1404 20.283 22.2839 20.0851 22.4671 19.9282C22.6502 19.7713 22.8678 19.6598 23.1022 19.6028C24.6632 19.2238 24.6632 17.0028 23.1022 16.6248C22.8677 16.568 22.65 16.4566 22.4667 16.2997C22.2834 16.1428 22.1397 15.9449 22.0474 15.7219C21.9551 15.499 21.9168 15.2575 21.9355 15.017C21.9542 14.7764 22.0295 14.5437 22.1552 14.3378C22.9912 12.9658 21.4212 11.3958 20.0492 12.2318C19.8432 12.3575 19.6105 12.4327 19.37 12.4514C19.1295 12.4702 18.8879 12.4318 18.665 12.3395C18.4421 12.2472 18.2441 12.1036 18.0873 11.9203C17.9304 11.737 17.819 11.5192 17.7622 11.2848L17.7632 11.2838ZM16.2732 21.1138C17.0688 21.1138 17.8319 20.7977 18.3945 20.2351C18.9571 19.6725 19.2732 18.9094 19.2732 18.1138C19.2732 17.3181 18.9571 16.5551 18.3945 15.9924C17.8319 15.4298 17.0688 15.1138 16.2732 15.1138C15.4775 15.1138 14.7145 15.4298 14.1519 15.9924C13.5893 16.5551 13.2732 17.3181 13.2732 18.1138C13.2732 18.9094 13.5893 19.6725 14.1519 20.2351C14.7145 20.7977 15.4775 21.1138 16.2732 21.1138Z" fill="white"/>
</g>
<path d="M0 15.114C0 6.86329 6.68849 0.174805 14.9392 0.174805H17.6063C25.857 0.174805 32.5455 6.86329 32.5455 15.114L30.5455 18.114C30.5455 12.6247 24.7524 8.1748 17.6063 8.1748H14.9392C7.79306 8.1748 2 12.6247 2 18.114L0 15.114ZM32.5455 21.114C32.5455 29.3646 25.857 36.0531 17.6063 36.0531H14.9392C6.68849 36.0531 0 29.3646 0 21.114L2 18.114C2 23.6032 7.79306 28.0531 14.9392 28.0531H17.6063C24.7524 28.0531 30.5455 23.6032 30.5455 18.114L32.5455 21.114ZM14.9392 36.0531C6.68849 36.0531 0 29.3646 0 21.114V15.114C0 6.86329 6.68849 0.174805 14.9392 0.174805V8.1748C7.79306 8.1748 2 12.6247 2 18.114C2 23.6032 7.79306 28.0531 14.9392 28.0531V36.0531ZM17.6063 0.174805C25.857 0.174805 32.5455 6.86329 32.5455 15.114V21.114C32.5455 29.3646 25.857 36.0531 17.6063 36.0531V28.0531C24.7524 28.0531 30.5455 23.6032 30.5455 18.114C30.5455 12.6247 24.7524 8.1748 17.6063 8.1748V0.174805Z" fill="url(#paint1_linear_655_728)" mask="url(#path-1-outside-1_655_728)"/>
<ellipse rx="2.30246" ry="1.0878" transform="matrix(0.944472 -0.328591 0.385399 0.92275 8.3917 4.76039)" fill="white" fill-opacity="0.5"/>
</svg>
