<svg width="44" height="50" viewBox="0 0 33 37" fill="none" xmlns="http://www.w3.org/2000/svg">
    <defs>
        <linearGradient id="paint0_linear_14_1711" x1="16.2727" y1="4.1748" x2="16.2727" y2="32.0531" gradientUnits="userSpaceOnUse">
            <stop stop-color="#FFC722"/>
            <stop offset="0.421875" stop-color="#EBC75C"/>
            <stop offset="1" stop-color="#FACB41"/>
        </linearGradient>
        <linearGradient id="paint1_linear_14_1711" x1="16.2727" y1="4.1748" x2="16.2727" y2="32.0531" gradientUnits="userSpaceOnUse">
            <stop stop-color="#FFFE74"/>
            <stop offset="0.21875" stop-color="#FED65C"/>
            <stop offset="1" stop-color="#C19100"/>
        </linearGradient>
        <clipPath id="clip0_14_1711">
            <rect width="20" height="20" fill="white" transform="translate(6 8)"/>
        </clipPath>
    </defs>

    <mask id="path-1-outside-1_14_1711" maskUnits="userSpaceOnUse" x="0" y="0.174805" width="33" height="36" fill="black">
<rect fill="white" y="0.174805" width="33" height="36"/>
<path d="M1 18.114C1 10.4156 7.24077 4.1748 14.9392 4.1748H17.6063C25.3047 4.1748 31.5455 10.4156 31.5455 18.114C31.5455 25.8123 25.3047 32.0531 17.6063 32.0531H14.9392C7.24077 32.0531 1 25.8123 1 18.114Z"/>
</mask>
<path d="M1 18.114C1 10.4156 7.24077 4.1748 14.9392 4.1748H17.6063C25.3047 4.1748 31.5455 10.4156 31.5455 18.114C31.5455 25.8123 25.3047 32.0531 17.6063 32.0531H14.9392C7.24077 32.0531 1 25.8123 1 18.114Z" fill="url(#paint0_linear_14_1711)"/>
<path d="M0 15.114C0 6.86329 6.68849 0.174805 14.9392 0.174805H17.6063C25.857 0.174805 32.5455 6.86329 32.5455 15.114L30.5455 18.114C30.5455 12.6247 24.7524 8.1748 17.6063 8.1748H14.9392C7.79306 8.1748 2 12.6247 2 18.114L0 15.114ZM32.5455 21.114C32.5455 29.3646 25.857 36.0531 17.6063 36.0531H14.9392C6.68849 36.0531 0 29.3646 0 21.114L2 18.114C2 23.6032 7.79306 28.0531 14.9392 28.0531H17.6063C24.7524 28.0531 30.5455 23.6032 30.5455 18.114L32.5455 21.114ZM14.9392 36.0531C6.68849 36.0531 0 29.3646 0 21.114V15.114C0 6.86329 6.68849 0.174805 14.9392 0.174805V8.1748C7.79306 8.1748 2 12.6247 2 18.114C2 23.6032 7.79306 28.0531 14.9392 28.0531V36.0531ZM17.6063 0.174805C25.857 0.174805 32.5455 6.86329 32.5455 15.114V21.114C32.5455 29.3646 25.857 36.0531 17.6063 36.0531V28.0531C24.7524 28.0531 30.5455 23.6032 30.5455 18.114C30.5455 12.6247 24.7524 8.1748 17.6063 8.1748V0.174805Z" fill="url(#paint1_linear_14_1711)" mask="url(#path-1-outside-1_14_1711)"/>
<ellipse rx="2.30246" ry="1.0878" transform="matrix(0.944472 -0.328591 0.385399 0.92275 8.39146 4.76039)" fill="white" fill-opacity="0.8"/>
<g clip-path="url(#clip0_14_1711)">
<path d="M12.8938 14.439C12.8938 13.7759 13.2011 13.14 13.7481 12.6712C14.2951 12.2024 15.0369 11.939 15.8105 11.939H16.6438C17.4173 11.939 18.1592 12.2024 18.7062 12.6712C19.2532 13.14 19.5605 13.7759 19.5605 14.439C19.5912 14.98 19.4452 15.5164 19.1446 15.9673C18.844 16.4182 18.405 16.7592 17.8938 16.939C17.3826 17.1787 16.9436 17.6333 16.643 18.2345C16.3424 18.8357 16.1964 19.5509 16.2271 20.2723" stroke="white" stroke-width="3" stroke-linecap="round" stroke-linejoin="round"/>
<path d="M16.2271 24.5V23.6143" stroke="white" stroke-width="3" stroke-linecap="round" stroke-linejoin="round"/>
</g>
</svg>
