<svg width="44" height="50" viewBox="0 0 44 50" fill="none" xmlns="http://www.w3.org/2000/svg">
    <defs>
        <linearGradient id="paint0_linear_3_762" x1="21.7273" y1="4.54547" x2="21.7273" y2="46" gradientUnits="userSpaceOnUse">
            <stop stop-color="#FB7A70"/>
            <stop offset="0.421875" stop-color="#FF5D51"/>
            <stop offset="1" stop-color="#F44336"/>
        </linearGradient>
        <linearGradient id="paint1_linear_3_762" x1="21.7273" y1="4.54547" x2="21.7273" y2="46" gradientUnits="userSpaceOnUse">
            <stop stop-color="#FF5E52"/>
            <stop offset="0.162089" stop-color="#FA5044"/>
            <stop offset="1" stop-color="#BB1306"/>
        </linearGradient>
        <clipPath id="clip0_3_762">
            <rect width="24" height="24" fill="white" transform="translate(9.72729 13.2728)"/>
        </clipPath>
    </defs>

    <mask id="path-1-outside-1_3_762" maskUnits="userSpaceOnUse" x="0" y="0.545471" width="44" height="50" fill="black">
<rect fill="white" y="0.545471" width="44" height="50"/>
<path d="M1 25.2727C1 13.8254 10.2799 4.54547 21.7273 4.54547C33.1746 4.54547 42.4545 13.8254 42.4545 25.2727C42.4545 36.7201 33.1746 46 21.7273 46C10.2799 46 1 36.7201 1 25.2727Z"/>
</mask>
<path d="M1 25.2727C1 13.8254 10.2799 4.54547 21.7273 4.54547C33.1746 4.54547 42.4545 13.8254 42.4545 25.2727C42.4545 36.7201 33.1746 46 21.7273 46C10.2799 46 1 36.7201 1 25.2727Z" fill="url(#paint0_linear_3_762)"/>
<g clip-path="url(#clip0_3_762)">
<path d="M17.9998 21C17.9998 20.2044 18.3685 19.4413 19.0249 18.8787C19.6813 18.3161 20.5715 18 21.4998 18H22.4998C23.428 18 24.3183 18.3161 24.9746 18.8787C25.631 19.4413 25.9998 20.2044 25.9998 21C26.0366 21.6493 25.8614 22.2929 25.5007 22.834C25.14 23.3751 24.6132 23.7843 23.9998 24C23.3863 24.2876 22.8595 24.8333 22.4988 25.5547C22.1381 26.2761 21.9629 27.1343 21.9998 28" stroke="white" stroke-width="4" stroke-linecap="round" stroke-linejoin="round"/>
<path d="M21.9998 32V32.01" stroke="white" stroke-width="3" stroke-linecap="round" stroke-linejoin="round"/>
</g>
<path d="M0 22.2727C0 10.2731 9.72763 0.545471 21.7273 0.545471C33.7269 0.545471 43.4545 10.2731 43.4545 22.2727L41.4545 25.2727C41.4545 16.0345 32.6223 8.54547 21.7273 8.54547C10.8322 8.54547 2 16.0345 2 25.2727L0 22.2727ZM43.4545 28.2727C43.4545 40.2724 33.7269 50 21.7273 50C9.72763 50 0 40.2724 0 28.2727L2 25.2727C2 34.511 10.8322 42 21.7273 42C32.6223 42 41.4545 34.511 41.4545 25.2727L43.4545 28.2727ZM21.7273 50C9.72763 50 0 40.2724 0 28.2727V22.2727C0 10.2731 9.72763 0.545471 21.7273 0.545471V8.54547C10.8322 8.54547 2 16.0345 2 25.2727C2 34.511 10.8322 42 21.7273 42V50ZM21.7273 0.545471C33.7269 0.545471 43.4545 10.2731 43.4545 22.2727V28.2727C43.4545 40.2724 33.7269 50 21.7273 50V42C32.6223 42 41.4545 34.511 41.4545 25.2727C41.4545 16.0345 32.6223 8.54547 21.7273 8.54547V0.545471Z" fill="url(#paint1_linear_3_762)" mask="url(#path-1-outside-1_3_762)"/>
<ellipse cx="12.1395" cy="5.68165" rx="2.21777" ry="0.954302" transform="rotate(-20.8666 12.1395 5.68165)" fill="white" fill-opacity="0.5"/>
</svg>
