<svg width="26" height="26" viewBox="0 0 26 26" fill="none" xmlns="http://www.w3.org/2000/svg">
<g filter="url(#filter0_i_962_2902)">
<path fill-rule="evenodd" clip-rule="evenodd" d="M12.1977 3.99946C12.4352 4.09792 12.6382 4.2646 12.7809 4.47841C12.9237 4.69222 12.9999 4.94356 12.9998 5.20066V20.8007C12.9997 21.0577 12.9235 21.309 12.7806 21.5228C12.6378 21.7365 12.4348 21.9031 12.1973 22.0014C11.9597 22.0998 11.6984 22.1256 11.4463 22.0754C11.1941 22.0253 10.9625 21.9015 10.7807 21.7198L5.9616 16.9007H2.5998C2.25502 16.9007 1.92436 16.7637 1.68057 16.5199C1.43677 16.2761 1.2998 15.9454 1.2998 15.6007V10.4007C1.2998 10.0559 1.43677 9.72522 1.68057 9.48142C1.92436 9.23762 2.25502 9.10066 2.5998 9.10066H5.9616L10.7807 4.28156C10.9625 4.09964 11.1942 3.97574 11.4464 3.92553C11.6986 3.87531 11.9601 3.90104 12.1977 3.99946ZM19.0539 3.80836C19.2977 3.56464 19.6283 3.42773 19.973 3.42773C20.3177 3.42773 20.6483 3.56464 20.8921 3.80836C22.1009 5.0143 23.0595 6.44717 23.713 8.02466C24.3664 9.60215 24.7018 11.2932 24.6998 13.0007C24.7018 14.7081 24.3664 16.3992 23.713 17.9767C23.0595 19.5541 22.1009 20.987 20.8921 22.193C20.6469 22.4298 20.3185 22.5608 19.9777 22.5578C19.6368 22.5549 19.3108 22.4182 19.0697 22.1771C18.8287 21.9361 18.692 21.61 18.689 21.2692C18.6861 20.9283 18.8171 20.5999 19.0539 20.3548C20.0213 19.3902 20.7884 18.2439 21.3112 16.9818C21.8339 15.7197 22.1019 14.3667 22.0998 13.0007C22.0998 10.1277 20.9376 7.53026 19.0539 5.64656C18.8102 5.40277 18.6733 5.07217 18.6733 4.72746C18.6733 4.38274 18.8102 4.05214 19.0539 3.80836ZM15.3762 7.48476C15.4969 7.36389 15.6403 7.268 15.7981 7.20258C15.9559 7.13716 16.1251 7.10348 16.296 7.10348C16.4668 7.10348 16.636 7.13716 16.7938 7.20258C16.9516 7.268 17.095 7.36389 17.2157 7.48476C17.941 8.20842 18.5161 9.06824 18.9081 10.0148C19.3 10.9614 19.5011 11.9761 19.4998 13.0007C19.5011 14.0252 19.2999 15.0399 18.908 15.9864C18.516 16.933 17.9409 17.7928 17.2157 18.5166C16.9718 18.7605 16.6409 18.8975 16.296 18.8975C15.951 18.8975 15.6201 18.7605 15.3762 18.5166C15.1323 18.2726 14.9952 17.9418 14.9952 17.5968C14.9952 17.2518 15.1323 16.921 15.3762 16.6771C15.86 16.195 16.2437 15.622 16.5052 14.991C16.7667 14.3601 16.9008 13.6836 16.8998 13.0007C16.9009 12.3177 16.7668 11.6412 16.5053 11.0102C16.2438 10.3793 15.8601 9.80628 15.3762 9.32426C15.2553 9.20352 15.1594 9.06015 15.094 8.90233C15.0286 8.74451 14.9949 8.57535 14.9949 8.40451C14.9949 8.23367 15.0286 8.0645 15.094 7.90668C15.1594 7.74887 15.2553 7.60549 15.3762 7.48476Z" fill="#532102"/>
</g>
<defs>
<filter id="filter0_i_962_2902" x="1.2998" y="3.42773" width="23.4004" height="19.1309" filterUnits="userSpaceOnUse" color-interpolation-filters="sRGB">
<feFlood flood-opacity="0" result="BackgroundImageFix"/>
<feBlend mode="normal" in="SourceGraphic" in2="BackgroundImageFix" result="shape"/>
<feColorMatrix in="SourceAlpha" type="matrix" values="0 0 0 0 0 0 0 0 0 0 0 0 0 0 0 0 0 0 127 0" result="hardAlpha"/>
<feOffset/>
<feGaussianBlur stdDeviation="0.5"/>
<feComposite in2="hardAlpha" operator="arithmetic" k2="-1" k3="1"/>
<feColorMatrix type="matrix" values="0 0 0 0 0.0541667 0 0 0 0 0.0208698 0 0 0 0 0.000225693 0 0 0 1 0"/>
<feBlend mode="normal" in2="shape" result="effect1_innerShadow_962_2902"/>
</filter>
</defs>
</svg>
