<svg width="26" height="26" viewBox="0 0 26 26" fill="none" xmlns="http://www.w3.org/2000/svg">
<g filter="url(#filter0_i_962_2904)">
<path d="M23.3996 3.90078C23.3995 3.70852 23.3567 3.51868 23.2744 3.34494C23.1921 3.17119 23.0723 3.01787 22.9235 2.89602C22.7748 2.77416 22.601 2.68681 22.4144 2.64025C22.2279 2.5937 22.0333 2.58909 21.8448 2.62678L8.84481 5.22678C8.55022 5.28566 8.28511 5.44476 8.09456 5.67701C7.90402 5.90927 7.79979 6.20036 7.79961 6.50078V18.349C7.37343 18.2497 6.9372 18.1999 6.49961 18.2008C4.34551 18.2008 2.59961 19.3643 2.59961 20.8008C2.59961 22.2373 4.34551 23.4008 6.49961 23.4008C8.65371 23.4008 10.3996 22.2373 10.3996 20.8008V10.1668L20.7996 8.08678V15.749C20.3734 15.6497 19.9372 15.5999 19.4996 15.6008C17.3455 15.6008 15.5996 16.7643 15.5996 18.2008C15.5996 19.6373 17.3455 20.8008 19.4996 20.8008C21.6537 20.8008 23.3996 19.6373 23.3996 18.2008V3.90078Z" fill="#532102"/>
</g>
<defs>
<filter id="filter0_i_962_2904" x="2.59961" y="2.60156" width="20.7998" height="20.7988" filterUnits="userSpaceOnUse" color-interpolation-filters="sRGB">
<feFlood flood-opacity="0" result="BackgroundImageFix"/>
<feBlend mode="normal" in="SourceGraphic" in2="BackgroundImageFix" result="shape"/>
<feColorMatrix in="SourceAlpha" type="matrix" values="0 0 0 0 0 0 0 0 0 0 0 0 0 0 0 0 0 0 127 0" result="hardAlpha"/>
<feOffset/>
<feGaussianBlur stdDeviation="0.5"/>
<feComposite in2="hardAlpha" operator="arithmetic" k2="-1" k3="1"/>
<feColorMatrix type="matrix" values="0 0 0 0 0.054902 0 0 0 0 0.0196078 0 0 0 0 0 0 0 0 1 0"/>
<feBlend mode="normal" in2="shape" result="effect1_innerShadow_962_2904"/>
</filter>
</defs>
</svg>
