<svg width="148" height="53" viewBox="0 0 148 53" fill="none" xmlns="http://www.w3.org/2000/svg">
    <defs>
        <filter id="filter0_dd_3_2915" x="32.5635" y="18.3054" width="83.0576" height="18.5303" filterUnits="userSpaceOnUse" color-interpolation-filters="sRGB">
            <feFlood flood-opacity="0" result="BackgroundImageFix"/>
            <feColorMatrix in="SourceAlpha" type="matrix" values="0 0 0 0 0 0 0 0 0 0 0 0 0 0 0 0 0 0 127 0" result="hardAlpha"/>
            <feOffset dy="2"/>
            <feGaussianBlur stdDeviation="0.5"/>
            <feComposite in2="hardAlpha" operator="out"/>
            <feColorMatrix type="matrix" values="0 0 0 0 0.725 0 0 0 0 0.0604166 0 0 0 0 0.180042 0 0 0 1 0"/>
            <feBlend mode="normal" in2="BackgroundImageFix" result="effect1_dropShadow_3_2915"/>
            <feColorMatrix in="SourceAlpha" type="matrix" values="0 0 0 0 0 0 0 0 0 0 0 0 0 0 0 0 0 0 127 0" result="hardAlpha"/>
            <feOffset dy="1"/>
            <feComposite in2="hardAlpha" operator="out"/>
            <feColorMatrix type="matrix" values="0 0 0 0 0.901961 0 0 0 0 0.0117647 0 0 0 0 0.0117647 0 0 0 1 0"/>
            <feBlend mode="normal" in2="effect1_dropShadow_3_2915" result="effect2_dropShadow_3_2915"/>
            <feBlend mode="normal" in="SourceGraphic" in2="effect2_dropShadow_3_2915" result="shape"/>
        </filter>
        <linearGradient id="paint0_linear_3_2915" x1="73.9651" y1="2.93628" x2="73.9651" y2="49.9176" gradientUnits="userSpaceOnUse">
            <stop stop-color="#FB7A70"/>
            <stop offset="0.427083" stop-color="#FF5D51"/>
            <stop offset="1" stop-color="#FF5E52"/>
        </linearGradient>
    </defs>

    <path d="M0.276835 18.234C1.39512 7.14737 11.9822 0 23.1251 0H124.978C136.038 0 146.572 7.04324 147.678 18.0476C148.044 21.6823 148.04 25.1967 147.669 28.8431C146.547 39.8867 135.994 46.9813 124.893 46.9813H22.9349C11.8835 46.9813 1.35852 39.9456 0.26582 28.9483C-0.0942688 25.3242 -0.086494 21.8361 0.276835 18.234Z" fill="#F9584C"/>
<path d="M0.276835 24.1066C1.39512 13.0199 11.9822 5.87256 23.1251 5.87256H124.978C136.038 5.87256 146.572 12.9158 147.678 23.9202C148.044 27.5548 148.04 31.0692 147.669 34.7156C146.547 45.7593 135.994 52.8538 124.893 52.8538H22.9349C11.8835 52.8538 1.35852 45.8181 0.26582 34.8208C-0.0942688 31.1968 -0.086494 27.7086 0.276835 24.1066Z" fill="#BA112E"/>
<path d="M0.276835 21.1703C1.39512 10.0836 11.9822 2.93628 23.1251 2.93628H124.978C136.038 2.93628 146.572 9.97952 147.678 20.9839C148.044 24.6186 148.04 28.133 147.669 31.7794C146.547 42.823 135.994 49.9176 124.893 49.9176H22.9349C11.8835 49.9176 1.35852 42.8818 0.26582 31.8846C-0.0942688 28.2605 -0.086494 24.7723 0.276835 21.1703Z" fill="url(#paint0_linear_3_2915)"/>
<g filter="url(#filter0_dd_3_2915)">
<path d="M45.0488 22.2761C45.0488 23.0183 44.9994 23.7543 44.9004 24.4841C44.8014 25.2016 44.6839 25.9128 44.5479 26.6179C44.5107 26.8035 44.4551 27.1065 44.3809 27.5271C44.3066 27.9353 44.2139 28.393 44.1025 28.9001C44.0036 29.4073 43.8799 29.933 43.7315 30.4773C43.583 31.0216 43.416 31.5164 43.2305 31.9617C43.0573 32.407 42.8594 32.7781 42.6367 33.075C42.4264 33.3595 42.1976 33.5017 41.9502 33.5017C41.7028 33.5017 41.4616 33.378 41.2266 33.1306C41.0039 32.8832 40.7936 32.574 40.5957 32.2029C40.4102 31.8194 40.237 31.3927 40.0762 30.9226C39.9154 30.4526 39.7731 30.0011 39.6494 29.5681C39.5381 29.1228 39.4391 28.7208 39.3525 28.3621C39.2783 27.991 39.2227 27.7126 39.1856 27.5271C39.1361 27.6879 39.0557 27.9477 38.9443 28.3064C38.8454 28.6528 38.7155 29.0486 38.5547 29.4939C38.3939 29.9268 38.2145 30.3722 38.0166 30.8298C37.8187 31.2875 37.6084 31.7081 37.3857 32.0916C37.1755 32.475 36.9528 32.7904 36.7178 33.0378C36.4828 33.2852 36.2477 33.4089 36.0127 33.4089C35.7035 33.4089 35.4313 33.2729 35.1963 33.0007C34.9613 32.7286 34.7634 32.3822 34.6025 31.9617C34.4417 31.5287 34.3057 31.0525 34.1943 30.533C34.083 30.0011 33.9964 29.4815 33.9346 28.9744C33.8727 28.4548 33.8232 27.9724 33.7861 27.5271C33.749 27.0818 33.7243 26.7292 33.7119 26.4695C33.6748 25.8757 33.6377 25.2944 33.6006 24.7253C33.5759 24.1563 33.5635 23.575 33.5635 22.9812C33.5635 22.7709 33.5697 22.4864 33.582 22.1277C33.5944 21.7566 33.6377 21.3979 33.7119 21.0515C33.7985 20.6928 33.9222 20.3835 34.083 20.1238C34.2562 19.8516 34.5036 19.7032 34.8252 19.6785C35.0973 19.6661 35.3324 19.7774 35.5303 20.0125C35.7282 20.2475 35.8952 20.5629 36.0313 20.9587C36.1673 21.3422 36.2725 21.7751 36.3467 22.2576C36.4333 22.7276 36.4951 23.1853 36.5322 23.6306C36.5817 24.0759 36.6126 24.4841 36.625 24.8552C36.6374 25.2263 36.6374 25.4985 36.625 25.6716L36.6065 26.1541C36.6436 25.9932 36.7054 25.7397 36.792 25.3933C36.891 25.047 37.0085 24.6573 37.1445 24.2244C37.2806 23.7791 37.4229 23.3276 37.5713 22.8699C37.7321 22.3998 37.8991 21.9731 38.0723 21.5896C38.2455 21.2061 38.4186 20.8907 38.5918 20.6433C38.765 20.3835 38.932 20.2475 39.0928 20.2351C39.3031 20.2227 39.501 20.3464 39.6865 20.6062C39.8844 20.866 40.0576 21.2061 40.2061 21.6267C40.3669 22.0349 40.5091 22.4926 40.6328 22.9998C40.7565 23.5069 40.8617 24.0017 40.9482 24.4841C41.0472 24.9542 41.1214 25.3809 41.1709 25.7644C41.2204 26.1479 41.2575 26.42 41.2822 26.5808C41.2946 26.3829 41.3255 26.0736 41.375 25.6531C41.4245 25.2201 41.4925 24.7439 41.5791 24.2244C41.6657 23.6925 41.7708 23.1544 41.8945 22.6101C42.0306 22.0535 42.1852 21.5463 42.3584 21.0886C42.5316 20.6309 42.7295 20.2598 42.9522 19.9753C43.1748 19.6785 43.4222 19.53 43.6943 19.53C44.0036 19.53 44.251 19.6352 44.4365 19.8455C44.6221 20.0434 44.7581 20.2908 44.8447 20.5876C44.9313 20.8722 44.987 21.1752 45.0117 21.4968C45.0365 21.8061 45.0488 22.0658 45.0488 22.2761ZM49.3525 20.2166C49.3525 20.3897 49.3031 20.5444 49.2041 20.6804C49.1175 20.8165 49 20.9402 48.8516 21.0515C48.7031 21.1505 48.5423 21.2309 48.3691 21.2927C48.196 21.3422 48.0352 21.3669 47.8867 21.3669C47.6393 21.3669 47.4229 21.3051 47.2373 21.1814C47.0518 21.0577 46.959 20.866 46.959 20.6062C46.959 20.4207 47.0023 20.2598 47.0889 20.1238C47.1878 19.9753 47.3053 19.8578 47.4414 19.7712C47.5775 19.6723 47.7321 19.5981 47.9053 19.5486C48.0785 19.4991 48.2455 19.4744 48.4063 19.4744C48.6413 19.4744 48.8578 19.53 49.0557 19.6414C49.2536 19.7527 49.3525 19.9444 49.3525 20.2166ZM49.501 26.5251C49.501 26.6983 49.501 26.8839 49.501 27.0818C49.501 27.2673 49.4948 27.4467 49.4824 27.6199C49.4701 27.8302 49.4639 28.1147 49.4639 28.4734C49.4639 28.8197 49.4515 29.197 49.4268 29.6052C49.402 30.0134 49.3587 30.4278 49.2969 30.8484C49.2474 31.269 49.1608 31.6524 49.0371 31.9988C48.9134 32.3451 48.7464 32.6296 48.5361 32.8523C48.3382 33.0626 48.0846 33.1739 47.7754 33.1863C47.5404 33.1986 47.3425 33.1059 47.1816 32.908C47.0208 32.71 46.8848 32.4565 46.7734 32.1472C46.6745 31.8256 46.6003 31.4731 46.5508 31.0896C46.5013 30.6938 46.4642 30.3165 46.4395 29.9578C46.4147 29.5867 46.4024 29.2465 46.4024 28.9373C46.4024 28.628 46.4024 28.3992 46.4024 28.2507C46.4024 28.0528 46.4024 27.7745 46.4024 27.4158C46.4024 27.0447 46.4147 26.6488 46.4395 26.2283C46.4642 25.8077 46.5075 25.3809 46.5693 24.948C46.6436 24.5151 46.7425 24.1192 46.8662 23.7605C47.0023 23.4018 47.1755 23.1111 47.3857 22.8884C47.596 22.6658 47.862 22.5544 48.1836 22.5544C48.5176 22.5544 48.7712 22.7214 48.9443 23.0554C49.1175 23.3894 49.2474 23.7791 49.334 24.2244C49.4206 24.6697 49.4701 25.115 49.4824 25.5603C49.4948 25.9932 49.501 26.3149 49.501 26.5251ZM59.3154 20.9587C59.3154 21.8617 59.2783 22.7585 59.2041 23.6492C59.1423 24.5398 59.1113 25.4366 59.1113 26.3396C59.1113 27.0694 59.1299 27.7931 59.167 28.5105C59.2165 29.2279 59.2412 29.9516 59.2412 30.6814C59.2412 30.8793 59.235 31.1205 59.2227 31.405C59.2103 31.6772 59.167 31.9431 59.0928 32.2029C59.0309 32.4626 58.9196 32.6853 58.7588 32.8708C58.6104 33.0564 58.3939 33.1492 58.1094 33.1492C57.7383 33.1492 57.429 33.0131 57.1816 32.741C56.9466 32.4565 56.7982 32.141 56.7363 31.7947C56.5013 32.24 56.1611 32.6173 55.7158 32.9265C55.2705 33.2358 54.7881 33.3904 54.2686 33.3904C53.7119 33.3904 53.2295 33.1986 52.8213 32.8152C52.4255 32.4317 52.0915 31.9679 51.8193 31.4236C51.5596 30.8793 51.3617 30.3103 51.2256 29.7166C51.1019 29.1228 51.04 28.6095 51.04 28.1765C51.04 27.8673 51.0586 27.5147 51.0957 27.1189C51.1328 26.7231 51.1947 26.321 51.2813 25.9128C51.3802 25.5046 51.5039 25.1088 51.6524 24.7253C51.8008 24.3295 51.9863 23.977 52.209 23.6677C52.444 23.3585 52.7162 23.1111 53.0254 22.9255C53.347 22.74 53.7119 22.6472 54.1201 22.6472C54.5654 22.6472 54.9922 22.7771 55.4004 23.0369C55.8086 23.2966 56.1178 23.6182 56.3281 24.0017L56.4951 21.0515C56.5075 20.8165 56.526 20.5444 56.5508 20.2351C56.5755 19.9135 56.625 19.6104 56.6992 19.3259C56.7858 19.0414 56.9157 18.8002 57.0889 18.6023C57.2621 18.4044 57.5156 18.3054 57.8496 18.3054C58.2083 18.3054 58.4867 18.392 58.6846 18.5652C58.8825 18.7384 59.0247 18.961 59.1113 19.2332C59.2103 19.4929 59.266 19.7774 59.2783 20.0867C59.3031 20.3959 59.3154 20.6866 59.3154 20.9587ZM56.291 29.197C56.291 28.9125 56.2848 28.6342 56.2725 28.3621C56.2601 28.0899 56.2601 27.8116 56.2725 27.5271C56.1982 27.3663 56.1117 27.1931 56.0127 27.0076C55.9137 26.8097 55.79 26.6303 55.6416 26.4695C55.5055 26.2963 55.3509 26.1541 55.1777 26.0427C55.0046 25.9314 54.819 25.8757 54.6211 25.8757C54.3984 25.8757 54.2191 25.9438 54.083 26.0798C53.9469 26.2159 53.848 26.3829 53.7861 26.5808C53.7243 26.7664 53.681 26.9705 53.6563 27.1931C53.6439 27.4158 53.6377 27.6075 53.6377 27.7683C53.6377 27.9167 53.6501 28.1394 53.6748 28.4363C53.6996 28.7208 53.7428 29.0115 53.8047 29.3083C53.8789 29.6052 53.9779 29.865 54.1016 30.0876C54.2253 30.3103 54.3923 30.4216 54.6025 30.4216C54.7634 30.4216 54.9242 30.3907 55.085 30.3289C55.2458 30.2546 55.3942 30.1681 55.5303 30.0691C55.6787 29.9578 55.8148 29.8403 55.9385 29.7166C56.0746 29.5805 56.1921 29.4568 56.291 29.3455V29.197ZM65.3633 33.8357C64.485 33.8357 63.7985 33.7182 63.3037 33.4832C62.8213 33.2605 62.4564 32.9389 62.209 32.5183C61.974 32.0977 61.8317 31.5906 61.7822 30.9968C61.7328 30.4031 61.708 29.7413 61.708 29.0115C61.708 28.4301 61.7266 27.8487 61.7637 27.2673C61.8008 26.6736 61.8565 26.0427 61.9307 25.3748C61.7575 25.3748 61.6214 25.3809 61.5225 25.3933C61.4235 25.3933 61.3431 25.3933 61.2813 25.3933C60.8854 25.3933 60.5453 25.3067 60.2607 25.1335C59.9639 24.9604 59.8154 24.6944 59.8154 24.3357C59.8154 24.113 59.902 23.9151 60.0752 23.7419C60.236 23.5688 60.4463 23.4203 60.7061 23.2966C60.9658 23.1729 61.2441 23.074 61.541 22.9998C61.8503 22.9255 62.141 22.8761 62.4131 22.8513C62.4131 22.505 62.4378 22.1215 62.4873 21.7009C62.5368 21.2804 62.6234 20.8907 62.7471 20.532C62.8831 20.1609 63.0625 19.8516 63.2852 19.6042C63.5078 19.3569 63.7923 19.2332 64.1387 19.2332C64.3366 19.2332 64.5098 19.295 64.6582 19.4187C64.819 19.53 64.9489 19.6785 65.0479 19.864C65.1468 20.0372 65.221 20.2351 65.2705 20.4578C65.32 20.6804 65.3447 20.8969 65.3447 21.1072C65.3447 21.3546 65.3262 21.6082 65.2891 21.8679C65.252 22.1277 65.1839 22.4493 65.085 22.8328C65.2953 22.808 65.4375 22.7957 65.5117 22.7957C65.5859 22.7833 65.654 22.7771 65.7158 22.7771C65.9261 22.7771 66.1426 22.7957 66.3652 22.8328C66.6003 22.8699 66.8106 22.9317 66.9961 23.0183C67.194 23.1049 67.3548 23.2224 67.4785 23.3708C67.6022 23.5069 67.6641 23.6739 67.6641 23.8718C67.6641 24.0945 67.5713 24.2924 67.3857 24.4656C67.2126 24.6388 66.9899 24.7872 66.7178 24.9109C66.4456 25.0346 66.155 25.1335 65.8457 25.2078C65.5365 25.2696 65.2458 25.3129 64.9736 25.3376C64.8994 25.8448 64.8438 26.3149 64.8066 26.7478C64.7819 27.1684 64.751 27.5951 64.7139 28.0281C64.6891 28.2384 64.6644 28.4548 64.6397 28.6775C64.6273 28.8878 64.6211 29.1042 64.6211 29.3269C64.6211 29.4877 64.6273 29.6794 64.6397 29.9021C64.652 30.1124 64.6953 30.3165 64.7695 30.5144C64.8438 30.7123 64.9613 30.8855 65.1221 31.0339C65.2829 31.17 65.5055 31.238 65.79 31.238C65.9632 31.238 66.1426 31.2257 66.3281 31.2009C66.5137 31.1638 66.6992 31.1453 66.8848 31.1453C67.2064 31.1453 67.4352 31.2566 67.5713 31.4792C67.7197 31.7019 67.794 31.9864 67.794 32.3328C67.794 32.5925 67.7135 32.8214 67.5527 33.0193C67.4043 33.2048 67.2126 33.3533 66.9775 33.4646C66.7425 33.5883 66.4766 33.6811 66.1797 33.7429C65.8952 33.8048 65.6231 33.8357 65.3633 33.8357ZM77.0889 28.3621C77.0889 28.5723 77.0827 28.8878 77.0703 29.3083C77.0703 29.7166 77.0518 30.1495 77.0147 30.6072C76.9899 31.0525 76.9528 31.4792 76.9033 31.8875C76.8538 32.2833 76.792 32.574 76.7178 32.7595C76.6188 32.9945 76.4889 33.1986 76.3281 33.3718C76.1673 33.545 75.9509 33.6316 75.6787 33.6316C75.2581 33.6316 74.9551 33.4646 74.7695 33.1306C74.584 32.7966 74.4603 32.3822 74.3984 31.8875C74.3366 31.3927 74.3119 30.8546 74.3242 30.2732C74.3366 29.6918 74.3304 29.1537 74.3057 28.6589C74.2809 28.1641 74.2129 27.7498 74.1016 27.4158C73.9902 27.0818 73.7861 26.9148 73.4893 26.9148C73.0811 26.9148 72.7656 26.9828 72.543 27.1189C72.3327 27.2426 72.1781 27.4096 72.0791 27.6199C71.9925 27.8302 71.9369 28.0714 71.9121 28.3435C71.8997 28.6156 71.8812 28.9001 71.8565 29.197C71.8317 29.4815 71.8132 29.865 71.8008 30.3474C71.7884 30.8298 71.7328 31.3061 71.6338 31.7761C71.5348 32.2462 71.3678 32.6544 71.1328 33.0007C70.9102 33.3347 70.5762 33.5017 70.1309 33.5017C69.8587 33.5017 69.6361 33.3966 69.4629 33.1863C69.3021 32.976 69.1722 32.7039 69.0732 32.3699C68.9743 32.0359 68.9001 31.6648 68.8506 31.2566C68.8135 30.8484 68.7887 30.4526 68.7764 30.0691C68.7764 29.6733 68.7764 29.3145 68.7764 28.9929C68.7887 28.6713 68.7949 28.4301 68.7949 28.2693C68.7949 28.0219 68.8011 27.6137 68.8135 27.0447C68.8382 26.4757 68.8815 25.8448 68.9434 25.1521C69.0052 24.447 69.0856 23.7234 69.1846 22.9812C69.2835 22.239 69.4134 21.5649 69.5742 20.9587C69.735 20.3403 69.9268 19.8393 70.1494 19.4558C70.3844 19.0723 70.6566 18.8868 70.9658 18.8992C71.1637 18.9115 71.3307 18.9981 71.4668 19.1589C71.6152 19.3197 71.7328 19.53 71.8193 19.7898C71.9183 20.0372 71.9987 20.3093 72.0606 20.6062C72.1224 20.9031 72.1657 21.2 72.1904 21.4968C72.2275 21.7813 72.2461 22.0473 72.2461 22.2947C72.2585 22.5421 72.2647 22.7338 72.2647 22.8699C72.2647 23.1915 72.2585 23.5131 72.2461 23.8347C72.2337 24.1563 72.2152 24.4779 72.1904 24.7996C72.4749 24.4161 72.8522 24.1007 73.3223 23.8533C73.8047 23.6059 74.2871 23.4822 74.7695 23.4822C75.388 23.4822 75.8519 23.6554 76.1611 24.0017C76.4828 24.3357 76.7116 24.7563 76.8477 25.2634C76.9837 25.7582 77.058 26.2901 77.0703 26.8591C77.0827 27.4158 77.0889 27.9167 77.0889 28.3621ZM85.3447 26.2283C85.1716 26.2406 85.0231 26.2283 84.8994 26.1912C84.7757 26.1417 84.652 26.0922 84.5283 26.0427C84.417 25.9932 84.3057 25.95 84.1943 25.9128C84.083 25.8634 83.9593 25.8448 83.8232 25.8572C83.5759 25.8695 83.3532 25.9376 83.1553 26.0613C82.9697 26.185 82.7966 26.3396 82.6357 26.5251C82.4873 26.7107 82.3574 26.921 82.2461 27.156C82.1348 27.3787 82.0482 27.6013 81.9863 27.824C81.9492 27.9724 81.9183 28.2013 81.8936 28.5105C81.8812 28.8074 81.875 29.129 81.875 29.4753C81.8626 29.8341 81.8565 30.1742 81.8565 30.4958C81.8565 30.8175 81.8441 31.071 81.8193 31.2566C81.807 31.4545 81.776 31.6895 81.7266 31.9617C81.6771 32.2214 81.5967 32.4688 81.4854 32.7039C81.3864 32.9389 81.2503 33.1368 81.0772 33.2976C80.904 33.4584 80.6813 33.5388 80.4092 33.5388C80.1989 33.5388 80.0134 33.477 79.8525 33.3533C79.7041 33.2296 79.5742 33.0688 79.4629 32.8708C79.3639 32.6606 79.2774 32.4194 79.2031 32.1472C79.1413 31.8751 79.0918 31.5968 79.0547 31.3123C79.0176 31.0154 78.9867 30.7185 78.9619 30.4216C78.9496 30.1248 78.9372 29.8464 78.9248 29.5867C78.9248 29.3145 78.9248 29.0671 78.9248 28.8445C78.9372 28.6218 78.9434 28.4425 78.9434 28.3064C78.931 27.8735 78.9063 27.4405 78.8691 27.0076C78.8444 26.5623 78.832 26.1231 78.832 25.6902C78.832 25.4181 78.8444 25.115 78.8691 24.781C78.8939 24.447 78.9619 24.1378 79.0732 23.8533C79.1846 23.5564 79.3454 23.309 79.5557 23.1111C79.7783 22.9132 80.0814 22.8142 80.4649 22.8142C80.6751 22.8142 80.8545 22.8822 81.0029 23.0183C81.1514 23.1544 81.2689 23.3214 81.3555 23.5193C81.4544 23.7172 81.5287 23.9275 81.5781 24.1501C81.6276 24.3728 81.6585 24.5769 81.6709 24.7625C81.9678 24.28 82.3018 23.8904 82.6729 23.5935C83.044 23.2843 83.5264 23.1173 84.1201 23.0925C84.417 23.0802 84.7077 23.1111 84.9922 23.1853C85.2891 23.2472 85.555 23.3585 85.79 23.5193C86.0374 23.6677 86.2354 23.8656 86.3838 24.113C86.5446 24.3604 86.6312 24.6511 86.6436 24.9851C86.6683 25.3809 86.5508 25.684 86.291 25.8943C86.0313 26.1046 85.7158 26.2159 85.3447 26.2283ZM95.3076 30.5515C95.3076 30.7742 95.2953 31.0649 95.2705 31.4236C95.2581 31.7823 95.2087 32.1348 95.1221 32.4812C95.0355 32.8152 94.8994 33.1059 94.7139 33.3533C94.5283 33.6007 94.2686 33.7244 93.9346 33.7244C93.4769 33.7244 93.1244 33.5759 92.877 33.2791C92.6296 32.9822 92.5121 32.6111 92.5244 32.1658C92.1286 32.5121 91.6771 32.7843 91.1699 32.9822C90.6751 33.1801 90.168 33.2791 89.6484 33.2791C89.2897 33.2791 88.9496 33.1925 88.6279 33.0193C88.3063 32.8461 88.0218 32.6235 87.7744 32.3513C87.527 32.0792 87.3291 31.7761 87.1807 31.4421C87.0322 31.0958 86.958 30.7556 86.958 30.4216C86.958 29.8279 87.1374 29.3083 87.4961 28.863C87.8672 28.4177 88.3187 28.0404 88.8506 27.7312C89.3825 27.4096 89.9453 27.156 90.5391 26.9705C91.1452 26.7849 91.6833 26.6612 92.1533 26.5994C92.1533 26.5375 92.1533 26.4819 92.1533 26.4324C92.1657 26.3829 92.1719 26.3272 92.1719 26.2654C92.1719 25.8819 92.0667 25.5727 91.8565 25.3376C91.6462 25.1026 91.3493 24.9851 90.9658 24.9851C90.6566 24.9851 90.3906 25.0408 90.168 25.1521C89.9453 25.2511 89.735 25.3686 89.5371 25.5046C89.3392 25.6283 89.1413 25.7458 88.9434 25.8572C88.7455 25.9561 88.5228 26.0056 88.2754 26.0056C88.0033 26.0056 87.7682 25.919 87.5703 25.7458C87.3848 25.5727 87.292 25.35 87.292 25.0779C87.292 24.6697 87.4095 24.2986 87.6445 23.9646C87.8919 23.6306 88.195 23.3523 88.5537 23.1296C88.9248 22.8946 89.3206 22.7153 89.7412 22.5916C90.1742 22.4555 90.57 22.3875 90.9287 22.3875C91.2627 22.3875 91.5967 22.4307 91.9307 22.5173C92.2647 22.5916 92.5801 22.7153 92.877 22.8884C93.1738 23.0492 93.4398 23.2533 93.6748 23.5007C93.9222 23.7358 94.1201 24.0141 94.2686 24.3357C94.4912 24.7934 94.6706 25.282 94.8066 25.8015C94.9427 26.3087 95.0479 26.8344 95.1221 27.3787C95.1963 27.9106 95.2458 28.4486 95.2705 28.9929C95.2953 29.5248 95.3076 30.0444 95.3076 30.5515ZM92.3389 29.9578L92.2832 28.696C92.2585 28.696 92.2337 28.696 92.209 28.696C92.1843 28.6837 92.1595 28.6775 92.1348 28.6775C91.974 28.6775 91.7699 28.7208 91.5225 28.8074C91.2874 28.8816 91.0586 28.9929 90.8359 29.1414C90.6133 29.2774 90.4216 29.432 90.2607 29.6052C90.1123 29.7784 90.0381 29.9578 90.0381 30.1433C90.0381 30.3165 90.0999 30.434 90.2236 30.4958C90.3473 30.5577 90.4896 30.5886 90.6504 30.5886C90.9225 30.5886 91.2132 30.5206 91.5225 30.3845C91.8317 30.2361 92.1038 30.0938 92.3389 29.9578ZM106.161 33.4089C105.765 33.4089 105.407 33.1986 105.085 32.7781C104.776 32.3575 104.504 31.8565 104.269 31.2751C104.034 30.6814 103.836 30.0753 103.675 29.4568C103.526 28.8383 103.415 28.325 103.341 27.9167C103.242 28.1641 103.106 28.4672 102.933 28.8259C102.772 29.1847 102.58 29.5619 102.357 29.9578C102.147 30.3536 101.918 30.7556 101.671 31.1638C101.424 31.5597 101.164 31.9184 100.892 32.24C100.632 32.5616 100.366 32.8214 100.094 33.0193C99.834 33.2172 99.5804 33.3162 99.333 33.3162C98.999 33.3162 98.7022 33.1554 98.4424 32.8337C98.195 32.5121 97.9847 32.0916 97.8115 31.572C97.6384 31.0525 97.4899 30.4773 97.3662 29.8464C97.2549 29.2156 97.1683 28.5847 97.1065 27.9539C97.0446 27.323 97.0013 26.7354 96.9766 26.1912C96.9518 25.6469 96.9395 25.2078 96.9395 24.8738C96.9395 24.5645 96.9518 24.2677 96.9766 23.9832C97.0137 23.6986 97.0755 23.4451 97.1621 23.2224C97.2611 22.9998 97.3971 22.8266 97.5703 22.7029C97.7559 22.5668 97.9971 22.4988 98.294 22.4988C98.5785 22.4988 98.8197 22.6039 99.0176 22.8142C99.2279 23.0245 99.401 23.3028 99.5371 23.6492C99.6732 23.9832 99.7845 24.3666 99.8711 24.7996C99.9577 25.2201 100.026 25.6531 100.075 26.0984C100.125 26.5313 100.156 26.9581 100.168 27.3787C100.193 27.7869 100.211 28.1394 100.224 28.4363C100.298 28.1765 100.403 27.8611 100.539 27.49C100.675 27.1065 100.824 26.7045 100.984 26.2839C101.145 25.851 101.318 25.4242 101.504 25.0037C101.702 24.5831 101.894 24.2058 102.079 23.8718C102.277 23.5378 102.469 23.2657 102.654 23.0554C102.84 22.8451 103.019 22.74 103.192 22.74H103.211C103.434 22.74 103.65 22.8451 103.86 23.0554C104.071 23.2657 104.275 23.5378 104.473 23.8718C104.671 24.2058 104.856 24.5893 105.029 25.0222C105.202 25.4428 105.363 25.8757 105.512 26.321C105.66 26.754 105.79 27.1807 105.901 27.6013C106.013 28.0095 106.105 28.3621 106.18 28.6589C106.192 28.3002 106.211 27.8982 106.235 27.4529C106.26 26.9952 106.303 26.5375 106.365 26.0798C106.439 25.6222 106.532 25.1768 106.644 24.7439C106.767 24.311 106.916 23.9275 107.089 23.5935C107.262 23.2472 107.472 22.975 107.72 22.7771C107.979 22.5668 108.276 22.4617 108.61 22.4617C108.957 22.4617 109.21 22.5854 109.371 22.8328C109.544 23.0678 109.631 23.3585 109.631 23.7048C109.631 24.0759 109.581 24.5707 109.482 25.1892C109.396 25.8077 109.272 26.4819 109.111 27.2117C108.951 27.9291 108.759 28.6589 108.536 29.4011C108.326 30.1309 108.091 30.7927 107.831 31.3865C107.571 31.9802 107.299 32.4688 107.015 32.8523C106.73 33.2234 106.446 33.4089 106.161 33.4089ZM114.621 21.9236C114.621 22.5916 114.59 23.2657 114.528 23.946C114.479 24.614 114.454 25.2882 114.454 25.9685C114.454 26.8468 114.479 27.725 114.528 28.6033C114.59 29.4815 114.621 30.366 114.621 31.2566C114.621 31.4792 114.609 31.7328 114.584 32.0173C114.559 32.2895 114.497 32.5431 114.398 32.7781C114.312 33.0131 114.176 33.211 113.99 33.3718C113.805 33.5326 113.557 33.613 113.248 33.613C112.951 33.613 112.691 33.4646 112.469 33.1677C112.258 32.8832 112.079 32.5183 111.931 32.073C111.795 31.6153 111.677 31.1082 111.578 30.5515C111.492 29.9949 111.424 29.4568 111.374 28.9373C111.337 28.4054 111.306 27.9229 111.281 27.49C111.269 27.0447 111.263 26.7169 111.263 26.5066C111.263 26.2716 111.269 25.9314 111.281 25.4861C111.306 25.0408 111.349 24.5583 111.411 24.0388C111.473 23.5193 111.553 22.9936 111.652 22.4617C111.764 21.9174 111.906 21.4288 112.079 20.9958C112.252 20.5505 112.456 20.1918 112.691 19.9197C112.939 19.6352 113.229 19.4929 113.563 19.4929C113.836 19.4929 114.04 19.5857 114.176 19.7712C114.324 19.9444 114.429 20.1609 114.491 20.4207C114.553 20.6681 114.59 20.934 114.603 21.2185C114.615 21.4906 114.621 21.7257 114.621 21.9236Z" fill="white"/>
</g>
<ellipse rx="3.43713" ry="1.42515" transform="matrix(0.975254 -0.221089 0.128193 0.991749 14.9194 7.65934)" fill="white" fill-opacity="0.5"/>
</svg>
