<svg width="374" height="327" viewBox="0 0 374 327" fill="none" xmlns="http://www.w3.org/2000/svg">
<g opacity="0.8">
<mask id="path-1-inside-1_1687_10092" fill="white">
<path d="M17 30C17 21.7157 23.7157 15 32 15H342C350.284 15 357 21.7157 357 30V312C357 320.284 350.284 327 342 327H32C23.7157 327 17 320.284 17 312V30Z"/>
</mask>
<path d="M17 30C17 21.7157 23.7157 15 32 15H342C350.284 15 357 21.7157 357 30V312C357 320.284 350.284 327 342 327H32C23.7157 327 17 320.284 17 312V30Z" fill="black" fill-opacity="0.2"/>
<path d="M16 29C16 20.1634 23.1634 13 32 13H342C350.837 13 358 20.1634 358 29L356 30C356 22.8203 349.732 17 342 17H32C24.268 17 18 22.8203 18 30L16 29ZM358 314C358 322.837 350.837 330 342 330H32C23.1634 330 16 322.837 16 314L18 312C18 318.627 24.268 324 32 324H342C349.732 324 356 318.627 356 312L358 314ZM32 330C23.1634 330 16 322.837 16 314V29C16 20.1634 23.1634 13 32 13V17C24.268 17 18 22.8203 18 30V312C18 318.627 24.268 324 32 324V330ZM342 13C350.837 13 358 20.1634 358 29V314C358 322.837 350.837 330 342 330V324C349.732 324 356 318.627 356 312V30C356 22.8203 349.732 17 342 17V13Z" fill="url(#paint0_linear_1687_10092)" mask="url(#path-1-inside-1_1687_10092)"/>
</g>
<g opacity="0.8" filter="url(#filter0_d_1687_10092)">
<path d="M17 30C17 21.7157 23.7157 15 32 15H342C350.284 15 357 21.7157 357 30V53C213.61 61.8463 139.386 61.6635 17 53V30Z" fill="#3BF5AB" fill-opacity="0.25" shape-rendering="crispEdges"/>
</g>
<defs>
<filter id="filter0_d_1687_10092" x="0" y="0" width="374" height="78.5664" filterUnits="userSpaceOnUse" color-interpolation-filters="sRGB">
<feFlood flood-opacity="0" result="BackgroundImageFix"/>
<feColorMatrix in="SourceAlpha" type="matrix" values="0 0 0 0 0 0 0 0 0 0 0 0 0 0 0 0 0 0 127 0" result="hardAlpha"/>
<feOffset dy="2"/>
<feGaussianBlur stdDeviation="8.5"/>
<feComposite in2="hardAlpha" operator="out"/>
<feColorMatrix type="matrix" values="0 0 0 0 0 0 0 0 0 0 0 0 0 0 0 0 0 0 0.25 0"/>
<feBlend mode="normal" in2="BackgroundImageFix" result="effect1_dropShadow_1687_10092"/>
<feBlend mode="normal" in="SourceGraphic" in2="effect1_dropShadow_1687_10092" result="shape"/>
</filter>
<linearGradient id="paint0_linear_1687_10092" x1="187" y1="15" x2="187" y2="327" gradientUnits="userSpaceOnUse">
<stop stop-color="white" stop-opacity="0.1"/>
<stop offset="1" stop-color="white" stop-opacity="0.14"/>
</linearGradient>
</defs>
</svg>
